M48
; DRILL file {KiCad 6.0.4-6f826c9f35~116~ubuntu20.04.1} date Mon 04 Apr 2022 04:25:12 PM CEST
; FORMAT={-:-/ absolute / inch / decimal}
; #@! TF.CreationDate,2022-04-04T16:25:12+02:00
; #@! TF.GenerationSoftware,Kicad,Pcbnew,6.0.4-6f826c9f35~116~ubuntu20.04.1
; #@! TF.FileFunction,Plated,1,2,PTH
FMAT,2
INCH
; #@! TA.AperFunction,Plated,PTH,ComponentDrill
T1C0.0118
; #@! TA.AperFunction,Plated,PTH,ViaDrill
T2C0.0157
; #@! TA.AperFunction,Plated,PTH,ComponentDrill
T3C0.0315
; #@! TA.AperFunction,Plated,PTH,ComponentDrill
T4C0.0354
; #@! TA.AperFunction,Plated,PTH,ComponentDrill
T5C0.0394
; #@! TA.AperFunction,Plated,PTH,ComponentDrill
T6C0.0400
; #@! TA.AperFunction,Plated,PTH,ComponentDrill
T7C0.0512
; #@! TA.AperFunction,Plated,PTH,ComponentDrill
T8C0.0709
%
G90
G05
T1
X3.1705Y-4.3909
X3.1705Y-4.45
X3.1705Y-4.5091
X3.2295Y-4.3909
X3.2295Y-4.45
X3.2295Y-4.5091
X3.3142Y-3.8071
X3.3142Y-3.8661
X3.3142Y-3.9252
X3.3732Y-3.8071
X3.3732Y-3.8661
X3.3732Y-3.9252
T2
X2.45Y-2.925
X2.45Y-4.125
X2.45Y-4.3
X2.45Y-4.475
X2.46Y-3.38
X2.46Y-3.43
X2.46Y-3.48
X2.475Y-2.275
X2.475Y-2.525
X2.475Y-4.75
X2.525Y-1.975
X2.6Y-3.7
X2.6375Y-3.7375
X2.725Y-4.775
X2.7362Y-2.8346
X2.7362Y-2.8937
X2.7362Y-2.9528
X2.7362Y-3.0118
X2.75Y-3.3
X2.8Y-1.85
X2.8Y-3.35
X2.815Y-3.165
X2.8203Y-2.16
X2.85Y-1.7
X2.85Y-4.9
X2.885Y-3.205
X2.9Y-4.725
X2.9Y-5.025
X2.9023Y-2.1543
X2.95Y-3.28
X2.9516Y-2.1051
X2.9724Y-2.0276
X2.975Y-2.775
X3.0Y-4.15
X3.02Y-3.35
X3.0315Y-1.7913
X3.0315Y-1.8504
X3.0315Y-2.0276
X3.0512Y-1.7323
X3.1Y-3.325
X3.1Y-4.3
X3.1Y-4.7
X3.1004Y-1.6831
X3.15Y-2.8
X3.17Y-3.38
X3.1815Y-1.661
X3.19Y-3.52
X3.225Y-2.15
X3.225Y-3.7
X3.225Y-4.05
X3.2602Y-1.661
X3.31Y-3.52
X3.3122Y-4.1748
X3.35Y-2.1
X3.3586Y-1.661
X3.375Y-3.125
X3.4Y-2.7
X3.4Y-2.925
X3.4122Y-4.7348
X3.4571Y-1.661
X3.46Y-4.735
X3.4747Y-4.3747
X3.4747Y-4.4247
X3.475Y-4.325
X3.475Y-4.475
X3.475Y-5.05
X3.5247Y-4.4247
X3.525Y-3.275
X3.525Y-4.325
X3.525Y-4.375
X3.525Y-4.475
X3.55Y-2.15
X3.5555Y-1.661
X3.5746Y-4.4247
X3.575Y-4.325
X3.575Y-4.375
X3.575Y-4.475
X3.625Y-3.8
X3.625Y-3.85
X3.625Y-3.9
X3.625Y-3.95
X3.625Y-4.325
X3.625Y-4.375
X3.625Y-4.425
X3.625Y-4.475
X3.625Y-4.9
X3.65Y-2.83
X3.65Y-2.9
X3.6539Y-1.661
X3.675Y-2.765
X3.675Y-3.8
X3.675Y-3.85
X3.675Y-3.9
X3.675Y-3.95
X3.7247Y-3.9497
X3.725Y-3.8
X3.725Y-3.85
X3.725Y-3.9
X3.73Y-2.71
X3.7523Y-1.661
X3.775Y-3.8
X3.775Y-3.85
X3.775Y-3.9
X3.775Y-3.95
X3.775Y-5.05
X3.79Y-2.7
X3.8508Y-1.661
X3.8616Y-2.3384
X3.92Y-2.34
X3.925Y-3.775
X3.9445Y-1.7642
X3.9445Y-1.8429
X3.9445Y-2.0397
X3.9492Y-1.661
X3.95Y-2.7
X3.95Y-3.55
X3.95Y-3.625
X3.95Y-3.7
X3.9622Y-3.8976
X3.9764Y-4.0195
X3.98Y-2.34
X4.0197Y-2.6803
X4.025Y-5.05
X4.0476Y-1.661
X4.0522Y-4.7248
X4.08Y-2.66
X4.146Y-1.661
X4.15Y-2.15
X4.17Y-2.66
X4.24Y-2.66
X4.2445Y-1.661
X4.275Y-2.1
X4.318Y-2.662
X4.3372Y-3.1498
X4.3429Y-1.661
X4.375Y-3.925
X4.38Y-2.54
X4.4Y-3.75
X4.4413Y-1.661
X4.45Y-3.7
X4.45Y-4.675
X4.485Y-2.175
X4.525Y-3.65
X4.5397Y-1.661
X4.5872Y-4.2498
X4.625Y-3.525
X4.6372Y-3.2748
X4.6382Y-1.661
X4.65Y-3.4
X4.668Y-2.662
X4.685Y-2.5197
X4.7Y-3.05
X4.7516Y-1.661
X4.76Y-2.66
X4.775Y-4.075
X4.813Y-1.7224
X4.8372Y-3.2248
X4.85Y-2.66
X4.872Y-1.7815
X4.9213Y-1.8307
X4.9213Y-2.0276
X4.94Y-2.66
X4.95Y-3.325
X4.975Y-4.65
X5.0122Y-3.0748
X5.02Y-2.66
X5.025Y-3.325
X5.075Y-3.2548
X5.1Y-2.66
X5.1Y-4.4
X5.1122Y-3.3498
X5.125Y-2.175
X5.1372Y-1.6498
X5.205Y-2.665
X5.225Y-2.1
X5.25Y-2.7
X5.35Y-2.7
X5.3872Y-1.6498
X5.435Y-2.175
X5.48Y-2.7
X5.5Y-4.925
X5.575Y-3.375
X5.5872Y-4.5248
X5.6406Y-2.5994
X5.6622Y-4.7498
X5.675Y-4.925
X5.7122Y-1.6498
X5.7272Y-4.3898
X5.74Y-4.22
X5.74Y-4.26
X5.785Y-4.595
X5.8Y-4.33
X5.8622Y-2.3998
X5.875Y-4.925
X5.8872Y-1.8748
X5.8872Y-2.1998
X5.9372Y-2.7998
X5.9372Y-3.6748
X6.025Y-3.1
X6.1372Y-1.9748
X6.1372Y-2.1998
X6.2122Y-4.5248
X6.225Y-3.725
X6.2372Y-3.5748
T3
X2.6102Y-3.1
X2.7087Y-3.1
X3.0496Y-2.135
X3.0496Y-2.2335
X3.86Y-2.7
X3.86Y-2.7984
X3.9Y-3.2516
X3.9Y-3.35
X4.0138Y-2.1358
X4.0138Y-2.2343
X4.9638Y-2.1358
X4.9638Y-2.2343
T4
X3.05Y-2.6201
X3.05Y-2.9799
X3.05Y-3.1201
X3.05Y-3.4799
X3.1Y-4.85
X3.1Y-4.95
X3.2Y-4.85
X3.2Y-4.95
X3.3Y-4.85
X3.3Y-4.95
X3.4Y-4.85
X3.4Y-4.95
X3.65Y-2.6201
X3.65Y-2.9799
X3.65Y-3.1201
X3.65Y-3.4799
X4.2Y-3.0
X4.2Y-3.1
X4.2Y-3.2
X4.2Y-3.3
X4.2Y-3.4
X4.2Y-3.5
X4.2Y-3.6
X4.2Y-3.7
X4.2Y-3.8
X4.2Y-3.9
X4.2Y-4.0
X4.2Y-4.1
X4.2Y-4.2
X4.2Y-4.3
X4.2Y-4.4
X4.2Y-4.5
X4.2Y-4.6
X4.2Y-4.7
X4.2Y-4.8
X5.2Y-3.0
X5.2Y-3.1
X5.2Y-3.2
X5.2Y-3.3
X5.2Y-3.4
X5.2Y-3.5
X5.2Y-3.6
X5.2Y-3.7
X5.2Y-3.8
X5.2Y-3.9
X5.2Y-4.0
X5.2Y-4.1
X5.2Y-4.2
X5.2Y-4.3
X5.2Y-4.4
X5.2Y-4.5
X5.2Y-4.6
X5.2Y-4.7
X5.2Y-4.8
T5
X2.7Y-3.4516
X2.7Y-3.55
X2.7Y-3.8
X2.7Y-3.8984
X2.7Y-4.15
X2.7Y-4.2484
X2.7Y-4.5
X2.7Y-4.5984
X3.25Y-1.785
X3.35Y-1.785
X3.45Y-1.785
X3.55Y-1.785
X3.65Y-2.0768
X3.65Y-2.2268
X3.75Y-2.0768
X3.75Y-2.2268
X3.75Y-4.55
X3.75Y-4.65
X3.75Y-4.75
X3.75Y-4.85
X3.7872Y-4.1748
X3.7872Y-4.2748
X3.7872Y-4.3748
X3.9372Y-4.1748
X3.9372Y-4.2748
X3.9372Y-4.3748
X3.95Y-4.5504
X3.95Y-4.6504
X3.95Y-4.7504
X3.95Y-4.8504
X4.2004Y-1.785
X4.3004Y-1.785
X4.4004Y-1.785
X4.5004Y-1.785
X4.6Y-2.1
X4.6Y-2.25
X4.7Y-2.1
X4.7Y-2.25
X5.1504Y-1.785
X5.2504Y-1.785
X5.3504Y-1.785
X5.4Y-3.8
X5.4Y-3.9
X5.4Y-4.2
X5.4Y-4.3
X5.4Y-4.4
X5.4Y-4.5
X5.4Y-4.6
X5.4Y-4.7
X5.4372Y-3.4748
X5.4372Y-3.5748
X5.4504Y-1.785
X5.5Y-3.8
X5.5Y-3.9
X5.5372Y-3.4748
X5.5372Y-3.5748
X5.55Y-2.1
X5.55Y-2.25
X5.6Y-3.8
X5.6Y-3.9
X5.6006Y-2.7
X5.6372Y-3.4748
X5.6372Y-3.5748
X5.65Y-2.1
X5.65Y-2.25
X5.7Y-3.8
X5.7Y-3.9
X5.7006Y-2.7
X5.7372Y-3.4748
X5.7372Y-3.5748
X5.8Y-3.8
X5.8Y-3.9
X5.8006Y-2.7
X6.1Y-2.3994
X6.1Y-2.4994
X6.1Y-2.5994
X6.1Y-2.8006
X6.1Y-2.9006
X6.1Y-3.0006
X6.1Y-3.1994
X6.1Y-3.2994
X6.1Y-3.3994
X6.1Y-3.7498
X6.1Y-3.8498
X6.1Y-3.9498
X6.1Y-4.0498
X6.1Y-4.1498
X6.1Y-4.2498
T6
X3.0496Y-1.935
X3.0496Y-2.435
X3.1496Y-1.935
X3.1496Y-2.435
X3.2496Y-1.935
X3.2496Y-2.435
X3.3496Y-1.935
X3.3496Y-2.435
X3.4496Y-1.935
X3.4496Y-2.435
X3.5496Y-1.935
X3.5496Y-2.435
X3.6496Y-1.935
X3.6496Y-2.435
X3.7496Y-1.935
X3.7496Y-2.435
X4.0Y-1.935
X4.0Y-2.435
X4.1Y-1.935
X4.1Y-2.435
X4.2Y-1.935
X4.2Y-2.435
X4.3Y-1.935
X4.3Y-2.435
X4.4Y-1.935
X4.4Y-2.435
X4.5Y-1.935
X4.5Y-2.435
X4.6Y-1.935
X4.6Y-2.435
X4.7Y-1.935
X4.7Y-2.435
X4.95Y-1.935
X4.95Y-2.435
X5.05Y-1.935
X5.05Y-2.435
X5.15Y-1.935
X5.15Y-2.435
X5.25Y-1.935
X5.25Y-2.435
X5.35Y-1.935
X5.35Y-2.435
X5.45Y-1.935
X5.45Y-2.435
X5.55Y-1.935
X5.55Y-2.435
X5.65Y-1.935
X5.65Y-2.435
T7
X2.688Y-2.16
X2.688Y-2.36
T8
X2.5555Y-2.7
X2.7209Y-2.7
T0
M30
