%TF.GenerationSoftware,KiCad,Pcbnew,6.0.4-6f826c9f35~116~ubuntu20.04.1*%
%TF.CreationDate,2022-04-04T16:25:21+02:00*%
%TF.ProjectId,Hydroponics_board_v1,48796472-6f70-46f6-9e69-63735f626f61,rev?*%
%TF.SameCoordinates,Original*%
%TF.FileFunction,Legend,Top*%
%TF.FilePolarity,Positive*%
%FSLAX46Y46*%
G04 Gerber Fmt 4.6, Leading zero omitted, Abs format (unit mm)*
G04 Created by KiCad (PCBNEW 6.0.4-6f826c9f35~116~ubuntu20.04.1) date 2022-04-04 16:25:21*
%MOMM*%
%LPD*%
G01*
G04 APERTURE LIST*
%ADD10C,0.000000*%
%ADD11C,0.150000*%
%ADD12C,0.200000*%
%ADD13C,0.250000*%
%ADD14C,0.254000*%
%ADD15C,0.120000*%
%ADD16C,0.127000*%
G04 APERTURE END LIST*
D10*
G36*
X156306679Y-50114755D02*
G01*
X156320584Y-50115813D01*
X156334287Y-50117555D01*
X156347770Y-50119964D01*
X156361018Y-50123022D01*
X156374011Y-50126713D01*
X156386734Y-50131019D01*
X156399169Y-50135923D01*
X156411299Y-50141408D01*
X156423107Y-50147456D01*
X156434574Y-50154051D01*
X156445685Y-50161175D01*
X156456422Y-50168811D01*
X156466767Y-50176941D01*
X156476704Y-50185549D01*
X156486215Y-50194617D01*
X156495283Y-50204128D01*
X156503891Y-50214065D01*
X156512022Y-50224411D01*
X156519658Y-50235147D01*
X156526781Y-50246258D01*
X156533376Y-50257726D01*
X156539425Y-50269533D01*
X156544909Y-50281663D01*
X156549814Y-50294098D01*
X156554120Y-50306821D01*
X156557811Y-50319815D01*
X156560869Y-50333062D01*
X156563278Y-50346546D01*
X156565020Y-50360249D01*
X156566077Y-50374153D01*
X156566434Y-50388243D01*
X156565822Y-50402332D01*
X156564021Y-50416237D01*
X156561080Y-50429940D01*
X156557048Y-50443423D01*
X156551976Y-50456671D01*
X156545913Y-50469664D01*
X156538909Y-50482387D01*
X156531013Y-50494822D01*
X156522275Y-50506952D01*
X156512745Y-50518760D01*
X156502473Y-50530227D01*
X156491508Y-50541338D01*
X156479900Y-50552075D01*
X156467699Y-50562420D01*
X156454954Y-50572357D01*
X156441716Y-50581868D01*
X156428033Y-50590936D01*
X156413956Y-50599544D01*
X156399534Y-50607675D01*
X156384817Y-50615311D01*
X156369855Y-50622434D01*
X156354697Y-50629029D01*
X156339393Y-50635078D01*
X156323993Y-50640562D01*
X156308546Y-50645467D01*
X156293103Y-50649773D01*
X156277712Y-50653464D01*
X156262424Y-50656522D01*
X156247289Y-50658931D01*
X156232355Y-50660673D01*
X156217673Y-50661730D01*
X156203293Y-50662087D01*
X156189425Y-50661730D01*
X156176237Y-50660673D01*
X156163712Y-50658931D01*
X156151836Y-50656522D01*
X156140592Y-50653464D01*
X156129965Y-50649773D01*
X156119939Y-50645467D01*
X156110499Y-50640562D01*
X156101628Y-50635078D01*
X156093311Y-50629029D01*
X156085533Y-50622434D01*
X156078277Y-50615311D01*
X156071529Y-50607675D01*
X156065271Y-50599544D01*
X156059489Y-50590936D01*
X156054167Y-50581868D01*
X156049289Y-50572357D01*
X156044840Y-50562420D01*
X156040803Y-50552075D01*
X156037164Y-50541338D01*
X156033906Y-50530227D01*
X156031013Y-50518760D01*
X156028470Y-50506952D01*
X156026262Y-50494822D01*
X156022786Y-50469664D01*
X156020458Y-50443423D01*
X156019153Y-50416237D01*
X156018746Y-50388243D01*
X156019103Y-50374154D01*
X156020160Y-50360249D01*
X156021902Y-50346546D01*
X156024311Y-50333062D01*
X156027370Y-50319815D01*
X156031060Y-50306821D01*
X156035366Y-50294098D01*
X156040271Y-50281663D01*
X156045755Y-50269533D01*
X156051804Y-50257726D01*
X156058399Y-50246258D01*
X156065523Y-50235147D01*
X156073158Y-50224411D01*
X156081289Y-50214065D01*
X156089897Y-50204128D01*
X156098965Y-50194617D01*
X156108476Y-50185549D01*
X156118413Y-50176941D01*
X156128758Y-50168811D01*
X156139495Y-50161175D01*
X156150606Y-50154051D01*
X156162073Y-50147456D01*
X156173881Y-50141408D01*
X156186010Y-50135923D01*
X156198445Y-50131019D01*
X156211168Y-50126713D01*
X156224162Y-50123022D01*
X156237410Y-50119964D01*
X156250893Y-50117555D01*
X156264596Y-50115813D01*
X156278501Y-50114755D01*
X156292590Y-50114399D01*
X156306679Y-50114755D01*
G37*
D11*
X90170000Y-102235000D02*
X90170000Y-113665000D01*
X74930000Y-127635000D02*
X74930000Y-102235000D01*
X90170000Y-118110000D02*
X90170000Y-127635000D01*
X74930000Y-127635000D02*
X90170000Y-127635000D01*
D10*
G36*
X156478476Y-53859212D02*
G01*
X156432629Y-53861511D01*
X156385738Y-53862885D01*
X156338105Y-53863201D01*
X156290029Y-53862325D01*
X156241811Y-53860124D01*
X156193751Y-53856463D01*
X156146152Y-53851210D01*
X156099311Y-53844230D01*
X156050484Y-53864180D01*
X156005318Y-53885752D01*
X155963763Y-53908793D01*
X155925766Y-53933149D01*
X155891277Y-53958665D01*
X155860243Y-53985187D01*
X155832612Y-54012561D01*
X155808334Y-54040634D01*
X155787356Y-54069250D01*
X155769627Y-54098257D01*
X155755095Y-54127500D01*
X155743708Y-54156825D01*
X155735415Y-54186078D01*
X155730164Y-54215105D01*
X155727903Y-54243751D01*
X155728581Y-54271863D01*
X155732146Y-54299287D01*
X155738546Y-54325868D01*
X155747730Y-54351453D01*
X155759647Y-54375888D01*
X155774243Y-54399018D01*
X155791468Y-54420689D01*
X155811270Y-54440747D01*
X155833598Y-54459039D01*
X155858399Y-54475410D01*
X155885622Y-54489706D01*
X155915216Y-54501774D01*
X155947128Y-54511458D01*
X155981308Y-54518605D01*
X156017702Y-54523061D01*
X156056260Y-54524672D01*
X156096931Y-54523283D01*
X156101070Y-54539497D01*
X156105895Y-54555247D01*
X156111403Y-54570535D01*
X156117593Y-54585363D01*
X156124462Y-54599734D01*
X156132008Y-54613648D01*
X156140228Y-54627107D01*
X156149120Y-54640113D01*
X156158682Y-54652669D01*
X156168911Y-54664775D01*
X156179805Y-54676433D01*
X156191362Y-54687645D01*
X156203580Y-54698414D01*
X156216455Y-54708740D01*
X156229987Y-54718625D01*
X156244171Y-54728071D01*
X156205439Y-54762811D01*
X156167081Y-54795266D01*
X156129100Y-54825395D01*
X156091498Y-54853155D01*
X156054278Y-54878503D01*
X156017441Y-54901398D01*
X155980990Y-54921796D01*
X155944928Y-54939655D01*
X155909256Y-54954933D01*
X155873977Y-54967587D01*
X155839093Y-54977576D01*
X155804607Y-54984855D01*
X155770521Y-54989384D01*
X155736838Y-54991119D01*
X155703559Y-54990019D01*
X155670687Y-54986040D01*
X155585478Y-54968605D01*
X155506332Y-54945598D01*
X155433096Y-54917320D01*
X155365613Y-54884073D01*
X155303730Y-54846159D01*
X155247292Y-54803878D01*
X155196143Y-54757534D01*
X155150130Y-54707427D01*
X155109097Y-54653860D01*
X155072890Y-54597133D01*
X155041354Y-54537548D01*
X155014334Y-54475408D01*
X154991676Y-54411014D01*
X154973225Y-54344666D01*
X154958826Y-54276668D01*
X154948325Y-54207321D01*
X154941566Y-54136926D01*
X154938396Y-54065786D01*
X154938659Y-53994201D01*
X154942200Y-53922473D01*
X154948866Y-53850904D01*
X154958501Y-53779796D01*
X154970950Y-53709450D01*
X154986059Y-53640168D01*
X155003673Y-53572252D01*
X155023638Y-53506003D01*
X155045798Y-53441723D01*
X155069999Y-53379714D01*
X155096086Y-53320276D01*
X155099595Y-53313141D01*
X156415996Y-53313141D01*
X156416948Y-53337585D01*
X156419156Y-53361631D01*
X156422527Y-53385179D01*
X156426969Y-53408131D01*
X156432389Y-53430389D01*
X156438696Y-53451854D01*
X156445795Y-53472427D01*
X156453596Y-53492010D01*
X156462006Y-53510505D01*
X156470932Y-53527812D01*
X156480282Y-53543834D01*
X156489963Y-53558472D01*
X156499883Y-53571627D01*
X156509949Y-53583200D01*
X156520070Y-53593094D01*
X156530152Y-53601209D01*
X156540104Y-53607448D01*
X156549832Y-53611711D01*
X156559244Y-53613900D01*
X156568249Y-53613916D01*
X156576753Y-53611662D01*
X156580827Y-53609629D01*
X156584864Y-53607098D01*
X156588863Y-53604067D01*
X156592826Y-53600531D01*
X156596751Y-53596485D01*
X156600639Y-53591926D01*
X156604490Y-53586849D01*
X156608304Y-53581251D01*
X156612081Y-53575127D01*
X156615820Y-53568474D01*
X156619522Y-53561287D01*
X156623187Y-53553563D01*
X156626815Y-53545296D01*
X156630405Y-53536484D01*
X156633958Y-53527122D01*
X156637474Y-53517205D01*
X156646985Y-53488038D01*
X156657745Y-53448064D01*
X156668998Y-53399590D01*
X156679983Y-53344924D01*
X156689944Y-53286375D01*
X156698119Y-53226251D01*
X156703753Y-53166859D01*
X156706084Y-53110508D01*
X156704355Y-53059505D01*
X156701731Y-53036730D01*
X156697808Y-53016158D01*
X156692490Y-52998078D01*
X156685683Y-52982777D01*
X156677292Y-52970544D01*
X156667221Y-52961667D01*
X156655378Y-52956436D01*
X156653623Y-52956270D01*
X156641665Y-52955138D01*
X156625989Y-52958063D01*
X156608255Y-52965498D01*
X156588368Y-52977732D01*
X156566233Y-52995054D01*
X156541755Y-53017752D01*
X156514840Y-53046115D01*
X156495878Y-53068442D01*
X156479189Y-53091455D01*
X156464679Y-53115054D01*
X156452258Y-53139142D01*
X156441831Y-53163618D01*
X156433308Y-53188386D01*
X156426595Y-53213347D01*
X156421599Y-53238401D01*
X156418229Y-53263450D01*
X156416393Y-53288396D01*
X156415996Y-53313141D01*
X155099595Y-53313141D01*
X155123905Y-53263713D01*
X155153300Y-53210325D01*
X155184118Y-53160415D01*
X155056554Y-53162507D01*
X154939759Y-53168613D01*
X154833648Y-53178702D01*
X154738136Y-53192741D01*
X154653137Y-53210699D01*
X154578567Y-53232543D01*
X154514338Y-53258241D01*
X154486076Y-53272526D01*
X154460367Y-53287762D01*
X154437201Y-53303946D01*
X154416567Y-53321073D01*
X154398455Y-53339140D01*
X154382853Y-53358143D01*
X154369752Y-53378077D01*
X154359140Y-53398939D01*
X154351007Y-53420725D01*
X154345341Y-53443430D01*
X154342134Y-53467051D01*
X154341373Y-53491583D01*
X154343048Y-53517023D01*
X154347148Y-53543367D01*
X154353663Y-53570611D01*
X154362583Y-53598750D01*
X154387590Y-53657699D01*
X154363329Y-53674394D01*
X154340971Y-53691579D01*
X154320476Y-53709243D01*
X154310914Y-53718252D01*
X154301803Y-53727375D01*
X154293137Y-53736613D01*
X154284911Y-53745963D01*
X154277121Y-53755424D01*
X154269760Y-53764995D01*
X154262824Y-53774674D01*
X154256309Y-53784459D01*
X154250208Y-53794350D01*
X154244517Y-53804344D01*
X154239230Y-53814441D01*
X154234343Y-53824639D01*
X154229850Y-53834936D01*
X154225747Y-53845331D01*
X154218688Y-53866409D01*
X154213126Y-53887862D01*
X154209020Y-53909677D01*
X154206328Y-53931843D01*
X154205011Y-53954349D01*
X154205027Y-53977183D01*
X154113020Y-53932218D01*
X154030286Y-53882626D01*
X153956650Y-53828779D01*
X153891940Y-53771051D01*
X153835983Y-53709814D01*
X153788603Y-53645441D01*
X153749629Y-53578305D01*
X153718887Y-53508778D01*
X153696202Y-53437233D01*
X153681403Y-53364043D01*
X153674315Y-53289581D01*
X153674765Y-53214218D01*
X153682579Y-53138329D01*
X153697584Y-53062286D01*
X153719606Y-52986461D01*
X153748473Y-52911227D01*
X153784009Y-52836957D01*
X153826043Y-52764023D01*
X153874401Y-52692799D01*
X153928909Y-52623657D01*
X153989393Y-52556970D01*
X154055681Y-52493111D01*
X154127598Y-52432451D01*
X154204972Y-52375365D01*
X154287628Y-52322224D01*
X154375394Y-52273402D01*
X154468096Y-52229271D01*
X154565560Y-52190203D01*
X154667613Y-52156573D01*
X154698108Y-52148604D01*
X156413943Y-52148604D01*
X156415300Y-52173323D01*
X156418106Y-52198192D01*
X156422449Y-52223108D01*
X156428418Y-52247969D01*
X156436102Y-52272673D01*
X156445589Y-52297120D01*
X156456968Y-52321206D01*
X156470328Y-52344829D01*
X156485756Y-52367889D01*
X156503342Y-52390283D01*
X156523175Y-52411909D01*
X156551204Y-52439206D01*
X156576578Y-52460936D01*
X156599400Y-52477386D01*
X156619778Y-52488838D01*
X156637817Y-52495578D01*
X156653623Y-52497891D01*
X156667302Y-52496061D01*
X156678960Y-52490372D01*
X156688703Y-52481110D01*
X156696638Y-52468559D01*
X156702869Y-52453003D01*
X156707503Y-52434728D01*
X156710645Y-52414018D01*
X156712403Y-52391157D01*
X156712186Y-52340124D01*
X156707700Y-52283904D01*
X156707516Y-52282527D01*
X157224452Y-52282527D01*
X157258882Y-52336166D01*
X157288538Y-52389930D01*
X157313471Y-52443821D01*
X157333736Y-52497844D01*
X157349384Y-52552002D01*
X157360470Y-52606298D01*
X157367045Y-52660736D01*
X157369163Y-52715319D01*
X157366877Y-52770051D01*
X157360239Y-52824936D01*
X157349302Y-52879976D01*
X157334120Y-52935176D01*
X157314745Y-52990538D01*
X157291231Y-53046067D01*
X157263629Y-53101765D01*
X157231993Y-53157637D01*
X157253033Y-53153762D01*
X157273452Y-53149265D01*
X157293272Y-53144117D01*
X157312515Y-53138289D01*
X157331203Y-53131754D01*
X157349356Y-53124485D01*
X157366996Y-53116453D01*
X157384145Y-53107630D01*
X157400824Y-53097989D01*
X157417055Y-53087501D01*
X157432860Y-53076139D01*
X157448259Y-53063875D01*
X157463274Y-53050680D01*
X157477928Y-53036528D01*
X157492240Y-53021389D01*
X157506234Y-53005237D01*
X157521615Y-52986036D01*
X157536050Y-52966692D01*
X157549528Y-52947221D01*
X157562037Y-52927638D01*
X157573568Y-52907959D01*
X157584108Y-52888198D01*
X157593646Y-52868372D01*
X157602172Y-52848496D01*
X157609674Y-52828584D01*
X157616141Y-52808654D01*
X157621562Y-52788719D01*
X157625926Y-52768795D01*
X157629222Y-52748898D01*
X157631439Y-52729044D01*
X157632564Y-52709247D01*
X157632589Y-52689523D01*
X157631500Y-52669887D01*
X157629288Y-52650355D01*
X157625941Y-52630942D01*
X157621448Y-52611664D01*
X157615797Y-52592536D01*
X157608978Y-52573573D01*
X157600980Y-52554791D01*
X157591791Y-52536205D01*
X157581401Y-52517831D01*
X157569798Y-52499684D01*
X157556970Y-52481779D01*
X157542908Y-52464132D01*
X157527600Y-52446758D01*
X157511034Y-52429673D01*
X157493200Y-52412892D01*
X157474087Y-52396431D01*
X157460553Y-52385602D01*
X157446741Y-52375291D01*
X157432650Y-52365490D01*
X157418283Y-52356197D01*
X157403638Y-52347406D01*
X157388718Y-52339113D01*
X157373522Y-52331313D01*
X157358051Y-52324001D01*
X157342305Y-52317172D01*
X157326286Y-52310823D01*
X157309993Y-52304948D01*
X157293428Y-52299543D01*
X157276591Y-52294603D01*
X157259482Y-52290124D01*
X157242102Y-52286100D01*
X157224452Y-52282527D01*
X156707516Y-52282527D01*
X156699791Y-52224777D01*
X156689309Y-52165017D01*
X156677100Y-52106904D01*
X156664012Y-52052713D01*
X156650892Y-52004723D01*
X156638589Y-51965210D01*
X156627950Y-51936452D01*
X156624071Y-51926680D01*
X156620172Y-51917455D01*
X156616255Y-51908774D01*
X156612316Y-51900634D01*
X156608357Y-51893034D01*
X156604377Y-51885972D01*
X156600374Y-51879444D01*
X156596348Y-51873448D01*
X156592300Y-51867983D01*
X156588227Y-51863046D01*
X156584130Y-51858634D01*
X156580008Y-51854746D01*
X156575861Y-51851378D01*
X156571687Y-51848529D01*
X156567487Y-51846196D01*
X156563259Y-51844377D01*
X156554652Y-51842430D01*
X156545634Y-51842772D01*
X156536293Y-51845300D01*
X156526718Y-51849913D01*
X156516997Y-51856510D01*
X156507219Y-51864987D01*
X156497473Y-51875244D01*
X156487846Y-51887178D01*
X156478429Y-51900687D01*
X156469309Y-51915670D01*
X156460574Y-51932025D01*
X156452315Y-51949650D01*
X156444618Y-51968443D01*
X156437573Y-51988301D01*
X156431268Y-52009124D01*
X156425791Y-52030809D01*
X156421233Y-52053255D01*
X156417680Y-52076359D01*
X156415221Y-52100020D01*
X156413946Y-52124135D01*
X156413943Y-52148604D01*
X154698108Y-52148604D01*
X154774081Y-52128751D01*
X154884792Y-52107112D01*
X154999571Y-52092027D01*
X154965166Y-52011001D01*
X154934808Y-51930380D01*
X154908502Y-51850298D01*
X154886256Y-51770886D01*
X154868078Y-51692276D01*
X154853973Y-51614600D01*
X154843949Y-51537990D01*
X154838012Y-51462577D01*
X154836170Y-51388494D01*
X154838429Y-51315873D01*
X154844797Y-51244844D01*
X154855280Y-51175541D01*
X154869885Y-51108095D01*
X154888619Y-51042639D01*
X154911489Y-50979303D01*
X154938502Y-50918220D01*
X154969665Y-50859522D01*
X155004984Y-50803340D01*
X155044467Y-50749807D01*
X155088120Y-50699054D01*
X155135951Y-50651214D01*
X155187966Y-50606418D01*
X155244172Y-50564798D01*
X155304576Y-50526486D01*
X155369185Y-50491613D01*
X155438006Y-50460313D01*
X155511046Y-50432717D01*
X155588311Y-50408956D01*
X155669809Y-50389162D01*
X155755547Y-50373468D01*
X155845531Y-50362005D01*
X155939768Y-50354905D01*
X155937905Y-50373133D01*
X155936918Y-50391060D01*
X155936790Y-50408691D01*
X155937505Y-50426033D01*
X155939045Y-50443091D01*
X155941394Y-50459871D01*
X155944534Y-50476379D01*
X155948450Y-50492621D01*
X155953123Y-50508602D01*
X155958538Y-50524329D01*
X155964677Y-50539807D01*
X155971524Y-50555042D01*
X155979062Y-50570040D01*
X155987273Y-50584806D01*
X155996141Y-50599347D01*
X156005649Y-50613668D01*
X155971765Y-50646717D01*
X155940208Y-50679915D01*
X155910976Y-50713233D01*
X155884068Y-50746645D01*
X155859479Y-50780121D01*
X155837208Y-50813634D01*
X155817252Y-50847156D01*
X155799609Y-50880659D01*
X155784276Y-50914115D01*
X155771252Y-50947496D01*
X155760532Y-50980773D01*
X155752116Y-51013920D01*
X155746000Y-51046908D01*
X155742182Y-51079708D01*
X155740659Y-51112294D01*
X155741430Y-51144637D01*
X155744491Y-51176709D01*
X155749840Y-51208482D01*
X155757475Y-51239928D01*
X155767392Y-51271019D01*
X155779591Y-51301727D01*
X155794068Y-51332025D01*
X155810820Y-51361884D01*
X155829846Y-51391276D01*
X155851143Y-51420173D01*
X155874707Y-51448548D01*
X155900538Y-51476372D01*
X155928632Y-51503617D01*
X155958987Y-51530256D01*
X155991601Y-51556260D01*
X156026470Y-51581601D01*
X156063593Y-51606252D01*
X156116793Y-51593785D01*
X156171816Y-51584501D01*
X156228290Y-51578162D01*
X156285843Y-51574527D01*
X156344103Y-51573357D01*
X156402698Y-51574412D01*
X156461256Y-51577453D01*
X156519404Y-51582241D01*
X156576771Y-51588536D01*
X156632985Y-51596097D01*
X156740463Y-51614065D01*
X156838863Y-51634229D01*
X156925208Y-51654671D01*
X157023951Y-51681942D01*
X157124320Y-51714658D01*
X157225199Y-51752838D01*
X157325469Y-51796504D01*
X157424014Y-51845677D01*
X157519716Y-51900377D01*
X157611458Y-51960625D01*
X157698122Y-52026444D01*
X157778592Y-52097852D01*
X157816154Y-52135659D01*
X157851749Y-52174872D01*
X157885236Y-52215492D01*
X157916476Y-52257524D01*
X157945329Y-52300968D01*
X157971656Y-52345829D01*
X157995317Y-52392108D01*
X158016172Y-52439808D01*
X158034081Y-52488932D01*
X158048906Y-52539482D01*
X158060505Y-52591461D01*
X158068740Y-52644872D01*
X158073471Y-52699717D01*
X158074558Y-52755999D01*
X158071451Y-52815775D01*
X158063805Y-52874118D01*
X158051676Y-52931046D01*
X158035119Y-52986577D01*
X158014190Y-53040729D01*
X157988945Y-53093520D01*
X157959440Y-53144968D01*
X157925730Y-53195091D01*
X157887872Y-53243908D01*
X157845921Y-53291435D01*
X157799933Y-53337692D01*
X157749964Y-53382696D01*
X157696070Y-53426464D01*
X157638306Y-53469017D01*
X157576728Y-53510370D01*
X157511393Y-53550543D01*
X157420011Y-53598559D01*
X157328328Y-53642599D01*
X157236337Y-53682667D01*
X157231993Y-53684366D01*
X157144035Y-53718768D01*
X157051417Y-53750906D01*
X156958478Y-53779087D01*
X156865213Y-53803314D01*
X156818457Y-53813947D01*
X156771618Y-53823593D01*
X156714813Y-53833497D01*
X156645418Y-53843449D01*
X156568249Y-53852106D01*
X156565837Y-53852377D01*
X156478476Y-53859212D01*
G37*
G36*
X156464636Y-54170421D02*
G01*
X156478540Y-54171479D01*
X156492243Y-54173221D01*
X156505727Y-54175629D01*
X156518974Y-54178688D01*
X156531968Y-54182379D01*
X156544691Y-54186685D01*
X156557126Y-54191589D01*
X156569256Y-54197074D01*
X156581063Y-54203122D01*
X156592531Y-54209717D01*
X156603641Y-54216841D01*
X156614378Y-54224477D01*
X156624724Y-54232607D01*
X156634660Y-54241215D01*
X156644172Y-54250283D01*
X156653240Y-54259794D01*
X156661848Y-54269731D01*
X156669978Y-54280076D01*
X156677614Y-54290813D01*
X156684738Y-54301924D01*
X156691332Y-54313392D01*
X156697381Y-54325199D01*
X156702866Y-54337329D01*
X156707770Y-54349764D01*
X156712076Y-54362487D01*
X156715767Y-54375481D01*
X156718825Y-54388728D01*
X156721234Y-54402212D01*
X156722976Y-54415914D01*
X156724034Y-54429819D01*
X156724390Y-54443908D01*
X156724034Y-54457998D01*
X156722976Y-54471902D01*
X156721234Y-54485605D01*
X156718825Y-54499089D01*
X156715767Y-54512336D01*
X156712076Y-54525330D01*
X156707770Y-54538053D01*
X156702866Y-54550488D01*
X156697381Y-54562618D01*
X156691333Y-54574425D01*
X156684738Y-54585893D01*
X156677614Y-54597004D01*
X156669978Y-54607740D01*
X156661848Y-54618086D01*
X156653240Y-54628023D01*
X156644172Y-54637534D01*
X156634661Y-54646602D01*
X156624724Y-54655210D01*
X156614378Y-54663340D01*
X156603642Y-54670976D01*
X156592531Y-54678100D01*
X156581063Y-54684695D01*
X156569256Y-54690743D01*
X156557126Y-54696228D01*
X156544691Y-54701132D01*
X156531968Y-54705438D01*
X156518974Y-54709129D01*
X156505727Y-54712187D01*
X156492243Y-54714596D01*
X156478540Y-54716338D01*
X156464636Y-54717396D01*
X156450546Y-54717752D01*
X156436457Y-54717396D01*
X156422552Y-54716338D01*
X156408850Y-54714596D01*
X156395366Y-54712187D01*
X156382119Y-54709129D01*
X156369125Y-54705438D01*
X156356402Y-54701132D01*
X156343967Y-54696228D01*
X156331837Y-54690743D01*
X156320030Y-54684695D01*
X156308562Y-54678100D01*
X156297451Y-54670976D01*
X156286714Y-54663340D01*
X156276369Y-54655210D01*
X156266432Y-54646602D01*
X156256921Y-54637534D01*
X156247853Y-54628023D01*
X156239245Y-54618086D01*
X156231114Y-54607740D01*
X156223479Y-54597004D01*
X156216355Y-54585893D01*
X156209760Y-54574425D01*
X156203712Y-54562618D01*
X156198227Y-54550488D01*
X156193323Y-54538053D01*
X156189016Y-54525330D01*
X156185326Y-54512336D01*
X156182267Y-54499089D01*
X156179858Y-54485605D01*
X156178117Y-54471902D01*
X156177059Y-54457998D01*
X156176702Y-54443908D01*
X156177059Y-54429819D01*
X156178117Y-54415914D01*
X156179858Y-54402212D01*
X156182267Y-54388728D01*
X156185326Y-54375481D01*
X156189016Y-54362487D01*
X156193323Y-54349764D01*
X156198227Y-54337329D01*
X156203712Y-54325199D01*
X156209760Y-54313392D01*
X156216355Y-54301924D01*
X156223479Y-54290813D01*
X156231114Y-54280076D01*
X156239245Y-54269731D01*
X156247853Y-54259794D01*
X156256921Y-54250283D01*
X156266432Y-54241215D01*
X156276369Y-54232607D01*
X156286714Y-54224477D01*
X156297451Y-54216841D01*
X156308562Y-54209717D01*
X156320029Y-54203122D01*
X156331837Y-54197074D01*
X156343967Y-54191589D01*
X156356402Y-54186685D01*
X156369125Y-54182379D01*
X156382119Y-54178688D01*
X156395366Y-54175629D01*
X156408850Y-54173221D01*
X156422552Y-54171479D01*
X156436457Y-54170421D01*
X156450546Y-54170065D01*
X156464636Y-54170421D01*
G37*
G36*
X154592576Y-53715602D02*
G01*
X154606481Y-53716660D01*
X154620184Y-53718402D01*
X154633667Y-53720811D01*
X154646915Y-53723869D01*
X154659908Y-53727560D01*
X154672631Y-53731866D01*
X154685066Y-53736770D01*
X154697196Y-53742255D01*
X154709004Y-53748303D01*
X154720471Y-53754898D01*
X154731582Y-53762022D01*
X154742319Y-53769658D01*
X154752664Y-53777788D01*
X154762601Y-53786396D01*
X154772112Y-53795464D01*
X154781180Y-53804975D01*
X154789788Y-53814912D01*
X154797919Y-53825258D01*
X154805554Y-53835994D01*
X154812678Y-53847105D01*
X154819273Y-53858573D01*
X154825321Y-53870380D01*
X154830806Y-53882510D01*
X154835710Y-53894945D01*
X154840017Y-53907668D01*
X154843707Y-53920662D01*
X154846766Y-53933909D01*
X154849175Y-53947393D01*
X154850916Y-53961096D01*
X154851974Y-53975000D01*
X154852331Y-53989090D01*
X154851974Y-54003179D01*
X154850916Y-54017084D01*
X154849175Y-54030786D01*
X154846766Y-54044270D01*
X154843707Y-54057517D01*
X154840017Y-54070511D01*
X154835710Y-54083234D01*
X154830806Y-54095669D01*
X154825321Y-54107799D01*
X154819273Y-54119606D01*
X154812678Y-54131074D01*
X154805554Y-54142185D01*
X154797919Y-54152922D01*
X154789788Y-54163267D01*
X154781180Y-54173204D01*
X154772112Y-54182715D01*
X154762601Y-54191783D01*
X154752664Y-54200391D01*
X154742319Y-54208521D01*
X154731582Y-54216157D01*
X154720471Y-54223281D01*
X154709004Y-54229876D01*
X154697196Y-54235924D01*
X154685066Y-54241409D01*
X154672631Y-54246313D01*
X154659908Y-54250619D01*
X154646915Y-54254310D01*
X154633667Y-54257369D01*
X154620184Y-54259777D01*
X154606481Y-54261519D01*
X154592576Y-54262577D01*
X154578487Y-54262933D01*
X154564398Y-54262577D01*
X154550493Y-54261519D01*
X154536790Y-54259777D01*
X154523307Y-54257369D01*
X154510059Y-54254310D01*
X154497065Y-54250619D01*
X154484342Y-54246313D01*
X154471907Y-54241409D01*
X154459778Y-54235924D01*
X154447970Y-54229876D01*
X154436502Y-54223281D01*
X154425392Y-54216157D01*
X154414655Y-54208521D01*
X154404309Y-54200391D01*
X154394373Y-54191783D01*
X154384862Y-54182715D01*
X154375793Y-54173204D01*
X154367186Y-54163267D01*
X154359055Y-54152922D01*
X154351419Y-54142185D01*
X154344296Y-54131074D01*
X154337701Y-54119606D01*
X154331652Y-54107799D01*
X154326167Y-54095669D01*
X154321263Y-54083234D01*
X154316957Y-54070511D01*
X154313266Y-54057517D01*
X154310208Y-54044270D01*
X154307799Y-54030786D01*
X154306057Y-54017084D01*
X154305000Y-54003179D01*
X154304643Y-53989090D01*
X154305000Y-53975000D01*
X154306057Y-53961096D01*
X154307799Y-53947393D01*
X154310208Y-53933909D01*
X154313266Y-53920662D01*
X154316957Y-53907668D01*
X154321263Y-53894945D01*
X154326167Y-53882510D01*
X154331652Y-53870380D01*
X154337701Y-53858573D01*
X154344296Y-53847105D01*
X154351419Y-53835994D01*
X154359055Y-53825258D01*
X154367186Y-53814912D01*
X154375793Y-53804975D01*
X154384862Y-53795464D01*
X154394373Y-53786396D01*
X154404309Y-53777788D01*
X154414655Y-53769658D01*
X154425392Y-53762022D01*
X154436502Y-53754898D01*
X154447970Y-53748303D01*
X154459778Y-53742255D01*
X154471907Y-53736770D01*
X154484342Y-53731866D01*
X154497065Y-53727560D01*
X154510059Y-53723869D01*
X154523307Y-53720811D01*
X154536790Y-53718402D01*
X154550493Y-53716660D01*
X154564398Y-53715602D01*
X154578487Y-53715246D01*
X154592576Y-53715602D01*
G37*
D11*
X74930000Y-102235000D02*
X90170000Y-102235000D01*
D12*
X123192857Y-44732857D02*
X122978571Y-44661428D01*
X122621428Y-44661428D01*
X122478571Y-44732857D01*
X122407142Y-44804285D01*
X122335714Y-44947142D01*
X122335714Y-45090000D01*
X122407142Y-45232857D01*
X122478571Y-45304285D01*
X122621428Y-45375714D01*
X122907142Y-45447142D01*
X123050000Y-45518571D01*
X123121428Y-45590000D01*
X123192857Y-45732857D01*
X123192857Y-45875714D01*
X123121428Y-46018571D01*
X123050000Y-46090000D01*
X122907142Y-46161428D01*
X122550000Y-46161428D01*
X122335714Y-46090000D01*
X121907142Y-45661428D02*
X121335714Y-45661428D01*
X121692857Y-46161428D02*
X121692857Y-44875714D01*
X121621428Y-44732857D01*
X121478571Y-44661428D01*
X121335714Y-44661428D01*
X120264285Y-44732857D02*
X120407142Y-44661428D01*
X120692857Y-44661428D01*
X120835714Y-44732857D01*
X120907142Y-44875714D01*
X120907142Y-45447142D01*
X120835714Y-45590000D01*
X120692857Y-45661428D01*
X120407142Y-45661428D01*
X120264285Y-45590000D01*
X120192857Y-45447142D01*
X120192857Y-45304285D01*
X120907142Y-45161428D01*
X119550000Y-45661428D02*
X119550000Y-44161428D01*
X119550000Y-45590000D02*
X119407142Y-45661428D01*
X119121428Y-45661428D01*
X118978571Y-45590000D01*
X118907142Y-45518571D01*
X118835714Y-45375714D01*
X118835714Y-44947142D01*
X118907142Y-44804285D01*
X118978571Y-44732857D01*
X119121428Y-44661428D01*
X119407142Y-44661428D01*
X119550000Y-44732857D01*
X118264285Y-46018571D02*
X118192857Y-46090000D01*
X118050000Y-46161428D01*
X117692857Y-46161428D01*
X117550000Y-46090000D01*
X117478571Y-46018571D01*
X117407142Y-45875714D01*
X117407142Y-45732857D01*
X117478571Y-45518571D01*
X118335714Y-44661428D01*
X117407142Y-44661428D01*
X79565714Y-67353571D02*
X79565714Y-65853571D01*
X80280000Y-67353571D02*
X80280000Y-65853571D01*
X81137142Y-67353571D01*
X81137142Y-65853571D01*
X81851428Y-66782142D02*
X82994285Y-66782142D01*
D11*
X139533333Y-117292380D02*
X139200000Y-116816190D01*
X138961904Y-117292380D02*
X138961904Y-116292380D01*
X139342857Y-116292380D01*
X139438095Y-116340000D01*
X139485714Y-116387619D01*
X139533333Y-116482857D01*
X139533333Y-116625714D01*
X139485714Y-116720952D01*
X139438095Y-116768571D01*
X139342857Y-116816190D01*
X138961904Y-116816190D01*
X139914285Y-116387619D02*
X139961904Y-116340000D01*
X140057142Y-116292380D01*
X140295238Y-116292380D01*
X140390476Y-116340000D01*
X140438095Y-116387619D01*
X140485714Y-116482857D01*
X140485714Y-116578095D01*
X140438095Y-116720952D01*
X139866666Y-117292380D01*
X140485714Y-117292380D01*
X152678095Y-110413571D02*
X152820952Y-110461190D01*
X152868571Y-110508809D01*
X152916190Y-110604047D01*
X152916190Y-110746904D01*
X152868571Y-110842142D01*
X152820952Y-110889761D01*
X152725714Y-110937380D01*
X152344761Y-110937380D01*
X152344761Y-109937380D01*
X152678095Y-109937380D01*
X152773333Y-109985000D01*
X152820952Y-110032619D01*
X152868571Y-110127857D01*
X152868571Y-110223095D01*
X152820952Y-110318333D01*
X152773333Y-110365952D01*
X152678095Y-110413571D01*
X152344761Y-110413571D01*
X153773333Y-110270714D02*
X153773333Y-110937380D01*
X153344761Y-110270714D02*
X153344761Y-110794523D01*
X153392380Y-110889761D01*
X153487619Y-110937380D01*
X153630476Y-110937380D01*
X153725714Y-110889761D01*
X153773333Y-110842142D01*
X154106666Y-110270714D02*
X154487619Y-110270714D01*
X154249523Y-109937380D02*
X154249523Y-110794523D01*
X154297142Y-110889761D01*
X154392380Y-110937380D01*
X154487619Y-110937380D01*
X154678095Y-110270714D02*
X155059047Y-110270714D01*
X154820952Y-109937380D02*
X154820952Y-110794523D01*
X154868571Y-110889761D01*
X154963809Y-110937380D01*
X155059047Y-110937380D01*
X155535238Y-110937380D02*
X155440000Y-110889761D01*
X155392380Y-110842142D01*
X155344761Y-110746904D01*
X155344761Y-110461190D01*
X155392380Y-110365952D01*
X155440000Y-110318333D01*
X155535238Y-110270714D01*
X155678095Y-110270714D01*
X155773333Y-110318333D01*
X155820952Y-110365952D01*
X155868571Y-110461190D01*
X155868571Y-110746904D01*
X155820952Y-110842142D01*
X155773333Y-110889761D01*
X155678095Y-110937380D01*
X155535238Y-110937380D01*
X156297142Y-110270714D02*
X156297142Y-110937380D01*
X156297142Y-110365952D02*
X156344761Y-110318333D01*
X156440000Y-110270714D01*
X156582857Y-110270714D01*
X156678095Y-110318333D01*
X156725714Y-110413571D01*
X156725714Y-110937380D01*
X157154285Y-110889761D02*
X157249523Y-110937380D01*
X157440000Y-110937380D01*
X157535238Y-110889761D01*
X157582857Y-110794523D01*
X157582857Y-110746904D01*
X157535238Y-110651666D01*
X157440000Y-110604047D01*
X157297142Y-110604047D01*
X157201904Y-110556428D01*
X157154285Y-110461190D01*
X157154285Y-110413571D01*
X157201904Y-110318333D01*
X157297142Y-110270714D01*
X157440000Y-110270714D01*
X157535238Y-110318333D01*
X98802961Y-103255771D02*
X98469628Y-103255771D01*
X98469628Y-103779580D02*
X98469628Y-102779580D01*
X98945819Y-102779580D01*
X99469628Y-103779580D02*
X99374390Y-103731961D01*
X99326771Y-103636723D01*
X99326771Y-102779580D01*
X99993438Y-103779580D02*
X99898200Y-103731961D01*
X99850580Y-103684342D01*
X99802961Y-103589104D01*
X99802961Y-103303390D01*
X99850580Y-103208152D01*
X99898200Y-103160533D01*
X99993438Y-103112914D01*
X100136295Y-103112914D01*
X100231533Y-103160533D01*
X100279152Y-103208152D01*
X100326771Y-103303390D01*
X100326771Y-103589104D01*
X100279152Y-103684342D01*
X100231533Y-103731961D01*
X100136295Y-103779580D01*
X99993438Y-103779580D01*
X100660104Y-103112914D02*
X100850580Y-103779580D01*
X101041057Y-103303390D01*
X101231533Y-103779580D01*
X101422009Y-103112914D01*
D12*
X86471428Y-65853571D02*
X86757142Y-65853571D01*
X86900000Y-65925000D01*
X87042857Y-66067857D01*
X87114285Y-66353571D01*
X87114285Y-66853571D01*
X87042857Y-67139285D01*
X86900000Y-67282142D01*
X86757142Y-67353571D01*
X86471428Y-67353571D01*
X86328571Y-67282142D01*
X86185714Y-67139285D01*
X86114285Y-66853571D01*
X86114285Y-66353571D01*
X86185714Y-66067857D01*
X86328571Y-65925000D01*
X86471428Y-65853571D01*
X87757142Y-65853571D02*
X87757142Y-67067857D01*
X87828571Y-67210714D01*
X87900000Y-67282142D01*
X88042857Y-67353571D01*
X88328571Y-67353571D01*
X88471428Y-67282142D01*
X88542857Y-67210714D01*
X88614285Y-67067857D01*
X88614285Y-65853571D01*
X89114285Y-65853571D02*
X89971428Y-65853571D01*
X89542857Y-67353571D02*
X89542857Y-65853571D01*
X90471428Y-66782142D02*
X91614285Y-66782142D01*
X71818571Y-105517142D02*
X72961428Y-105517142D01*
X72390000Y-106088571D02*
X72390000Y-104945714D01*
D13*
X84201428Y-75707857D02*
X85725238Y-75707857D01*
X84963333Y-76469761D02*
X84963333Y-74945952D01*
X86487142Y-74469761D02*
X87725238Y-74469761D01*
X87058571Y-75231666D01*
X87344285Y-75231666D01*
X87534761Y-75326904D01*
X87630000Y-75422142D01*
X87725238Y-75612619D01*
X87725238Y-76088809D01*
X87630000Y-76279285D01*
X87534761Y-76374523D01*
X87344285Y-76469761D01*
X86772857Y-76469761D01*
X86582380Y-76374523D01*
X86487142Y-76279285D01*
X88391904Y-75136428D02*
X88868095Y-76469761D01*
X89344285Y-75136428D01*
X89915714Y-74469761D02*
X91153809Y-74469761D01*
X90487142Y-75231666D01*
X90772857Y-75231666D01*
X90963333Y-75326904D01*
X91058571Y-75422142D01*
X91153809Y-75612619D01*
X91153809Y-76088809D01*
X91058571Y-76279285D01*
X90963333Y-76374523D01*
X90772857Y-76469761D01*
X90201428Y-76469761D01*
X90010952Y-76374523D01*
X89915714Y-76279285D01*
D11*
X156424380Y-96186476D02*
X156424380Y-95567428D01*
X156805333Y-95900761D01*
X156805333Y-95757904D01*
X156852952Y-95662666D01*
X156900571Y-95615047D01*
X156995809Y-95567428D01*
X157233904Y-95567428D01*
X157329142Y-95615047D01*
X157376761Y-95662666D01*
X157424380Y-95757904D01*
X157424380Y-96043619D01*
X157376761Y-96138857D01*
X157329142Y-96186476D01*
X156757714Y-95234095D02*
X157424380Y-94996000D01*
X156757714Y-94757904D01*
X156424380Y-94472190D02*
X156424380Y-93853142D01*
X156805333Y-94186476D01*
X156805333Y-94043619D01*
X156852952Y-93948380D01*
X156900571Y-93900761D01*
X156995809Y-93853142D01*
X157233904Y-93853142D01*
X157329142Y-93900761D01*
X157376761Y-93948380D01*
X157424380Y-94043619D01*
X157424380Y-94329333D01*
X157376761Y-94424571D01*
X157329142Y-94472190D01*
X146772380Y-101409523D02*
X146772380Y-101600000D01*
X146820000Y-101695238D01*
X146867619Y-101742857D01*
X147010476Y-101838095D01*
X147200952Y-101885714D01*
X147581904Y-101885714D01*
X147677142Y-101838095D01*
X147724761Y-101790476D01*
X147772380Y-101695238D01*
X147772380Y-101504761D01*
X147724761Y-101409523D01*
X147677142Y-101361904D01*
X147581904Y-101314285D01*
X147343809Y-101314285D01*
X147248571Y-101361904D01*
X147200952Y-101409523D01*
X147153333Y-101504761D01*
X147153333Y-101695238D01*
X147200952Y-101790476D01*
X147248571Y-101838095D01*
X147343809Y-101885714D01*
X143557476Y-66587619D02*
X142938428Y-66587619D01*
X143271761Y-66206666D01*
X143128904Y-66206666D01*
X143033666Y-66159047D01*
X142986047Y-66111428D01*
X142938428Y-66016190D01*
X142938428Y-65778095D01*
X142986047Y-65682857D01*
X143033666Y-65635238D01*
X143128904Y-65587619D01*
X143414619Y-65587619D01*
X143509857Y-65635238D01*
X143557476Y-65682857D01*
X142605095Y-66254285D02*
X142367000Y-65587619D01*
X142128904Y-66254285D01*
X141843190Y-66587619D02*
X141224142Y-66587619D01*
X141557476Y-66206666D01*
X141414619Y-66206666D01*
X141319380Y-66159047D01*
X141271761Y-66111428D01*
X141224142Y-66016190D01*
X141224142Y-65778095D01*
X141271761Y-65682857D01*
X141319380Y-65635238D01*
X141414619Y-65587619D01*
X141700333Y-65587619D01*
X141795571Y-65635238D01*
X141843190Y-65682857D01*
D12*
X92138571Y-115677142D02*
X93281428Y-115677142D01*
X92710000Y-116248571D02*
X92710000Y-115105714D01*
D11*
X63047619Y-103989523D02*
X64047619Y-103989523D01*
X63333333Y-104322857D01*
X64047619Y-104656190D01*
X63047619Y-104656190D01*
X63047619Y-105275238D02*
X63095238Y-105180000D01*
X63142857Y-105132380D01*
X63238095Y-105084761D01*
X63523809Y-105084761D01*
X63619047Y-105132380D01*
X63666666Y-105180000D01*
X63714285Y-105275238D01*
X63714285Y-105418095D01*
X63666666Y-105513333D01*
X63619047Y-105560952D01*
X63523809Y-105608571D01*
X63238095Y-105608571D01*
X63142857Y-105560952D01*
X63095238Y-105513333D01*
X63047619Y-105418095D01*
X63047619Y-105275238D01*
X63714285Y-105894285D02*
X63714285Y-106275238D01*
X64047619Y-106037142D02*
X63190476Y-106037142D01*
X63095238Y-106084761D01*
X63047619Y-106180000D01*
X63047619Y-106275238D01*
X63047619Y-106751428D02*
X63095238Y-106656190D01*
X63142857Y-106608571D01*
X63238095Y-106560952D01*
X63523809Y-106560952D01*
X63619047Y-106608571D01*
X63666666Y-106656190D01*
X63714285Y-106751428D01*
X63714285Y-106894285D01*
X63666666Y-106989523D01*
X63619047Y-107037142D01*
X63523809Y-107084761D01*
X63238095Y-107084761D01*
X63142857Y-107037142D01*
X63095238Y-106989523D01*
X63047619Y-106894285D01*
X63047619Y-106751428D01*
X63047619Y-107513333D02*
X63714285Y-107513333D01*
X63523809Y-107513333D02*
X63619047Y-107560952D01*
X63666666Y-107608571D01*
X63714285Y-107703809D01*
X63714285Y-107799047D01*
X63952380Y-108846666D02*
X64000000Y-108894285D01*
X64047619Y-108989523D01*
X64047619Y-109227619D01*
X64000000Y-109322857D01*
X63952380Y-109370476D01*
X63857142Y-109418095D01*
X63761904Y-109418095D01*
X63619047Y-109370476D01*
X63047619Y-108799047D01*
X63047619Y-109418095D01*
X156932380Y-62150476D02*
X156932380Y-61531428D01*
X157313333Y-61864761D01*
X157313333Y-61721904D01*
X157360952Y-61626666D01*
X157408571Y-61579047D01*
X157503809Y-61531428D01*
X157741904Y-61531428D01*
X157837142Y-61579047D01*
X157884761Y-61626666D01*
X157932380Y-61721904D01*
X157932380Y-62007619D01*
X157884761Y-62102857D01*
X157837142Y-62150476D01*
X157265714Y-61198095D02*
X157932380Y-60960000D01*
X157265714Y-60721904D01*
X156932380Y-60436190D02*
X156932380Y-59817142D01*
X157313333Y-60150476D01*
X157313333Y-60007619D01*
X157360952Y-59912380D01*
X157408571Y-59864761D01*
X157503809Y-59817142D01*
X157741904Y-59817142D01*
X157837142Y-59864761D01*
X157884761Y-59912380D01*
X157932380Y-60007619D01*
X157932380Y-60293333D01*
X157884761Y-60388571D01*
X157837142Y-60436190D01*
D12*
X92138571Y-123297142D02*
X93281428Y-123297142D01*
D11*
X139152380Y-107362476D02*
X139152380Y-106743428D01*
X139533333Y-107076761D01*
X139533333Y-106933904D01*
X139580952Y-106838666D01*
X139628571Y-106791047D01*
X139723809Y-106743428D01*
X139961904Y-106743428D01*
X140057142Y-106791047D01*
X140104761Y-106838666D01*
X140152380Y-106933904D01*
X140152380Y-107219619D01*
X140104761Y-107314857D01*
X140057142Y-107362476D01*
X139485714Y-106410095D02*
X140152380Y-106172000D01*
X139485714Y-105933904D01*
X139152380Y-105648190D02*
X139152380Y-105029142D01*
X139533333Y-105362476D01*
X139533333Y-105219619D01*
X139580952Y-105124380D01*
X139628571Y-105076761D01*
X139723809Y-105029142D01*
X139961904Y-105029142D01*
X140057142Y-105076761D01*
X140104761Y-105124380D01*
X140152380Y-105219619D01*
X140152380Y-105505333D01*
X140104761Y-105600571D01*
X140057142Y-105648190D01*
D12*
X62345000Y-59182142D02*
X62416428Y-59039285D01*
X62416428Y-58825000D01*
X62345000Y-58610714D01*
X62202142Y-58467857D01*
X62059285Y-58396428D01*
X61773571Y-58325000D01*
X61559285Y-58325000D01*
X61273571Y-58396428D01*
X61130714Y-58467857D01*
X60987857Y-58610714D01*
X60916428Y-58825000D01*
X60916428Y-58967857D01*
X60987857Y-59182142D01*
X61059285Y-59253571D01*
X61559285Y-59253571D01*
X61559285Y-58967857D01*
X60916428Y-59896428D02*
X62416428Y-59896428D01*
X60916428Y-60753571D01*
X62416428Y-60753571D01*
X60916428Y-61467857D02*
X62416428Y-61467857D01*
X62416428Y-61825000D01*
X62345000Y-62039285D01*
X62202142Y-62182142D01*
X62059285Y-62253571D01*
X61773571Y-62325000D01*
X61559285Y-62325000D01*
X61273571Y-62253571D01*
X61130714Y-62182142D01*
X60987857Y-62039285D01*
X60916428Y-61825000D01*
X60916428Y-61467857D01*
X61487857Y-51332142D02*
X61487857Y-52475000D01*
X60916428Y-51903571D02*
X62059285Y-51903571D01*
X60916428Y-53975000D02*
X60916428Y-53117857D01*
X60916428Y-53546428D02*
X62416428Y-53546428D01*
X62202142Y-53403571D01*
X62059285Y-53260714D01*
X61987857Y-53117857D01*
X62273571Y-54546428D02*
X62345000Y-54617857D01*
X62416428Y-54760714D01*
X62416428Y-55117857D01*
X62345000Y-55260714D01*
X62273571Y-55332142D01*
X62130714Y-55403571D01*
X61987857Y-55403571D01*
X61773571Y-55332142D01*
X60916428Y-54475000D01*
X60916428Y-55403571D01*
X62416428Y-55832142D02*
X60916428Y-56332142D01*
X62416428Y-56832142D01*
D11*
X144565714Y-101409523D02*
X145232380Y-101409523D01*
X144184761Y-101647619D02*
X144899047Y-101885714D01*
X144899047Y-101266666D01*
X147709000Y-90797095D02*
X147661380Y-90892333D01*
X147661380Y-91035190D01*
X147709000Y-91178047D01*
X147804238Y-91273285D01*
X147899476Y-91320904D01*
X148089952Y-91368523D01*
X148232809Y-91368523D01*
X148423285Y-91320904D01*
X148518523Y-91273285D01*
X148613761Y-91178047D01*
X148661380Y-91035190D01*
X148661380Y-90939952D01*
X148613761Y-90797095D01*
X148566142Y-90749476D01*
X148232809Y-90749476D01*
X148232809Y-90939952D01*
X157075238Y-105338571D02*
X157218095Y-105386190D01*
X157265714Y-105433809D01*
X157313333Y-105529047D01*
X157313333Y-105671904D01*
X157265714Y-105767142D01*
X157218095Y-105814761D01*
X157122857Y-105862380D01*
X156741904Y-105862380D01*
X156741904Y-104862380D01*
X157075238Y-104862380D01*
X157170476Y-104910000D01*
X157218095Y-104957619D01*
X157265714Y-105052857D01*
X157265714Y-105148095D01*
X157218095Y-105243333D01*
X157170476Y-105290952D01*
X157075238Y-105338571D01*
X156741904Y-105338571D01*
X157694285Y-104957619D02*
X157741904Y-104910000D01*
X157837142Y-104862380D01*
X158075238Y-104862380D01*
X158170476Y-104910000D01*
X158218095Y-104957619D01*
X158265714Y-105052857D01*
X158265714Y-105148095D01*
X158218095Y-105290952D01*
X157646666Y-105862380D01*
X158265714Y-105862380D01*
D12*
X102552571Y-105771142D02*
X103695428Y-105771142D01*
D11*
X139708000Y-85590095D02*
X139660380Y-85685333D01*
X139660380Y-85828190D01*
X139708000Y-85971047D01*
X139803238Y-86066285D01*
X139898476Y-86113904D01*
X140088952Y-86161523D01*
X140231809Y-86161523D01*
X140422285Y-86113904D01*
X140517523Y-86066285D01*
X140612761Y-85971047D01*
X140660380Y-85828190D01*
X140660380Y-85732952D01*
X140612761Y-85590095D01*
X140565142Y-85542476D01*
X140231809Y-85542476D01*
X140231809Y-85732952D01*
D12*
X147322857Y-44732857D02*
X147108571Y-44661428D01*
X146751428Y-44661428D01*
X146608571Y-44732857D01*
X146537142Y-44804285D01*
X146465714Y-44947142D01*
X146465714Y-45090000D01*
X146537142Y-45232857D01*
X146608571Y-45304285D01*
X146751428Y-45375714D01*
X147037142Y-45447142D01*
X147180000Y-45518571D01*
X147251428Y-45590000D01*
X147322857Y-45732857D01*
X147322857Y-45875714D01*
X147251428Y-46018571D01*
X147180000Y-46090000D01*
X147037142Y-46161428D01*
X146680000Y-46161428D01*
X146465714Y-46090000D01*
X146037142Y-45661428D02*
X145465714Y-45661428D01*
X145822857Y-46161428D02*
X145822857Y-44875714D01*
X145751428Y-44732857D01*
X145608571Y-44661428D01*
X145465714Y-44661428D01*
X144394285Y-44732857D02*
X144537142Y-44661428D01*
X144822857Y-44661428D01*
X144965714Y-44732857D01*
X145037142Y-44875714D01*
X145037142Y-45447142D01*
X144965714Y-45590000D01*
X144822857Y-45661428D01*
X144537142Y-45661428D01*
X144394285Y-45590000D01*
X144322857Y-45447142D01*
X144322857Y-45304285D01*
X145037142Y-45161428D01*
X143680000Y-45661428D02*
X143680000Y-44161428D01*
X143680000Y-45590000D02*
X143537142Y-45661428D01*
X143251428Y-45661428D01*
X143108571Y-45590000D01*
X143037142Y-45518571D01*
X142965714Y-45375714D01*
X142965714Y-44947142D01*
X143037142Y-44804285D01*
X143108571Y-44732857D01*
X143251428Y-44661428D01*
X143537142Y-44661428D01*
X143680000Y-44732857D01*
X142465714Y-46161428D02*
X141537142Y-46161428D01*
X142037142Y-45590000D01*
X141822857Y-45590000D01*
X141680000Y-45518571D01*
X141608571Y-45447142D01*
X141537142Y-45304285D01*
X141537142Y-44947142D01*
X141608571Y-44804285D01*
X141680000Y-44732857D01*
X141822857Y-44661428D01*
X142251428Y-44661428D01*
X142394285Y-44732857D01*
X142465714Y-44804285D01*
X92900571Y-111359142D02*
X94043428Y-111359142D01*
X93472000Y-111930571D02*
X93472000Y-110787714D01*
X102552571Y-111227142D02*
X103695428Y-111227142D01*
X103124000Y-111798571D02*
X103124000Y-110655714D01*
X93174285Y-121439714D02*
X93102857Y-121511142D01*
X92888571Y-121582571D01*
X92745714Y-121582571D01*
X92531428Y-121511142D01*
X92388571Y-121368285D01*
X92317142Y-121225428D01*
X92245714Y-120939714D01*
X92245714Y-120725428D01*
X92317142Y-120439714D01*
X92388571Y-120296857D01*
X92531428Y-120154000D01*
X92745714Y-120082571D01*
X92888571Y-120082571D01*
X93102857Y-120154000D01*
X93174285Y-120225428D01*
D11*
X140152380Y-94202285D02*
X140152380Y-94773714D01*
X140152380Y-94488000D02*
X139152380Y-94488000D01*
X139295238Y-94583238D01*
X139390476Y-94678476D01*
X139438095Y-94773714D01*
X139152380Y-101647619D02*
X139152380Y-101552380D01*
X139200000Y-101457142D01*
X139247619Y-101409523D01*
X139342857Y-101361904D01*
X139533333Y-101314285D01*
X139771428Y-101314285D01*
X139961904Y-101361904D01*
X140057142Y-101409523D01*
X140104761Y-101457142D01*
X140152380Y-101552380D01*
X140152380Y-101647619D01*
X140104761Y-101742857D01*
X140057142Y-101790476D01*
X139961904Y-101838095D01*
X139771428Y-101885714D01*
X139533333Y-101885714D01*
X139342857Y-101838095D01*
X139247619Y-101790476D01*
X139200000Y-101742857D01*
X139152380Y-101647619D01*
X156980000Y-81018095D02*
X156932380Y-81113333D01*
X156932380Y-81256190D01*
X156980000Y-81399047D01*
X157075238Y-81494285D01*
X157170476Y-81541904D01*
X157360952Y-81589523D01*
X157503809Y-81589523D01*
X157694285Y-81541904D01*
X157789523Y-81494285D01*
X157884761Y-81399047D01*
X157932380Y-81256190D01*
X157932380Y-81160952D01*
X157884761Y-81018095D01*
X157837142Y-80970476D01*
X157503809Y-80970476D01*
X157503809Y-81160952D01*
D12*
X93043428Y-107890571D02*
X93900571Y-107890571D01*
X93472000Y-109390571D02*
X93472000Y-107890571D01*
D11*
X157408571Y-74882285D02*
X157408571Y-74548952D01*
X157932380Y-74406095D02*
X157932380Y-74882285D01*
X156932380Y-74882285D01*
X156932380Y-74406095D01*
X157837142Y-73406095D02*
X157884761Y-73453714D01*
X157932380Y-73596571D01*
X157932380Y-73691809D01*
X157884761Y-73834666D01*
X157789523Y-73929904D01*
X157694285Y-73977523D01*
X157503809Y-74025142D01*
X157360952Y-74025142D01*
X157170476Y-73977523D01*
X157075238Y-73929904D01*
X156980000Y-73834666D01*
X156932380Y-73691809D01*
X156932380Y-73596571D01*
X156980000Y-73453714D01*
X157027619Y-73406095D01*
X93518266Y-102931980D02*
X94089695Y-102931980D01*
X93803980Y-103931980D02*
X93803980Y-102931980D01*
X94803980Y-103884361D02*
X94708742Y-103931980D01*
X94518266Y-103931980D01*
X94423028Y-103884361D01*
X94375409Y-103789123D01*
X94375409Y-103408171D01*
X94423028Y-103312933D01*
X94518266Y-103265314D01*
X94708742Y-103265314D01*
X94803980Y-103312933D01*
X94851600Y-103408171D01*
X94851600Y-103503409D01*
X94375409Y-103598647D01*
X95280171Y-103931980D02*
X95280171Y-103265314D01*
X95280171Y-103360552D02*
X95327790Y-103312933D01*
X95423028Y-103265314D01*
X95565885Y-103265314D01*
X95661123Y-103312933D01*
X95708742Y-103408171D01*
X95708742Y-103931980D01*
X95708742Y-103408171D02*
X95756361Y-103312933D01*
X95851600Y-103265314D01*
X95994457Y-103265314D01*
X96089695Y-103312933D01*
X96137314Y-103408171D01*
X96137314Y-103931980D01*
X96613504Y-103265314D02*
X96613504Y-104265314D01*
X96613504Y-103312933D02*
X96708742Y-103265314D01*
X96899219Y-103265314D01*
X96994457Y-103312933D01*
X97042076Y-103360552D01*
X97089695Y-103455790D01*
X97089695Y-103741504D01*
X97042076Y-103836742D01*
X96994457Y-103884361D01*
X96899219Y-103931980D01*
X96708742Y-103931980D01*
X96613504Y-103884361D01*
X92737619Y-126192380D02*
X92737619Y-125192380D01*
X92975714Y-125192380D01*
X93118571Y-125240000D01*
X93213809Y-125335238D01*
X93261428Y-125430476D01*
X93309047Y-125620952D01*
X93309047Y-125763809D01*
X93261428Y-125954285D01*
X93213809Y-126049523D01*
X93118571Y-126144761D01*
X92975714Y-126192380D01*
X92737619Y-126192380D01*
X93737619Y-126192380D02*
X93737619Y-125525714D01*
X93737619Y-125192380D02*
X93690000Y-125240000D01*
X93737619Y-125287619D01*
X93785238Y-125240000D01*
X93737619Y-125192380D01*
X93737619Y-125287619D01*
X94166190Y-126144761D02*
X94261428Y-126192380D01*
X94451904Y-126192380D01*
X94547142Y-126144761D01*
X94594761Y-126049523D01*
X94594761Y-126001904D01*
X94547142Y-125906666D01*
X94451904Y-125859047D01*
X94309047Y-125859047D01*
X94213809Y-125811428D01*
X94166190Y-125716190D01*
X94166190Y-125668571D01*
X94213809Y-125573333D01*
X94309047Y-125525714D01*
X94451904Y-125525714D01*
X94547142Y-125573333D01*
X95023333Y-125525714D02*
X95023333Y-126525714D01*
X95023333Y-125573333D02*
X95118571Y-125525714D01*
X95309047Y-125525714D01*
X95404285Y-125573333D01*
X95451904Y-125620952D01*
X95499523Y-125716190D01*
X95499523Y-126001904D01*
X95451904Y-126097142D01*
X95404285Y-126144761D01*
X95309047Y-126192380D01*
X95118571Y-126192380D01*
X95023333Y-126144761D01*
X96070952Y-126192380D02*
X95975714Y-126144761D01*
X95928095Y-126049523D01*
X95928095Y-125192380D01*
X96880476Y-126192380D02*
X96880476Y-125668571D01*
X96832857Y-125573333D01*
X96737619Y-125525714D01*
X96547142Y-125525714D01*
X96451904Y-125573333D01*
X96880476Y-126144761D02*
X96785238Y-126192380D01*
X96547142Y-126192380D01*
X96451904Y-126144761D01*
X96404285Y-126049523D01*
X96404285Y-125954285D01*
X96451904Y-125859047D01*
X96547142Y-125811428D01*
X96785238Y-125811428D01*
X96880476Y-125763809D01*
X97261428Y-125525714D02*
X97499523Y-126192380D01*
X97737619Y-125525714D02*
X97499523Y-126192380D01*
X97404285Y-126430476D01*
X97356666Y-126478095D01*
X97261428Y-126525714D01*
X134985142Y-87590380D02*
X134508952Y-87590380D01*
X134461333Y-88066571D01*
X134508952Y-88018952D01*
X134604190Y-87971333D01*
X134842285Y-87971333D01*
X134937523Y-88018952D01*
X134985142Y-88066571D01*
X135032761Y-88161809D01*
X135032761Y-88399904D01*
X134985142Y-88495142D01*
X134937523Y-88542761D01*
X134842285Y-88590380D01*
X134604190Y-88590380D01*
X134508952Y-88542761D01*
X134461333Y-88495142D01*
X135366095Y-87923714D02*
X135604190Y-88590380D01*
X135842285Y-87923714D01*
X157075238Y-102798571D02*
X157218095Y-102846190D01*
X157265714Y-102893809D01*
X157313333Y-102989047D01*
X157313333Y-103131904D01*
X157265714Y-103227142D01*
X157218095Y-103274761D01*
X157122857Y-103322380D01*
X156741904Y-103322380D01*
X156741904Y-102322380D01*
X157075238Y-102322380D01*
X157170476Y-102370000D01*
X157218095Y-102417619D01*
X157265714Y-102512857D01*
X157265714Y-102608095D01*
X157218095Y-102703333D01*
X157170476Y-102750952D01*
X157075238Y-102798571D01*
X156741904Y-102798571D01*
X158265714Y-103322380D02*
X157694285Y-103322380D01*
X157980000Y-103322380D02*
X157980000Y-102322380D01*
X157884761Y-102465238D01*
X157789523Y-102560476D01*
X157694285Y-102608095D01*
D12*
X71818571Y-114407142D02*
X72961428Y-114407142D01*
X72390000Y-114978571D02*
X72390000Y-113835714D01*
D11*
X157075238Y-100258571D02*
X157218095Y-100306190D01*
X157265714Y-100353809D01*
X157313333Y-100449047D01*
X157313333Y-100591904D01*
X157265714Y-100687142D01*
X157218095Y-100734761D01*
X157122857Y-100782380D01*
X156741904Y-100782380D01*
X156741904Y-99782380D01*
X157075238Y-99782380D01*
X157170476Y-99830000D01*
X157218095Y-99877619D01*
X157265714Y-99972857D01*
X157265714Y-100068095D01*
X157218095Y-100163333D01*
X157170476Y-100210952D01*
X157075238Y-100258571D01*
X156741904Y-100258571D01*
X157932380Y-99782380D02*
X158027619Y-99782380D01*
X158122857Y-99830000D01*
X158170476Y-99877619D01*
X158218095Y-99972857D01*
X158265714Y-100163333D01*
X158265714Y-100401428D01*
X158218095Y-100591904D01*
X158170476Y-100687142D01*
X158122857Y-100734761D01*
X158027619Y-100782380D01*
X157932380Y-100782380D01*
X157837142Y-100734761D01*
X157789523Y-100687142D01*
X157741904Y-100591904D01*
X157694285Y-100401428D01*
X157694285Y-100163333D01*
X157741904Y-99972857D01*
X157789523Y-99877619D01*
X157837142Y-99830000D01*
X157932380Y-99782380D01*
X144740380Y-94249904D02*
X144740380Y-94726095D01*
X145216571Y-94773714D01*
X145168952Y-94726095D01*
X145121333Y-94630857D01*
X145121333Y-94392761D01*
X145168952Y-94297523D01*
X145216571Y-94249904D01*
X145311809Y-94202285D01*
X145549904Y-94202285D01*
X145645142Y-94249904D01*
X145692761Y-94297523D01*
X145740380Y-94392761D01*
X145740380Y-94630857D01*
X145692761Y-94726095D01*
X145645142Y-94773714D01*
D12*
X61710000Y-67437142D02*
X61781428Y-67294285D01*
X61781428Y-67080000D01*
X61710000Y-66865714D01*
X61567142Y-66722857D01*
X61424285Y-66651428D01*
X61138571Y-66580000D01*
X60924285Y-66580000D01*
X60638571Y-66651428D01*
X60495714Y-66722857D01*
X60352857Y-66865714D01*
X60281428Y-67080000D01*
X60281428Y-67222857D01*
X60352857Y-67437142D01*
X60424285Y-67508571D01*
X60924285Y-67508571D01*
X60924285Y-67222857D01*
X60281428Y-68151428D02*
X61781428Y-68151428D01*
X60281428Y-69008571D01*
X61781428Y-69008571D01*
X60281428Y-69722857D02*
X61781428Y-69722857D01*
X61781428Y-70080000D01*
X61710000Y-70294285D01*
X61567142Y-70437142D01*
X61424285Y-70508571D01*
X61138571Y-70580000D01*
X60924285Y-70580000D01*
X60638571Y-70508571D01*
X60495714Y-70437142D01*
X60352857Y-70294285D01*
X60281428Y-70080000D01*
X60281428Y-69722857D01*
D11*
X134937523Y-91511380D02*
X134366095Y-91511380D01*
X134651809Y-91511380D02*
X134651809Y-90511380D01*
X134556571Y-90654238D01*
X134461333Y-90749476D01*
X134366095Y-90797095D01*
X135842285Y-90511380D02*
X135366095Y-90511380D01*
X135318476Y-90987571D01*
X135366095Y-90939952D01*
X135461333Y-90892333D01*
X135699428Y-90892333D01*
X135794666Y-90939952D01*
X135842285Y-90987571D01*
X135889904Y-91082809D01*
X135889904Y-91320904D01*
X135842285Y-91416142D01*
X135794666Y-91463761D01*
X135699428Y-91511380D01*
X135461333Y-91511380D01*
X135366095Y-91463761D01*
X135318476Y-91416142D01*
D12*
X102298571Y-115677142D02*
X103441428Y-115677142D01*
X102870000Y-116248571D02*
X102870000Y-115105714D01*
D11*
X156980000Y-76446095D02*
X156932380Y-76541333D01*
X156932380Y-76684190D01*
X156980000Y-76827047D01*
X157075238Y-76922285D01*
X157170476Y-76969904D01*
X157360952Y-77017523D01*
X157503809Y-77017523D01*
X157694285Y-76969904D01*
X157789523Y-76922285D01*
X157884761Y-76827047D01*
X157932380Y-76684190D01*
X157932380Y-76588952D01*
X157884761Y-76446095D01*
X157837142Y-76398476D01*
X157503809Y-76398476D01*
X157503809Y-76588952D01*
X142200380Y-86153523D02*
X142200380Y-85534476D01*
X142581333Y-85867809D01*
X142581333Y-85724952D01*
X142628952Y-85629714D01*
X142676571Y-85582095D01*
X142771809Y-85534476D01*
X143009904Y-85534476D01*
X143105142Y-85582095D01*
X143152761Y-85629714D01*
X143200380Y-85724952D01*
X143200380Y-86010666D01*
X143152761Y-86105904D01*
X143105142Y-86153523D01*
X142533714Y-84677333D02*
X143200380Y-84677333D01*
X142152761Y-84915428D02*
X142867047Y-85153523D01*
X142867047Y-84534476D01*
X139961904Y-108720000D02*
X139866666Y-108672380D01*
X139723809Y-108672380D01*
X139580952Y-108720000D01*
X139485714Y-108815238D01*
X139438095Y-108910476D01*
X139390476Y-109100952D01*
X139390476Y-109243809D01*
X139438095Y-109434285D01*
X139485714Y-109529523D01*
X139580952Y-109624761D01*
X139723809Y-109672380D01*
X139819047Y-109672380D01*
X139961904Y-109624761D01*
X140009523Y-109577142D01*
X140009523Y-109243809D01*
X139819047Y-109243809D01*
X157075238Y-107878571D02*
X157218095Y-107926190D01*
X157265714Y-107973809D01*
X157313333Y-108069047D01*
X157313333Y-108211904D01*
X157265714Y-108307142D01*
X157218095Y-108354761D01*
X157122857Y-108402380D01*
X156741904Y-108402380D01*
X156741904Y-107402380D01*
X157075238Y-107402380D01*
X157170476Y-107450000D01*
X157218095Y-107497619D01*
X157265714Y-107592857D01*
X157265714Y-107688095D01*
X157218095Y-107783333D01*
X157170476Y-107830952D01*
X157075238Y-107878571D01*
X156741904Y-107878571D01*
X157646666Y-107402380D02*
X158265714Y-107402380D01*
X157932380Y-107783333D01*
X158075238Y-107783333D01*
X158170476Y-107830952D01*
X158218095Y-107878571D01*
X158265714Y-107973809D01*
X158265714Y-108211904D01*
X158218095Y-108307142D01*
X158170476Y-108354761D01*
X158075238Y-108402380D01*
X157789523Y-108402380D01*
X157694285Y-108354761D01*
X157646666Y-108307142D01*
X63047619Y-86209523D02*
X64047619Y-86209523D01*
X63333333Y-86542857D01*
X64047619Y-86876190D01*
X63047619Y-86876190D01*
X63047619Y-87495238D02*
X63095238Y-87400000D01*
X63142857Y-87352380D01*
X63238095Y-87304761D01*
X63523809Y-87304761D01*
X63619047Y-87352380D01*
X63666666Y-87400000D01*
X63714285Y-87495238D01*
X63714285Y-87638095D01*
X63666666Y-87733333D01*
X63619047Y-87780952D01*
X63523809Y-87828571D01*
X63238095Y-87828571D01*
X63142857Y-87780952D01*
X63095238Y-87733333D01*
X63047619Y-87638095D01*
X63047619Y-87495238D01*
X63714285Y-88114285D02*
X63714285Y-88495238D01*
X64047619Y-88257142D02*
X63190476Y-88257142D01*
X63095238Y-88304761D01*
X63047619Y-88400000D01*
X63047619Y-88495238D01*
X63047619Y-88971428D02*
X63095238Y-88876190D01*
X63142857Y-88828571D01*
X63238095Y-88780952D01*
X63523809Y-88780952D01*
X63619047Y-88828571D01*
X63666666Y-88876190D01*
X63714285Y-88971428D01*
X63714285Y-89114285D01*
X63666666Y-89209523D01*
X63619047Y-89257142D01*
X63523809Y-89304761D01*
X63238095Y-89304761D01*
X63142857Y-89257142D01*
X63095238Y-89209523D01*
X63047619Y-89114285D01*
X63047619Y-88971428D01*
X63047619Y-89733333D02*
X63714285Y-89733333D01*
X63523809Y-89733333D02*
X63619047Y-89780952D01*
X63666666Y-89828571D01*
X63714285Y-89923809D01*
X63714285Y-90019047D01*
X64047619Y-91304761D02*
X64047619Y-91400000D01*
X64000000Y-91495238D01*
X63952380Y-91542857D01*
X63857142Y-91590476D01*
X63666666Y-91638095D01*
X63428571Y-91638095D01*
X63238095Y-91590476D01*
X63142857Y-91542857D01*
X63095238Y-91495238D01*
X63047619Y-91400000D01*
X63047619Y-91304761D01*
X63095238Y-91209523D01*
X63142857Y-91161904D01*
X63238095Y-91114285D01*
X63428571Y-91066666D01*
X63666666Y-91066666D01*
X63857142Y-91114285D01*
X63952380Y-91161904D01*
X64000000Y-91209523D01*
X64047619Y-91304761D01*
X141787619Y-101885714D02*
X141740000Y-101838095D01*
X141692380Y-101742857D01*
X141692380Y-101504761D01*
X141740000Y-101409523D01*
X141787619Y-101361904D01*
X141882857Y-101314285D01*
X141978095Y-101314285D01*
X142120952Y-101361904D01*
X142692380Y-101933333D01*
X142692380Y-101314285D01*
D13*
X85788809Y-88407857D02*
X87312619Y-88407857D01*
X86550714Y-89169761D02*
X86550714Y-87645952D01*
X89217380Y-87169761D02*
X88265000Y-87169761D01*
X88169761Y-88122142D01*
X88265000Y-88026904D01*
X88455476Y-87931666D01*
X88931666Y-87931666D01*
X89122142Y-88026904D01*
X89217380Y-88122142D01*
X89312619Y-88312619D01*
X89312619Y-88788809D01*
X89217380Y-88979285D01*
X89122142Y-89074523D01*
X88931666Y-89169761D01*
X88455476Y-89169761D01*
X88265000Y-89074523D01*
X88169761Y-88979285D01*
X89979285Y-87836428D02*
X90455476Y-89169761D01*
X90931666Y-87836428D01*
D12*
X85836428Y-78553571D02*
X86122142Y-78553571D01*
X86265000Y-78625000D01*
X86407857Y-78767857D01*
X86479285Y-79053571D01*
X86479285Y-79553571D01*
X86407857Y-79839285D01*
X86265000Y-79982142D01*
X86122142Y-80053571D01*
X85836428Y-80053571D01*
X85693571Y-79982142D01*
X85550714Y-79839285D01*
X85479285Y-79553571D01*
X85479285Y-79053571D01*
X85550714Y-78767857D01*
X85693571Y-78625000D01*
X85836428Y-78553571D01*
X87122142Y-78553571D02*
X87122142Y-79767857D01*
X87193571Y-79910714D01*
X87265000Y-79982142D01*
X87407857Y-80053571D01*
X87693571Y-80053571D01*
X87836428Y-79982142D01*
X87907857Y-79910714D01*
X87979285Y-79767857D01*
X87979285Y-78553571D01*
X88479285Y-78553571D02*
X89336428Y-78553571D01*
X88907857Y-80053571D02*
X88907857Y-78553571D01*
X89836428Y-79482142D02*
X90979285Y-79482142D01*
D11*
X123952142Y-94400714D02*
X123952142Y-95257857D01*
X123904523Y-95353095D01*
X123809285Y-95400714D01*
X123761666Y-95400714D01*
X123952142Y-94067380D02*
X123904523Y-94115000D01*
X123952142Y-94162619D01*
X123999761Y-94115000D01*
X123952142Y-94067380D01*
X123952142Y-94162619D01*
X124571190Y-95067380D02*
X124475952Y-95019761D01*
X124428333Y-94972142D01*
X124380714Y-94876904D01*
X124380714Y-94591190D01*
X124428333Y-94495952D01*
X124475952Y-94448333D01*
X124571190Y-94400714D01*
X124714047Y-94400714D01*
X124809285Y-94448333D01*
X124856904Y-94495952D01*
X124904523Y-94591190D01*
X124904523Y-94876904D01*
X124856904Y-94972142D01*
X124809285Y-95019761D01*
X124714047Y-95067380D01*
X124571190Y-95067380D01*
X125333095Y-95067380D02*
X125333095Y-94400714D01*
X125333095Y-94067380D02*
X125285476Y-94115000D01*
X125333095Y-94162619D01*
X125380714Y-94115000D01*
X125333095Y-94067380D01*
X125333095Y-94162619D01*
X125809285Y-94400714D02*
X125809285Y-95067380D01*
X125809285Y-94495952D02*
X125856904Y-94448333D01*
X125952142Y-94400714D01*
X126095000Y-94400714D01*
X126190238Y-94448333D01*
X126237857Y-94543571D01*
X126237857Y-95067380D01*
X143565571Y-93956095D02*
X143565571Y-93622761D01*
X144089380Y-93479904D02*
X144089380Y-93956095D01*
X143089380Y-93956095D01*
X143089380Y-93479904D01*
X144089380Y-93051333D02*
X143089380Y-93051333D01*
X144089380Y-92479904D01*
X143089380Y-92479904D01*
X123642619Y-97559761D02*
X123737857Y-97607380D01*
X123928333Y-97607380D01*
X124023571Y-97559761D01*
X124071190Y-97464523D01*
X124071190Y-97416904D01*
X124023571Y-97321666D01*
X123928333Y-97274047D01*
X123785476Y-97274047D01*
X123690238Y-97226428D01*
X123642619Y-97131190D01*
X123642619Y-97083571D01*
X123690238Y-96988333D01*
X123785476Y-96940714D01*
X123928333Y-96940714D01*
X124023571Y-96988333D01*
X124499761Y-96940714D02*
X124499761Y-97940714D01*
X124499761Y-96988333D02*
X124595000Y-96940714D01*
X124785476Y-96940714D01*
X124880714Y-96988333D01*
X124928333Y-97035952D01*
X124975952Y-97131190D01*
X124975952Y-97416904D01*
X124928333Y-97512142D01*
X124880714Y-97559761D01*
X124785476Y-97607380D01*
X124595000Y-97607380D01*
X124499761Y-97559761D01*
X125547380Y-97607380D02*
X125452142Y-97559761D01*
X125404523Y-97464523D01*
X125404523Y-96607380D01*
X125928333Y-97607380D02*
X125928333Y-96940714D01*
X125928333Y-96607380D02*
X125880714Y-96655000D01*
X125928333Y-96702619D01*
X125975952Y-96655000D01*
X125928333Y-96607380D01*
X125928333Y-96702619D01*
X126261666Y-96940714D02*
X126642619Y-96940714D01*
X126404523Y-96607380D02*
X126404523Y-97464523D01*
X126452142Y-97559761D01*
X126547380Y-97607380D01*
X126642619Y-97607380D01*
D12*
X103334285Y-121439714D02*
X103262857Y-121511142D01*
X103048571Y-121582571D01*
X102905714Y-121582571D01*
X102691428Y-121511142D01*
X102548571Y-121368285D01*
X102477142Y-121225428D01*
X102405714Y-120939714D01*
X102405714Y-120725428D01*
X102477142Y-120439714D01*
X102548571Y-120296857D01*
X102691428Y-120154000D01*
X102905714Y-120082571D01*
X103048571Y-120082571D01*
X103262857Y-120154000D01*
X103334285Y-120225428D01*
X73552857Y-65737141D02*
X73552857Y-66879999D01*
X72981428Y-66308570D02*
X74124285Y-66308570D01*
X72981428Y-68379999D02*
X72981428Y-67522856D01*
X72981428Y-67951427D02*
X74481428Y-67951427D01*
X74267142Y-67808570D01*
X74124285Y-67665713D01*
X74052857Y-67522856D01*
X74338571Y-68951427D02*
X74410000Y-69022856D01*
X74481428Y-69165713D01*
X74481428Y-69522856D01*
X74410000Y-69665713D01*
X74338571Y-69737141D01*
X74195714Y-69808570D01*
X74052857Y-69808570D01*
X73838571Y-69737141D01*
X72981428Y-68879999D01*
X72981428Y-69808570D01*
X74481428Y-70237141D02*
X72981428Y-70737141D01*
X74481428Y-71237141D01*
D11*
X150312380Y-98583619D02*
X149312380Y-98583619D01*
X149264761Y-97393142D02*
X150550476Y-98250285D01*
X149312380Y-96869333D02*
X149312380Y-96678857D01*
X149360000Y-96583619D01*
X149455238Y-96488380D01*
X149645714Y-96440761D01*
X149979047Y-96440761D01*
X150169523Y-96488380D01*
X150264761Y-96583619D01*
X150312380Y-96678857D01*
X150312380Y-96869333D01*
X150264761Y-96964571D01*
X150169523Y-97059809D01*
X149979047Y-97107428D01*
X149645714Y-97107428D01*
X149455238Y-97059809D01*
X149360000Y-96964571D01*
X149312380Y-96869333D01*
X139533333Y-119832380D02*
X139200000Y-119356190D01*
X138961904Y-119832380D02*
X138961904Y-118832380D01*
X139342857Y-118832380D01*
X139438095Y-118880000D01*
X139485714Y-118927619D01*
X139533333Y-119022857D01*
X139533333Y-119165714D01*
X139485714Y-119260952D01*
X139438095Y-119308571D01*
X139342857Y-119356190D01*
X138961904Y-119356190D01*
X139866666Y-118832380D02*
X140485714Y-118832380D01*
X140152380Y-119213333D01*
X140295238Y-119213333D01*
X140390476Y-119260952D01*
X140438095Y-119308571D01*
X140485714Y-119403809D01*
X140485714Y-119641904D01*
X140438095Y-119737142D01*
X140390476Y-119784761D01*
X140295238Y-119832380D01*
X140009523Y-119832380D01*
X139914285Y-119784761D01*
X139866666Y-119737142D01*
X156932380Y-72310476D02*
X156932380Y-71691428D01*
X157313333Y-72024761D01*
X157313333Y-71881904D01*
X157360952Y-71786666D01*
X157408571Y-71739047D01*
X157503809Y-71691428D01*
X157741904Y-71691428D01*
X157837142Y-71739047D01*
X157884761Y-71786666D01*
X157932380Y-71881904D01*
X157932380Y-72167619D01*
X157884761Y-72262857D01*
X157837142Y-72310476D01*
X157265714Y-71358095D02*
X157932380Y-71120000D01*
X157265714Y-70881904D01*
X156932380Y-70596190D02*
X156932380Y-69977142D01*
X157313333Y-70310476D01*
X157313333Y-70167619D01*
X157360952Y-70072380D01*
X157408571Y-70024761D01*
X157503809Y-69977142D01*
X157741904Y-69977142D01*
X157837142Y-70024761D01*
X157884761Y-70072380D01*
X157932380Y-70167619D01*
X157932380Y-70453333D01*
X157884761Y-70548571D01*
X157837142Y-70596190D01*
X136612380Y-103425476D02*
X136612380Y-102806428D01*
X136993333Y-103139761D01*
X136993333Y-102996904D01*
X137040952Y-102901666D01*
X137088571Y-102854047D01*
X137183809Y-102806428D01*
X137421904Y-102806428D01*
X137517142Y-102854047D01*
X137564761Y-102901666D01*
X137612380Y-102996904D01*
X137612380Y-103282619D01*
X137564761Y-103377857D01*
X137517142Y-103425476D01*
X136945714Y-102473095D02*
X137612380Y-102235000D01*
X136945714Y-101996904D01*
X136612380Y-101711190D02*
X136612380Y-101092142D01*
X136993333Y-101425476D01*
X136993333Y-101282619D01*
X137040952Y-101187380D01*
X137088571Y-101139761D01*
X137183809Y-101092142D01*
X137421904Y-101092142D01*
X137517142Y-101139761D01*
X137564761Y-101187380D01*
X137612380Y-101282619D01*
X137612380Y-101568333D01*
X137564761Y-101663571D01*
X137517142Y-101711190D01*
X135540952Y-122372380D02*
X135207619Y-121896190D01*
X134969523Y-122372380D02*
X134969523Y-121372380D01*
X135350476Y-121372380D01*
X135445714Y-121420000D01*
X135493333Y-121467619D01*
X135540952Y-121562857D01*
X135540952Y-121705714D01*
X135493333Y-121800952D01*
X135445714Y-121848571D01*
X135350476Y-121896190D01*
X134969523Y-121896190D01*
X136350476Y-122324761D02*
X136255238Y-122372380D01*
X136064761Y-122372380D01*
X135969523Y-122324761D01*
X135921904Y-122229523D01*
X135921904Y-121848571D01*
X135969523Y-121753333D01*
X136064761Y-121705714D01*
X136255238Y-121705714D01*
X136350476Y-121753333D01*
X136398095Y-121848571D01*
X136398095Y-121943809D01*
X135921904Y-122039047D01*
X136969523Y-122372380D02*
X136874285Y-122324761D01*
X136826666Y-122229523D01*
X136826666Y-121372380D01*
X137779047Y-122372380D02*
X137779047Y-121848571D01*
X137731428Y-121753333D01*
X137636190Y-121705714D01*
X137445714Y-121705714D01*
X137350476Y-121753333D01*
X137779047Y-122324761D02*
X137683809Y-122372380D01*
X137445714Y-122372380D01*
X137350476Y-122324761D01*
X137302857Y-122229523D01*
X137302857Y-122134285D01*
X137350476Y-122039047D01*
X137445714Y-121991428D01*
X137683809Y-121991428D01*
X137779047Y-121943809D01*
X138160000Y-121705714D02*
X138398095Y-122372380D01*
X138636190Y-121705714D02*
X138398095Y-122372380D01*
X138302857Y-122610476D01*
X138255238Y-122658095D01*
X138160000Y-122705714D01*
X138969523Y-122324761D02*
X139064761Y-122372380D01*
X139255238Y-122372380D01*
X139350476Y-122324761D01*
X139398095Y-122229523D01*
X139398095Y-122181904D01*
X139350476Y-122086666D01*
X139255238Y-122039047D01*
X139112380Y-122039047D01*
X139017142Y-121991428D01*
X138969523Y-121896190D01*
X138969523Y-121848571D01*
X139017142Y-121753333D01*
X139112380Y-121705714D01*
X139255238Y-121705714D01*
X139350476Y-121753333D01*
D12*
X71818571Y-87737142D02*
X72961428Y-87737142D01*
X72390000Y-88308571D02*
X72390000Y-87165714D01*
X92317142Y-119042571D02*
X92317142Y-117542571D01*
X92674285Y-117542571D01*
X92888571Y-117614000D01*
X93031428Y-117756857D01*
X93102857Y-117899714D01*
X93174285Y-118185428D01*
X93174285Y-118399714D01*
X93102857Y-118685428D01*
X93031428Y-118828285D01*
X92888571Y-118971142D01*
X92674285Y-119042571D01*
X92317142Y-119042571D01*
D11*
X141692380Y-94821333D02*
X141692380Y-94202285D01*
X142073333Y-94535619D01*
X142073333Y-94392761D01*
X142120952Y-94297523D01*
X142168571Y-94249904D01*
X142263809Y-94202285D01*
X142501904Y-94202285D01*
X142597142Y-94249904D01*
X142644761Y-94297523D01*
X142692380Y-94392761D01*
X142692380Y-94678476D01*
X142644761Y-94773714D01*
X142597142Y-94821333D01*
X80153142Y-128452571D02*
X80486476Y-128452571D01*
X80629333Y-128976380D02*
X80153142Y-128976380D01*
X80153142Y-127976380D01*
X80629333Y-127976380D01*
X81010285Y-128928761D02*
X81153142Y-128976380D01*
X81391238Y-128976380D01*
X81486476Y-128928761D01*
X81534095Y-128881142D01*
X81581714Y-128785904D01*
X81581714Y-128690666D01*
X81534095Y-128595428D01*
X81486476Y-128547809D01*
X81391238Y-128500190D01*
X81200761Y-128452571D01*
X81105523Y-128404952D01*
X81057904Y-128357333D01*
X81010285Y-128262095D01*
X81010285Y-128166857D01*
X81057904Y-128071619D01*
X81105523Y-128024000D01*
X81200761Y-127976380D01*
X81438857Y-127976380D01*
X81581714Y-128024000D01*
X82010285Y-128976380D02*
X82010285Y-127976380D01*
X82391238Y-127976380D01*
X82486476Y-128024000D01*
X82534095Y-128071619D01*
X82581714Y-128166857D01*
X82581714Y-128309714D01*
X82534095Y-128404952D01*
X82486476Y-128452571D01*
X82391238Y-128500190D01*
X82010285Y-128500190D01*
X83200761Y-127976380D02*
X83296000Y-127976380D01*
X83391238Y-128024000D01*
X83438857Y-128071619D01*
X83486476Y-128166857D01*
X83534095Y-128357333D01*
X83534095Y-128595428D01*
X83486476Y-128785904D01*
X83438857Y-128881142D01*
X83391238Y-128928761D01*
X83296000Y-128976380D01*
X83200761Y-128976380D01*
X83105523Y-128928761D01*
X83057904Y-128881142D01*
X83010285Y-128785904D01*
X82962666Y-128595428D01*
X82962666Y-128357333D01*
X83010285Y-128166857D01*
X83057904Y-128071619D01*
X83105523Y-128024000D01*
X83200761Y-127976380D01*
X84486476Y-128976380D02*
X83915047Y-128976380D01*
X84200761Y-128976380D02*
X84200761Y-127976380D01*
X84105523Y-128119238D01*
X84010285Y-128214476D01*
X83915047Y-128262095D01*
X99293809Y-126192380D02*
X99293809Y-125192380D01*
X99722380Y-125287619D02*
X99770000Y-125240000D01*
X99865238Y-125192380D01*
X100103333Y-125192380D01*
X100198571Y-125240000D01*
X100246190Y-125287619D01*
X100293809Y-125382857D01*
X100293809Y-125478095D01*
X100246190Y-125620952D01*
X99674761Y-126192380D01*
X100293809Y-126192380D01*
X101293809Y-126097142D02*
X101246190Y-126144761D01*
X101103333Y-126192380D01*
X101008095Y-126192380D01*
X100865238Y-126144761D01*
X100770000Y-126049523D01*
X100722380Y-125954285D01*
X100674761Y-125763809D01*
X100674761Y-125620952D01*
X100722380Y-125430476D01*
X100770000Y-125335238D01*
X100865238Y-125240000D01*
X101008095Y-125192380D01*
X101103333Y-125192380D01*
X101246190Y-125240000D01*
X101293809Y-125287619D01*
X147661380Y-89328476D02*
X147661380Y-88709428D01*
X148042333Y-89042761D01*
X148042333Y-88899904D01*
X148089952Y-88804666D01*
X148137571Y-88757047D01*
X148232809Y-88709428D01*
X148470904Y-88709428D01*
X148566142Y-88757047D01*
X148613761Y-88804666D01*
X148661380Y-88899904D01*
X148661380Y-89185619D01*
X148613761Y-89280857D01*
X148566142Y-89328476D01*
X147994714Y-88376095D02*
X148661380Y-88138000D01*
X147994714Y-87899904D01*
X147661380Y-87614190D02*
X147661380Y-86995142D01*
X148042333Y-87328476D01*
X148042333Y-87185619D01*
X148089952Y-87090380D01*
X148137571Y-87042761D01*
X148232809Y-86995142D01*
X148470904Y-86995142D01*
X148566142Y-87042761D01*
X148613761Y-87090380D01*
X148661380Y-87185619D01*
X148661380Y-87471333D01*
X148613761Y-87566571D01*
X148566142Y-87614190D01*
X149614000Y-92344523D02*
X149566380Y-92439761D01*
X149566380Y-92582619D01*
X149614000Y-92725476D01*
X149709238Y-92820714D01*
X149804476Y-92868333D01*
X149994952Y-92915952D01*
X150137809Y-92915952D01*
X150328285Y-92868333D01*
X150423523Y-92820714D01*
X150518761Y-92725476D01*
X150566380Y-92582619D01*
X150566380Y-92487380D01*
X150518761Y-92344523D01*
X150471142Y-92296904D01*
X150137809Y-92296904D01*
X150137809Y-92487380D01*
X150566380Y-91868333D02*
X149566380Y-91868333D01*
X149566380Y-91487380D01*
X149614000Y-91392142D01*
X149661619Y-91344523D01*
X149756857Y-91296904D01*
X149899714Y-91296904D01*
X149994952Y-91344523D01*
X150042571Y-91392142D01*
X150090190Y-91487380D01*
X150090190Y-91868333D01*
X150566380Y-90868333D02*
X149566380Y-90868333D01*
X149566380Y-90201666D02*
X149566380Y-90011190D01*
X149614000Y-89915952D01*
X149709238Y-89820714D01*
X149899714Y-89773095D01*
X150233047Y-89773095D01*
X150423523Y-89820714D01*
X150518761Y-89915952D01*
X150566380Y-90011190D01*
X150566380Y-90201666D01*
X150518761Y-90296904D01*
X150423523Y-90392142D01*
X150233047Y-90439761D01*
X149899714Y-90439761D01*
X149709238Y-90392142D01*
X149614000Y-90296904D01*
X149566380Y-90201666D01*
X150042571Y-88582619D02*
X150042571Y-88249285D01*
X150566380Y-88106428D02*
X150566380Y-88582619D01*
X149566380Y-88582619D01*
X149566380Y-88106428D01*
X150518761Y-87725476D02*
X150566380Y-87582619D01*
X150566380Y-87344523D01*
X150518761Y-87249285D01*
X150471142Y-87201666D01*
X150375904Y-87154047D01*
X150280666Y-87154047D01*
X150185428Y-87201666D01*
X150137809Y-87249285D01*
X150090190Y-87344523D01*
X150042571Y-87535000D01*
X149994952Y-87630238D01*
X149947333Y-87677857D01*
X149852095Y-87725476D01*
X149756857Y-87725476D01*
X149661619Y-87677857D01*
X149614000Y-87630238D01*
X149566380Y-87535000D01*
X149566380Y-87296904D01*
X149614000Y-87154047D01*
X150566380Y-86725476D02*
X149566380Y-86725476D01*
X149566380Y-86344523D01*
X149614000Y-86249285D01*
X149661619Y-86201666D01*
X149756857Y-86154047D01*
X149899714Y-86154047D01*
X149994952Y-86201666D01*
X150042571Y-86249285D01*
X150090190Y-86344523D01*
X150090190Y-86725476D01*
D12*
X78930714Y-80053571D02*
X78930714Y-78553571D01*
X79645000Y-80053571D02*
X79645000Y-78553571D01*
X80502142Y-80053571D01*
X80502142Y-78553571D01*
X81216428Y-79482142D02*
X82359285Y-79482142D01*
D11*
X157233904Y-97544000D02*
X157138666Y-97496380D01*
X156995809Y-97496380D01*
X156852952Y-97544000D01*
X156757714Y-97639238D01*
X156710095Y-97734476D01*
X156662476Y-97924952D01*
X156662476Y-98067809D01*
X156710095Y-98258285D01*
X156757714Y-98353523D01*
X156852952Y-98448761D01*
X156995809Y-98496380D01*
X157091047Y-98496380D01*
X157233904Y-98448761D01*
X157281523Y-98401142D01*
X157281523Y-98067809D01*
X157091047Y-98067809D01*
X157932380Y-84605714D02*
X156932380Y-84605714D01*
X156932380Y-84224761D01*
X156980000Y-84129523D01*
X157027619Y-84081904D01*
X157122857Y-84034285D01*
X157265714Y-84034285D01*
X157360952Y-84081904D01*
X157408571Y-84129523D01*
X157456190Y-84224761D01*
X157456190Y-84605714D01*
X157932380Y-83605714D02*
X156932380Y-83605714D01*
X157408571Y-83605714D02*
X157408571Y-83034285D01*
X157932380Y-83034285D02*
X156932380Y-83034285D01*
X141263619Y-92916380D02*
X141263619Y-93011619D01*
X141216000Y-93106857D01*
X141168380Y-93154476D01*
X141073142Y-93202095D01*
X140882666Y-93249714D01*
X140644571Y-93249714D01*
X140454095Y-93202095D01*
X140358857Y-93154476D01*
X140311238Y-93106857D01*
X140263619Y-93011619D01*
X140263619Y-92916380D01*
X140311238Y-92821142D01*
X140358857Y-92773523D01*
X140454095Y-92725904D01*
X140644571Y-92678285D01*
X140882666Y-92678285D01*
X141073142Y-92725904D01*
X141168380Y-92773523D01*
X141216000Y-92821142D01*
X141263619Y-92916380D01*
X62768219Y-96013923D02*
X63768219Y-96013923D01*
X63053933Y-96347257D01*
X63768219Y-96680590D01*
X62768219Y-96680590D01*
X62768219Y-97299638D02*
X62815838Y-97204400D01*
X62863457Y-97156780D01*
X62958695Y-97109161D01*
X63244409Y-97109161D01*
X63339647Y-97156780D01*
X63387266Y-97204400D01*
X63434885Y-97299638D01*
X63434885Y-97442495D01*
X63387266Y-97537733D01*
X63339647Y-97585352D01*
X63244409Y-97632971D01*
X62958695Y-97632971D01*
X62863457Y-97585352D01*
X62815838Y-97537733D01*
X62768219Y-97442495D01*
X62768219Y-97299638D01*
X63434885Y-97918685D02*
X63434885Y-98299638D01*
X63768219Y-98061542D02*
X62911076Y-98061542D01*
X62815838Y-98109161D01*
X62768219Y-98204400D01*
X62768219Y-98299638D01*
X62768219Y-98775828D02*
X62815838Y-98680590D01*
X62863457Y-98632971D01*
X62958695Y-98585352D01*
X63244409Y-98585352D01*
X63339647Y-98632971D01*
X63387266Y-98680590D01*
X63434885Y-98775828D01*
X63434885Y-98918685D01*
X63387266Y-99013923D01*
X63339647Y-99061542D01*
X63244409Y-99109161D01*
X62958695Y-99109161D01*
X62863457Y-99061542D01*
X62815838Y-99013923D01*
X62768219Y-98918685D01*
X62768219Y-98775828D01*
X62768219Y-99537733D02*
X63434885Y-99537733D01*
X63244409Y-99537733D02*
X63339647Y-99585352D01*
X63387266Y-99632971D01*
X63434885Y-99728209D01*
X63434885Y-99823447D01*
X62768219Y-101442495D02*
X62768219Y-100871066D01*
X62768219Y-101156780D02*
X63768219Y-101156780D01*
X63625361Y-101061542D01*
X63530123Y-100966304D01*
X63482504Y-100871066D01*
X63047619Y-112879523D02*
X64047619Y-112879523D01*
X63333333Y-113212857D01*
X64047619Y-113546190D01*
X63047619Y-113546190D01*
X63047619Y-114165238D02*
X63095238Y-114070000D01*
X63142857Y-114022380D01*
X63238095Y-113974761D01*
X63523809Y-113974761D01*
X63619047Y-114022380D01*
X63666666Y-114070000D01*
X63714285Y-114165238D01*
X63714285Y-114308095D01*
X63666666Y-114403333D01*
X63619047Y-114450952D01*
X63523809Y-114498571D01*
X63238095Y-114498571D01*
X63142857Y-114450952D01*
X63095238Y-114403333D01*
X63047619Y-114308095D01*
X63047619Y-114165238D01*
X63714285Y-114784285D02*
X63714285Y-115165238D01*
X64047619Y-114927142D02*
X63190476Y-114927142D01*
X63095238Y-114974761D01*
X63047619Y-115070000D01*
X63047619Y-115165238D01*
X63047619Y-115641428D02*
X63095238Y-115546190D01*
X63142857Y-115498571D01*
X63238095Y-115450952D01*
X63523809Y-115450952D01*
X63619047Y-115498571D01*
X63666666Y-115546190D01*
X63714285Y-115641428D01*
X63714285Y-115784285D01*
X63666666Y-115879523D01*
X63619047Y-115927142D01*
X63523809Y-115974761D01*
X63238095Y-115974761D01*
X63142857Y-115927142D01*
X63095238Y-115879523D01*
X63047619Y-115784285D01*
X63047619Y-115641428D01*
X63047619Y-116403333D02*
X63714285Y-116403333D01*
X63523809Y-116403333D02*
X63619047Y-116450952D01*
X63666666Y-116498571D01*
X63714285Y-116593809D01*
X63714285Y-116689047D01*
X64047619Y-117689047D02*
X64047619Y-118308095D01*
X63666666Y-117974761D01*
X63666666Y-118117619D01*
X63619047Y-118212857D01*
X63571428Y-118260476D01*
X63476190Y-118308095D01*
X63238095Y-118308095D01*
X63142857Y-118260476D01*
X63095238Y-118212857D01*
X63047619Y-118117619D01*
X63047619Y-117831904D01*
X63095238Y-117736666D01*
X63142857Y-117689047D01*
D12*
X71818571Y-96627142D02*
X72961428Y-96627142D01*
X72390000Y-97198571D02*
X72390000Y-96055714D01*
X78930714Y-76243571D02*
X78930714Y-74743571D01*
X79645000Y-76243571D02*
X79645000Y-74743571D01*
X80502142Y-76243571D01*
X80502142Y-74743571D01*
X81216428Y-75672142D02*
X82359285Y-75672142D01*
X81787857Y-76243571D02*
X81787857Y-75100714D01*
X148798500Y-63895714D02*
X148736595Y-64019523D01*
X148736595Y-64205238D01*
X148798500Y-64390952D01*
X148922309Y-64514761D01*
X149046119Y-64576666D01*
X149293738Y-64638571D01*
X149479452Y-64638571D01*
X149727071Y-64576666D01*
X149850880Y-64514761D01*
X149974690Y-64390952D01*
X150036595Y-64205238D01*
X150036595Y-64081428D01*
X149974690Y-63895714D01*
X149912785Y-63833809D01*
X149479452Y-63833809D01*
X149479452Y-64081428D01*
X150036595Y-62719523D02*
X149355642Y-62719523D01*
X149231833Y-62781428D01*
X149169928Y-62905238D01*
X149169928Y-63152857D01*
X149231833Y-63276666D01*
X149974690Y-62719523D02*
X150036595Y-62843333D01*
X150036595Y-63152857D01*
X149974690Y-63276666D01*
X149850880Y-63338571D01*
X149727071Y-63338571D01*
X149603261Y-63276666D01*
X149541357Y-63152857D01*
X149541357Y-62843333D01*
X149479452Y-62719523D01*
X150036595Y-62100476D02*
X149169928Y-62100476D01*
X149417547Y-62100476D02*
X149293738Y-62038571D01*
X149231833Y-61976666D01*
X149169928Y-61852857D01*
X149169928Y-61729047D01*
X150036595Y-60738571D02*
X148736595Y-60738571D01*
X149974690Y-60738571D02*
X150036595Y-60862380D01*
X150036595Y-61110000D01*
X149974690Y-61233809D01*
X149912785Y-61295714D01*
X149788976Y-61357619D01*
X149417547Y-61357619D01*
X149293738Y-61295714D01*
X149231833Y-61233809D01*
X149169928Y-61110000D01*
X149169928Y-60862380D01*
X149231833Y-60738571D01*
X149974690Y-59624285D02*
X150036595Y-59748095D01*
X150036595Y-59995714D01*
X149974690Y-60119523D01*
X149850880Y-60181428D01*
X149355642Y-60181428D01*
X149231833Y-60119523D01*
X149169928Y-59995714D01*
X149169928Y-59748095D01*
X149231833Y-59624285D01*
X149355642Y-59562380D01*
X149479452Y-59562380D01*
X149603261Y-60181428D01*
X149169928Y-59005238D02*
X150036595Y-59005238D01*
X149293738Y-59005238D02*
X149231833Y-58943333D01*
X149169928Y-58819523D01*
X149169928Y-58633809D01*
X149231833Y-58510000D01*
X149355642Y-58448095D01*
X150036595Y-58448095D01*
X150036595Y-56838571D02*
X148736595Y-56838571D01*
X150036595Y-56219523D02*
X148736595Y-56219523D01*
X150036595Y-54610000D02*
X148736595Y-54610000D01*
X149231833Y-54610000D02*
X149169928Y-54486190D01*
X149169928Y-54238571D01*
X149231833Y-54114761D01*
X149293738Y-54052857D01*
X149417547Y-53990952D01*
X149788976Y-53990952D01*
X149912785Y-54052857D01*
X149974690Y-54114761D01*
X150036595Y-54238571D01*
X150036595Y-54486190D01*
X149974690Y-54610000D01*
X150036595Y-53248095D02*
X149974690Y-53371904D01*
X149912785Y-53433809D01*
X149788976Y-53495714D01*
X149417547Y-53495714D01*
X149293738Y-53433809D01*
X149231833Y-53371904D01*
X149169928Y-53248095D01*
X149169928Y-53062380D01*
X149231833Y-52938571D01*
X149293738Y-52876666D01*
X149417547Y-52814761D01*
X149788976Y-52814761D01*
X149912785Y-52876666D01*
X149974690Y-52938571D01*
X150036595Y-53062380D01*
X150036595Y-53248095D01*
X150036595Y-51700476D02*
X149355642Y-51700476D01*
X149231833Y-51762380D01*
X149169928Y-51886190D01*
X149169928Y-52133809D01*
X149231833Y-52257619D01*
X149974690Y-51700476D02*
X150036595Y-51824285D01*
X150036595Y-52133809D01*
X149974690Y-52257619D01*
X149850880Y-52319523D01*
X149727071Y-52319523D01*
X149603261Y-52257619D01*
X149541357Y-52133809D01*
X149541357Y-51824285D01*
X149479452Y-51700476D01*
X150036595Y-51081428D02*
X149169928Y-51081428D01*
X149417547Y-51081428D02*
X149293738Y-51019523D01*
X149231833Y-50957619D01*
X149169928Y-50833809D01*
X149169928Y-50710000D01*
X150036595Y-49719523D02*
X148736595Y-49719523D01*
X149974690Y-49719523D02*
X150036595Y-49843333D01*
X150036595Y-50090952D01*
X149974690Y-50214761D01*
X149912785Y-50276666D01*
X149788976Y-50338571D01*
X149417547Y-50338571D01*
X149293738Y-50276666D01*
X149231833Y-50214761D01*
X149169928Y-50090952D01*
X149169928Y-49843333D01*
X149231833Y-49719523D01*
X149169928Y-48233809D02*
X150036595Y-47924285D01*
X149169928Y-47614761D01*
X150036595Y-46438571D02*
X150036595Y-47181428D01*
X150036595Y-46810000D02*
X148736595Y-46810000D01*
X148922309Y-46933809D01*
X149046119Y-47057619D01*
X149108023Y-47181428D01*
X149912785Y-45881428D02*
X149974690Y-45819523D01*
X150036595Y-45881428D01*
X149974690Y-45943333D01*
X149912785Y-45881428D01*
X150036595Y-45881428D01*
X148736595Y-45014761D02*
X148736595Y-44890952D01*
X148798500Y-44767142D01*
X148860404Y-44705238D01*
X148984214Y-44643333D01*
X149231833Y-44581428D01*
X149541357Y-44581428D01*
X149788976Y-44643333D01*
X149912785Y-44705238D01*
X149974690Y-44767142D01*
X150036595Y-44890952D01*
X150036595Y-45014761D01*
X149974690Y-45138571D01*
X149912785Y-45200476D01*
X149788976Y-45262380D01*
X149541357Y-45324285D01*
X149231833Y-45324285D01*
X148984214Y-45262380D01*
X148860404Y-45200476D01*
X148798500Y-45138571D01*
X148736595Y-45014761D01*
X152129595Y-65629047D02*
X150829595Y-65629047D01*
X150829595Y-65133809D01*
X150891500Y-65010000D01*
X150953404Y-64948095D01*
X151077214Y-64886190D01*
X151262928Y-64886190D01*
X151386738Y-64948095D01*
X151448642Y-65010000D01*
X151510547Y-65133809D01*
X151510547Y-65629047D01*
X152129595Y-63771904D02*
X151448642Y-63771904D01*
X151324833Y-63833809D01*
X151262928Y-63957619D01*
X151262928Y-64205238D01*
X151324833Y-64329047D01*
X152067690Y-63771904D02*
X152129595Y-63895714D01*
X152129595Y-64205238D01*
X152067690Y-64329047D01*
X151943880Y-64390952D01*
X151820071Y-64390952D01*
X151696261Y-64329047D01*
X151634357Y-64205238D01*
X151634357Y-63895714D01*
X151572452Y-63771904D01*
X151262928Y-63152857D02*
X152377214Y-63152857D01*
X152501023Y-63214761D01*
X152562928Y-63338571D01*
X152562928Y-63400476D01*
X150829595Y-63152857D02*
X150891500Y-63214761D01*
X150953404Y-63152857D01*
X150891500Y-63090952D01*
X150829595Y-63152857D01*
X150953404Y-63152857D01*
X152129595Y-61976666D02*
X151448642Y-61976666D01*
X151324833Y-62038571D01*
X151262928Y-62162380D01*
X151262928Y-62410000D01*
X151324833Y-62533809D01*
X152067690Y-61976666D02*
X152129595Y-62100476D01*
X152129595Y-62410000D01*
X152067690Y-62533809D01*
X151943880Y-62595714D01*
X151820071Y-62595714D01*
X151696261Y-62533809D01*
X151634357Y-62410000D01*
X151634357Y-62100476D01*
X151572452Y-61976666D01*
X151262928Y-61481428D02*
X151262928Y-60800476D01*
X152129595Y-61481428D01*
X152129595Y-60800476D01*
X152129595Y-58757619D02*
X150829595Y-58757619D01*
X152067690Y-58757619D02*
X152129595Y-58881428D01*
X152129595Y-59129047D01*
X152067690Y-59252857D01*
X152005785Y-59314761D01*
X151881976Y-59376666D01*
X151510547Y-59376666D01*
X151386738Y-59314761D01*
X151324833Y-59252857D01*
X151262928Y-59129047D01*
X151262928Y-58881428D01*
X151324833Y-58757619D01*
X152067690Y-57643333D02*
X152129595Y-57767142D01*
X152129595Y-58014761D01*
X152067690Y-58138571D01*
X151943880Y-58200476D01*
X151448642Y-58200476D01*
X151324833Y-58138571D01*
X151262928Y-58014761D01*
X151262928Y-57767142D01*
X151324833Y-57643333D01*
X151448642Y-57581428D01*
X151572452Y-57581428D01*
X151696261Y-58200476D01*
X152067690Y-57086190D02*
X152129595Y-56962380D01*
X152129595Y-56714761D01*
X152067690Y-56590952D01*
X151943880Y-56529047D01*
X151881976Y-56529047D01*
X151758166Y-56590952D01*
X151696261Y-56714761D01*
X151696261Y-56900476D01*
X151634357Y-57024285D01*
X151510547Y-57086190D01*
X151448642Y-57086190D01*
X151324833Y-57024285D01*
X151262928Y-56900476D01*
X151262928Y-56714761D01*
X151324833Y-56590952D01*
X152129595Y-55971904D02*
X151262928Y-55971904D01*
X150829595Y-55971904D02*
X150891500Y-56033809D01*
X150953404Y-55971904D01*
X150891500Y-55910000D01*
X150829595Y-55971904D01*
X150953404Y-55971904D01*
X151262928Y-54795714D02*
X152315309Y-54795714D01*
X152439119Y-54857619D01*
X152501023Y-54919523D01*
X152562928Y-55043333D01*
X152562928Y-55229047D01*
X152501023Y-55352857D01*
X152067690Y-54795714D02*
X152129595Y-54919523D01*
X152129595Y-55167142D01*
X152067690Y-55290952D01*
X152005785Y-55352857D01*
X151881976Y-55414761D01*
X151510547Y-55414761D01*
X151386738Y-55352857D01*
X151324833Y-55290952D01*
X151262928Y-55167142D01*
X151262928Y-54919523D01*
X151324833Y-54795714D01*
X151262928Y-54176666D02*
X152129595Y-54176666D01*
X151386738Y-54176666D02*
X151324833Y-54114761D01*
X151262928Y-53990952D01*
X151262928Y-53805238D01*
X151324833Y-53681428D01*
X151448642Y-53619523D01*
X152129595Y-53619523D01*
X151758166Y-52071904D02*
X151758166Y-51452857D01*
X152129595Y-52195714D02*
X150829595Y-51762380D01*
X152129595Y-51329047D01*
X151262928Y-50895714D02*
X152562928Y-50895714D01*
X151324833Y-50895714D02*
X151262928Y-50771904D01*
X151262928Y-50524285D01*
X151324833Y-50400476D01*
X151386738Y-50338571D01*
X151510547Y-50276666D01*
X151881976Y-50276666D01*
X152005785Y-50338571D01*
X152067690Y-50400476D01*
X152129595Y-50524285D01*
X152129595Y-50771904D01*
X152067690Y-50895714D01*
X152129595Y-49719523D02*
X151262928Y-49719523D01*
X151510547Y-49719523D02*
X151386738Y-49657619D01*
X151324833Y-49595714D01*
X151262928Y-49471904D01*
X151262928Y-49348095D01*
X150953404Y-47986190D02*
X150891500Y-47924285D01*
X150829595Y-47800476D01*
X150829595Y-47490952D01*
X150891500Y-47367142D01*
X150953404Y-47305238D01*
X151077214Y-47243333D01*
X151201023Y-47243333D01*
X151386738Y-47305238D01*
X152129595Y-48048095D01*
X152129595Y-47243333D01*
X150829595Y-46438571D02*
X150829595Y-46314761D01*
X150891500Y-46190952D01*
X150953404Y-46129047D01*
X151077214Y-46067142D01*
X151324833Y-46005238D01*
X151634357Y-46005238D01*
X151881976Y-46067142D01*
X152005785Y-46129047D01*
X152067690Y-46190952D01*
X152129595Y-46314761D01*
X152129595Y-46438571D01*
X152067690Y-46562380D01*
X152005785Y-46624285D01*
X151881976Y-46686190D01*
X151634357Y-46748095D01*
X151324833Y-46748095D01*
X151077214Y-46686190D01*
X150953404Y-46624285D01*
X150891500Y-46562380D01*
X150829595Y-46438571D01*
X150953404Y-45510000D02*
X150891500Y-45448095D01*
X150829595Y-45324285D01*
X150829595Y-45014761D01*
X150891500Y-44890952D01*
X150953404Y-44829047D01*
X151077214Y-44767142D01*
X151201023Y-44767142D01*
X151386738Y-44829047D01*
X152129595Y-45571904D01*
X152129595Y-44767142D01*
X150953404Y-44271904D02*
X150891500Y-44210000D01*
X150829595Y-44086190D01*
X150829595Y-43776666D01*
X150891500Y-43652857D01*
X150953404Y-43590952D01*
X151077214Y-43529047D01*
X151201023Y-43529047D01*
X151386738Y-43590952D01*
X152129595Y-44333809D01*
X152129595Y-43529047D01*
X92900571Y-105771142D02*
X94043428Y-105771142D01*
X102477142Y-119042571D02*
X102477142Y-117542571D01*
X102834285Y-117542571D01*
X103048571Y-117614000D01*
X103191428Y-117756857D01*
X103262857Y-117899714D01*
X103334285Y-118185428D01*
X103334285Y-118399714D01*
X103262857Y-118685428D01*
X103191428Y-118828285D01*
X103048571Y-118971142D01*
X102834285Y-119042571D01*
X102477142Y-119042571D01*
D11*
X147280380Y-94821333D02*
X147280380Y-94154666D01*
X148280380Y-94583238D01*
X156932380Y-64841333D02*
X157932380Y-64603238D01*
X157218095Y-64412761D01*
X157932380Y-64222285D01*
X156932380Y-63984190D01*
X157932380Y-63127047D02*
X157932380Y-63603238D01*
X156932380Y-63603238D01*
X156980000Y-66286095D02*
X156932380Y-66381333D01*
X156932380Y-66524190D01*
X156980000Y-66667047D01*
X157075238Y-66762285D01*
X157170476Y-66809904D01*
X157360952Y-66857523D01*
X157503809Y-66857523D01*
X157694285Y-66809904D01*
X157789523Y-66762285D01*
X157884761Y-66667047D01*
X157932380Y-66524190D01*
X157932380Y-66428952D01*
X157884761Y-66286095D01*
X157837142Y-66238476D01*
X157503809Y-66238476D01*
X157503809Y-66428952D01*
X136660000Y-94226095D02*
X136612380Y-94321333D01*
X136612380Y-94464190D01*
X136660000Y-94607047D01*
X136755238Y-94702285D01*
X136850476Y-94749904D01*
X137040952Y-94797523D01*
X137183809Y-94797523D01*
X137374285Y-94749904D01*
X137469523Y-94702285D01*
X137564761Y-94607047D01*
X137612380Y-94464190D01*
X137612380Y-94368952D01*
X137564761Y-94226095D01*
X137517142Y-94178476D01*
X137183809Y-94178476D01*
X137183809Y-94368952D01*
D12*
X78930714Y-88943571D02*
X78930714Y-87443571D01*
X79645000Y-88943571D02*
X79645000Y-87443571D01*
X80502142Y-88943571D01*
X80502142Y-87443571D01*
X81216428Y-88372142D02*
X82359285Y-88372142D01*
X81787857Y-88943571D02*
X81787857Y-87800714D01*
X99052857Y-44732857D02*
X98838571Y-44661428D01*
X98481428Y-44661428D01*
X98338571Y-44732857D01*
X98267142Y-44804285D01*
X98195714Y-44947142D01*
X98195714Y-45090000D01*
X98267142Y-45232857D01*
X98338571Y-45304285D01*
X98481428Y-45375714D01*
X98767142Y-45447142D01*
X98910000Y-45518571D01*
X98981428Y-45590000D01*
X99052857Y-45732857D01*
X99052857Y-45875714D01*
X98981428Y-46018571D01*
X98910000Y-46090000D01*
X98767142Y-46161428D01*
X98410000Y-46161428D01*
X98195714Y-46090000D01*
X97767142Y-45661428D02*
X97195714Y-45661428D01*
X97552857Y-46161428D02*
X97552857Y-44875714D01*
X97481428Y-44732857D01*
X97338571Y-44661428D01*
X97195714Y-44661428D01*
X96124285Y-44732857D02*
X96267142Y-44661428D01*
X96552857Y-44661428D01*
X96695714Y-44732857D01*
X96767142Y-44875714D01*
X96767142Y-45447142D01*
X96695714Y-45590000D01*
X96552857Y-45661428D01*
X96267142Y-45661428D01*
X96124285Y-45590000D01*
X96052857Y-45447142D01*
X96052857Y-45304285D01*
X96767142Y-45161428D01*
X95410000Y-45661428D02*
X95410000Y-44161428D01*
X95410000Y-45590000D02*
X95267142Y-45661428D01*
X94981428Y-45661428D01*
X94838571Y-45590000D01*
X94767142Y-45518571D01*
X94695714Y-45375714D01*
X94695714Y-44947142D01*
X94767142Y-44804285D01*
X94838571Y-44732857D01*
X94981428Y-44661428D01*
X95267142Y-44661428D01*
X95410000Y-44732857D01*
X93267142Y-44661428D02*
X94124285Y-44661428D01*
X93695714Y-44661428D02*
X93695714Y-46161428D01*
X93838571Y-45947142D01*
X93981428Y-45804285D01*
X94124285Y-45732857D01*
D11*
X139533333Y-114752380D02*
X139200000Y-114276190D01*
X138961904Y-114752380D02*
X138961904Y-113752380D01*
X139342857Y-113752380D01*
X139438095Y-113800000D01*
X139485714Y-113847619D01*
X139533333Y-113942857D01*
X139533333Y-114085714D01*
X139485714Y-114180952D01*
X139438095Y-114228571D01*
X139342857Y-114276190D01*
X138961904Y-114276190D01*
X140485714Y-114752380D02*
X139914285Y-114752380D01*
X140200000Y-114752380D02*
X140200000Y-113752380D01*
X140104761Y-113895238D01*
X140009523Y-113990476D01*
X139914285Y-114038095D01*
D12*
X103338285Y-108604857D02*
X102838285Y-108604857D01*
X102838285Y-109390571D02*
X102838285Y-107890571D01*
X103552571Y-107890571D01*
D11*
X139533333Y-112212380D02*
X139200000Y-111736190D01*
X138961904Y-112212380D02*
X138961904Y-111212380D01*
X139342857Y-111212380D01*
X139438095Y-111260000D01*
X139485714Y-111307619D01*
X139533333Y-111402857D01*
X139533333Y-111545714D01*
X139485714Y-111640952D01*
X139438095Y-111688571D01*
X139342857Y-111736190D01*
X138961904Y-111736190D01*
X140152380Y-111212380D02*
X140247619Y-111212380D01*
X140342857Y-111260000D01*
X140390476Y-111307619D01*
X140438095Y-111402857D01*
X140485714Y-111593333D01*
X140485714Y-111831428D01*
X140438095Y-112021904D01*
X140390476Y-112117142D01*
X140342857Y-112164761D01*
X140247619Y-112212380D01*
X140152380Y-112212380D01*
X140057142Y-112164761D01*
X140009523Y-112117142D01*
X139961904Y-112021904D01*
X139914285Y-111831428D01*
X139914285Y-111593333D01*
X139961904Y-111402857D01*
X140009523Y-111307619D01*
X140057142Y-111260000D01*
X140152380Y-111212380D01*
X156932380Y-88058476D02*
X156932380Y-87439428D01*
X157313333Y-87772761D01*
X157313333Y-87629904D01*
X157360952Y-87534666D01*
X157408571Y-87487047D01*
X157503809Y-87439428D01*
X157741904Y-87439428D01*
X157837142Y-87487047D01*
X157884761Y-87534666D01*
X157932380Y-87629904D01*
X157932380Y-87915619D01*
X157884761Y-88010857D01*
X157837142Y-88058476D01*
X157265714Y-87106095D02*
X157932380Y-86868000D01*
X157265714Y-86629904D01*
X156932380Y-86344190D02*
X156932380Y-85725142D01*
X157313333Y-86058476D01*
X157313333Y-85915619D01*
X157360952Y-85820380D01*
X157408571Y-85772761D01*
X157503809Y-85725142D01*
X157741904Y-85725142D01*
X157837142Y-85772761D01*
X157884761Y-85820380D01*
X157932380Y-85915619D01*
X157932380Y-86201333D01*
X157884761Y-86296571D01*
X157837142Y-86344190D01*
X147693095Y-66540000D02*
X147788333Y-66587619D01*
X147931190Y-66587619D01*
X148074047Y-66540000D01*
X148169285Y-66444761D01*
X148216904Y-66349523D01*
X148264523Y-66159047D01*
X148264523Y-66016190D01*
X148216904Y-65825714D01*
X148169285Y-65730476D01*
X148074047Y-65635238D01*
X147931190Y-65587619D01*
X147835952Y-65587619D01*
X147693095Y-65635238D01*
X147645476Y-65682857D01*
X147645476Y-66016190D01*
X147835952Y-66016190D01*
D12*
X102298571Y-123297142D02*
X103441428Y-123297142D01*
D11*
X146129285Y-65873333D02*
X145653095Y-65873333D01*
X146224523Y-65587619D02*
X145891190Y-66587619D01*
X145557857Y-65587619D01*
X145319761Y-66587619D02*
X144700714Y-66587619D01*
X145034047Y-66206666D01*
X144891190Y-66206666D01*
X144795952Y-66159047D01*
X144748333Y-66111428D01*
X144700714Y-66016190D01*
X144700714Y-65778095D01*
X144748333Y-65682857D01*
X144795952Y-65635238D01*
X144891190Y-65587619D01*
X145176904Y-65587619D01*
X145272142Y-65635238D01*
X145319761Y-65682857D01*
%TO.C,C3*%
X126087142Y-59221666D02*
X126134761Y-59269285D01*
X126182380Y-59412142D01*
X126182380Y-59507380D01*
X126134761Y-59650238D01*
X126039523Y-59745476D01*
X125944285Y-59793095D01*
X125753809Y-59840714D01*
X125610952Y-59840714D01*
X125420476Y-59793095D01*
X125325238Y-59745476D01*
X125230000Y-59650238D01*
X125182380Y-59507380D01*
X125182380Y-59412142D01*
X125230000Y-59269285D01*
X125277619Y-59221666D01*
X125182380Y-58888333D02*
X125182380Y-58269285D01*
X125563333Y-58602619D01*
X125563333Y-58459761D01*
X125610952Y-58364523D01*
X125658571Y-58316904D01*
X125753809Y-58269285D01*
X125991904Y-58269285D01*
X126087142Y-58316904D01*
X126134761Y-58364523D01*
X126182380Y-58459761D01*
X126182380Y-58745476D01*
X126134761Y-58840714D01*
X126087142Y-58888333D01*
%TO.C,D1*%
X101727380Y-78838095D02*
X100727380Y-78838095D01*
X100727380Y-78600000D01*
X100775000Y-78457142D01*
X100870238Y-78361904D01*
X100965476Y-78314285D01*
X101155952Y-78266666D01*
X101298809Y-78266666D01*
X101489285Y-78314285D01*
X101584523Y-78361904D01*
X101679761Y-78457142D01*
X101727380Y-78600000D01*
X101727380Y-78838095D01*
X101727380Y-77314285D02*
X101727380Y-77885714D01*
X101727380Y-77600000D02*
X100727380Y-77600000D01*
X100870238Y-77695238D01*
X100965476Y-77790476D01*
X101013095Y-77885714D01*
%TO.C,R9*%
X147661333Y-118567380D02*
X147328000Y-118091190D01*
X147089904Y-118567380D02*
X147089904Y-117567380D01*
X147470857Y-117567380D01*
X147566095Y-117615000D01*
X147613714Y-117662619D01*
X147661333Y-117757857D01*
X147661333Y-117900714D01*
X147613714Y-117995952D01*
X147566095Y-118043571D01*
X147470857Y-118091190D01*
X147089904Y-118091190D01*
X148137523Y-118567380D02*
X148328000Y-118567380D01*
X148423238Y-118519761D01*
X148470857Y-118472142D01*
X148566095Y-118329285D01*
X148613714Y-118138809D01*
X148613714Y-117757857D01*
X148566095Y-117662619D01*
X148518476Y-117615000D01*
X148423238Y-117567380D01*
X148232761Y-117567380D01*
X148137523Y-117615000D01*
X148089904Y-117662619D01*
X148042285Y-117757857D01*
X148042285Y-117995952D01*
X148089904Y-118091190D01*
X148137523Y-118138809D01*
X148232761Y-118186428D01*
X148423238Y-118186428D01*
X148518476Y-118138809D01*
X148566095Y-118091190D01*
X148613714Y-117995952D01*
%TO.C,R3*%
X146828333Y-81642380D02*
X146495000Y-81166190D01*
X146256904Y-81642380D02*
X146256904Y-80642380D01*
X146637857Y-80642380D01*
X146733095Y-80690000D01*
X146780714Y-80737619D01*
X146828333Y-80832857D01*
X146828333Y-80975714D01*
X146780714Y-81070952D01*
X146733095Y-81118571D01*
X146637857Y-81166190D01*
X146256904Y-81166190D01*
X147161666Y-80642380D02*
X147780714Y-80642380D01*
X147447380Y-81023333D01*
X147590238Y-81023333D01*
X147685476Y-81070952D01*
X147733095Y-81118571D01*
X147780714Y-81213809D01*
X147780714Y-81451904D01*
X147733095Y-81547142D01*
X147685476Y-81594761D01*
X147590238Y-81642380D01*
X147304523Y-81642380D01*
X147209285Y-81594761D01*
X147161666Y-81547142D01*
%TO.C,C12*%
X94917142Y-92525142D02*
X94869523Y-92572761D01*
X94726666Y-92620380D01*
X94631428Y-92620380D01*
X94488571Y-92572761D01*
X94393333Y-92477523D01*
X94345714Y-92382285D01*
X94298095Y-92191809D01*
X94298095Y-92048952D01*
X94345714Y-91858476D01*
X94393333Y-91763238D01*
X94488571Y-91668000D01*
X94631428Y-91620380D01*
X94726666Y-91620380D01*
X94869523Y-91668000D01*
X94917142Y-91715619D01*
X95869523Y-92620380D02*
X95298095Y-92620380D01*
X95583809Y-92620380D02*
X95583809Y-91620380D01*
X95488571Y-91763238D01*
X95393333Y-91858476D01*
X95298095Y-91906095D01*
X96250476Y-91715619D02*
X96298095Y-91668000D01*
X96393333Y-91620380D01*
X96631428Y-91620380D01*
X96726666Y-91668000D01*
X96774285Y-91715619D01*
X96821904Y-91810857D01*
X96821904Y-91906095D01*
X96774285Y-92048952D01*
X96202857Y-92620380D01*
X96821904Y-92620380D01*
%TO.C,U7*%
X84328096Y-71588379D02*
X84328096Y-72397903D01*
X84375715Y-72493141D01*
X84423334Y-72540760D01*
X84518572Y-72588379D01*
X84709048Y-72588379D01*
X84804286Y-72540760D01*
X84851905Y-72493141D01*
X84899524Y-72397903D01*
X84899524Y-71588379D01*
X85280477Y-71588379D02*
X85947143Y-71588379D01*
X85518572Y-72588379D01*
X80613810Y-69556379D02*
X81232858Y-69556379D01*
X80899524Y-69937332D01*
X81042381Y-69937332D01*
X81137620Y-69984951D01*
X81185239Y-70032570D01*
X81232858Y-70127808D01*
X81232858Y-70365903D01*
X81185239Y-70461141D01*
X81137620Y-70508760D01*
X81042381Y-70556379D01*
X80756667Y-70556379D01*
X80661429Y-70508760D01*
X80613810Y-70461141D01*
X81661429Y-70461141D02*
X81709048Y-70508760D01*
X81661429Y-70556379D01*
X81613810Y-70508760D01*
X81661429Y-70461141D01*
X81661429Y-70556379D01*
X82042381Y-69556379D02*
X82661429Y-69556379D01*
X82328096Y-69937332D01*
X82470953Y-69937332D01*
X82566191Y-69984951D01*
X82613810Y-70032570D01*
X82661429Y-70127808D01*
X82661429Y-70365903D01*
X82613810Y-70461141D01*
X82566191Y-70508760D01*
X82470953Y-70556379D01*
X82185239Y-70556379D01*
X82090001Y-70508760D01*
X82042381Y-70461141D01*
X82947143Y-69556379D02*
X83280477Y-70556379D01*
X83613810Y-69556379D01*
X84709048Y-70556379D02*
X84709048Y-69556379D01*
X84947143Y-69556379D01*
X85090001Y-69603999D01*
X85185239Y-69699237D01*
X85232858Y-69794475D01*
X85280477Y-69984951D01*
X85280477Y-70127808D01*
X85232858Y-70318284D01*
X85185239Y-70413522D01*
X85090001Y-70508760D01*
X84947143Y-70556379D01*
X84709048Y-70556379D01*
X86280477Y-70461141D02*
X86232858Y-70508760D01*
X86090001Y-70556379D01*
X85994762Y-70556379D01*
X85851905Y-70508760D01*
X85756667Y-70413522D01*
X85709048Y-70318284D01*
X85661429Y-70127808D01*
X85661429Y-69984951D01*
X85709048Y-69794475D01*
X85756667Y-69699237D01*
X85851905Y-69603999D01*
X85994762Y-69556379D01*
X86090001Y-69556379D01*
X86232858Y-69603999D01*
X86280477Y-69651618D01*
X86709048Y-70175427D02*
X87470953Y-70175427D01*
X87947143Y-70556379D02*
X87947143Y-69556379D01*
X88185239Y-69556379D01*
X88328096Y-69603999D01*
X88423334Y-69699237D01*
X88470953Y-69794475D01*
X88518572Y-69984951D01*
X88518572Y-70127808D01*
X88470953Y-70318284D01*
X88423334Y-70413522D01*
X88328096Y-70508760D01*
X88185239Y-70556379D01*
X87947143Y-70556379D01*
X89518572Y-70461141D02*
X89470953Y-70508760D01*
X89328096Y-70556379D01*
X89232858Y-70556379D01*
X89090001Y-70508760D01*
X88994762Y-70413522D01*
X88947143Y-70318284D01*
X88899524Y-70127808D01*
X88899524Y-69984951D01*
X88947143Y-69794475D01*
X88994762Y-69699237D01*
X89090001Y-69603999D01*
X89232858Y-69556379D01*
X89328096Y-69556379D01*
X89470953Y-69603999D01*
X89518572Y-69651618D01*
%TO.C,C14*%
X86250542Y-106325942D02*
X86202923Y-106373561D01*
X86060066Y-106421180D01*
X85964828Y-106421180D01*
X85821971Y-106373561D01*
X85726733Y-106278323D01*
X85679114Y-106183085D01*
X85631495Y-105992609D01*
X85631495Y-105849752D01*
X85679114Y-105659276D01*
X85726733Y-105564038D01*
X85821971Y-105468800D01*
X85964828Y-105421180D01*
X86060066Y-105421180D01*
X86202923Y-105468800D01*
X86250542Y-105516419D01*
X87202923Y-106421180D02*
X86631495Y-106421180D01*
X86917209Y-106421180D02*
X86917209Y-105421180D01*
X86821971Y-105564038D01*
X86726733Y-105659276D01*
X86631495Y-105706895D01*
X88060066Y-105754514D02*
X88060066Y-106421180D01*
X87821971Y-105373561D02*
X87583876Y-106087847D01*
X88202923Y-106087847D01*
%TO.C,C11*%
X97711142Y-96589142D02*
X97663523Y-96636761D01*
X97520666Y-96684380D01*
X97425428Y-96684380D01*
X97282571Y-96636761D01*
X97187333Y-96541523D01*
X97139714Y-96446285D01*
X97092095Y-96255809D01*
X97092095Y-96112952D01*
X97139714Y-95922476D01*
X97187333Y-95827238D01*
X97282571Y-95732000D01*
X97425428Y-95684380D01*
X97520666Y-95684380D01*
X97663523Y-95732000D01*
X97711142Y-95779619D01*
X98663523Y-96684380D02*
X98092095Y-96684380D01*
X98377809Y-96684380D02*
X98377809Y-95684380D01*
X98282571Y-95827238D01*
X98187333Y-95922476D01*
X98092095Y-95970095D01*
X99615904Y-96684380D02*
X99044476Y-96684380D01*
X99330190Y-96684380D02*
X99330190Y-95684380D01*
X99234952Y-95827238D01*
X99139714Y-95922476D01*
X99044476Y-95970095D01*
%TO.C,FB2*%
X142219371Y-76880933D02*
X142219371Y-77214266D01*
X142743180Y-77214266D02*
X141743180Y-77214266D01*
X141743180Y-76738076D01*
X142219371Y-76023790D02*
X142266990Y-75880933D01*
X142314609Y-75833314D01*
X142409847Y-75785695D01*
X142552704Y-75785695D01*
X142647942Y-75833314D01*
X142695561Y-75880933D01*
X142743180Y-75976171D01*
X142743180Y-76357123D01*
X141743180Y-76357123D01*
X141743180Y-76023790D01*
X141790800Y-75928552D01*
X141838419Y-75880933D01*
X141933657Y-75833314D01*
X142028895Y-75833314D01*
X142124133Y-75880933D01*
X142171752Y-75928552D01*
X142219371Y-76023790D01*
X142219371Y-76357123D01*
X141838419Y-75404742D02*
X141790800Y-75357123D01*
X141743180Y-75261885D01*
X141743180Y-75023790D01*
X141790800Y-74928552D01*
X141838419Y-74880933D01*
X141933657Y-74833314D01*
X142028895Y-74833314D01*
X142171752Y-74880933D01*
X142743180Y-75452361D01*
X142743180Y-74833314D01*
%TO.C,R10*%
X95702380Y-77472857D02*
X95226190Y-77806190D01*
X95702380Y-78044285D02*
X94702380Y-78044285D01*
X94702380Y-77663333D01*
X94750000Y-77568095D01*
X94797619Y-77520476D01*
X94892857Y-77472857D01*
X95035714Y-77472857D01*
X95130952Y-77520476D01*
X95178571Y-77568095D01*
X95226190Y-77663333D01*
X95226190Y-78044285D01*
X95702380Y-76520476D02*
X95702380Y-77091904D01*
X95702380Y-76806190D02*
X94702380Y-76806190D01*
X94845238Y-76901428D01*
X94940476Y-76996666D01*
X94988095Y-77091904D01*
X94702380Y-75901428D02*
X94702380Y-75806190D01*
X94750000Y-75710952D01*
X94797619Y-75663333D01*
X94892857Y-75615714D01*
X95083333Y-75568095D01*
X95321428Y-75568095D01*
X95511904Y-75615714D01*
X95607142Y-75663333D01*
X95654761Y-75710952D01*
X95702380Y-75806190D01*
X95702380Y-75901428D01*
X95654761Y-75996666D01*
X95607142Y-76044285D01*
X95511904Y-76091904D01*
X95321428Y-76139523D01*
X95083333Y-76139523D01*
X94892857Y-76091904D01*
X94797619Y-76044285D01*
X94750000Y-75996666D01*
X94702380Y-75901428D01*
%TO.C,C5*%
X136231333Y-80113142D02*
X136183714Y-80160761D01*
X136040857Y-80208380D01*
X135945619Y-80208380D01*
X135802761Y-80160761D01*
X135707523Y-80065523D01*
X135659904Y-79970285D01*
X135612285Y-79779809D01*
X135612285Y-79636952D01*
X135659904Y-79446476D01*
X135707523Y-79351238D01*
X135802761Y-79256000D01*
X135945619Y-79208380D01*
X136040857Y-79208380D01*
X136183714Y-79256000D01*
X136231333Y-79303619D01*
X137136095Y-79208380D02*
X136659904Y-79208380D01*
X136612285Y-79684571D01*
X136659904Y-79636952D01*
X136755142Y-79589333D01*
X136993238Y-79589333D01*
X137088476Y-79636952D01*
X137136095Y-79684571D01*
X137183714Y-79779809D01*
X137183714Y-80017904D01*
X137136095Y-80113142D01*
X137088476Y-80160761D01*
X136993238Y-80208380D01*
X136755142Y-80208380D01*
X136659904Y-80160761D01*
X136612285Y-80113142D01*
%TO.C,C10*%
X91297143Y-83512856D02*
X91344762Y-83560475D01*
X91392381Y-83703332D01*
X91392381Y-83798570D01*
X91344762Y-83941427D01*
X91249524Y-84036665D01*
X91154286Y-84084284D01*
X90963810Y-84131903D01*
X90820953Y-84131903D01*
X90630477Y-84084284D01*
X90535239Y-84036665D01*
X90440001Y-83941427D01*
X90392381Y-83798570D01*
X90392381Y-83703332D01*
X90440001Y-83560475D01*
X90487620Y-83512856D01*
X91392381Y-82560475D02*
X91392381Y-83131903D01*
X91392381Y-82846189D02*
X90392381Y-82846189D01*
X90535239Y-82941427D01*
X90630477Y-83036665D01*
X90678096Y-83131903D01*
X90392381Y-81941427D02*
X90392381Y-81846189D01*
X90440001Y-81750951D01*
X90487620Y-81703332D01*
X90582858Y-81655713D01*
X90773334Y-81608094D01*
X91011429Y-81608094D01*
X91201905Y-81655713D01*
X91297143Y-81703332D01*
X91344762Y-81750951D01*
X91392381Y-81846189D01*
X91392381Y-81941427D01*
X91344762Y-82036665D01*
X91297143Y-82084284D01*
X91201905Y-82131903D01*
X91011429Y-82179522D01*
X90773334Y-82179522D01*
X90582858Y-82131903D01*
X90487620Y-82084284D01*
X90440001Y-82036665D01*
X90392381Y-81941427D01*
%TO.C,U11*%
X75862380Y-125698095D02*
X76671904Y-125698095D01*
X76767142Y-125650476D01*
X76814761Y-125602857D01*
X76862380Y-125507619D01*
X76862380Y-125317142D01*
X76814761Y-125221904D01*
X76767142Y-125174285D01*
X76671904Y-125126666D01*
X75862380Y-125126666D01*
X76862380Y-124126666D02*
X76862380Y-124698095D01*
X76862380Y-124412380D02*
X75862380Y-124412380D01*
X76005238Y-124507619D01*
X76100476Y-124602857D01*
X76148095Y-124698095D01*
X76862380Y-123174285D02*
X76862380Y-123745714D01*
X76862380Y-123460000D02*
X75862380Y-123460000D01*
X76005238Y-123555238D01*
X76100476Y-123650476D01*
X76148095Y-123745714D01*
%TO.C,R8*%
X151725333Y-116276380D02*
X151392000Y-115800190D01*
X151153904Y-116276380D02*
X151153904Y-115276380D01*
X151534857Y-115276380D01*
X151630095Y-115324000D01*
X151677714Y-115371619D01*
X151725333Y-115466857D01*
X151725333Y-115609714D01*
X151677714Y-115704952D01*
X151630095Y-115752571D01*
X151534857Y-115800190D01*
X151153904Y-115800190D01*
X152296761Y-115704952D02*
X152201523Y-115657333D01*
X152153904Y-115609714D01*
X152106285Y-115514476D01*
X152106285Y-115466857D01*
X152153904Y-115371619D01*
X152201523Y-115324000D01*
X152296761Y-115276380D01*
X152487238Y-115276380D01*
X152582476Y-115324000D01*
X152630095Y-115371619D01*
X152677714Y-115466857D01*
X152677714Y-115514476D01*
X152630095Y-115609714D01*
X152582476Y-115657333D01*
X152487238Y-115704952D01*
X152296761Y-115704952D01*
X152201523Y-115752571D01*
X152153904Y-115800190D01*
X152106285Y-115895428D01*
X152106285Y-116085904D01*
X152153904Y-116181142D01*
X152201523Y-116228761D01*
X152296761Y-116276380D01*
X152487238Y-116276380D01*
X152582476Y-116228761D01*
X152630095Y-116181142D01*
X152677714Y-116085904D01*
X152677714Y-115895428D01*
X152630095Y-115800190D01*
X152582476Y-115752571D01*
X152487238Y-115704952D01*
%TO.C,U3*%
X108661333Y-54986333D02*
X108661333Y-56119666D01*
X108728000Y-56253000D01*
X108794666Y-56319666D01*
X108928000Y-56386333D01*
X109194666Y-56386333D01*
X109328000Y-56319666D01*
X109394666Y-56253000D01*
X109461333Y-56119666D01*
X109461333Y-54986333D01*
X109994666Y-54986333D02*
X110861333Y-54986333D01*
X110394666Y-55519666D01*
X110594666Y-55519666D01*
X110728000Y-55586333D01*
X110794666Y-55653000D01*
X110861333Y-55786333D01*
X110861333Y-56119666D01*
X110794666Y-56253000D01*
X110728000Y-56319666D01*
X110594666Y-56386333D01*
X110194666Y-56386333D01*
X110061333Y-56319666D01*
X109994666Y-56253000D01*
%TO.C,C1*%
X77827142Y-59221666D02*
X77874761Y-59269285D01*
X77922380Y-59412142D01*
X77922380Y-59507380D01*
X77874761Y-59650238D01*
X77779523Y-59745476D01*
X77684285Y-59793095D01*
X77493809Y-59840714D01*
X77350952Y-59840714D01*
X77160476Y-59793095D01*
X77065238Y-59745476D01*
X76970000Y-59650238D01*
X76922380Y-59507380D01*
X76922380Y-59412142D01*
X76970000Y-59269285D01*
X77017619Y-59221666D01*
X77922380Y-58269285D02*
X77922380Y-58840714D01*
X77922380Y-58555000D02*
X76922380Y-58555000D01*
X77065238Y-58650238D01*
X77160476Y-58745476D01*
X77208095Y-58840714D01*
%TO.C,C2*%
X101957142Y-59221666D02*
X102004761Y-59269285D01*
X102052380Y-59412142D01*
X102052380Y-59507380D01*
X102004761Y-59650238D01*
X101909523Y-59745476D01*
X101814285Y-59793095D01*
X101623809Y-59840714D01*
X101480952Y-59840714D01*
X101290476Y-59793095D01*
X101195238Y-59745476D01*
X101100000Y-59650238D01*
X101052380Y-59507380D01*
X101052380Y-59412142D01*
X101100000Y-59269285D01*
X101147619Y-59221666D01*
X101147619Y-58840714D02*
X101100000Y-58793095D01*
X101052380Y-58697857D01*
X101052380Y-58459761D01*
X101100000Y-58364523D01*
X101147619Y-58316904D01*
X101242857Y-58269285D01*
X101338095Y-58269285D01*
X101480952Y-58316904D01*
X102052380Y-58888333D01*
X102052380Y-58269285D01*
%TO.C,U2*%
X83896333Y-54986333D02*
X83896333Y-56119666D01*
X83963000Y-56253000D01*
X84029666Y-56319666D01*
X84163000Y-56386333D01*
X84429666Y-56386333D01*
X84563000Y-56319666D01*
X84629666Y-56253000D01*
X84696333Y-56119666D01*
X84696333Y-54986333D01*
X85296333Y-55119666D02*
X85363000Y-55053000D01*
X85496333Y-54986333D01*
X85829666Y-54986333D01*
X85963000Y-55053000D01*
X86029666Y-55119666D01*
X86096333Y-55253000D01*
X86096333Y-55386333D01*
X86029666Y-55586333D01*
X85229666Y-56386333D01*
X86096333Y-56386333D01*
%TO.C,C13*%
X89028542Y-116847857D02*
X89076161Y-116895476D01*
X89123780Y-117038333D01*
X89123780Y-117133571D01*
X89076161Y-117276428D01*
X88980923Y-117371666D01*
X88885685Y-117419285D01*
X88695209Y-117466904D01*
X88552352Y-117466904D01*
X88361876Y-117419285D01*
X88266638Y-117371666D01*
X88171400Y-117276428D01*
X88123780Y-117133571D01*
X88123780Y-117038333D01*
X88171400Y-116895476D01*
X88219019Y-116847857D01*
X89123780Y-115895476D02*
X89123780Y-116466904D01*
X89123780Y-116181190D02*
X88123780Y-116181190D01*
X88266638Y-116276428D01*
X88361876Y-116371666D01*
X88409495Y-116466904D01*
X88123780Y-115562142D02*
X88123780Y-114943095D01*
X88504733Y-115276428D01*
X88504733Y-115133571D01*
X88552352Y-115038333D01*
X88599971Y-114990714D01*
X88695209Y-114943095D01*
X88933304Y-114943095D01*
X89028542Y-114990714D01*
X89076161Y-115038333D01*
X89123780Y-115133571D01*
X89123780Y-115419285D01*
X89076161Y-115514523D01*
X89028542Y-115562142D01*
%TO.C,U9*%
X84168095Y-94202380D02*
X84168095Y-95011904D01*
X84215714Y-95107142D01*
X84263333Y-95154761D01*
X84358571Y-95202380D01*
X84549047Y-95202380D01*
X84644285Y-95154761D01*
X84691904Y-95107142D01*
X84739523Y-95011904D01*
X84739523Y-94202380D01*
X85263333Y-95202380D02*
X85453809Y-95202380D01*
X85549047Y-95154761D01*
X85596666Y-95107142D01*
X85691904Y-94964285D01*
X85739523Y-94773809D01*
X85739523Y-94392857D01*
X85691904Y-94297619D01*
X85644285Y-94250000D01*
X85549047Y-94202380D01*
X85358571Y-94202380D01*
X85263333Y-94250000D01*
X85215714Y-94297619D01*
X85168095Y-94392857D01*
X85168095Y-94630952D01*
X85215714Y-94726190D01*
X85263333Y-94773809D01*
X85358571Y-94821428D01*
X85549047Y-94821428D01*
X85644285Y-94773809D01*
X85691904Y-94726190D01*
X85739523Y-94630952D01*
%TO.C,U4*%
X133045333Y-55113333D02*
X133045333Y-56246666D01*
X133112000Y-56380000D01*
X133178666Y-56446666D01*
X133312000Y-56513333D01*
X133578666Y-56513333D01*
X133712000Y-56446666D01*
X133778666Y-56380000D01*
X133845333Y-56246666D01*
X133845333Y-55113333D01*
X135112000Y-55580000D02*
X135112000Y-56513333D01*
X134778666Y-55046666D02*
X134445333Y-56046666D01*
X135312000Y-56046666D01*
%TO.C,U8*%
X84328096Y-84288379D02*
X84328096Y-85097903D01*
X84375715Y-85193141D01*
X84423334Y-85240760D01*
X84518572Y-85288379D01*
X84709048Y-85288379D01*
X84804286Y-85240760D01*
X84851905Y-85193141D01*
X84899524Y-85097903D01*
X84899524Y-84288379D01*
X85518572Y-84716951D02*
X85423334Y-84669332D01*
X85375715Y-84621713D01*
X85328096Y-84526475D01*
X85328096Y-84478856D01*
X85375715Y-84383618D01*
X85423334Y-84335999D01*
X85518572Y-84288379D01*
X85709048Y-84288379D01*
X85804286Y-84335999D01*
X85851905Y-84383618D01*
X85899524Y-84478856D01*
X85899524Y-84526475D01*
X85851905Y-84621713D01*
X85804286Y-84669332D01*
X85709048Y-84716951D01*
X85518572Y-84716951D01*
X85423334Y-84764570D01*
X85375715Y-84812189D01*
X85328096Y-84907427D01*
X85328096Y-85097903D01*
X85375715Y-85193141D01*
X85423334Y-85240760D01*
X85518572Y-85288379D01*
X85709048Y-85288379D01*
X85804286Y-85240760D01*
X85851905Y-85193141D01*
X85899524Y-85097903D01*
X85899524Y-84907427D01*
X85851905Y-84812189D01*
X85804286Y-84764570D01*
X85709048Y-84716951D01*
X81899524Y-82256379D02*
X81423334Y-82256379D01*
X81375715Y-82732570D01*
X81423334Y-82684951D01*
X81518572Y-82637332D01*
X81756667Y-82637332D01*
X81851905Y-82684951D01*
X81899524Y-82732570D01*
X81947143Y-82827808D01*
X81947143Y-83065903D01*
X81899524Y-83161141D01*
X81851905Y-83208760D01*
X81756667Y-83256379D01*
X81518572Y-83256379D01*
X81423334Y-83208760D01*
X81375715Y-83161141D01*
X82232858Y-82256379D02*
X82566191Y-83256379D01*
X82899524Y-82256379D01*
X83994762Y-83256379D02*
X83994762Y-82256379D01*
X84232858Y-82256379D01*
X84375715Y-82303999D01*
X84470953Y-82399237D01*
X84518572Y-82494475D01*
X84566191Y-82684951D01*
X84566191Y-82827808D01*
X84518572Y-83018284D01*
X84470953Y-83113522D01*
X84375715Y-83208760D01*
X84232858Y-83256379D01*
X83994762Y-83256379D01*
X85566191Y-83161141D02*
X85518572Y-83208760D01*
X85375715Y-83256379D01*
X85280477Y-83256379D01*
X85137620Y-83208760D01*
X85042381Y-83113522D01*
X84994762Y-83018284D01*
X84947143Y-82827808D01*
X84947143Y-82684951D01*
X84994762Y-82494475D01*
X85042381Y-82399237D01*
X85137620Y-82303999D01*
X85280477Y-82256379D01*
X85375715Y-82256379D01*
X85518572Y-82303999D01*
X85566191Y-82351618D01*
X85994762Y-82875427D02*
X86756667Y-82875427D01*
X87232858Y-83256379D02*
X87232858Y-82256379D01*
X87470953Y-82256379D01*
X87613810Y-82303999D01*
X87709048Y-82399237D01*
X87756667Y-82494475D01*
X87804286Y-82684951D01*
X87804286Y-82827808D01*
X87756667Y-83018284D01*
X87709048Y-83113522D01*
X87613810Y-83208760D01*
X87470953Y-83256379D01*
X87232858Y-83256379D01*
X88804286Y-83161141D02*
X88756667Y-83208760D01*
X88613810Y-83256379D01*
X88518572Y-83256379D01*
X88375715Y-83208760D01*
X88280477Y-83113522D01*
X88232858Y-83018284D01*
X88185239Y-82827808D01*
X88185239Y-82684951D01*
X88232858Y-82494475D01*
X88280477Y-82399237D01*
X88375715Y-82303999D01*
X88518572Y-82256379D01*
X88613810Y-82256379D01*
X88756667Y-82303999D01*
X88804286Y-82351618D01*
%TO.C,C4*%
X136282133Y-72797942D02*
X136234514Y-72845561D01*
X136091657Y-72893180D01*
X135996419Y-72893180D01*
X135853561Y-72845561D01*
X135758323Y-72750323D01*
X135710704Y-72655085D01*
X135663085Y-72464609D01*
X135663085Y-72321752D01*
X135710704Y-72131276D01*
X135758323Y-72036038D01*
X135853561Y-71940800D01*
X135996419Y-71893180D01*
X136091657Y-71893180D01*
X136234514Y-71940800D01*
X136282133Y-71988419D01*
X137139276Y-72226514D02*
X137139276Y-72893180D01*
X136901180Y-71845561D02*
X136663085Y-72559847D01*
X137282133Y-72559847D01*
%TO.C,C9*%
X96663333Y-84172142D02*
X96615714Y-84219761D01*
X96472857Y-84267380D01*
X96377619Y-84267380D01*
X96234761Y-84219761D01*
X96139523Y-84124523D01*
X96091904Y-84029285D01*
X96044285Y-83838809D01*
X96044285Y-83695952D01*
X96091904Y-83505476D01*
X96139523Y-83410238D01*
X96234761Y-83315000D01*
X96377619Y-83267380D01*
X96472857Y-83267380D01*
X96615714Y-83315000D01*
X96663333Y-83362619D01*
X97139523Y-84267380D02*
X97330000Y-84267380D01*
X97425238Y-84219761D01*
X97472857Y-84172142D01*
X97568095Y-84029285D01*
X97615714Y-83838809D01*
X97615714Y-83457857D01*
X97568095Y-83362619D01*
X97520476Y-83315000D01*
X97425238Y-83267380D01*
X97234761Y-83267380D01*
X97139523Y-83315000D01*
X97091904Y-83362619D01*
X97044285Y-83457857D01*
X97044285Y-83695952D01*
X97091904Y-83791190D01*
X97139523Y-83838809D01*
X97234761Y-83886428D01*
X97425238Y-83886428D01*
X97520476Y-83838809D01*
X97568095Y-83791190D01*
X97615714Y-83695952D01*
%TO.C,R7*%
X152801580Y-112917266D02*
X152325390Y-113250600D01*
X152801580Y-113488695D02*
X151801580Y-113488695D01*
X151801580Y-113107742D01*
X151849200Y-113012504D01*
X151896819Y-112964885D01*
X151992057Y-112917266D01*
X152134914Y-112917266D01*
X152230152Y-112964885D01*
X152277771Y-113012504D01*
X152325390Y-113107742D01*
X152325390Y-113488695D01*
X151801580Y-112583933D02*
X151801580Y-111917266D01*
X152801580Y-112345838D01*
%TO.C,FB1*%
X135488371Y-76576133D02*
X135488371Y-76909466D01*
X136012180Y-76909466D02*
X135012180Y-76909466D01*
X135012180Y-76433276D01*
X135488371Y-75718990D02*
X135535990Y-75576133D01*
X135583609Y-75528514D01*
X135678847Y-75480895D01*
X135821704Y-75480895D01*
X135916942Y-75528514D01*
X135964561Y-75576133D01*
X136012180Y-75671371D01*
X136012180Y-76052323D01*
X135012180Y-76052323D01*
X135012180Y-75718990D01*
X135059800Y-75623752D01*
X135107419Y-75576133D01*
X135202657Y-75528514D01*
X135297895Y-75528514D01*
X135393133Y-75576133D01*
X135440752Y-75623752D01*
X135488371Y-75718990D01*
X135488371Y-76052323D01*
X136012180Y-74528514D02*
X136012180Y-75099942D01*
X136012180Y-74814228D02*
X135012180Y-74814228D01*
X135155038Y-74909466D01*
X135250276Y-75004704D01*
X135297895Y-75099942D01*
%TO.C,R5*%
X140549333Y-82240380D02*
X140216000Y-81764190D01*
X139977904Y-82240380D02*
X139977904Y-81240380D01*
X140358857Y-81240380D01*
X140454095Y-81288000D01*
X140501714Y-81335619D01*
X140549333Y-81430857D01*
X140549333Y-81573714D01*
X140501714Y-81668952D01*
X140454095Y-81716571D01*
X140358857Y-81764190D01*
X139977904Y-81764190D01*
X141454095Y-81240380D02*
X140977904Y-81240380D01*
X140930285Y-81716571D01*
X140977904Y-81668952D01*
X141073142Y-81621333D01*
X141311238Y-81621333D01*
X141406476Y-81668952D01*
X141454095Y-81716571D01*
X141501714Y-81811809D01*
X141501714Y-82049904D01*
X141454095Y-82145142D01*
X141406476Y-82192761D01*
X141311238Y-82240380D01*
X141073142Y-82240380D01*
X140977904Y-82192761D01*
X140930285Y-82145142D01*
%TO.C,R6*%
X155535333Y-116276380D02*
X155202000Y-115800190D01*
X154963904Y-116276380D02*
X154963904Y-115276380D01*
X155344857Y-115276380D01*
X155440095Y-115324000D01*
X155487714Y-115371619D01*
X155535333Y-115466857D01*
X155535333Y-115609714D01*
X155487714Y-115704952D01*
X155440095Y-115752571D01*
X155344857Y-115800190D01*
X154963904Y-115800190D01*
X156392476Y-115276380D02*
X156202000Y-115276380D01*
X156106761Y-115324000D01*
X156059142Y-115371619D01*
X155963904Y-115514476D01*
X155916285Y-115704952D01*
X155916285Y-116085904D01*
X155963904Y-116181142D01*
X156011523Y-116228761D01*
X156106761Y-116276380D01*
X156297238Y-116276380D01*
X156392476Y-116228761D01*
X156440095Y-116181142D01*
X156487714Y-116085904D01*
X156487714Y-115847809D01*
X156440095Y-115752571D01*
X156392476Y-115704952D01*
X156297238Y-115657333D01*
X156106761Y-115657333D01*
X156011523Y-115704952D01*
X155963904Y-115752571D01*
X155916285Y-115847809D01*
%TO.C,C8*%
X89993333Y-73787142D02*
X89945714Y-73834761D01*
X89802857Y-73882380D01*
X89707619Y-73882380D01*
X89564761Y-73834761D01*
X89469523Y-73739523D01*
X89421904Y-73644285D01*
X89374285Y-73453809D01*
X89374285Y-73310952D01*
X89421904Y-73120476D01*
X89469523Y-73025238D01*
X89564761Y-72930000D01*
X89707619Y-72882380D01*
X89802857Y-72882380D01*
X89945714Y-72930000D01*
X89993333Y-72977619D01*
X90564761Y-73310952D02*
X90469523Y-73263333D01*
X90421904Y-73215714D01*
X90374285Y-73120476D01*
X90374285Y-73072857D01*
X90421904Y-72977619D01*
X90469523Y-72930000D01*
X90564761Y-72882380D01*
X90755238Y-72882380D01*
X90850476Y-72930000D01*
X90898095Y-72977619D01*
X90945714Y-73072857D01*
X90945714Y-73120476D01*
X90898095Y-73215714D01*
X90850476Y-73263333D01*
X90755238Y-73310952D01*
X90564761Y-73310952D01*
X90469523Y-73358571D01*
X90421904Y-73406190D01*
X90374285Y-73501428D01*
X90374285Y-73691904D01*
X90421904Y-73787142D01*
X90469523Y-73834761D01*
X90564761Y-73882380D01*
X90755238Y-73882380D01*
X90850476Y-73834761D01*
X90898095Y-73787142D01*
X90945714Y-73691904D01*
X90945714Y-73501428D01*
X90898095Y-73406190D01*
X90850476Y-73358571D01*
X90755238Y-73310952D01*
%TO.C,C6*%
X71588333Y-76557142D02*
X71540714Y-76604761D01*
X71397857Y-76652380D01*
X71302619Y-76652380D01*
X71159761Y-76604761D01*
X71064523Y-76509523D01*
X71016904Y-76414285D01*
X70969285Y-76223809D01*
X70969285Y-76080952D01*
X71016904Y-75890476D01*
X71064523Y-75795238D01*
X71159761Y-75700000D01*
X71302619Y-75652380D01*
X71397857Y-75652380D01*
X71540714Y-75700000D01*
X71588333Y-75747619D01*
X72445476Y-75652380D02*
X72255000Y-75652380D01*
X72159761Y-75700000D01*
X72112142Y-75747619D01*
X72016904Y-75890476D01*
X71969285Y-76080952D01*
X71969285Y-76461904D01*
X72016904Y-76557142D01*
X72064523Y-76604761D01*
X72159761Y-76652380D01*
X72350238Y-76652380D01*
X72445476Y-76604761D01*
X72493095Y-76557142D01*
X72540714Y-76461904D01*
X72540714Y-76223809D01*
X72493095Y-76128571D01*
X72445476Y-76080952D01*
X72350238Y-76033333D01*
X72159761Y-76033333D01*
X72064523Y-76080952D01*
X72016904Y-76128571D01*
X71969285Y-76223809D01*
%TO.C,R1*%
X82840533Y-118689380D02*
X82507200Y-118213190D01*
X82269104Y-118689380D02*
X82269104Y-117689380D01*
X82650057Y-117689380D01*
X82745295Y-117737000D01*
X82792914Y-117784619D01*
X82840533Y-117879857D01*
X82840533Y-118022714D01*
X82792914Y-118117952D01*
X82745295Y-118165571D01*
X82650057Y-118213190D01*
X82269104Y-118213190D01*
X83792914Y-118689380D02*
X83221485Y-118689380D01*
X83507200Y-118689380D02*
X83507200Y-117689380D01*
X83411961Y-117832238D01*
X83316723Y-117927476D01*
X83221485Y-117975095D01*
%TO.C,U5*%
X146178095Y-76932380D02*
X146178095Y-77741904D01*
X146225714Y-77837142D01*
X146273333Y-77884761D01*
X146368571Y-77932380D01*
X146559047Y-77932380D01*
X146654285Y-77884761D01*
X146701904Y-77837142D01*
X146749523Y-77741904D01*
X146749523Y-76932380D01*
X147701904Y-76932380D02*
X147225714Y-76932380D01*
X147178095Y-77408571D01*
X147225714Y-77360952D01*
X147320952Y-77313333D01*
X147559047Y-77313333D01*
X147654285Y-77360952D01*
X147701904Y-77408571D01*
X147749523Y-77503809D01*
X147749523Y-77741904D01*
X147701904Y-77837142D01*
X147654285Y-77884761D01*
X147559047Y-77932380D01*
X147320952Y-77932380D01*
X147225714Y-77884761D01*
X147178095Y-77837142D01*
%TO.C,C7*%
X103013333Y-71472142D02*
X102965714Y-71519761D01*
X102822857Y-71567380D01*
X102727619Y-71567380D01*
X102584761Y-71519761D01*
X102489523Y-71424523D01*
X102441904Y-71329285D01*
X102394285Y-71138809D01*
X102394285Y-70995952D01*
X102441904Y-70805476D01*
X102489523Y-70710238D01*
X102584761Y-70615000D01*
X102727619Y-70567380D01*
X102822857Y-70567380D01*
X102965714Y-70615000D01*
X103013333Y-70662619D01*
X103346666Y-70567380D02*
X104013333Y-70567380D01*
X103584761Y-71567380D01*
%TO.C,U6*%
X145288095Y-115022380D02*
X145288095Y-115831904D01*
X145335714Y-115927142D01*
X145383333Y-115974761D01*
X145478571Y-116022380D01*
X145669047Y-116022380D01*
X145764285Y-115974761D01*
X145811904Y-115927142D01*
X145859523Y-115831904D01*
X145859523Y-115022380D01*
X146764285Y-115022380D02*
X146573809Y-115022380D01*
X146478571Y-115070000D01*
X146430952Y-115117619D01*
X146335714Y-115260476D01*
X146288095Y-115450952D01*
X146288095Y-115831904D01*
X146335714Y-115927142D01*
X146383333Y-115974761D01*
X146478571Y-116022380D01*
X146669047Y-116022380D01*
X146764285Y-115974761D01*
X146811904Y-115927142D01*
X146859523Y-115831904D01*
X146859523Y-115593809D01*
X146811904Y-115498571D01*
X146764285Y-115450952D01*
X146669047Y-115403333D01*
X146478571Y-115403333D01*
X146383333Y-115450952D01*
X146335714Y-115498571D01*
X146288095Y-115593809D01*
%TO.C,R2*%
X148167380Y-83346666D02*
X147691190Y-83680000D01*
X148167380Y-83918095D02*
X147167380Y-83918095D01*
X147167380Y-83537142D01*
X147215000Y-83441904D01*
X147262619Y-83394285D01*
X147357857Y-83346666D01*
X147500714Y-83346666D01*
X147595952Y-83394285D01*
X147643571Y-83441904D01*
X147691190Y-83537142D01*
X147691190Y-83918095D01*
X147262619Y-82965714D02*
X147215000Y-82918095D01*
X147167380Y-82822857D01*
X147167380Y-82584761D01*
X147215000Y-82489523D01*
X147262619Y-82441904D01*
X147357857Y-82394285D01*
X147453095Y-82394285D01*
X147595952Y-82441904D01*
X148167380Y-83013333D01*
X148167380Y-82394285D01*
%TO.C,R4*%
X146756380Y-83346666D02*
X146280190Y-83680000D01*
X146756380Y-83918095D02*
X145756380Y-83918095D01*
X145756380Y-83537142D01*
X145804000Y-83441904D01*
X145851619Y-83394285D01*
X145946857Y-83346666D01*
X146089714Y-83346666D01*
X146184952Y-83394285D01*
X146232571Y-83441904D01*
X146280190Y-83537142D01*
X146280190Y-83918095D01*
X146089714Y-82489523D02*
X146756380Y-82489523D01*
X145708761Y-82727619D02*
X146423047Y-82965714D01*
X146423047Y-82346666D01*
%TO.C,U10*%
X80041904Y-109032380D02*
X80041904Y-109841904D01*
X80089523Y-109937142D01*
X80137142Y-109984761D01*
X80232380Y-110032380D01*
X80422857Y-110032380D01*
X80518095Y-109984761D01*
X80565714Y-109937142D01*
X80613333Y-109841904D01*
X80613333Y-109032380D01*
X81613333Y-110032380D02*
X81041904Y-110032380D01*
X81327619Y-110032380D02*
X81327619Y-109032380D01*
X81232380Y-109175238D01*
X81137142Y-109270476D01*
X81041904Y-109318095D01*
X82232380Y-109032380D02*
X82327619Y-109032380D01*
X82422857Y-109080000D01*
X82470476Y-109127619D01*
X82518095Y-109222857D01*
X82565714Y-109413333D01*
X82565714Y-109651428D01*
X82518095Y-109841904D01*
X82470476Y-109937142D01*
X82422857Y-109984761D01*
X82327619Y-110032380D01*
X82232380Y-110032380D01*
X82137142Y-109984761D01*
X82089523Y-109937142D01*
X82041904Y-109841904D01*
X81994285Y-109651428D01*
X81994285Y-109413333D01*
X82041904Y-109222857D01*
X82089523Y-109127619D01*
X82137142Y-109080000D01*
X82232380Y-109032380D01*
D14*
%TO.C,U1*%
X118412380Y-100904523D02*
X118412380Y-101932619D01*
X118472857Y-102053571D01*
X118533333Y-102114047D01*
X118654285Y-102174523D01*
X118896190Y-102174523D01*
X119017142Y-102114047D01*
X119077619Y-102053571D01*
X119138095Y-101932619D01*
X119138095Y-100904523D01*
X120408095Y-102174523D02*
X119682380Y-102174523D01*
X120045238Y-102174523D02*
X120045238Y-100904523D01*
X119924285Y-101085952D01*
X119803333Y-101206904D01*
X119682380Y-101267380D01*
X112274047Y-112939285D02*
X112697380Y-112939285D01*
X112878809Y-113604523D02*
X112274047Y-113604523D01*
X112274047Y-112334523D01*
X112878809Y-112334523D01*
X113362619Y-113544047D02*
X113544047Y-113604523D01*
X113846428Y-113604523D01*
X113967380Y-113544047D01*
X114027857Y-113483571D01*
X114088333Y-113362619D01*
X114088333Y-113241666D01*
X114027857Y-113120714D01*
X113967380Y-113060238D01*
X113846428Y-112999761D01*
X113604523Y-112939285D01*
X113483571Y-112878809D01*
X113423095Y-112818333D01*
X113362619Y-112697380D01*
X113362619Y-112576428D01*
X113423095Y-112455476D01*
X113483571Y-112395000D01*
X113604523Y-112334523D01*
X113906904Y-112334523D01*
X114088333Y-112395000D01*
X114632619Y-113604523D02*
X114632619Y-112334523D01*
X115116428Y-112334523D01*
X115237380Y-112395000D01*
X115297857Y-112455476D01*
X115358333Y-112576428D01*
X115358333Y-112757857D01*
X115297857Y-112878809D01*
X115237380Y-112939285D01*
X115116428Y-112999761D01*
X114632619Y-112999761D01*
X115781666Y-112334523D02*
X116567857Y-112334523D01*
X116144523Y-112818333D01*
X116325952Y-112818333D01*
X116446904Y-112878809D01*
X116507380Y-112939285D01*
X116567857Y-113060238D01*
X116567857Y-113362619D01*
X116507380Y-113483571D01*
X116446904Y-113544047D01*
X116325952Y-113604523D01*
X115963095Y-113604523D01*
X115842142Y-113544047D01*
X115781666Y-113483571D01*
X117051666Y-112455476D02*
X117112142Y-112395000D01*
X117233095Y-112334523D01*
X117535476Y-112334523D01*
X117656428Y-112395000D01*
X117716904Y-112455476D01*
X117777380Y-112576428D01*
X117777380Y-112697380D01*
X117716904Y-112878809D01*
X116991190Y-113604523D01*
X117777380Y-113604523D01*
X118321666Y-113120714D02*
X119289285Y-113120714D01*
X119894047Y-113604523D02*
X119894047Y-112334523D01*
X120196428Y-112334523D01*
X120377857Y-112395000D01*
X120498809Y-112515952D01*
X120559285Y-112636904D01*
X120619761Y-112878809D01*
X120619761Y-113060238D01*
X120559285Y-113302142D01*
X120498809Y-113423095D01*
X120377857Y-113544047D01*
X120196428Y-113604523D01*
X119894047Y-113604523D01*
X121647857Y-113544047D02*
X121526904Y-113604523D01*
X121285000Y-113604523D01*
X121164047Y-113544047D01*
X121103571Y-113423095D01*
X121103571Y-112939285D01*
X121164047Y-112818333D01*
X121285000Y-112757857D01*
X121526904Y-112757857D01*
X121647857Y-112818333D01*
X121708333Y-112939285D01*
X121708333Y-113060238D01*
X121103571Y-113181190D01*
X122131666Y-112757857D02*
X122434047Y-113604523D01*
X122736428Y-112757857D01*
X123220238Y-113604523D02*
X123220238Y-112334523D01*
X123945952Y-113604523D02*
X123401666Y-112878809D01*
X123945952Y-112334523D02*
X123220238Y-113060238D01*
X124490238Y-113604523D02*
X124490238Y-112757857D01*
X124490238Y-112334523D02*
X124429761Y-112395000D01*
X124490238Y-112455476D01*
X124550714Y-112395000D01*
X124490238Y-112334523D01*
X124490238Y-112455476D01*
X124913571Y-112757857D02*
X125397380Y-112757857D01*
X125095000Y-112334523D02*
X125095000Y-113423095D01*
X125155476Y-113544047D01*
X125276428Y-113604523D01*
X125397380Y-113604523D01*
X126546428Y-113483571D02*
X126485952Y-113544047D01*
X126304523Y-113604523D01*
X126183571Y-113604523D01*
X126002142Y-113544047D01*
X125881190Y-113423095D01*
X125820714Y-113302142D01*
X125760238Y-113060238D01*
X125760238Y-112878809D01*
X125820714Y-112636904D01*
X125881190Y-112515952D01*
X126002142Y-112395000D01*
X126183571Y-112334523D01*
X126304523Y-112334523D01*
X126485952Y-112395000D01*
X126546428Y-112455476D01*
D15*
%TO.C,C3*%
X125672500Y-52020985D02*
X125672500Y-52720985D01*
X125322500Y-52370985D02*
X126022500Y-52370985D01*
X127080000Y-52000000D02*
X138830000Y-52000000D01*
X138830000Y-52000000D02*
X138830000Y-59000000D01*
X138830000Y-59000000D02*
X127080000Y-59000000D01*
X127080000Y-59000000D02*
X127080000Y-52000000D01*
%TO.C,J12*%
X140925000Y-69910000D02*
X140925000Y-68580000D01*
X148665000Y-69910000D02*
X148665000Y-67250000D01*
X143525000Y-69910000D02*
X148665000Y-69910000D01*
X142255000Y-69910000D02*
X140925000Y-69910000D01*
X143525000Y-67250000D02*
X148665000Y-67250000D01*
X143525000Y-69910000D02*
X143525000Y-67250000D01*
%TO.C,D1*%
X98235000Y-75230000D02*
X98235000Y-79115000D01*
X100505000Y-79115000D02*
X100505000Y-75230000D01*
X98235000Y-79115000D02*
X100505000Y-79115000D01*
%TO.C,R9*%
X148738000Y-121885064D02*
X148738000Y-120430936D01*
X146918000Y-121885064D02*
X146918000Y-120430936D01*
%TO.C,J1*%
X93920000Y-115570000D02*
X93920000Y-114240000D01*
X93920000Y-114240000D02*
X95250000Y-114240000D01*
X93920000Y-116840000D02*
X96580000Y-116840000D01*
X93920000Y-116840000D02*
X93920000Y-124520000D01*
X93920000Y-124520000D02*
X96580000Y-124520000D01*
X96580000Y-116840000D02*
X96580000Y-124520000D01*
%TO.C,J3*%
X97525000Y-104710000D02*
X94865000Y-104710000D01*
X94865000Y-109850000D02*
X94865000Y-104710000D01*
X97525000Y-111120000D02*
X97525000Y-112450000D01*
X97525000Y-109850000D02*
X94865000Y-109850000D01*
X97525000Y-112450000D02*
X96195000Y-112450000D01*
X97525000Y-109850000D02*
X97525000Y-104710000D01*
%TO.C,J21*%
X73536000Y-62544000D02*
X63615000Y-62544000D01*
X63615000Y-52264000D02*
X63615000Y-62544000D01*
X67036000Y-58910000D02*
X67001000Y-58875000D01*
X69550000Y-61014000D02*
X69514000Y-60979000D01*
X69344000Y-61219000D02*
X69298000Y-61172000D01*
X65675000Y-52264000D02*
X65675000Y-62544000D01*
X64115000Y-52024000D02*
X63375000Y-52024000D01*
X73536000Y-52264000D02*
X63615000Y-52264000D01*
X64175000Y-52264000D02*
X64175000Y-62544000D01*
X70576000Y-52264000D02*
X70576000Y-62544000D01*
X63375000Y-52024000D02*
X63375000Y-52524000D01*
X67252000Y-58717000D02*
X67206000Y-58670000D01*
X73536000Y-52264000D02*
X73536000Y-62544000D01*
X66595000Y-54864000D02*
G75*
G03*
X66740244Y-55547318I1680000J0D01*
G01*
X66740000Y-54180000D02*
G75*
G03*
X66594747Y-54892805I1535001J-683999D01*
G01*
X68959000Y-53329000D02*
G75*
G03*
X67591958Y-53328573I-684001J-1534993D01*
G01*
X67591000Y-56399001D02*
G75*
G03*
X68958042Y-56399427I684000J1535001D01*
G01*
X69810000Y-55548000D02*
G75*
G03*
X69810427Y-54180958I-1534993J684001D01*
G01*
X69955000Y-59944000D02*
G75*
G03*
X69955000Y-59944000I-1680000J0D01*
G01*
%TO.C,R3*%
X147722064Y-80280000D02*
X146267936Y-80280000D01*
X147722064Y-78460000D02*
X146267936Y-78460000D01*
%TO.C,JP2*%
X95250000Y-55230000D02*
X96580000Y-55230000D01*
X91380000Y-55230000D02*
X91380000Y-57890000D01*
X93980000Y-57890000D02*
X91380000Y-57890000D01*
X96580000Y-55230000D02*
X96580000Y-56560000D01*
X93980000Y-55230000D02*
X93980000Y-57890000D01*
X93980000Y-55230000D02*
X91380000Y-55230000D01*
%TO.C,J8*%
X132090000Y-46670000D02*
X139770000Y-46670000D01*
X132090000Y-46670000D02*
X132090000Y-44010000D01*
X129490000Y-46670000D02*
X129490000Y-45340000D01*
X139770000Y-46670000D02*
X139770000Y-44010000D01*
X130820000Y-46670000D02*
X129490000Y-46670000D01*
X132090000Y-44010000D02*
X139770000Y-44010000D01*
%TO.C,J17*%
X70280000Y-92720000D02*
X71030000Y-92720000D01*
X71330000Y-84820000D02*
X70080000Y-84820000D01*
X70280000Y-86920000D02*
X71030000Y-86920000D01*
X71040000Y-92730000D02*
X71040000Y-85110000D01*
X68780000Y-92720000D02*
X68780000Y-91970000D01*
X71030000Y-86920000D02*
X71030000Y-85120000D01*
X68780000Y-85870000D02*
X65830000Y-85870000D01*
X71030000Y-92720000D02*
X71030000Y-90920000D01*
X71030000Y-89420000D02*
X71030000Y-88420000D01*
X68780000Y-91970000D02*
X65830000Y-91970000D01*
X71030000Y-88420000D02*
X70280000Y-88420000D01*
X65830000Y-85870000D02*
X65830000Y-88920000D01*
X70280000Y-89420000D02*
X71030000Y-89420000D01*
X65830000Y-91970000D02*
X65830000Y-88920000D01*
X71330000Y-86070000D02*
X71330000Y-84820000D01*
X68780000Y-85120000D02*
X68780000Y-85870000D01*
X71030000Y-90920000D02*
X70280000Y-90920000D01*
X70280000Y-88420000D02*
X70280000Y-89420000D01*
X71030000Y-85120000D02*
X70280000Y-85120000D01*
X65070000Y-92730000D02*
X71040000Y-92730000D01*
X70280000Y-85120000D02*
X70280000Y-86920000D01*
X71040000Y-85110000D02*
X65070000Y-85110000D01*
X70280000Y-90920000D02*
X70280000Y-92720000D01*
X65070000Y-85110000D02*
X65070000Y-92730000D01*
%TO.C,C12*%
X95298748Y-94583000D02*
X95821252Y-94583000D01*
X95298748Y-93113000D02*
X95821252Y-93113000D01*
%TO.C,J13*%
X138430000Y-100390000D02*
X138430000Y-97790000D01*
X135830000Y-100390000D02*
X135830000Y-99060000D01*
X138430000Y-100390000D02*
X148650000Y-100390000D01*
X137160000Y-100390000D02*
X135830000Y-100390000D01*
X138430000Y-97790000D02*
X135830000Y-97790000D01*
X148650000Y-100390000D02*
X148650000Y-95190000D01*
X135830000Y-95190000D02*
X148650000Y-95190000D01*
X135830000Y-97790000D02*
X135830000Y-95190000D01*
D11*
%TO.C,U7*%
X76073001Y-65404999D02*
X76073001Y-76834999D01*
X76073001Y-65404999D02*
X94107001Y-65404999D01*
X94107001Y-76834999D02*
X76073001Y-76834999D01*
X94107001Y-76834999D02*
X94107001Y-65404999D01*
D15*
%TO.C,C14*%
X85915252Y-108553000D02*
X85392748Y-108553000D01*
X85915252Y-107083000D02*
X85392748Y-107083000D01*
%TO.C,J15*%
X156270000Y-96515000D02*
X156270000Y-109275000D01*
X153610000Y-95245000D02*
X153610000Y-93915000D01*
X153610000Y-93915000D02*
X154940000Y-93915000D01*
X153610000Y-109275000D02*
X156270000Y-109275000D01*
X153610000Y-96515000D02*
X156270000Y-96515000D01*
X153610000Y-96515000D02*
X153610000Y-109275000D01*
%TO.C,C11*%
X98092748Y-97177000D02*
X98615252Y-97177000D01*
X98092748Y-98647000D02*
X98615252Y-98647000D01*
%TO.C,FB2*%
X136758000Y-75472936D02*
X136758000Y-76927064D01*
X138578000Y-75472936D02*
X138578000Y-76927064D01*
%TO.C,R10*%
X97740000Y-77557064D02*
X97740000Y-76102936D01*
X95920000Y-77557064D02*
X95920000Y-76102936D01*
%TO.C,JP3*%
X119380000Y-52010000D02*
X120710000Y-52010000D01*
X115510000Y-52010000D02*
X115510000Y-54670000D01*
X118110000Y-52010000D02*
X118110000Y-54670000D01*
X120710000Y-52010000D02*
X120710000Y-53340000D01*
X118110000Y-54670000D02*
X115510000Y-54670000D01*
X118110000Y-52010000D02*
X115510000Y-52010000D01*
%TO.C,J14*%
X135830000Y-106680000D02*
X135830000Y-105350000D01*
X135830000Y-105350000D02*
X137160000Y-105350000D01*
X135830000Y-120710000D02*
X138490000Y-120710000D01*
X135830000Y-107950000D02*
X138490000Y-107950000D01*
X135830000Y-107950000D02*
X135830000Y-120710000D01*
X138490000Y-107950000D02*
X138490000Y-120710000D01*
%TO.C,JP8*%
X129200000Y-97200000D02*
X129500000Y-97500000D01*
X127000000Y-97400000D02*
X127000000Y-94600000D01*
X128300000Y-98050000D02*
X127700000Y-98050000D01*
X127700000Y-93950000D02*
X128300000Y-93950000D01*
X129200000Y-97200000D02*
X129500000Y-96900000D01*
X129000000Y-94600000D02*
X129000000Y-97400000D01*
X129500000Y-97500000D02*
X129500000Y-96900000D01*
X127700000Y-93950000D02*
G75*
G03*
X127000000Y-94650000I0J-700000D01*
G01*
X128300000Y-98050000D02*
G75*
G03*
X129000000Y-97350000I1J699999D01*
G01*
X129000000Y-94650000D02*
G75*
G03*
X128300000Y-93950000I-700000J0D01*
G01*
X127000000Y-97350000D02*
G75*
G03*
X127700000Y-98050000I699999J-1D01*
G01*
%TO.C,C5*%
X139199252Y-79021000D02*
X138676748Y-79021000D01*
X139199252Y-80491000D02*
X138676748Y-80491000D01*
%TO.C,C10*%
X93355001Y-83131251D02*
X93355001Y-82608747D01*
X91885001Y-83131251D02*
X91885001Y-82608747D01*
%TO.C,J6*%
X91500000Y-46670000D02*
X91500000Y-44010000D01*
X83820000Y-44010000D02*
X91500000Y-44010000D01*
X81220000Y-46670000D02*
X81220000Y-45340000D01*
X83820000Y-46670000D02*
X83820000Y-44010000D01*
X83820000Y-46670000D02*
X91500000Y-46670000D01*
X82550000Y-46670000D02*
X81220000Y-46670000D01*
%TO.C,JP9*%
X63484000Y-82166000D02*
X63484000Y-84966000D01*
X61484000Y-84966000D02*
X61484000Y-82166000D01*
X63484000Y-84966000D02*
X61484000Y-84966000D01*
X61484000Y-82166000D02*
X63484000Y-82166000D01*
%TO.C,U11*%
X77410000Y-124460000D02*
X77410000Y-121860000D01*
X77410000Y-127060000D02*
X77410000Y-125730000D01*
X80010000Y-127060000D02*
X80010000Y-124460000D01*
X87690000Y-127060000D02*
X87690000Y-121860000D01*
X77410000Y-121860000D02*
X87690000Y-121860000D01*
X78740000Y-127060000D02*
X77410000Y-127060000D01*
X80010000Y-127060000D02*
X87690000Y-127060000D01*
X80010000Y-124460000D02*
X77410000Y-124460000D01*
%TO.C,R8*%
X152802000Y-119599064D02*
X152802000Y-118144936D01*
X150982000Y-119599064D02*
X150982000Y-118144936D01*
%TO.C,JP10*%
X63540000Y-92194000D02*
X63540000Y-94994000D01*
X61540000Y-92194000D02*
X63540000Y-92194000D01*
X63540000Y-94994000D02*
X61540000Y-94994000D01*
X61540000Y-94994000D02*
X61540000Y-92194000D01*
%TO.C,JP5*%
X142240000Y-54670000D02*
X139640000Y-54670000D01*
X142240000Y-52010000D02*
X139640000Y-52010000D01*
X143510000Y-52010000D02*
X144840000Y-52010000D01*
X142240000Y-52010000D02*
X142240000Y-54670000D01*
X144840000Y-52010000D02*
X144840000Y-53340000D01*
X139640000Y-52010000D02*
X139640000Y-54670000D01*
%TO.C,J4*%
X145725000Y-86930000D02*
X147055000Y-86930000D01*
X147055000Y-92130000D02*
X136775000Y-92130000D01*
X144455000Y-89530000D02*
X147055000Y-89530000D01*
X144455000Y-86930000D02*
X144455000Y-89530000D01*
X147055000Y-86930000D02*
X147055000Y-88260000D01*
X144455000Y-86930000D02*
X136775000Y-86930000D01*
X147055000Y-89530000D02*
X147055000Y-92130000D01*
X136775000Y-86930000D02*
X136775000Y-92130000D01*
%TO.C,J18*%
X70280000Y-101570000D02*
X71030000Y-101570000D01*
X70280000Y-93970000D02*
X70280000Y-95770000D01*
X70280000Y-95770000D02*
X71030000Y-95770000D01*
X71030000Y-101570000D02*
X71030000Y-99770000D01*
X70280000Y-97270000D02*
X70280000Y-98270000D01*
X71330000Y-94920000D02*
X71330000Y-93670000D01*
X71030000Y-95770000D02*
X71030000Y-93970000D01*
X70280000Y-99770000D02*
X70280000Y-101570000D01*
X68780000Y-100820000D02*
X65830000Y-100820000D01*
X71030000Y-99770000D02*
X70280000Y-99770000D01*
X71030000Y-97270000D02*
X70280000Y-97270000D01*
X71030000Y-93970000D02*
X70280000Y-93970000D01*
X65070000Y-93960000D02*
X65070000Y-101580000D01*
X68780000Y-93970000D02*
X68780000Y-94720000D01*
X71040000Y-101580000D02*
X71040000Y-93960000D01*
X65830000Y-94720000D02*
X65830000Y-97770000D01*
X71040000Y-93960000D02*
X65070000Y-93960000D01*
X68780000Y-101570000D02*
X68780000Y-100820000D01*
X71330000Y-93670000D02*
X70080000Y-93670000D01*
X65070000Y-101580000D02*
X71040000Y-101580000D01*
X70280000Y-98270000D02*
X71030000Y-98270000D01*
X71030000Y-98270000D02*
X71030000Y-97270000D01*
X65830000Y-100820000D02*
X65830000Y-97770000D01*
X68780000Y-94720000D02*
X65830000Y-94720000D01*
D16*
%TO.C,U3*%
X120650000Y-63120000D02*
X120650000Y-47880000D01*
X120650000Y-47880000D02*
X100330000Y-47880000D01*
X100330000Y-47880000D02*
X100330000Y-63120000D01*
X100330000Y-63120000D02*
X120650000Y-63120000D01*
D15*
%TO.C,C1*%
X76702500Y-52350985D02*
X77402500Y-52350985D01*
X77052500Y-52000985D02*
X77052500Y-52700985D01*
X78460000Y-51980000D02*
X90210000Y-51980000D01*
X90210000Y-51980000D02*
X90210000Y-58980000D01*
X90210000Y-58980000D02*
X78460000Y-58980000D01*
X78460000Y-58980000D02*
X78460000Y-51980000D01*
%TO.C,J5*%
X99000000Y-116850000D02*
X99000000Y-124530000D01*
X99000000Y-115580000D02*
X99000000Y-114250000D01*
X99000000Y-114250000D02*
X100330000Y-114250000D01*
X99000000Y-124530000D02*
X101660000Y-124530000D01*
X99000000Y-116850000D02*
X101660000Y-116850000D01*
X101660000Y-116850000D02*
X101660000Y-124530000D01*
%TO.C,J11*%
X156270000Y-64755000D02*
X153610000Y-64755000D01*
X156270000Y-59615000D02*
X153610000Y-59615000D01*
X156270000Y-67355000D02*
X154940000Y-67355000D01*
X156270000Y-64755000D02*
X156270000Y-59615000D01*
X153610000Y-64755000D02*
X153610000Y-59615000D01*
X156270000Y-66025000D02*
X156270000Y-67355000D01*
%TO.C,C2*%
X101542500Y-52020985D02*
X101542500Y-52720985D01*
X101192500Y-52370985D02*
X101892500Y-52370985D01*
X102950000Y-52000000D02*
X114700000Y-52000000D01*
X114700000Y-52000000D02*
X114700000Y-59000000D01*
X114700000Y-59000000D02*
X102950000Y-59000000D01*
X102950000Y-59000000D02*
X102950000Y-52000000D01*
%TO.C,JP4*%
X118110000Y-55820000D02*
X115510000Y-55820000D01*
X118110000Y-55820000D02*
X118110000Y-58480000D01*
X115510000Y-55820000D02*
X115510000Y-58480000D01*
X120710000Y-55820000D02*
X120710000Y-57150000D01*
X118110000Y-58480000D02*
X115510000Y-58480000D01*
X119380000Y-55820000D02*
X120710000Y-55820000D01*
%TO.C,J20*%
X71040000Y-111740000D02*
X65070000Y-111740000D01*
X70280000Y-111750000D02*
X70280000Y-113550000D01*
X70280000Y-115050000D02*
X70280000Y-116050000D01*
X68780000Y-119350000D02*
X68780000Y-118600000D01*
X65830000Y-112500000D02*
X65830000Y-115550000D01*
X71330000Y-112700000D02*
X71330000Y-111450000D01*
X70280000Y-113550000D02*
X71030000Y-113550000D01*
X71030000Y-111750000D02*
X70280000Y-111750000D01*
X65830000Y-118600000D02*
X65830000Y-115550000D01*
X65070000Y-111740000D02*
X65070000Y-119360000D01*
X71030000Y-116050000D02*
X71030000Y-115050000D01*
X68780000Y-112500000D02*
X65830000Y-112500000D01*
X68780000Y-118600000D02*
X65830000Y-118600000D01*
X70280000Y-119350000D02*
X71030000Y-119350000D01*
X71030000Y-119350000D02*
X71030000Y-117550000D01*
X68780000Y-111750000D02*
X68780000Y-112500000D01*
X71030000Y-115050000D02*
X70280000Y-115050000D01*
X70280000Y-116050000D02*
X71030000Y-116050000D01*
X70280000Y-117550000D02*
X70280000Y-119350000D01*
X71040000Y-119360000D02*
X71040000Y-111740000D01*
X71330000Y-111450000D02*
X70080000Y-111450000D01*
X71030000Y-117550000D02*
X70280000Y-117550000D01*
X65070000Y-119360000D02*
X71040000Y-119360000D01*
X71030000Y-113550000D02*
X71030000Y-111750000D01*
D16*
%TO.C,U2*%
X76190000Y-47880000D02*
X76190000Y-63120000D01*
X96510000Y-47880000D02*
X76190000Y-47880000D01*
X96510000Y-63120000D02*
X96510000Y-47880000D01*
X76190000Y-63120000D02*
X96510000Y-63120000D01*
D15*
%TO.C,C13*%
X89745000Y-115684748D02*
X89745000Y-116207252D01*
X91215000Y-115684748D02*
X91215000Y-116207252D01*
%TO.C,J7*%
X107960000Y-46670000D02*
X115640000Y-46670000D01*
X107960000Y-44010000D02*
X115640000Y-44010000D01*
X107960000Y-46670000D02*
X107960000Y-44010000D01*
X106690000Y-46670000D02*
X105360000Y-46670000D01*
X105360000Y-46670000D02*
X105360000Y-45340000D01*
X115640000Y-46670000D02*
X115640000Y-44010000D01*
%TO.C,U9*%
X84930000Y-95440000D02*
X81280000Y-95440000D01*
X84930000Y-95440000D02*
X87130000Y-95440000D01*
X84930000Y-100960000D02*
X82730000Y-100960000D01*
X84930000Y-100960000D02*
X87130000Y-100960000D01*
%TO.C,JP1*%
X93980000Y-54080000D02*
X91380000Y-54080000D01*
X91380000Y-51420000D02*
X91380000Y-54080000D01*
X93980000Y-51420000D02*
X91380000Y-51420000D01*
X96580000Y-51420000D02*
X96580000Y-52750000D01*
X93980000Y-51420000D02*
X93980000Y-54080000D01*
X95250000Y-51420000D02*
X96580000Y-51420000D01*
D16*
%TO.C,U4*%
X144780000Y-47880000D02*
X124460000Y-47880000D01*
X124460000Y-47880000D02*
X124460000Y-63120000D01*
X144780000Y-63120000D02*
X144780000Y-47880000D01*
X124460000Y-63120000D02*
X144780000Y-63120000D01*
D11*
%TO.C,U8*%
X76073001Y-78104999D02*
X76073001Y-89534999D01*
X94107001Y-89534999D02*
X94107001Y-78104999D01*
X94107001Y-89534999D02*
X76073001Y-89534999D01*
X76073001Y-78104999D02*
X94107001Y-78104999D01*
D15*
%TO.C,C4*%
X139519252Y-73125000D02*
X138996748Y-73125000D01*
X139519252Y-71655000D02*
X138996748Y-71655000D01*
%TO.C,C9*%
X97025001Y-87714722D02*
X97025001Y-87014722D01*
X96675001Y-87364722D02*
X97375001Y-87364722D01*
X102680001Y-83839999D02*
G75*
G03*
X102680001Y-83839999I-3620000J0D01*
G01*
%TO.C,J9*%
X153610000Y-85075000D02*
X153610000Y-79935000D01*
X156270000Y-85075000D02*
X156270000Y-79935000D01*
X156270000Y-87675000D02*
X154940000Y-87675000D01*
X156270000Y-79935000D02*
X153610000Y-79935000D01*
X156270000Y-86345000D02*
X156270000Y-87675000D01*
X156270000Y-85075000D02*
X153610000Y-85075000D01*
%TO.C,J16*%
X72120001Y-71389999D02*
X62300001Y-71389999D01*
X72120001Y-65769999D02*
X62300001Y-65769999D01*
X72120001Y-68579999D02*
X72120001Y-71389999D01*
X72360001Y-68379999D02*
X72360001Y-65529999D01*
X62300001Y-65769999D02*
X62300001Y-71389999D01*
X72120001Y-68579999D02*
X72120001Y-65769999D01*
X72360001Y-65529999D02*
X69510001Y-65529999D01*
%TO.C,R7*%
X156124264Y-111840600D02*
X154670136Y-111840600D01*
X156124264Y-113660600D02*
X154670136Y-113660600D01*
%TO.C,FB1*%
X139298000Y-76927064D02*
X139298000Y-75472936D01*
X141118000Y-76927064D02*
X141118000Y-75472936D01*
%TO.C,JP6*%
X139640000Y-55820000D02*
X139640000Y-58480000D01*
X142240000Y-55820000D02*
X139640000Y-55820000D01*
X143510000Y-55820000D02*
X144840000Y-55820000D01*
X142240000Y-55820000D02*
X142240000Y-58480000D01*
X142240000Y-58480000D02*
X139640000Y-58480000D01*
X144840000Y-55820000D02*
X144840000Y-57150000D01*
%TO.C,J19*%
X65070000Y-110470000D02*
X71040000Y-110470000D01*
X65070000Y-102850000D02*
X65070000Y-110470000D01*
X68780000Y-103610000D02*
X65830000Y-103610000D01*
X70280000Y-107160000D02*
X71030000Y-107160000D01*
X71030000Y-107160000D02*
X71030000Y-106160000D01*
X70280000Y-106160000D02*
X70280000Y-107160000D01*
X71030000Y-102860000D02*
X70280000Y-102860000D01*
X65830000Y-109710000D02*
X65830000Y-106660000D01*
X71030000Y-106160000D02*
X70280000Y-106160000D01*
X71330000Y-103810000D02*
X71330000Y-102560000D01*
X71040000Y-110470000D02*
X71040000Y-102850000D01*
X71030000Y-104660000D02*
X71030000Y-102860000D01*
X65830000Y-103610000D02*
X65830000Y-106660000D01*
X68780000Y-110460000D02*
X68780000Y-109710000D01*
X68780000Y-102860000D02*
X68780000Y-103610000D01*
X70280000Y-108660000D02*
X70280000Y-110460000D01*
X70280000Y-102860000D02*
X70280000Y-104660000D01*
X70280000Y-110460000D02*
X71030000Y-110460000D01*
X71040000Y-102850000D02*
X65070000Y-102850000D01*
X71330000Y-102560000D02*
X70080000Y-102560000D01*
X71030000Y-110460000D02*
X71030000Y-108660000D01*
X68780000Y-109710000D02*
X65830000Y-109710000D01*
X71030000Y-108660000D02*
X70280000Y-108660000D01*
X70280000Y-104660000D02*
X71030000Y-104660000D01*
%TO.C,R5*%
X138197064Y-82820000D02*
X136742936Y-82820000D01*
X138197064Y-81000000D02*
X136742936Y-81000000D01*
%TO.C,R6*%
X154792000Y-119599064D02*
X154792000Y-118144936D01*
X156612000Y-119599064D02*
X156612000Y-118144936D01*
%TO.C,C8*%
X90421252Y-71015000D02*
X89898748Y-71015000D01*
X90421252Y-72485000D02*
X89898748Y-72485000D01*
%TO.C,C6*%
X71424724Y-80774999D02*
X70724724Y-80774999D01*
X71074724Y-81124999D02*
X71074724Y-80424999D01*
X71170001Y-78739999D02*
G75*
G03*
X71170001Y-78739999I-3620000J0D01*
G01*
%TO.C,J2*%
X101335000Y-104710000D02*
X98675000Y-104710000D01*
X101335000Y-109850000D02*
X98675000Y-109850000D01*
X98675000Y-109850000D02*
X98675000Y-104710000D01*
X101335000Y-109850000D02*
X101335000Y-104710000D01*
X101335000Y-111120000D02*
X101335000Y-112450000D01*
X101335000Y-112450000D02*
X100005000Y-112450000D01*
%TO.C,R1*%
X82457936Y-120925000D02*
X83912064Y-120925000D01*
X82457936Y-119105000D02*
X83912064Y-119105000D01*
D11*
%TO.C,U5*%
X148565000Y-76555000D02*
X145315000Y-76555000D01*
X145315000Y-73305000D02*
X145315000Y-73580000D01*
X148565000Y-76555000D02*
X148565000Y-76380000D01*
X148565000Y-76380000D02*
X149640000Y-76380000D01*
X145315000Y-76555000D02*
X145315000Y-76280000D01*
X148565000Y-73305000D02*
X145315000Y-73305000D01*
X148565000Y-73305000D02*
X148565000Y-73580000D01*
D15*
%TO.C,C7*%
X100079000Y-65955277D02*
X100079000Y-66655277D01*
X100429000Y-66305277D02*
X99729000Y-66305277D01*
X101664000Y-69830000D02*
G75*
G03*
X101664000Y-69830000I-3620000J0D01*
G01*
D11*
%TO.C,U6*%
X148925000Y-114037000D02*
X148925000Y-113387000D01*
X148925000Y-103387000D02*
X148925000Y-104037000D01*
X143175000Y-103387000D02*
X148925000Y-103387000D01*
X143175000Y-114037000D02*
X148925000Y-114037000D01*
X143175000Y-103387000D02*
X143175000Y-103962000D01*
X143175000Y-114037000D02*
X143175000Y-113387000D01*
X143175000Y-103962000D02*
X141575000Y-103962000D01*
D15*
%TO.C,J10*%
X153610000Y-69805000D02*
X154940000Y-69805000D01*
X153610000Y-77545000D02*
X156270000Y-77545000D01*
X153610000Y-72405000D02*
X156270000Y-72405000D01*
X156270000Y-72405000D02*
X156270000Y-77545000D01*
X153610000Y-71135000D02*
X153610000Y-69805000D01*
X153610000Y-72405000D02*
X153610000Y-77545000D01*
%TO.C,R2*%
X148625000Y-83907064D02*
X148625000Y-82452936D01*
X150445000Y-83907064D02*
X150445000Y-82452936D01*
%TO.C,R4*%
X143545000Y-83907064D02*
X143545000Y-82452936D01*
X145365000Y-83907064D02*
X145365000Y-82452936D01*
%TO.C,U10*%
X81280000Y-115790000D02*
X79080000Y-115790000D01*
X81280000Y-110270000D02*
X83480000Y-110270000D01*
X81280000Y-110270000D02*
X77630000Y-110270000D01*
X81280000Y-115790000D02*
X83480000Y-115790000D01*
%TO.C,U1*%
X133380000Y-74960000D02*
X105380000Y-74960000D01*
X105380000Y-74960000D02*
X105380000Y-123160000D01*
X105380000Y-123160000D02*
X133380000Y-123160000D01*
X133380000Y-123160000D02*
X133380000Y-74960000D01*
X111125000Y-123190000D02*
X127635000Y-123190000D01*
X127635000Y-123190000D02*
X127635000Y-129540000D01*
X127635000Y-129540000D02*
X111125000Y-129540000D01*
X111125000Y-129540000D02*
X111125000Y-123190000D01*
%TD*%
M02*
