G04 #@! TF.GenerationSoftware,KiCad,Pcbnew,7.0.2-6a45011f42~172~ubuntu20.04.1*
G04 #@! TF.CreationDate,2023-05-01T11:45:46+02:00*
G04 #@! TF.ProjectId,pippino_board,70697070-696e-46f5-9f62-6f6172642e6b,rev?*
G04 #@! TF.SameCoordinates,Original*
G04 #@! TF.FileFunction,Soldermask,Top*
G04 #@! TF.FilePolarity,Negative*
%FSLAX46Y46*%
G04 Gerber Fmt 4.6, Leading zero omitted, Abs format (unit mm)*
G04 Created by KiCad (PCBNEW 7.0.2-6a45011f42~172~ubuntu20.04.1) date 2023-05-01 11:45:46*
%MOMM*%
%LPD*%
G01*
G04 APERTURE LIST*
G04 Aperture macros list*
%AMRoundRect*
0 Rectangle with rounded corners*
0 $1 Rounding radius*
0 $2 $3 $4 $5 $6 $7 $8 $9 X,Y pos of 4 corners*
0 Add a 4 corners polygon primitive as box body*
4,1,4,$2,$3,$4,$5,$6,$7,$8,$9,$2,$3,0*
0 Add four circle primitives for the rounded corners*
1,1,$1+$1,$2,$3*
1,1,$1+$1,$4,$5*
1,1,$1+$1,$6,$7*
1,1,$1+$1,$8,$9*
0 Add four rect primitives between the rounded corners*
20,1,$1+$1,$2,$3,$4,$5,0*
20,1,$1+$1,$4,$5,$6,$7,0*
20,1,$1+$1,$6,$7,$8,$9,0*
20,1,$1+$1,$8,$9,$2,$3,0*%
%AMFreePoly0*
4,1,19,0.500000,-0.750000,0.000000,-0.750000,0.000000,-0.744911,-0.071157,-0.744911,-0.207708,-0.704816,-0.327430,-0.627875,-0.420627,-0.520320,-0.479746,-0.390866,-0.500000,-0.250000,-0.500000,0.250000,-0.479746,0.390866,-0.420627,0.520320,-0.327430,0.627875,-0.207708,0.704816,-0.071157,0.744911,0.000000,0.744911,0.000000,0.750000,0.500000,0.750000,0.500000,-0.750000,0.500000,-0.750000,
$1*%
%AMFreePoly1*
4,1,19,0.000000,0.744911,0.071157,0.744911,0.207708,0.704816,0.327430,0.627875,0.420627,0.520320,0.479746,0.390866,0.500000,0.250000,0.500000,-0.250000,0.479746,-0.390866,0.420627,-0.520320,0.327430,-0.627875,0.207708,-0.704816,0.071157,-0.744911,0.000000,-0.744911,0.000000,-0.750000,-0.500000,-0.750000,-0.500000,0.750000,0.000000,0.750000,0.000000,0.744911,0.000000,0.744911,
$1*%
G04 Aperture macros list end*
%ADD10RoundRect,0.250000X0.625000X-0.312500X0.625000X0.312500X-0.625000X0.312500X-0.625000X-0.312500X0*%
%ADD11RoundRect,0.250000X0.312500X0.625000X-0.312500X0.625000X-0.312500X-0.625000X0.312500X-0.625000X0*%
%ADD12FreePoly0,270.000000*%
%ADD13FreePoly1,270.000000*%
%ADD14RoundRect,0.250000X-0.375000X-0.625000X0.375000X-0.625000X0.375000X0.625000X-0.375000X0.625000X0*%
%ADD15R,1.750000X0.450000*%
%ADD16RoundRect,0.250000X-0.625000X0.375000X-0.625000X-0.375000X0.625000X-0.375000X0.625000X0.375000X0*%
%ADD17RoundRect,0.250000X0.250000X0.475000X-0.250000X0.475000X-0.250000X-0.475000X0.250000X-0.475000X0*%
%ADD18C,3.000000*%
%ADD19RoundRect,0.150000X-0.150000X-0.200000X0.150000X-0.200000X0.150000X0.200000X-0.150000X0.200000X0*%
%ADD20RoundRect,0.250000X-0.312500X-0.625000X0.312500X-0.625000X0.312500X0.625000X-0.312500X0.625000X0*%
%ADD21RoundRect,0.250000X-0.475000X0.250000X-0.475000X-0.250000X0.475000X-0.250000X0.475000X0.250000X0*%
%ADD22RoundRect,0.381000X-0.381000X1.460500X-0.381000X-1.460500X0.381000X-1.460500X0.381000X1.460500X0*%
%ADD23RoundRect,0.381000X-0.381000X0.762000X-0.381000X-0.762000X0.381000X-0.762000X0.381000X0.762000X0*%
%ADD24C,1.500000*%
%ADD25RoundRect,0.087500X0.087500X-0.325000X0.087500X0.325000X-0.087500X0.325000X-0.087500X-0.325000X0*%
%ADD26RoundRect,0.087500X0.325000X-0.087500X0.325000X0.087500X-0.325000X0.087500X-0.325000X-0.087500X0*%
%ADD27R,2.700000X2.700000*%
%ADD28RoundRect,0.075000X-0.075000X0.650000X-0.075000X-0.650000X0.075000X-0.650000X0.075000X0.650000X0*%
%ADD29RoundRect,0.250001X0.499999X0.499999X-0.499999X0.499999X-0.499999X-0.499999X0.499999X-0.499999X0*%
%ADD30RoundRect,0.150000X-0.587500X-0.150000X0.587500X-0.150000X0.587500X0.150000X-0.587500X0.150000X0*%
%ADD31R,1.700000X1.700000*%
%ADD32O,1.700000X1.700000*%
%ADD33RoundRect,0.225000X-0.225000X-0.375000X0.225000X-0.375000X0.225000X0.375000X-0.225000X0.375000X0*%
%ADD34RoundRect,0.250000X-1.000000X1.950000X-1.000000X-1.950000X1.000000X-1.950000X1.000000X1.950000X0*%
%ADD35RoundRect,0.225000X0.225000X0.375000X-0.225000X0.375000X-0.225000X-0.375000X0.225000X-0.375000X0*%
%ADD36RoundRect,0.250000X0.475000X-0.250000X0.475000X0.250000X-0.475000X0.250000X-0.475000X-0.250000X0*%
%ADD37RoundRect,0.150000X0.150000X-0.587500X0.150000X0.587500X-0.150000X0.587500X-0.150000X-0.587500X0*%
%ADD38RoundRect,0.150000X0.150000X0.200000X-0.150000X0.200000X-0.150000X-0.200000X0.150000X-0.200000X0*%
%ADD39RoundRect,0.250000X-0.325000X-0.650000X0.325000X-0.650000X0.325000X0.650000X-0.325000X0.650000X0*%
%ADD40RoundRect,0.250000X-0.625000X0.312500X-0.625000X-0.312500X0.625000X-0.312500X0.625000X0.312500X0*%
%ADD41R,1.500000X1.500000*%
%ADD42RoundRect,0.250000X-0.250000X-0.475000X0.250000X-0.475000X0.250000X0.475000X-0.250000X0.475000X0*%
%ADD43R,1.500000X0.900000*%
%ADD44R,0.900000X1.500000*%
%ADD45R,0.900000X0.900000*%
%ADD46R,2.150000X5.500000*%
%ADD47RoundRect,0.062500X-0.337500X-0.062500X0.337500X-0.062500X0.337500X0.062500X-0.337500X0.062500X0*%
%ADD48RoundRect,0.062500X-0.062500X-0.337500X0.062500X-0.337500X0.062500X0.337500X-0.062500X0.337500X0*%
%ADD49R,3.350000X3.350000*%
%ADD50C,0.650000*%
%ADD51O,0.950000X0.650000*%
%ADD52R,0.300000X0.700000*%
%ADD53O,0.800000X1.400000*%
%ADD54RoundRect,0.150000X-0.825000X-0.150000X0.825000X-0.150000X0.825000X0.150000X-0.825000X0.150000X0*%
%ADD55RoundRect,0.150000X0.587500X0.150000X-0.587500X0.150000X-0.587500X-0.150000X0.587500X-0.150000X0*%
%ADD56R,2.000000X0.700000*%
%ADD57R,0.700000X2.000000*%
G04 APERTURE END LIST*
D10*
X138250000Y-131462500D03*
X138250000Y-128537500D03*
D11*
X110912500Y-117590000D03*
X107987500Y-117590000D03*
X133712500Y-157500000D03*
X130787500Y-157500000D03*
D12*
X191600000Y-113150000D03*
D13*
X191600000Y-114450000D03*
D14*
X103381250Y-117590000D03*
X106181250Y-117590000D03*
D15*
X122600000Y-134225000D03*
X122600000Y-133575000D03*
X122600000Y-132925000D03*
X122600000Y-132275000D03*
X122600000Y-131625000D03*
X122600000Y-130975000D03*
X122600000Y-130325000D03*
X122600000Y-129675000D03*
X122600000Y-129025000D03*
X122600000Y-128375000D03*
X122600000Y-127725000D03*
X122600000Y-127075000D03*
X122600000Y-126425000D03*
X122600000Y-125775000D03*
X115400000Y-125775000D03*
X115400000Y-126425000D03*
X115400000Y-127075000D03*
X115400000Y-127725000D03*
X115400000Y-128375000D03*
X115400000Y-129025000D03*
X115400000Y-129675000D03*
X115400000Y-130325000D03*
X115400000Y-130975000D03*
X115400000Y-131625000D03*
X115400000Y-132275000D03*
X115400000Y-132925000D03*
X115400000Y-133575000D03*
X115400000Y-134225000D03*
D14*
X103381250Y-115000000D03*
X106181250Y-115000000D03*
D16*
X143440000Y-83100000D03*
X143440000Y-85900000D03*
D14*
X188200000Y-117000000D03*
X191000000Y-117000000D03*
D11*
X110912500Y-115000000D03*
X107987500Y-115000000D03*
D17*
X177450000Y-125104000D03*
X175550000Y-125104000D03*
D18*
X196000000Y-84000000D03*
D19*
X117700000Y-145250000D03*
X116300000Y-145250000D03*
D20*
X164537500Y-125000000D03*
X167462500Y-125000000D03*
D10*
X124500000Y-157500000D03*
X124500000Y-154575000D03*
D21*
X118750000Y-155587500D03*
X118750000Y-157487500D03*
D22*
X196620000Y-120721500D03*
X189000000Y-120721500D03*
X181380000Y-120721500D03*
D23*
X181380000Y-131580000D03*
X191540000Y-131580000D03*
D11*
X159712500Y-139250000D03*
X156787500Y-139250000D03*
X137212500Y-152710000D03*
X134287500Y-152710000D03*
D24*
X182600000Y-142400000D03*
D25*
X168775000Y-131962500D03*
X169425000Y-131962500D03*
X170075000Y-131962500D03*
X170725000Y-131962500D03*
D26*
X171712500Y-130975000D03*
X171712500Y-130325000D03*
X171712500Y-129675000D03*
X171712500Y-129025000D03*
D25*
X170725000Y-128037500D03*
X170075000Y-128037500D03*
X169425000Y-128037500D03*
X168775000Y-128037500D03*
D26*
X167787500Y-129025000D03*
X167787500Y-129675000D03*
X167787500Y-130325000D03*
X167787500Y-130975000D03*
D27*
X169750000Y-130000000D03*
D28*
X131109000Y-114877000D03*
X130609000Y-114877000D03*
X130109000Y-114877000D03*
X129609000Y-114877000D03*
X129109000Y-114877000D03*
X129109000Y-119277000D03*
X129609000Y-119277000D03*
X130109000Y-119277000D03*
X130609000Y-119277000D03*
X131109000Y-119277000D03*
D10*
X151500000Y-135534500D03*
X151500000Y-132609500D03*
D17*
X179100000Y-145700000D03*
X177200000Y-145700000D03*
D21*
X170000000Y-123550000D03*
X170000000Y-125450000D03*
D11*
X146462500Y-153750000D03*
X143537500Y-153750000D03*
D18*
X110000000Y-84000000D03*
X183500000Y-154620000D03*
D29*
X185000000Y-150300000D03*
D24*
X182000000Y-150300000D03*
X185000000Y-147300000D03*
X182000000Y-147300000D03*
D11*
X121478500Y-121872000D03*
X118553500Y-121872000D03*
D30*
X173490500Y-145866000D03*
X173490500Y-143966000D03*
X175365500Y-144916000D03*
D31*
X177600000Y-111625000D03*
D32*
X177600000Y-114165000D03*
X175060000Y-111625000D03*
X175060000Y-114165000D03*
X172520000Y-111625000D03*
X172520000Y-114165000D03*
X169980000Y-111625000D03*
X169980000Y-114165000D03*
X167440000Y-111625000D03*
X167440000Y-114165000D03*
X164900000Y-111625000D03*
X164900000Y-114165000D03*
D18*
X165200000Y-154620000D03*
D29*
X165200000Y-150300000D03*
D24*
X165200000Y-147300000D03*
D16*
X140900000Y-83100000D03*
X140900000Y-85900000D03*
D20*
X122537500Y-151400000D03*
X125462500Y-151400000D03*
D33*
X162110000Y-141868000D03*
X165410000Y-141868000D03*
D34*
X154000000Y-148400000D03*
X154000000Y-156800000D03*
D18*
X196000000Y-143000000D03*
D35*
X146650000Y-151250000D03*
X143350000Y-151250000D03*
D36*
X157000000Y-143200000D03*
X157000000Y-141300000D03*
D20*
X113473500Y-121872000D03*
X116398500Y-121872000D03*
D21*
X135500000Y-119650000D03*
X135500000Y-121550000D03*
X140200000Y-115250000D03*
X140200000Y-117150000D03*
D18*
X110000000Y-143000000D03*
D37*
X138850000Y-152937500D03*
X140750000Y-152937500D03*
X139800000Y-151062500D03*
D36*
X137800000Y-120750000D03*
X137800000Y-118850000D03*
D38*
X113300000Y-145600000D03*
X114700000Y-145600000D03*
D39*
X136625000Y-146500000D03*
X139575000Y-146500000D03*
D20*
X172457500Y-139328000D03*
X175382500Y-139328000D03*
D31*
X104000000Y-122920000D03*
D32*
X106540000Y-122920000D03*
X104000000Y-125460000D03*
X106540000Y-125460000D03*
X104000000Y-128000000D03*
X106540000Y-128000000D03*
X104000000Y-130540000D03*
X106540000Y-130540000D03*
X104000000Y-133080000D03*
X106540000Y-133080000D03*
D17*
X161450000Y-89500000D03*
X159550000Y-89500000D03*
D11*
X170810500Y-141868000D03*
X167885500Y-141868000D03*
D31*
X150225000Y-120000000D03*
D32*
X152765000Y-120000000D03*
X155305000Y-120000000D03*
D24*
X171200000Y-148200000D03*
D31*
X138340000Y-100725000D03*
D32*
X138340000Y-98185000D03*
X140880000Y-100725000D03*
X140880000Y-98185000D03*
X143420000Y-100725000D03*
X143420000Y-98185000D03*
X145960000Y-100725000D03*
X145960000Y-98185000D03*
X148500000Y-100725000D03*
X148500000Y-98185000D03*
X151040000Y-100725000D03*
X151040000Y-98185000D03*
X153580000Y-100725000D03*
X153580000Y-98185000D03*
X156120000Y-100725000D03*
X156120000Y-98185000D03*
D31*
X195000000Y-108500000D03*
D32*
X192460000Y-108500000D03*
X195000000Y-105960000D03*
X192460000Y-105960000D03*
X195000000Y-103420000D03*
X192460000Y-103420000D03*
D20*
X131337500Y-111600000D03*
X134262500Y-111600000D03*
D10*
X149000000Y-135534500D03*
X149000000Y-132609500D03*
D16*
X138360000Y-83100000D03*
X138360000Y-85900000D03*
D40*
X175200000Y-127537500D03*
X175200000Y-130462500D03*
D11*
X164262500Y-135400000D03*
X161337500Y-135400000D03*
D18*
X193250000Y-154620000D03*
D29*
X193250000Y-150300000D03*
D24*
X193250000Y-147300000D03*
D10*
X127000000Y-157500000D03*
X127000000Y-154575000D03*
D20*
X172457500Y-141868000D03*
X175382500Y-141868000D03*
D31*
X115250000Y-111750000D03*
D32*
X117790000Y-111750000D03*
X115250000Y-114290000D03*
X117790000Y-114290000D03*
D10*
X143440000Y-90752500D03*
X143440000Y-87827500D03*
D41*
X160900000Y-84000000D03*
X153100000Y-84000000D03*
D42*
X136750000Y-144200000D03*
X138650000Y-144200000D03*
D20*
X140335000Y-129921000D03*
X143260000Y-129921000D03*
D10*
X156650000Y-114462500D03*
X156650000Y-111537500D03*
D20*
X119937500Y-148200000D03*
X122862500Y-148200000D03*
D10*
X140900000Y-90752500D03*
X140900000Y-87827500D03*
D43*
X166590000Y-88090000D03*
X166590000Y-89360000D03*
X166590000Y-90630000D03*
X166590000Y-91900000D03*
X166590000Y-93170000D03*
X166590000Y-94440000D03*
X166590000Y-95710000D03*
X166590000Y-96980000D03*
X166590000Y-98250000D03*
X166590000Y-99520000D03*
X166590000Y-100790000D03*
X166590000Y-102060000D03*
X166590000Y-103330000D03*
X166590000Y-104600000D03*
D44*
X168355000Y-105850000D03*
X169625000Y-105850000D03*
X170895000Y-105850000D03*
X172165000Y-105850000D03*
X173435000Y-105850000D03*
X174705000Y-105850000D03*
X175975000Y-105850000D03*
X177245000Y-105850000D03*
X178515000Y-105850000D03*
X179785000Y-105850000D03*
X181055000Y-105850000D03*
X182325000Y-105850000D03*
D43*
X184090000Y-104600000D03*
X184090000Y-103330000D03*
X184090000Y-102060000D03*
X184090000Y-100790000D03*
X184090000Y-99520000D03*
X184090000Y-98250000D03*
X184090000Y-96980000D03*
X184090000Y-95710000D03*
X184090000Y-94440000D03*
X184090000Y-93170000D03*
X184090000Y-91900000D03*
X184090000Y-90630000D03*
X184090000Y-89360000D03*
X184090000Y-88090000D03*
D45*
X172440000Y-94410000D03*
X172440000Y-95810000D03*
X172440000Y-97210000D03*
X173840000Y-94410000D03*
X173840000Y-95810000D03*
X173840000Y-97210000D03*
X175240000Y-94410000D03*
X175240000Y-95810000D03*
X175240000Y-97210000D03*
D39*
X164525000Y-122500000D03*
X167475000Y-122500000D03*
D46*
X139175000Y-139750000D03*
X135325000Y-139750000D03*
D47*
X124580000Y-139684000D03*
X124580000Y-140184000D03*
X124580000Y-140684000D03*
X124580000Y-141184000D03*
X124580000Y-141684000D03*
X124580000Y-142184000D03*
X124580000Y-142684000D03*
D48*
X125530000Y-143634000D03*
X126030000Y-143634000D03*
X126530000Y-143634000D03*
X127030000Y-143634000D03*
X127530000Y-143634000D03*
X128030000Y-143634000D03*
X128530000Y-143634000D03*
D47*
X129480000Y-142684000D03*
X129480000Y-142184000D03*
X129480000Y-141684000D03*
X129480000Y-141184000D03*
X129480000Y-140684000D03*
X129480000Y-140184000D03*
X129480000Y-139684000D03*
D48*
X128530000Y-138734000D03*
X128030000Y-138734000D03*
X127530000Y-138734000D03*
X127030000Y-138734000D03*
X126530000Y-138734000D03*
X126030000Y-138734000D03*
X125530000Y-138734000D03*
D49*
X127030000Y-141184000D03*
D31*
X185940000Y-114000000D03*
D32*
X183400000Y-114000000D03*
X185940000Y-111460000D03*
X183400000Y-111460000D03*
D10*
X135400000Y-117862500D03*
X135400000Y-114937500D03*
D42*
X140300000Y-132250000D03*
X142200000Y-132250000D03*
D10*
X152500000Y-142962500D03*
X152500000Y-140037500D03*
D20*
X139537500Y-134500000D03*
X142462500Y-134500000D03*
D36*
X110774000Y-93950000D03*
X110774000Y-92050000D03*
D11*
X119712500Y-139500000D03*
X116787500Y-139500000D03*
D36*
X159250000Y-143200000D03*
X159250000Y-141300000D03*
D17*
X177450000Y-123072000D03*
X175550000Y-123072000D03*
D20*
X167885500Y-139328000D03*
X170810500Y-139328000D03*
D21*
X168750000Y-133800000D03*
X168750000Y-135700000D03*
D50*
X108698000Y-149524000D03*
D51*
X115898000Y-149524000D03*
D52*
X109548000Y-148864000D03*
X110048000Y-148864000D03*
X110548000Y-148864000D03*
X111048000Y-148864000D03*
X111548000Y-148864000D03*
X112048000Y-148864000D03*
X112548000Y-148864000D03*
X113048000Y-148864000D03*
X113548000Y-148864000D03*
X114048000Y-148864000D03*
X114548000Y-148864000D03*
X115048000Y-148864000D03*
X114798000Y-150564000D03*
X114298000Y-150564000D03*
X113798000Y-150564000D03*
X113298000Y-150564000D03*
X112798000Y-150564000D03*
X112298000Y-150564000D03*
X111798000Y-150564000D03*
X111298000Y-150564000D03*
X110798000Y-150564000D03*
X110298000Y-150564000D03*
X109798000Y-150564000D03*
X109298000Y-150564000D03*
D53*
X107808000Y-156724000D03*
X108168000Y-150774000D03*
X116428000Y-150774000D03*
X116788000Y-156724000D03*
D17*
X177450000Y-121040000D03*
X175550000Y-121040000D03*
D54*
X171525000Y-151095000D03*
X171525000Y-152365000D03*
X171525000Y-153635000D03*
X171525000Y-154905000D03*
X176475000Y-154905000D03*
X176475000Y-153635000D03*
X176475000Y-152365000D03*
X176475000Y-151095000D03*
D16*
X145980000Y-83100000D03*
X145980000Y-85900000D03*
D21*
X121000000Y-155587500D03*
X121000000Y-157487500D03*
D25*
X144775000Y-143462500D03*
X145425000Y-143462500D03*
X146075000Y-143462500D03*
X146725000Y-143462500D03*
D26*
X147712500Y-142475000D03*
X147712500Y-141825000D03*
X147712500Y-141175000D03*
X147712500Y-140525000D03*
D25*
X146725000Y-139537500D03*
X146075000Y-139537500D03*
X145425000Y-139537500D03*
X144775000Y-139537500D03*
D26*
X143787500Y-140525000D03*
X143787500Y-141175000D03*
X143787500Y-141825000D03*
X143787500Y-142475000D03*
D27*
X145750000Y-141500000D03*
D31*
X195000000Y-95000000D03*
D32*
X192460000Y-95000000D03*
X195000000Y-92460000D03*
X192460000Y-92460000D03*
X195000000Y-89920000D03*
X192460000Y-89920000D03*
D19*
X110700000Y-147200000D03*
X109300000Y-147200000D03*
D10*
X145980000Y-90752500D03*
X145980000Y-87827500D03*
D55*
X132087500Y-154750000D03*
X132087500Y-152850000D03*
X130212500Y-153800000D03*
D11*
X195712500Y-117000000D03*
X192787500Y-117000000D03*
D46*
X164425000Y-129250000D03*
X160575000Y-129250000D03*
D31*
X103725000Y-91835000D03*
D32*
X106265000Y-91835000D03*
X103725000Y-94375000D03*
X106265000Y-94375000D03*
X103725000Y-96915000D03*
X106265000Y-96915000D03*
X103725000Y-99455000D03*
X106265000Y-99455000D03*
X103725000Y-101995000D03*
X106265000Y-101995000D03*
X103725000Y-104535000D03*
X106265000Y-104535000D03*
X103725000Y-107075000D03*
X106265000Y-107075000D03*
X103725000Y-109615000D03*
X106265000Y-109615000D03*
D36*
X137800000Y-117150000D03*
X137800000Y-115250000D03*
D10*
X159350000Y-114462500D03*
X159350000Y-111537500D03*
D31*
X152750000Y-123810000D03*
D32*
X150210000Y-123810000D03*
D40*
X172600000Y-122737500D03*
X172600000Y-125662500D03*
D10*
X138360000Y-90752500D03*
X138360000Y-87827500D03*
D56*
X115000000Y-92410400D03*
X115000000Y-93680400D03*
X115000000Y-94950400D03*
X115000000Y-96220400D03*
X115000000Y-97490400D03*
X115000000Y-98760400D03*
X115000000Y-100030400D03*
X115000000Y-101300400D03*
D57*
X117590000Y-103560400D03*
X118860000Y-103560400D03*
X120130000Y-103560400D03*
X121400000Y-103560400D03*
X122670000Y-103560400D03*
X123940000Y-103560400D03*
X125210000Y-103560400D03*
X126480000Y-103560400D03*
D56*
X129100000Y-101300400D03*
X129100000Y-100030400D03*
X129100000Y-98760400D03*
X129100000Y-97490400D03*
X129100000Y-96220400D03*
X129100000Y-94950400D03*
X129100000Y-93680400D03*
X129100000Y-92410400D03*
D33*
X162110000Y-139328000D03*
X165410000Y-139328000D03*
D40*
X157600000Y-134037500D03*
X157600000Y-136962500D03*
D41*
X136600000Y-157250000D03*
X144400000Y-157250000D03*
D20*
X173537500Y-149000000D03*
X176462500Y-149000000D03*
D21*
X171000000Y-133800000D03*
X171000000Y-135700000D03*
M02*
