G04 #@! TF.GenerationSoftware,KiCad,Pcbnew,7.0.2-6a45011f42~172~ubuntu20.04.1*
G04 #@! TF.CreationDate,2023-05-01T11:45:46+02:00*
G04 #@! TF.ProjectId,pippino_board,70697070-696e-46f5-9f62-6f6172642e6b,rev?*
G04 #@! TF.SameCoordinates,Original*
G04 #@! TF.FileFunction,Legend,Bot*
G04 #@! TF.FilePolarity,Positive*
%FSLAX46Y46*%
G04 Gerber Fmt 4.6, Leading zero omitted, Abs format (unit mm)*
G04 Created by KiCad (PCBNEW 7.0.2-6a45011f42~172~ubuntu20.04.1) date 2023-05-01 11:45:46*
%MOMM*%
%LPD*%
G01*
G04 APERTURE LIST*
G04 Aperture macros list*
%AMRoundRect*
0 Rectangle with rounded corners*
0 $1 Rounding radius*
0 $2 $3 $4 $5 $6 $7 $8 $9 X,Y pos of 4 corners*
0 Add a 4 corners polygon primitive as box body*
4,1,4,$2,$3,$4,$5,$6,$7,$8,$9,$2,$3,0*
0 Add four circle primitives for the rounded corners*
1,1,$1+$1,$2,$3*
1,1,$1+$1,$4,$5*
1,1,$1+$1,$6,$7*
1,1,$1+$1,$8,$9*
0 Add four rect primitives between the rounded corners*
20,1,$1+$1,$2,$3,$4,$5,0*
20,1,$1+$1,$4,$5,$6,$7,0*
20,1,$1+$1,$6,$7,$8,$9,0*
20,1,$1+$1,$8,$9,$2,$3,0*%
G04 Aperture macros list end*
%ADD10C,0.000000*%
%ADD11C,0.250000*%
%ADD12C,3.000000*%
%ADD13RoundRect,0.250001X0.499999X0.499999X-0.499999X0.499999X-0.499999X-0.499999X0.499999X-0.499999X0*%
%ADD14C,1.500000*%
%ADD15R,1.700000X1.700000*%
%ADD16O,1.700000X1.700000*%
%ADD17C,0.650000*%
%ADD18O,0.950000X0.650000*%
%ADD19O,0.800000X1.400000*%
G04 APERTURE END LIST*
D10*
G36*
X161074202Y-151433904D02*
G01*
X161092741Y-151435315D01*
X161111012Y-151437637D01*
X161128990Y-151440849D01*
X161146653Y-151444927D01*
X161163978Y-151449848D01*
X161180942Y-151455589D01*
X161197522Y-151462128D01*
X161213695Y-151469441D01*
X161229439Y-151477506D01*
X161244729Y-151486299D01*
X161259543Y-151495797D01*
X161273859Y-151505978D01*
X161287653Y-151516819D01*
X161300902Y-151528296D01*
X161313583Y-151540387D01*
X161325674Y-151553068D01*
X161337151Y-151566317D01*
X161347992Y-151580111D01*
X161358173Y-151594427D01*
X161367671Y-151609241D01*
X161376464Y-151624532D01*
X161384529Y-151640275D01*
X161391842Y-151656448D01*
X161398381Y-151673028D01*
X161404122Y-151689992D01*
X161409044Y-151707317D01*
X161413121Y-151724980D01*
X161416333Y-151742958D01*
X161418656Y-151761229D01*
X161420066Y-151779768D01*
X161420541Y-151798554D01*
X161420066Y-151817340D01*
X161418656Y-151835879D01*
X161416333Y-151854149D01*
X161413121Y-151872128D01*
X161409044Y-151889791D01*
X161404122Y-151907116D01*
X161398381Y-151924080D01*
X161391842Y-151940660D01*
X161384529Y-151956833D01*
X161376464Y-151972576D01*
X161367671Y-151987866D01*
X161358173Y-152002681D01*
X161347992Y-152016997D01*
X161337151Y-152030790D01*
X161325674Y-152044040D01*
X161313583Y-152056721D01*
X161300902Y-152068812D01*
X161287653Y-152080289D01*
X161273859Y-152091130D01*
X161259543Y-152101311D01*
X161244729Y-152110809D01*
X161229438Y-152119602D01*
X161213695Y-152127667D01*
X161197522Y-152134980D01*
X161180942Y-152141519D01*
X161163978Y-152147260D01*
X161146653Y-152152181D01*
X161128990Y-152156259D01*
X161111012Y-152159471D01*
X161092741Y-152161793D01*
X161074202Y-152163204D01*
X161055416Y-152163679D01*
X161036630Y-152163204D01*
X161018091Y-152161793D01*
X160999821Y-152159471D01*
X160981842Y-152156259D01*
X160964179Y-152152181D01*
X160946854Y-152147260D01*
X160929890Y-152141519D01*
X160913310Y-152134980D01*
X160897137Y-152127667D01*
X160881394Y-152119602D01*
X160866104Y-152110809D01*
X160851289Y-152101311D01*
X160836973Y-152091130D01*
X160823180Y-152080289D01*
X160809930Y-152068812D01*
X160797249Y-152056721D01*
X160785158Y-152044040D01*
X160773681Y-152030790D01*
X160762840Y-152016997D01*
X160752659Y-152002681D01*
X160743161Y-151987866D01*
X160734368Y-151972576D01*
X160726303Y-151956833D01*
X160718990Y-151940660D01*
X160712451Y-151924080D01*
X160706710Y-151907116D01*
X160701789Y-151889791D01*
X160697711Y-151872128D01*
X160694499Y-151854149D01*
X160692177Y-151835879D01*
X160690766Y-151817340D01*
X160690291Y-151798554D01*
X160690766Y-151779768D01*
X160692177Y-151761229D01*
X160694499Y-151742958D01*
X160697711Y-151724980D01*
X160701789Y-151707317D01*
X160706710Y-151689992D01*
X160712451Y-151673028D01*
X160718990Y-151656448D01*
X160726303Y-151640275D01*
X160734368Y-151624532D01*
X160743161Y-151609241D01*
X160752659Y-151594427D01*
X160762840Y-151580111D01*
X160773681Y-151566317D01*
X160785158Y-151553068D01*
X160797249Y-151540387D01*
X160809930Y-151528296D01*
X160823180Y-151516819D01*
X160836973Y-151505978D01*
X160851289Y-151495797D01*
X160866104Y-151486299D01*
X160881394Y-151477506D01*
X160897137Y-151469441D01*
X160913310Y-151462128D01*
X160929890Y-151455589D01*
X160946854Y-151449848D01*
X160964179Y-151444927D01*
X160981842Y-151440849D01*
X160999821Y-151437637D01*
X161018091Y-151435315D01*
X161036630Y-151433904D01*
X161055416Y-151433429D01*
X161074202Y-151433904D01*
G37*
G36*
X161680627Y-153929983D02*
G01*
X161699166Y-153931393D01*
X161717437Y-153933716D01*
X161735415Y-153936928D01*
X161753078Y-153941005D01*
X161770403Y-153945927D01*
X161787367Y-153951668D01*
X161803947Y-153958207D01*
X161820120Y-153965520D01*
X161835864Y-153973585D01*
X161851154Y-153982378D01*
X161865968Y-153991876D01*
X161880284Y-154002057D01*
X161894078Y-154012898D01*
X161907327Y-154024375D01*
X161920008Y-154036466D01*
X161932099Y-154049147D01*
X161943576Y-154062396D01*
X161954417Y-154076190D01*
X161964598Y-154090506D01*
X161974096Y-154105320D01*
X161982889Y-154120611D01*
X161990954Y-154136354D01*
X161998267Y-154152527D01*
X162004806Y-154169107D01*
X162010547Y-154186071D01*
X162015469Y-154203396D01*
X162019546Y-154221059D01*
X162022758Y-154239038D01*
X162025081Y-154257308D01*
X162026491Y-154275847D01*
X162026966Y-154294633D01*
X162026491Y-154313419D01*
X162025081Y-154331958D01*
X162022758Y-154350229D01*
X162019546Y-154368207D01*
X162015469Y-154385870D01*
X162010547Y-154403195D01*
X162004806Y-154420159D01*
X161998267Y-154436739D01*
X161990954Y-154452912D01*
X161982889Y-154468656D01*
X161974096Y-154483946D01*
X161964598Y-154498760D01*
X161954417Y-154513076D01*
X161943576Y-154526870D01*
X161932099Y-154540119D01*
X161920008Y-154552800D01*
X161907327Y-154564891D01*
X161894078Y-154576368D01*
X161880284Y-154587209D01*
X161865968Y-154597390D01*
X161851154Y-154606888D01*
X161835863Y-154615681D01*
X161820120Y-154623746D01*
X161803947Y-154631059D01*
X161787367Y-154637598D01*
X161770403Y-154643339D01*
X161753078Y-154648260D01*
X161735415Y-154652338D01*
X161717437Y-154655550D01*
X161699166Y-154657872D01*
X161680627Y-154659283D01*
X161661841Y-154659758D01*
X161643055Y-154659283D01*
X161624516Y-154657872D01*
X161606246Y-154655550D01*
X161588267Y-154652338D01*
X161570604Y-154648260D01*
X161553279Y-154643339D01*
X161536315Y-154637598D01*
X161519735Y-154631059D01*
X161503562Y-154623746D01*
X161487819Y-154615681D01*
X161472529Y-154606888D01*
X161457714Y-154597390D01*
X161443398Y-154587209D01*
X161429605Y-154576368D01*
X161416355Y-154564891D01*
X161403674Y-154552800D01*
X161391583Y-154540119D01*
X161380106Y-154526870D01*
X161369266Y-154513076D01*
X161359084Y-154498760D01*
X161349586Y-154483946D01*
X161340793Y-154468655D01*
X161332728Y-154452912D01*
X161325415Y-154436739D01*
X161318876Y-154420159D01*
X161313135Y-154403195D01*
X161308214Y-154385870D01*
X161304136Y-154368207D01*
X161300924Y-154350229D01*
X161298602Y-154331958D01*
X161297191Y-154313419D01*
X161296716Y-154294633D01*
X161297191Y-154275847D01*
X161298602Y-154257308D01*
X161300924Y-154239037D01*
X161304136Y-154221059D01*
X161308214Y-154203396D01*
X161313135Y-154186071D01*
X161318876Y-154169107D01*
X161325415Y-154152527D01*
X161332728Y-154136354D01*
X161340793Y-154120611D01*
X161349586Y-154105320D01*
X161359084Y-154090506D01*
X161369266Y-154076190D01*
X161380106Y-154062396D01*
X161391583Y-154049147D01*
X161403674Y-154036466D01*
X161416355Y-154024375D01*
X161429605Y-154012898D01*
X161443398Y-154002057D01*
X161457714Y-153991876D01*
X161472529Y-153982378D01*
X161487819Y-153973585D01*
X161503562Y-153965520D01*
X161519735Y-153958207D01*
X161536315Y-153951668D01*
X161553279Y-153945927D01*
X161570604Y-153941005D01*
X161588267Y-153936928D01*
X161606246Y-153933716D01*
X161624516Y-153931393D01*
X161643055Y-153929983D01*
X161661841Y-153929508D01*
X161680627Y-153929983D01*
G37*
G36*
X160861228Y-154554462D02*
G01*
X160847960Y-154646988D01*
X160834753Y-154722728D01*
X160821892Y-154785180D01*
X160807715Y-154847522D01*
X160775412Y-154971875D01*
X160737838Y-155095794D01*
X160694987Y-155219285D01*
X160649118Y-155336562D01*
X160646853Y-155342354D01*
X160593429Y-155465009D01*
X160534709Y-155587253D01*
X160470687Y-155709095D01*
X160417123Y-155796209D01*
X160361985Y-155878313D01*
X160305249Y-155955331D01*
X160246891Y-156027190D01*
X160186886Y-156093816D01*
X160125210Y-156155133D01*
X160061840Y-156211067D01*
X159996752Y-156261545D01*
X159929921Y-156306491D01*
X159861323Y-156345831D01*
X159790935Y-156379491D01*
X159718733Y-156407396D01*
X159644691Y-156429473D01*
X159568787Y-156445645D01*
X159490997Y-156455840D01*
X159411295Y-156459982D01*
X159336253Y-156458533D01*
X159263126Y-156452225D01*
X159191911Y-156441245D01*
X159122606Y-156425779D01*
X159055205Y-156406013D01*
X158989707Y-156382134D01*
X158926107Y-156354327D01*
X158864401Y-156322779D01*
X158804587Y-156287677D01*
X158746661Y-156249206D01*
X158690620Y-156207552D01*
X158636459Y-156162903D01*
X158584175Y-156115443D01*
X158533766Y-156065360D01*
X158438555Y-155958068D01*
X158350797Y-155842515D01*
X158270466Y-155720193D01*
X158197532Y-155592590D01*
X158131969Y-155461197D01*
X158073748Y-155327503D01*
X158073371Y-155326508D01*
X158780000Y-155326508D01*
X158784763Y-155350041D01*
X158790128Y-155373214D01*
X158796101Y-155396026D01*
X158802688Y-155418476D01*
X158809894Y-155440562D01*
X158817728Y-155462286D01*
X158826193Y-155483645D01*
X158835298Y-155504639D01*
X158845047Y-155525267D01*
X158855447Y-155545528D01*
X158866505Y-155565422D01*
X158878226Y-155584948D01*
X158890617Y-155604105D01*
X158903684Y-155622892D01*
X158917433Y-155641309D01*
X158931871Y-155659354D01*
X158953819Y-155684839D01*
X158976194Y-155708617D01*
X158998974Y-155730705D01*
X159022139Y-155751116D01*
X159045668Y-155769865D01*
X159069541Y-155786968D01*
X159093738Y-155802439D01*
X159118237Y-155816293D01*
X159143018Y-155828545D01*
X159168060Y-155839209D01*
X159193344Y-155848301D01*
X159218848Y-155855835D01*
X159244553Y-155861826D01*
X159270436Y-155866289D01*
X159296479Y-155869239D01*
X159322660Y-155870690D01*
X159348959Y-155870657D01*
X159375355Y-155869156D01*
X159401828Y-155866201D01*
X159428357Y-155861807D01*
X159454922Y-155855988D01*
X159481502Y-155848760D01*
X159508076Y-155840137D01*
X159534624Y-155830134D01*
X159561126Y-155818766D01*
X159587561Y-155806048D01*
X159613908Y-155791995D01*
X159640148Y-155776621D01*
X159666258Y-155759941D01*
X159692219Y-155741971D01*
X159718011Y-155722724D01*
X159743612Y-155702216D01*
X159765149Y-155683558D01*
X159785334Y-155664475D01*
X159804204Y-155644937D01*
X159821796Y-155624917D01*
X159838149Y-155604384D01*
X159853298Y-155583312D01*
X159867282Y-155561670D01*
X159880137Y-155539431D01*
X159891901Y-155516566D01*
X159902610Y-155493045D01*
X159912303Y-155468841D01*
X159921015Y-155443925D01*
X159928785Y-155418268D01*
X159935650Y-155391840D01*
X159941647Y-155364615D01*
X159946812Y-155336562D01*
X159872317Y-155378743D01*
X159798052Y-155415546D01*
X159724014Y-155446899D01*
X159650198Y-155472732D01*
X159576598Y-155492975D01*
X159503211Y-155507556D01*
X159430032Y-155516407D01*
X159357056Y-155519455D01*
X159284278Y-155516631D01*
X159211694Y-155507864D01*
X159139299Y-155493084D01*
X159067089Y-155472219D01*
X158995059Y-155445200D01*
X158923203Y-155411955D01*
X158851519Y-155372415D01*
X158780000Y-155326508D01*
X158073371Y-155326508D01*
X158022841Y-155192998D01*
X157979220Y-155059173D01*
X157942858Y-154927516D01*
X157915601Y-154812389D01*
X157888717Y-154681189D01*
X157864760Y-154537884D01*
X157854677Y-154462933D01*
X157851441Y-154433441D01*
X158193204Y-154433441D01*
X158195800Y-154444917D01*
X158198225Y-154450554D01*
X158201335Y-154456154D01*
X158205134Y-154461719D01*
X158209624Y-154467249D01*
X158214809Y-154472745D01*
X158220691Y-154478208D01*
X158227274Y-154483638D01*
X158234561Y-154489036D01*
X158242555Y-154494403D01*
X158251259Y-154499740D01*
X158260676Y-154505048D01*
X158270809Y-154510327D01*
X158281662Y-154515577D01*
X158293237Y-154520801D01*
X158305537Y-154525999D01*
X158318566Y-154531171D01*
X158356911Y-154545357D01*
X158409594Y-154561761D01*
X158473581Y-154579254D01*
X158545835Y-154596704D01*
X158623320Y-154612983D01*
X158702999Y-154626960D01*
X158781836Y-154637504D01*
X158856795Y-154643486D01*
X158924840Y-154643775D01*
X158955321Y-154641432D01*
X158982934Y-154637241D01*
X159007301Y-154631063D01*
X159028042Y-154622755D01*
X159044776Y-154612176D01*
X159057126Y-154599185D01*
X159064711Y-154583641D01*
X159067151Y-154565402D01*
X159064819Y-154549458D01*
X159676815Y-154549458D01*
X159678323Y-154565402D01*
X159678545Y-154567741D01*
X159685520Y-154583533D01*
X159697355Y-154596960D01*
X159713666Y-154608148D01*
X159734067Y-154617225D01*
X159758175Y-154624315D01*
X159785604Y-154629547D01*
X159815970Y-154633045D01*
X159883974Y-154635350D01*
X159959109Y-154632241D01*
X160038298Y-154624731D01*
X160118464Y-154613829D01*
X160196529Y-154600549D01*
X160269417Y-154585902D01*
X160334048Y-154570898D01*
X160387348Y-154556551D01*
X160426237Y-154543871D01*
X160439459Y-154539182D01*
X160451942Y-154534445D01*
X160463692Y-154529657D01*
X160474714Y-154524820D01*
X160485013Y-154519934D01*
X160494596Y-154514998D01*
X160503467Y-154510012D01*
X160511631Y-154504977D01*
X160519095Y-154499892D01*
X160525864Y-154494757D01*
X160531943Y-154489573D01*
X160537337Y-154484339D01*
X160542053Y-154479056D01*
X160546094Y-154473723D01*
X160549468Y-154468340D01*
X160552179Y-154462908D01*
X160555185Y-154451570D01*
X160555163Y-154439564D01*
X160552245Y-154427014D01*
X160546561Y-154414043D01*
X160538243Y-154400774D01*
X160527422Y-154387331D01*
X160514231Y-154373837D01*
X160498799Y-154360415D01*
X160481259Y-154347188D01*
X160461742Y-154334280D01*
X160440380Y-154321814D01*
X160417303Y-154309913D01*
X160392644Y-154298700D01*
X160366533Y-154288299D01*
X160339102Y-154278832D01*
X160310482Y-154270424D01*
X160280805Y-154263197D01*
X160250202Y-154257274D01*
X160218804Y-154252779D01*
X160186744Y-154249836D01*
X160154151Y-154248566D01*
X160121159Y-154249095D01*
X160087897Y-154251544D01*
X160054498Y-154256037D01*
X160021092Y-154262697D01*
X159987812Y-154271648D01*
X159954788Y-154283013D01*
X159922152Y-154296915D01*
X159890036Y-154313477D01*
X159858570Y-154332823D01*
X159827886Y-154355076D01*
X159798116Y-154380358D01*
X159760300Y-154416245D01*
X159730036Y-154448882D01*
X159706940Y-154478396D01*
X159690627Y-154504912D01*
X159680714Y-154528557D01*
X159676815Y-154549458D01*
X159064819Y-154549458D01*
X159064068Y-154544327D01*
X159055081Y-154520275D01*
X159039811Y-154493105D01*
X159017879Y-154462675D01*
X158988904Y-154428844D01*
X158952508Y-154391471D01*
X158923674Y-154365028D01*
X158893815Y-154341580D01*
X158863069Y-154321009D01*
X158831571Y-154303196D01*
X158799456Y-154288024D01*
X158766861Y-154275374D01*
X158733922Y-154265129D01*
X158700774Y-154257170D01*
X158667552Y-154251379D01*
X158634394Y-154247638D01*
X158601435Y-154245829D01*
X158568811Y-154245833D01*
X158536656Y-154247533D01*
X158505109Y-154250811D01*
X158474303Y-154255548D01*
X158444376Y-154261626D01*
X158415462Y-154268928D01*
X158387698Y-154277335D01*
X158361220Y-154286728D01*
X158336163Y-154296991D01*
X158312664Y-154308004D01*
X158290857Y-154319650D01*
X158270880Y-154331810D01*
X158252867Y-154344367D01*
X158236955Y-154357202D01*
X158223279Y-154370197D01*
X158211976Y-154383234D01*
X158203181Y-154396195D01*
X158197030Y-154408962D01*
X158193659Y-154421417D01*
X158193204Y-154433441D01*
X157851441Y-154433441D01*
X157846285Y-154386443D01*
X157839901Y-154308912D01*
X157835846Y-154230835D01*
X157834439Y-154152709D01*
X157835999Y-154075029D01*
X157840846Y-153998291D01*
X157849298Y-153922992D01*
X157861677Y-153849628D01*
X157878299Y-153778695D01*
X157845432Y-153729198D01*
X157811643Y-153682706D01*
X157776971Y-153639221D01*
X157741453Y-153598748D01*
X157705126Y-153561289D01*
X157668027Y-153526848D01*
X157630194Y-153495428D01*
X157591665Y-153467033D01*
X157552475Y-153441665D01*
X157512663Y-153419328D01*
X157472267Y-153400026D01*
X157431322Y-153383761D01*
X157389867Y-153370537D01*
X157347939Y-153360358D01*
X157305575Y-153353226D01*
X157262812Y-153349144D01*
X157219689Y-153348117D01*
X157176241Y-153350147D01*
X157132507Y-153355238D01*
X157088523Y-153363393D01*
X157044328Y-153374614D01*
X156999957Y-153388907D01*
X156955450Y-153406273D01*
X156910842Y-153426717D01*
X156866172Y-153450241D01*
X156821476Y-153476848D01*
X156776791Y-153506543D01*
X156732156Y-153539328D01*
X156687608Y-153575207D01*
X156643183Y-153614182D01*
X156598919Y-153656258D01*
X156554854Y-153701437D01*
X156535759Y-153688759D01*
X156516371Y-153676935D01*
X156496683Y-153665987D01*
X156476686Y-153655937D01*
X156456373Y-153646808D01*
X156435735Y-153638622D01*
X156414766Y-153631402D01*
X156393458Y-153625171D01*
X156371802Y-153619950D01*
X156349791Y-153615763D01*
X156327418Y-153612631D01*
X156304674Y-153610578D01*
X156281551Y-153609625D01*
X156258043Y-153609795D01*
X156234141Y-153611111D01*
X156209837Y-153613595D01*
X156219303Y-153487946D01*
X156234587Y-153367967D01*
X156255513Y-153253650D01*
X156281904Y-153144986D01*
X156313585Y-153041966D01*
X156350381Y-152944579D01*
X156392115Y-152852818D01*
X156438611Y-152766673D01*
X156489693Y-152686134D01*
X156545187Y-152611192D01*
X156604915Y-152541839D01*
X156668702Y-152478065D01*
X156736372Y-152419861D01*
X156807750Y-152367217D01*
X156882659Y-152320124D01*
X156960923Y-152278574D01*
X157042367Y-152242557D01*
X157126815Y-152212064D01*
X157214091Y-152187085D01*
X157304018Y-152167611D01*
X157396422Y-152153634D01*
X157491127Y-152145144D01*
X157587956Y-152142131D01*
X157686733Y-152144588D01*
X157787283Y-152152503D01*
X157889430Y-152165869D01*
X157992998Y-152184675D01*
X158097812Y-152208913D01*
X158203694Y-152238574D01*
X158310470Y-152273648D01*
X158417964Y-152314126D01*
X158526000Y-152360000D01*
X158546112Y-152206961D01*
X158574965Y-152059347D01*
X158612060Y-151917389D01*
X158656901Y-151781318D01*
X158708991Y-151651366D01*
X158767832Y-151527763D01*
X158832929Y-151410742D01*
X158903783Y-151300534D01*
X158979898Y-151197369D01*
X159060778Y-151101479D01*
X159145924Y-151013096D01*
X159234840Y-150932450D01*
X159327029Y-150859773D01*
X159421995Y-150795296D01*
X159519239Y-150739251D01*
X159618266Y-150691868D01*
X159718577Y-150653379D01*
X159819678Y-150624016D01*
X159921069Y-150604010D01*
X160022254Y-150593591D01*
X160122737Y-150592991D01*
X160222021Y-150602442D01*
X160319607Y-150622175D01*
X160415000Y-150652420D01*
X160507703Y-150693410D01*
X160597218Y-150745376D01*
X160683049Y-150808548D01*
X160764698Y-150883159D01*
X160841669Y-150969439D01*
X160913464Y-151067619D01*
X160979587Y-151177932D01*
X161039541Y-151300608D01*
X161009096Y-151300586D01*
X160979088Y-151302342D01*
X160949533Y-151305931D01*
X160920445Y-151311406D01*
X160891842Y-151318823D01*
X160863738Y-151328234D01*
X160849878Y-151333705D01*
X160836148Y-151339695D01*
X160822551Y-151346211D01*
X160809089Y-151353260D01*
X160795763Y-151360848D01*
X160782575Y-151368983D01*
X160769528Y-151377670D01*
X160756623Y-151386918D01*
X160743862Y-151396732D01*
X160731247Y-151407120D01*
X160718781Y-151418087D01*
X160706464Y-151429642D01*
X160694299Y-151441790D01*
X160682288Y-151454539D01*
X160658735Y-151481866D01*
X160635822Y-151511677D01*
X160613562Y-151544025D01*
X160534963Y-151510681D01*
X160497444Y-151498789D01*
X160461120Y-151490102D01*
X160425995Y-151484635D01*
X160392074Y-151482402D01*
X160359364Y-151483416D01*
X160327870Y-151487693D01*
X160297596Y-151495247D01*
X160268549Y-151506091D01*
X160240733Y-151520240D01*
X160214154Y-151537709D01*
X160188817Y-151558511D01*
X160164728Y-151582661D01*
X160141891Y-151610173D01*
X160120313Y-151641061D01*
X160099998Y-151675339D01*
X160080952Y-151713022D01*
X160046687Y-151798660D01*
X160017562Y-151898088D01*
X159993618Y-152011419D01*
X159974900Y-152138769D01*
X159961448Y-152280249D01*
X159953306Y-152435976D01*
X159950516Y-152606062D01*
X160017064Y-152564972D01*
X160088247Y-152525778D01*
X160163665Y-152488686D01*
X160242915Y-152453903D01*
X160325594Y-152421635D01*
X160411301Y-152392088D01*
X160499633Y-152365469D01*
X160590188Y-152341983D01*
X160682563Y-152321838D01*
X160776358Y-152305239D01*
X160871169Y-152292393D01*
X160966594Y-152283505D01*
X161062231Y-152278783D01*
X161157677Y-152278433D01*
X161252532Y-152282660D01*
X161346392Y-152291671D01*
X161438855Y-152305673D01*
X161529519Y-152324871D01*
X161617981Y-152349473D01*
X161703841Y-152379683D01*
X161786694Y-152415709D01*
X161866140Y-152457757D01*
X161941776Y-152506034D01*
X162013200Y-152560744D01*
X162080009Y-152622095D01*
X162141801Y-152690293D01*
X162198175Y-152765545D01*
X162248727Y-152848056D01*
X162293057Y-152938032D01*
X162330760Y-153035681D01*
X162361437Y-153141209D01*
X162384683Y-153254820D01*
X162389988Y-153298650D01*
X162391456Y-153343022D01*
X162389142Y-153387933D01*
X162383104Y-153433381D01*
X162373397Y-153479362D01*
X162360080Y-153525874D01*
X162343207Y-153572912D01*
X162322836Y-153620475D01*
X162299024Y-153668558D01*
X162271827Y-153717159D01*
X162241301Y-153766275D01*
X162207503Y-153815903D01*
X162170490Y-153866039D01*
X162130318Y-153916680D01*
X162087044Y-153967824D01*
X162040725Y-154019466D01*
X162028130Y-154000553D01*
X162014949Y-153982512D01*
X162001182Y-153965344D01*
X161986824Y-153949054D01*
X161971874Y-153933645D01*
X161956330Y-153919119D01*
X161940188Y-153905480D01*
X161923448Y-153892731D01*
X161906106Y-153880875D01*
X161888160Y-153869915D01*
X161869608Y-153859854D01*
X161850448Y-153850695D01*
X161830677Y-153842442D01*
X161810292Y-153835097D01*
X161789292Y-153828664D01*
X161767675Y-153823146D01*
X161769526Y-153768919D01*
X161767378Y-153717508D01*
X161761437Y-153668981D01*
X161751907Y-153623409D01*
X161738995Y-153580859D01*
X161722905Y-153541401D01*
X161703844Y-153505103D01*
X161682016Y-153472035D01*
X161657627Y-153442265D01*
X161630882Y-153415862D01*
X161601987Y-153392895D01*
X161571147Y-153373433D01*
X161538568Y-153357545D01*
X161504454Y-153345300D01*
X161469013Y-153336766D01*
X161432447Y-153332013D01*
X161394965Y-153331109D01*
X161356769Y-153334123D01*
X161318067Y-153341124D01*
X161279063Y-153352182D01*
X161239964Y-153367364D01*
X161200973Y-153386741D01*
X161162297Y-153410380D01*
X161124142Y-153438350D01*
X161086711Y-153470721D01*
X161050212Y-153507562D01*
X161014849Y-153548941D01*
X160980828Y-153594926D01*
X160948354Y-153645589D01*
X160917633Y-153700996D01*
X160888870Y-153761216D01*
X160862270Y-153826320D01*
X160871577Y-153888773D01*
X160878581Y-153952240D01*
X160883462Y-154016319D01*
X160886397Y-154080609D01*
X160887564Y-154144711D01*
X160887143Y-154208222D01*
X160885311Y-154270743D01*
X160882246Y-154331873D01*
X160873132Y-154448355D01*
X160872772Y-154451570D01*
X160861228Y-154554462D01*
G37*
G36*
X156291612Y-153719442D02*
G01*
X156327861Y-153721182D01*
X156362849Y-153724285D01*
X156396393Y-153728921D01*
X156412566Y-153731865D01*
X156428310Y-153735255D01*
X156443600Y-153739112D01*
X156458414Y-153743456D01*
X156472730Y-153748309D01*
X156486524Y-153753691D01*
X156499773Y-153759624D01*
X156512455Y-153766128D01*
X156524545Y-153773224D01*
X156536022Y-153780933D01*
X156546863Y-153789276D01*
X156557044Y-153798275D01*
X156566543Y-153807949D01*
X156575336Y-153818320D01*
X156583400Y-153829409D01*
X156590713Y-153841236D01*
X156597252Y-153853824D01*
X156602994Y-153867191D01*
X156607915Y-153881361D01*
X156611993Y-153896352D01*
X156615204Y-153912187D01*
X156617527Y-153928887D01*
X156618937Y-153946471D01*
X156619412Y-153964962D01*
X156618937Y-153984136D01*
X156617527Y-154003712D01*
X156615204Y-154023623D01*
X156611993Y-154043804D01*
X156607915Y-154064188D01*
X156602994Y-154084708D01*
X156597252Y-154105299D01*
X156590713Y-154125895D01*
X156583400Y-154146428D01*
X156575336Y-154166833D01*
X156566543Y-154187044D01*
X156557044Y-154206994D01*
X156546863Y-154226616D01*
X156536022Y-154245846D01*
X156524545Y-154264615D01*
X156512455Y-154282859D01*
X156499773Y-154300510D01*
X156486524Y-154317503D01*
X156472730Y-154333772D01*
X156458414Y-154349249D01*
X156443600Y-154363869D01*
X156428310Y-154377565D01*
X156412566Y-154390271D01*
X156396393Y-154401922D01*
X156379813Y-154412449D01*
X156362849Y-154421789D01*
X156345524Y-154429873D01*
X156327861Y-154436636D01*
X156309883Y-154442011D01*
X156291612Y-154445933D01*
X156273073Y-154448334D01*
X156254287Y-154449150D01*
X156235501Y-154448675D01*
X156216962Y-154447264D01*
X156198691Y-154444942D01*
X156180713Y-154441730D01*
X156163050Y-154437652D01*
X156145725Y-154432731D01*
X156128761Y-154426989D01*
X156112181Y-154420451D01*
X156096008Y-154413137D01*
X156080265Y-154405073D01*
X156064974Y-154396280D01*
X156050160Y-154386781D01*
X156035844Y-154376600D01*
X156022050Y-154365760D01*
X156008801Y-154354283D01*
X155996120Y-154342192D01*
X155984029Y-154329510D01*
X155972552Y-154316261D01*
X155961711Y-154302467D01*
X155951530Y-154288152D01*
X155942032Y-154273337D01*
X155933239Y-154258047D01*
X155925174Y-154242304D01*
X155917861Y-154226131D01*
X155911322Y-154209550D01*
X155905581Y-154192586D01*
X155900659Y-154175261D01*
X155896581Y-154157598D01*
X155893370Y-154139620D01*
X155891047Y-154121350D01*
X155889637Y-154102810D01*
X155889162Y-154084024D01*
X155889637Y-154065239D01*
X155891047Y-154046699D01*
X155893370Y-154028429D01*
X155896582Y-154010451D01*
X155900659Y-153992788D01*
X155905581Y-153975463D01*
X155911322Y-153958499D01*
X155917861Y-153941919D01*
X155925174Y-153925746D01*
X155933239Y-153910002D01*
X155942032Y-153894712D01*
X155951530Y-153879898D01*
X155961711Y-153865582D01*
X155972552Y-153851788D01*
X155984029Y-153838539D01*
X155996120Y-153825858D01*
X156008801Y-153813767D01*
X156022050Y-153802290D01*
X156035844Y-153791449D01*
X156050160Y-153781268D01*
X156064974Y-153771770D01*
X156080265Y-153762977D01*
X156096008Y-153754912D01*
X156112181Y-153747599D01*
X156128761Y-153741060D01*
X156145725Y-153735319D01*
X156163050Y-153730397D01*
X156180713Y-153726319D01*
X156198691Y-153723108D01*
X156216962Y-153720785D01*
X156235501Y-153719375D01*
X156254287Y-153718900D01*
X156291612Y-153719442D01*
G37*
D11*
X152964287Y-153055238D02*
X152964287Y-151055238D01*
X152964287Y-151055238D02*
X152202382Y-151055238D01*
X152202382Y-151055238D02*
X152011906Y-151150476D01*
X152011906Y-151150476D02*
X151916668Y-151245714D01*
X151916668Y-151245714D02*
X151821430Y-151436190D01*
X151821430Y-151436190D02*
X151821430Y-151721904D01*
X151821430Y-151721904D02*
X151916668Y-151912380D01*
X151916668Y-151912380D02*
X152011906Y-152007619D01*
X152011906Y-152007619D02*
X152202382Y-152102857D01*
X152202382Y-152102857D02*
X152964287Y-152102857D01*
X150964287Y-153055238D02*
X150964287Y-151721904D01*
X150964287Y-151055238D02*
X151059525Y-151150476D01*
X151059525Y-151150476D02*
X150964287Y-151245714D01*
X150964287Y-151245714D02*
X150869049Y-151150476D01*
X150869049Y-151150476D02*
X150964287Y-151055238D01*
X150964287Y-151055238D02*
X150964287Y-151245714D01*
X150011906Y-151721904D02*
X150011906Y-153721904D01*
X150011906Y-151817142D02*
X149821430Y-151721904D01*
X149821430Y-151721904D02*
X149440477Y-151721904D01*
X149440477Y-151721904D02*
X149250001Y-151817142D01*
X149250001Y-151817142D02*
X149154763Y-151912380D01*
X149154763Y-151912380D02*
X149059525Y-152102857D01*
X149059525Y-152102857D02*
X149059525Y-152674285D01*
X149059525Y-152674285D02*
X149154763Y-152864761D01*
X149154763Y-152864761D02*
X149250001Y-152960000D01*
X149250001Y-152960000D02*
X149440477Y-153055238D01*
X149440477Y-153055238D02*
X149821430Y-153055238D01*
X149821430Y-153055238D02*
X150011906Y-152960000D01*
X148202382Y-151721904D02*
X148202382Y-153721904D01*
X148202382Y-151817142D02*
X148011906Y-151721904D01*
X148011906Y-151721904D02*
X147630953Y-151721904D01*
X147630953Y-151721904D02*
X147440477Y-151817142D01*
X147440477Y-151817142D02*
X147345239Y-151912380D01*
X147345239Y-151912380D02*
X147250001Y-152102857D01*
X147250001Y-152102857D02*
X147250001Y-152674285D01*
X147250001Y-152674285D02*
X147345239Y-152864761D01*
X147345239Y-152864761D02*
X147440477Y-152960000D01*
X147440477Y-152960000D02*
X147630953Y-153055238D01*
X147630953Y-153055238D02*
X148011906Y-153055238D01*
X148011906Y-153055238D02*
X148202382Y-152960000D01*
X146392858Y-153055238D02*
X146392858Y-151721904D01*
X146392858Y-151055238D02*
X146488096Y-151150476D01*
X146488096Y-151150476D02*
X146392858Y-151245714D01*
X146392858Y-151245714D02*
X146297620Y-151150476D01*
X146297620Y-151150476D02*
X146392858Y-151055238D01*
X146392858Y-151055238D02*
X146392858Y-151245714D01*
X145440477Y-151721904D02*
X145440477Y-153055238D01*
X145440477Y-151912380D02*
X145345239Y-151817142D01*
X145345239Y-151817142D02*
X145154763Y-151721904D01*
X145154763Y-151721904D02*
X144869048Y-151721904D01*
X144869048Y-151721904D02*
X144678572Y-151817142D01*
X144678572Y-151817142D02*
X144583334Y-152007619D01*
X144583334Y-152007619D02*
X144583334Y-153055238D01*
X143345239Y-153055238D02*
X143535715Y-152960000D01*
X143535715Y-152960000D02*
X143630953Y-152864761D01*
X143630953Y-152864761D02*
X143726191Y-152674285D01*
X143726191Y-152674285D02*
X143726191Y-152102857D01*
X143726191Y-152102857D02*
X143630953Y-151912380D01*
X143630953Y-151912380D02*
X143535715Y-151817142D01*
X143535715Y-151817142D02*
X143345239Y-151721904D01*
X143345239Y-151721904D02*
X143059524Y-151721904D01*
X143059524Y-151721904D02*
X142869048Y-151817142D01*
X142869048Y-151817142D02*
X142773810Y-151912380D01*
X142773810Y-151912380D02*
X142678572Y-152102857D01*
X142678572Y-152102857D02*
X142678572Y-152674285D01*
X142678572Y-152674285D02*
X142773810Y-152864761D01*
X142773810Y-152864761D02*
X142869048Y-152960000D01*
X142869048Y-152960000D02*
X143059524Y-153055238D01*
X143059524Y-153055238D02*
X143345239Y-153055238D01*
X140297619Y-153055238D02*
X140297619Y-151055238D01*
X139345238Y-153055238D02*
X139345238Y-151055238D01*
X136869047Y-153055238D02*
X136869047Y-151055238D01*
X136869047Y-151817142D02*
X136678571Y-151721904D01*
X136678571Y-151721904D02*
X136297618Y-151721904D01*
X136297618Y-151721904D02*
X136107142Y-151817142D01*
X136107142Y-151817142D02*
X136011904Y-151912380D01*
X136011904Y-151912380D02*
X135916666Y-152102857D01*
X135916666Y-152102857D02*
X135916666Y-152674285D01*
X135916666Y-152674285D02*
X136011904Y-152864761D01*
X136011904Y-152864761D02*
X136107142Y-152960000D01*
X136107142Y-152960000D02*
X136297618Y-153055238D01*
X136297618Y-153055238D02*
X136678571Y-153055238D01*
X136678571Y-153055238D02*
X136869047Y-152960000D01*
X134773809Y-153055238D02*
X134964285Y-152960000D01*
X134964285Y-152960000D02*
X135059523Y-152864761D01*
X135059523Y-152864761D02*
X135154761Y-152674285D01*
X135154761Y-152674285D02*
X135154761Y-152102857D01*
X135154761Y-152102857D02*
X135059523Y-151912380D01*
X135059523Y-151912380D02*
X134964285Y-151817142D01*
X134964285Y-151817142D02*
X134773809Y-151721904D01*
X134773809Y-151721904D02*
X134488094Y-151721904D01*
X134488094Y-151721904D02*
X134297618Y-151817142D01*
X134297618Y-151817142D02*
X134202380Y-151912380D01*
X134202380Y-151912380D02*
X134107142Y-152102857D01*
X134107142Y-152102857D02*
X134107142Y-152674285D01*
X134107142Y-152674285D02*
X134202380Y-152864761D01*
X134202380Y-152864761D02*
X134297618Y-152960000D01*
X134297618Y-152960000D02*
X134488094Y-153055238D01*
X134488094Y-153055238D02*
X134773809Y-153055238D01*
X132392856Y-153055238D02*
X132392856Y-152007619D01*
X132392856Y-152007619D02*
X132488094Y-151817142D01*
X132488094Y-151817142D02*
X132678570Y-151721904D01*
X132678570Y-151721904D02*
X133059523Y-151721904D01*
X133059523Y-151721904D02*
X133249999Y-151817142D01*
X132392856Y-152960000D02*
X132583332Y-153055238D01*
X132583332Y-153055238D02*
X133059523Y-153055238D01*
X133059523Y-153055238D02*
X133249999Y-152960000D01*
X133249999Y-152960000D02*
X133345237Y-152769523D01*
X133345237Y-152769523D02*
X133345237Y-152579047D01*
X133345237Y-152579047D02*
X133249999Y-152388571D01*
X133249999Y-152388571D02*
X133059523Y-152293333D01*
X133059523Y-152293333D02*
X132583332Y-152293333D01*
X132583332Y-152293333D02*
X132392856Y-152198095D01*
X131440475Y-153055238D02*
X131440475Y-151721904D01*
X131440475Y-152102857D02*
X131345237Y-151912380D01*
X131345237Y-151912380D02*
X131249999Y-151817142D01*
X131249999Y-151817142D02*
X131059523Y-151721904D01*
X131059523Y-151721904D02*
X130869046Y-151721904D01*
X129345237Y-153055238D02*
X129345237Y-151055238D01*
X129345237Y-152960000D02*
X129535713Y-153055238D01*
X129535713Y-153055238D02*
X129916666Y-153055238D01*
X129916666Y-153055238D02*
X130107142Y-152960000D01*
X130107142Y-152960000D02*
X130202380Y-152864761D01*
X130202380Y-152864761D02*
X130297618Y-152674285D01*
X130297618Y-152674285D02*
X130297618Y-152102857D01*
X130297618Y-152102857D02*
X130202380Y-151912380D01*
X130202380Y-151912380D02*
X130107142Y-151817142D01*
X130107142Y-151817142D02*
X129916666Y-151721904D01*
X129916666Y-151721904D02*
X129535713Y-151721904D01*
X129535713Y-151721904D02*
X129345237Y-151817142D01*
X127059522Y-151721904D02*
X126583332Y-153055238D01*
X126583332Y-153055238D02*
X126107141Y-151721904D01*
X125440474Y-151245714D02*
X125345236Y-151150476D01*
X125345236Y-151150476D02*
X125154760Y-151055238D01*
X125154760Y-151055238D02*
X124678569Y-151055238D01*
X124678569Y-151055238D02*
X124488093Y-151150476D01*
X124488093Y-151150476D02*
X124392855Y-151245714D01*
X124392855Y-151245714D02*
X124297617Y-151436190D01*
X124297617Y-151436190D02*
X124297617Y-151626666D01*
X124297617Y-151626666D02*
X124392855Y-151912380D01*
X124392855Y-151912380D02*
X125535712Y-153055238D01*
X125535712Y-153055238D02*
X124297617Y-153055238D01*
X123440474Y-152864761D02*
X123345236Y-152960000D01*
X123345236Y-152960000D02*
X123440474Y-153055238D01*
X123440474Y-153055238D02*
X123535712Y-152960000D01*
X123535712Y-152960000D02*
X123440474Y-152864761D01*
X123440474Y-152864761D02*
X123440474Y-153055238D01*
X121440474Y-153055238D02*
X122583331Y-153055238D01*
X122011903Y-153055238D02*
X122011903Y-151055238D01*
X122011903Y-151055238D02*
X122202379Y-151340952D01*
X122202379Y-151340952D02*
X122392855Y-151531428D01*
X122392855Y-151531428D02*
X122583331Y-151626666D01*
X154630954Y-156295238D02*
X154630954Y-154295238D01*
X154630954Y-154295238D02*
X153869049Y-154295238D01*
X153869049Y-154295238D02*
X153678573Y-154390476D01*
X153678573Y-154390476D02*
X153583335Y-154485714D01*
X153583335Y-154485714D02*
X153488097Y-154676190D01*
X153488097Y-154676190D02*
X153488097Y-154961904D01*
X153488097Y-154961904D02*
X153583335Y-155152380D01*
X153583335Y-155152380D02*
X153678573Y-155247619D01*
X153678573Y-155247619D02*
X153869049Y-155342857D01*
X153869049Y-155342857D02*
X154630954Y-155342857D01*
X151773811Y-156295238D02*
X151773811Y-155247619D01*
X151773811Y-155247619D02*
X151869049Y-155057142D01*
X151869049Y-155057142D02*
X152059525Y-154961904D01*
X152059525Y-154961904D02*
X152440478Y-154961904D01*
X152440478Y-154961904D02*
X152630954Y-155057142D01*
X151773811Y-156200000D02*
X151964287Y-156295238D01*
X151964287Y-156295238D02*
X152440478Y-156295238D01*
X152440478Y-156295238D02*
X152630954Y-156200000D01*
X152630954Y-156200000D02*
X152726192Y-156009523D01*
X152726192Y-156009523D02*
X152726192Y-155819047D01*
X152726192Y-155819047D02*
X152630954Y-155628571D01*
X152630954Y-155628571D02*
X152440478Y-155533333D01*
X152440478Y-155533333D02*
X151964287Y-155533333D01*
X151964287Y-155533333D02*
X151773811Y-155438095D01*
X150821430Y-154961904D02*
X150821430Y-156676190D01*
X150821430Y-156676190D02*
X150916668Y-156866666D01*
X150916668Y-156866666D02*
X151107144Y-156961904D01*
X151107144Y-156961904D02*
X151202382Y-156961904D01*
X150821430Y-154295238D02*
X150916668Y-154390476D01*
X150916668Y-154390476D02*
X150821430Y-154485714D01*
X150821430Y-154485714D02*
X150726192Y-154390476D01*
X150726192Y-154390476D02*
X150821430Y-154295238D01*
X150821430Y-154295238D02*
X150821430Y-154485714D01*
X149011906Y-156295238D02*
X149011906Y-155247619D01*
X149011906Y-155247619D02*
X149107144Y-155057142D01*
X149107144Y-155057142D02*
X149297620Y-154961904D01*
X149297620Y-154961904D02*
X149678573Y-154961904D01*
X149678573Y-154961904D02*
X149869049Y-155057142D01*
X149011906Y-156200000D02*
X149202382Y-156295238D01*
X149202382Y-156295238D02*
X149678573Y-156295238D01*
X149678573Y-156295238D02*
X149869049Y-156200000D01*
X149869049Y-156200000D02*
X149964287Y-156009523D01*
X149964287Y-156009523D02*
X149964287Y-155819047D01*
X149964287Y-155819047D02*
X149869049Y-155628571D01*
X149869049Y-155628571D02*
X149678573Y-155533333D01*
X149678573Y-155533333D02*
X149202382Y-155533333D01*
X149202382Y-155533333D02*
X149011906Y-155438095D01*
X148250001Y-154961904D02*
X147202382Y-154961904D01*
X147202382Y-154961904D02*
X148250001Y-156295238D01*
X148250001Y-156295238D02*
X147202382Y-156295238D01*
X144059524Y-156295238D02*
X144059524Y-154295238D01*
X144059524Y-156200000D02*
X144250000Y-156295238D01*
X144250000Y-156295238D02*
X144630953Y-156295238D01*
X144630953Y-156295238D02*
X144821429Y-156200000D01*
X144821429Y-156200000D02*
X144916667Y-156104761D01*
X144916667Y-156104761D02*
X145011905Y-155914285D01*
X145011905Y-155914285D02*
X145011905Y-155342857D01*
X145011905Y-155342857D02*
X144916667Y-155152380D01*
X144916667Y-155152380D02*
X144821429Y-155057142D01*
X144821429Y-155057142D02*
X144630953Y-154961904D01*
X144630953Y-154961904D02*
X144250000Y-154961904D01*
X144250000Y-154961904D02*
X144059524Y-155057142D01*
X142345238Y-156200000D02*
X142535714Y-156295238D01*
X142535714Y-156295238D02*
X142916667Y-156295238D01*
X142916667Y-156295238D02*
X143107143Y-156200000D01*
X143107143Y-156200000D02*
X143202381Y-156009523D01*
X143202381Y-156009523D02*
X143202381Y-155247619D01*
X143202381Y-155247619D02*
X143107143Y-155057142D01*
X143107143Y-155057142D02*
X142916667Y-154961904D01*
X142916667Y-154961904D02*
X142535714Y-154961904D01*
X142535714Y-154961904D02*
X142345238Y-155057142D01*
X142345238Y-155057142D02*
X142250000Y-155247619D01*
X142250000Y-155247619D02*
X142250000Y-155438095D01*
X142250000Y-155438095D02*
X143202381Y-155628571D01*
X141488095Y-156200000D02*
X141297619Y-156295238D01*
X141297619Y-156295238D02*
X140916667Y-156295238D01*
X140916667Y-156295238D02*
X140726190Y-156200000D01*
X140726190Y-156200000D02*
X140630952Y-156009523D01*
X140630952Y-156009523D02*
X140630952Y-155914285D01*
X140630952Y-155914285D02*
X140726190Y-155723809D01*
X140726190Y-155723809D02*
X140916667Y-155628571D01*
X140916667Y-155628571D02*
X141202381Y-155628571D01*
X141202381Y-155628571D02*
X141392857Y-155533333D01*
X141392857Y-155533333D02*
X141488095Y-155342857D01*
X141488095Y-155342857D02*
X141488095Y-155247619D01*
X141488095Y-155247619D02*
X141392857Y-155057142D01*
X141392857Y-155057142D02*
X141202381Y-154961904D01*
X141202381Y-154961904D02*
X140916667Y-154961904D01*
X140916667Y-154961904D02*
X140726190Y-155057142D01*
X139773809Y-156295238D02*
X139773809Y-154961904D01*
X139773809Y-154295238D02*
X139869047Y-154390476D01*
X139869047Y-154390476D02*
X139773809Y-154485714D01*
X139773809Y-154485714D02*
X139678571Y-154390476D01*
X139678571Y-154390476D02*
X139773809Y-154295238D01*
X139773809Y-154295238D02*
X139773809Y-154485714D01*
X137964285Y-154961904D02*
X137964285Y-156580952D01*
X137964285Y-156580952D02*
X138059523Y-156771428D01*
X138059523Y-156771428D02*
X138154761Y-156866666D01*
X138154761Y-156866666D02*
X138345238Y-156961904D01*
X138345238Y-156961904D02*
X138630952Y-156961904D01*
X138630952Y-156961904D02*
X138821428Y-156866666D01*
X137964285Y-156200000D02*
X138154761Y-156295238D01*
X138154761Y-156295238D02*
X138535714Y-156295238D01*
X138535714Y-156295238D02*
X138726190Y-156200000D01*
X138726190Y-156200000D02*
X138821428Y-156104761D01*
X138821428Y-156104761D02*
X138916666Y-155914285D01*
X138916666Y-155914285D02*
X138916666Y-155342857D01*
X138916666Y-155342857D02*
X138821428Y-155152380D01*
X138821428Y-155152380D02*
X138726190Y-155057142D01*
X138726190Y-155057142D02*
X138535714Y-154961904D01*
X138535714Y-154961904D02*
X138154761Y-154961904D01*
X138154761Y-154961904D02*
X137964285Y-155057142D01*
X137011904Y-154961904D02*
X137011904Y-156295238D01*
X137011904Y-155152380D02*
X136916666Y-155057142D01*
X136916666Y-155057142D02*
X136726190Y-154961904D01*
X136726190Y-154961904D02*
X136440475Y-154961904D01*
X136440475Y-154961904D02*
X136249999Y-155057142D01*
X136249999Y-155057142D02*
X136154761Y-155247619D01*
X136154761Y-155247619D02*
X136154761Y-156295238D01*
X133678570Y-156295238D02*
X133678570Y-154295238D01*
X133678570Y-154295238D02*
X133011903Y-155723809D01*
X133011903Y-155723809D02*
X132345237Y-154295238D01*
X132345237Y-154295238D02*
X132345237Y-156295238D01*
X130535713Y-156295238D02*
X130535713Y-155247619D01*
X130535713Y-155247619D02*
X130630951Y-155057142D01*
X130630951Y-155057142D02*
X130821427Y-154961904D01*
X130821427Y-154961904D02*
X131202380Y-154961904D01*
X131202380Y-154961904D02*
X131392856Y-155057142D01*
X130535713Y-156200000D02*
X130726189Y-156295238D01*
X130726189Y-156295238D02*
X131202380Y-156295238D01*
X131202380Y-156295238D02*
X131392856Y-156200000D01*
X131392856Y-156200000D02*
X131488094Y-156009523D01*
X131488094Y-156009523D02*
X131488094Y-155819047D01*
X131488094Y-155819047D02*
X131392856Y-155628571D01*
X131392856Y-155628571D02*
X131202380Y-155533333D01*
X131202380Y-155533333D02*
X130726189Y-155533333D01*
X130726189Y-155533333D02*
X130535713Y-155438095D01*
X129773808Y-154961904D02*
X129297618Y-156295238D01*
X128821427Y-154961904D02*
X129297618Y-156295238D01*
X129297618Y-156295238D02*
X129488094Y-156771428D01*
X129488094Y-156771428D02*
X129583332Y-156866666D01*
X129583332Y-156866666D02*
X129773808Y-156961904D01*
X126630950Y-154485714D02*
X126535712Y-154390476D01*
X126535712Y-154390476D02*
X126345236Y-154295238D01*
X126345236Y-154295238D02*
X125869045Y-154295238D01*
X125869045Y-154295238D02*
X125678569Y-154390476D01*
X125678569Y-154390476D02*
X125583331Y-154485714D01*
X125583331Y-154485714D02*
X125488093Y-154676190D01*
X125488093Y-154676190D02*
X125488093Y-154866666D01*
X125488093Y-154866666D02*
X125583331Y-155152380D01*
X125583331Y-155152380D02*
X126726188Y-156295238D01*
X126726188Y-156295238D02*
X125488093Y-156295238D01*
X124249998Y-154295238D02*
X124059521Y-154295238D01*
X124059521Y-154295238D02*
X123869045Y-154390476D01*
X123869045Y-154390476D02*
X123773807Y-154485714D01*
X123773807Y-154485714D02*
X123678569Y-154676190D01*
X123678569Y-154676190D02*
X123583331Y-155057142D01*
X123583331Y-155057142D02*
X123583331Y-155533333D01*
X123583331Y-155533333D02*
X123678569Y-155914285D01*
X123678569Y-155914285D02*
X123773807Y-156104761D01*
X123773807Y-156104761D02*
X123869045Y-156200000D01*
X123869045Y-156200000D02*
X124059521Y-156295238D01*
X124059521Y-156295238D02*
X124249998Y-156295238D01*
X124249998Y-156295238D02*
X124440474Y-156200000D01*
X124440474Y-156200000D02*
X124535712Y-156104761D01*
X124535712Y-156104761D02*
X124630950Y-155914285D01*
X124630950Y-155914285D02*
X124726188Y-155533333D01*
X124726188Y-155533333D02*
X124726188Y-155057142D01*
X124726188Y-155057142D02*
X124630950Y-154676190D01*
X124630950Y-154676190D02*
X124535712Y-154485714D01*
X124535712Y-154485714D02*
X124440474Y-154390476D01*
X124440474Y-154390476D02*
X124249998Y-154295238D01*
X122821426Y-154485714D02*
X122726188Y-154390476D01*
X122726188Y-154390476D02*
X122535712Y-154295238D01*
X122535712Y-154295238D02*
X122059521Y-154295238D01*
X122059521Y-154295238D02*
X121869045Y-154390476D01*
X121869045Y-154390476D02*
X121773807Y-154485714D01*
X121773807Y-154485714D02*
X121678569Y-154676190D01*
X121678569Y-154676190D02*
X121678569Y-154866666D01*
X121678569Y-154866666D02*
X121773807Y-155152380D01*
X121773807Y-155152380D02*
X122916664Y-156295238D01*
X122916664Y-156295238D02*
X121678569Y-156295238D01*
X121011902Y-154295238D02*
X119773807Y-154295238D01*
X119773807Y-154295238D02*
X120440474Y-155057142D01*
X120440474Y-155057142D02*
X120154759Y-155057142D01*
X120154759Y-155057142D02*
X119964283Y-155152380D01*
X119964283Y-155152380D02*
X119869045Y-155247619D01*
X119869045Y-155247619D02*
X119773807Y-155438095D01*
X119773807Y-155438095D02*
X119773807Y-155914285D01*
X119773807Y-155914285D02*
X119869045Y-156104761D01*
X119869045Y-156104761D02*
X119964283Y-156200000D01*
X119964283Y-156200000D02*
X120154759Y-156295238D01*
X120154759Y-156295238D02*
X120726188Y-156295238D01*
X120726188Y-156295238D02*
X120916664Y-156200000D01*
X120916664Y-156200000D02*
X121011902Y-156104761D01*
%LPC*%
D12*
X196000000Y-84000000D03*
X110000000Y-84000000D03*
X183500000Y-154620000D03*
D13*
X185000000Y-150300000D03*
D14*
X182000000Y-150300000D03*
X185000000Y-147300000D03*
X182000000Y-147300000D03*
D15*
X177600000Y-111625000D03*
D16*
X177600000Y-114165000D03*
X175060000Y-111625000D03*
X175060000Y-114165000D03*
X172520000Y-111625000D03*
X172520000Y-114165000D03*
X169980000Y-111625000D03*
X169980000Y-114165000D03*
X167440000Y-111625000D03*
X167440000Y-114165000D03*
X164900000Y-111625000D03*
X164900000Y-114165000D03*
D12*
X165200000Y-154620000D03*
D13*
X165200000Y-150300000D03*
D14*
X165200000Y-147300000D03*
D12*
X196000000Y-143000000D03*
X110000000Y-143000000D03*
D15*
X104000000Y-122920000D03*
D16*
X106540000Y-122920000D03*
X104000000Y-125460000D03*
X106540000Y-125460000D03*
X104000000Y-128000000D03*
X106540000Y-128000000D03*
X104000000Y-130540000D03*
X106540000Y-130540000D03*
X104000000Y-133080000D03*
X106540000Y-133080000D03*
D15*
X150225000Y-120000000D03*
D16*
X152765000Y-120000000D03*
X155305000Y-120000000D03*
D15*
X138340000Y-100725000D03*
D16*
X138340000Y-98185000D03*
X140880000Y-100725000D03*
X140880000Y-98185000D03*
X143420000Y-100725000D03*
X143420000Y-98185000D03*
X145960000Y-100725000D03*
X145960000Y-98185000D03*
X148500000Y-100725000D03*
X148500000Y-98185000D03*
X151040000Y-100725000D03*
X151040000Y-98185000D03*
X153580000Y-100725000D03*
X153580000Y-98185000D03*
X156120000Y-100725000D03*
X156120000Y-98185000D03*
D15*
X195000000Y-108500000D03*
D16*
X192460000Y-108500000D03*
X195000000Y-105960000D03*
X192460000Y-105960000D03*
X195000000Y-103420000D03*
X192460000Y-103420000D03*
D12*
X193250000Y-154620000D03*
D13*
X193250000Y-150300000D03*
D14*
X193250000Y-147300000D03*
D15*
X115250000Y-111750000D03*
D16*
X117790000Y-111750000D03*
X115250000Y-114290000D03*
X117790000Y-114290000D03*
D15*
X185940000Y-114000000D03*
D16*
X183400000Y-114000000D03*
X185940000Y-111460000D03*
X183400000Y-111460000D03*
D17*
X108698000Y-149524000D03*
D18*
X115898000Y-149524000D03*
D19*
X107808000Y-156724000D03*
X108168000Y-150774000D03*
X116428000Y-150774000D03*
X116788000Y-156724000D03*
D15*
X195000000Y-95000000D03*
D16*
X192460000Y-95000000D03*
X195000000Y-92460000D03*
X192460000Y-92460000D03*
X195000000Y-89920000D03*
X192460000Y-89920000D03*
D15*
X103725000Y-91835000D03*
D16*
X106265000Y-91835000D03*
X103725000Y-94375000D03*
X106265000Y-94375000D03*
X103725000Y-96915000D03*
X106265000Y-96915000D03*
X103725000Y-99455000D03*
X106265000Y-99455000D03*
X103725000Y-101995000D03*
X106265000Y-101995000D03*
X103725000Y-104535000D03*
X106265000Y-104535000D03*
X103725000Y-107075000D03*
X106265000Y-107075000D03*
X103725000Y-109615000D03*
X106265000Y-109615000D03*
D15*
X152750000Y-123810000D03*
D16*
X150210000Y-123810000D03*
%LPD*%
M02*
