G04 #@! TF.GenerationSoftware,KiCad,Pcbnew,7.0.2-6a45011f42~172~ubuntu20.04.1*
G04 #@! TF.CreationDate,2023-05-01T11:45:46+02:00*
G04 #@! TF.ProjectId,pippino_board,70697070-696e-46f5-9f62-6f6172642e6b,rev?*
G04 #@! TF.SameCoordinates,Original*
G04 #@! TF.FileFunction,Soldermask,Bot*
G04 #@! TF.FilePolarity,Negative*
%FSLAX46Y46*%
G04 Gerber Fmt 4.6, Leading zero omitted, Abs format (unit mm)*
G04 Created by KiCad (PCBNEW 7.0.2-6a45011f42~172~ubuntu20.04.1) date 2023-05-01 11:45:46*
%MOMM*%
%LPD*%
G01*
G04 APERTURE LIST*
G04 Aperture macros list*
%AMRoundRect*
0 Rectangle with rounded corners*
0 $1 Rounding radius*
0 $2 $3 $4 $5 $6 $7 $8 $9 X,Y pos of 4 corners*
0 Add a 4 corners polygon primitive as box body*
4,1,4,$2,$3,$4,$5,$6,$7,$8,$9,$2,$3,0*
0 Add four circle primitives for the rounded corners*
1,1,$1+$1,$2,$3*
1,1,$1+$1,$4,$5*
1,1,$1+$1,$6,$7*
1,1,$1+$1,$8,$9*
0 Add four rect primitives between the rounded corners*
20,1,$1+$1,$2,$3,$4,$5,0*
20,1,$1+$1,$4,$5,$6,$7,0*
20,1,$1+$1,$6,$7,$8,$9,0*
20,1,$1+$1,$8,$9,$2,$3,0*%
G04 Aperture macros list end*
%ADD10C,3.000000*%
%ADD11RoundRect,0.250001X0.499999X0.499999X-0.499999X0.499999X-0.499999X-0.499999X0.499999X-0.499999X0*%
%ADD12C,1.500000*%
%ADD13R,1.700000X1.700000*%
%ADD14O,1.700000X1.700000*%
%ADD15C,0.650000*%
%ADD16O,0.950000X0.650000*%
%ADD17O,0.800000X1.400000*%
G04 APERTURE END LIST*
D10*
X196000000Y-84000000D03*
X110000000Y-84000000D03*
X183500000Y-154620000D03*
D11*
X185000000Y-150300000D03*
D12*
X182000000Y-150300000D03*
X185000000Y-147300000D03*
X182000000Y-147300000D03*
D13*
X177600000Y-111625000D03*
D14*
X177600000Y-114165000D03*
X175060000Y-111625000D03*
X175060000Y-114165000D03*
X172520000Y-111625000D03*
X172520000Y-114165000D03*
X169980000Y-111625000D03*
X169980000Y-114165000D03*
X167440000Y-111625000D03*
X167440000Y-114165000D03*
X164900000Y-111625000D03*
X164900000Y-114165000D03*
D10*
X165200000Y-154620000D03*
D11*
X165200000Y-150300000D03*
D12*
X165200000Y-147300000D03*
D10*
X196000000Y-143000000D03*
X110000000Y-143000000D03*
D13*
X104000000Y-122920000D03*
D14*
X106540000Y-122920000D03*
X104000000Y-125460000D03*
X106540000Y-125460000D03*
X104000000Y-128000000D03*
X106540000Y-128000000D03*
X104000000Y-130540000D03*
X106540000Y-130540000D03*
X104000000Y-133080000D03*
X106540000Y-133080000D03*
D13*
X150225000Y-120000000D03*
D14*
X152765000Y-120000000D03*
X155305000Y-120000000D03*
D13*
X138340000Y-100725000D03*
D14*
X138340000Y-98185000D03*
X140880000Y-100725000D03*
X140880000Y-98185000D03*
X143420000Y-100725000D03*
X143420000Y-98185000D03*
X145960000Y-100725000D03*
X145960000Y-98185000D03*
X148500000Y-100725000D03*
X148500000Y-98185000D03*
X151040000Y-100725000D03*
X151040000Y-98185000D03*
X153580000Y-100725000D03*
X153580000Y-98185000D03*
X156120000Y-100725000D03*
X156120000Y-98185000D03*
D13*
X195000000Y-108500000D03*
D14*
X192460000Y-108500000D03*
X195000000Y-105960000D03*
X192460000Y-105960000D03*
X195000000Y-103420000D03*
X192460000Y-103420000D03*
D10*
X193250000Y-154620000D03*
D11*
X193250000Y-150300000D03*
D12*
X193250000Y-147300000D03*
D13*
X115250000Y-111750000D03*
D14*
X117790000Y-111750000D03*
X115250000Y-114290000D03*
X117790000Y-114290000D03*
D13*
X185940000Y-114000000D03*
D14*
X183400000Y-114000000D03*
X185940000Y-111460000D03*
X183400000Y-111460000D03*
D15*
X108698000Y-149524000D03*
D16*
X115898000Y-149524000D03*
D17*
X107808000Y-156724000D03*
X108168000Y-150774000D03*
X116428000Y-150774000D03*
X116788000Y-156724000D03*
D13*
X195000000Y-95000000D03*
D14*
X192460000Y-95000000D03*
X195000000Y-92460000D03*
X192460000Y-92460000D03*
X195000000Y-89920000D03*
X192460000Y-89920000D03*
D13*
X103725000Y-91835000D03*
D14*
X106265000Y-91835000D03*
X103725000Y-94375000D03*
X106265000Y-94375000D03*
X103725000Y-96915000D03*
X106265000Y-96915000D03*
X103725000Y-99455000D03*
X106265000Y-99455000D03*
X103725000Y-101995000D03*
X106265000Y-101995000D03*
X103725000Y-104535000D03*
X106265000Y-104535000D03*
X103725000Y-107075000D03*
X106265000Y-107075000D03*
X103725000Y-109615000D03*
X106265000Y-109615000D03*
D13*
X152750000Y-123810000D03*
D14*
X150210000Y-123810000D03*
M02*
