%TF.GenerationSoftware,KiCad,Pcbnew,7.0.2-6a45011f42~172~ubuntu20.04.1*%
%TF.CreationDate,2023-04-30T22:50:11+02:00*%
%TF.ProjectId,pippino_board,70697070-696e-46f5-9f62-6f6172642e6b,rev?*%
%TF.SameCoordinates,Original*%
%TF.FileFunction,Drillmap*%
%TF.FilePolarity,Positive*%
%FSLAX45Y45*%
G04 Gerber Fmt 4.5, Leading zero omitted, Abs format (unit mm)*
G04 Created by KiCad (PCBNEW 7.0.2-6a45011f42~172~ubuntu20.04.1) date 2023-04-30 22:50:11*
%MOMM*%
%LPD*%
G01*
G04 APERTURE LIST*
%ADD10C,0.100000*%
%ADD11C,0.200000*%
%ADD12C,0.065000*%
%ADD13C,0.300000*%
G04 APERTURE END LIST*
D10*
X20000000Y-16000000D02*
X11940000Y-16000000D01*
X10000000Y-16000000D02*
X10000000Y-8000000D01*
X10000000Y-8000000D02*
X20000000Y-8000000D01*
X10530000Y-16000000D02*
X10000000Y-16000000D01*
X10630000Y-15900000D02*
G75*
G03*
X10530000Y-16000000I0J-100000D01*
G01*
X10630000Y-15900000D02*
X11840000Y-15900000D01*
X11940000Y-16000000D02*
G75*
G03*
X11840000Y-15900000I-100000J0D01*
G01*
X20000000Y-8000000D02*
X20000000Y-16000000D01*
D11*
D12*
X10837300Y-14919900D02*
X10902300Y-14984900D01*
X10902300Y-14919900D02*
X10837300Y-14984900D01*
X11557300Y-14919900D02*
X11622300Y-14984900D01*
X11622300Y-14919900D02*
X11557300Y-14984900D01*
D11*
X11574800Y-14984900D02*
X11604800Y-14984900D01*
X11604800Y-14984900D02*
G75*
G03*
X11604800Y-14919900I0J32500D01*
G01*
X11604800Y-14919900D02*
X11574800Y-14919900D01*
X11574800Y-14919900D02*
G75*
G03*
X11574800Y-14984900I0J-32500D01*
G01*
D13*
X11150000Y-8400000D02*
G75*
G03*
X11150000Y-8400000I-150000J0D01*
G01*
X11150000Y-14300000D02*
G75*
G03*
X11150000Y-14300000I-150000J0D01*
G01*
X16670000Y-15462000D02*
G75*
G03*
X16670000Y-15462000I-150000J0D01*
G01*
X18500000Y-15462000D02*
G75*
G03*
X18500000Y-15462000I-150000J0D01*
G01*
X19475000Y-15462000D02*
G75*
G03*
X19475000Y-15462000I-150000J0D01*
G01*
X19750000Y-8400000D02*
G75*
G03*
X19750000Y-8400000I-150000J0D01*
G01*
X19750000Y-14300000D02*
G75*
G03*
X19750000Y-14300000I-150000J0D01*
G01*
D11*
X10242619Y-16317524D02*
X10242619Y-16117524D01*
X10242619Y-16117524D02*
X10290238Y-16117524D01*
X10290238Y-16117524D02*
X10318810Y-16127048D01*
X10318810Y-16127048D02*
X10337857Y-16146095D01*
X10337857Y-16146095D02*
X10347381Y-16165143D01*
X10347381Y-16165143D02*
X10356905Y-16203238D01*
X10356905Y-16203238D02*
X10356905Y-16231809D01*
X10356905Y-16231809D02*
X10347381Y-16269905D01*
X10347381Y-16269905D02*
X10337857Y-16288952D01*
X10337857Y-16288952D02*
X10318810Y-16308000D01*
X10318810Y-16308000D02*
X10290238Y-16317524D01*
X10290238Y-16317524D02*
X10242619Y-16317524D01*
X10442619Y-16317524D02*
X10442619Y-16184190D01*
X10442619Y-16222286D02*
X10452143Y-16203238D01*
X10452143Y-16203238D02*
X10461667Y-16193714D01*
X10461667Y-16193714D02*
X10480714Y-16184190D01*
X10480714Y-16184190D02*
X10499762Y-16184190D01*
X10566429Y-16317524D02*
X10566429Y-16184190D01*
X10566429Y-16117524D02*
X10556905Y-16127048D01*
X10556905Y-16127048D02*
X10566429Y-16136571D01*
X10566429Y-16136571D02*
X10575952Y-16127048D01*
X10575952Y-16127048D02*
X10566429Y-16117524D01*
X10566429Y-16117524D02*
X10566429Y-16136571D01*
X10690238Y-16317524D02*
X10671190Y-16308000D01*
X10671190Y-16308000D02*
X10661667Y-16288952D01*
X10661667Y-16288952D02*
X10661667Y-16117524D01*
X10795000Y-16317524D02*
X10775952Y-16308000D01*
X10775952Y-16308000D02*
X10766429Y-16288952D01*
X10766429Y-16288952D02*
X10766429Y-16117524D01*
X11023571Y-16317524D02*
X11023571Y-16117524D01*
X11023571Y-16117524D02*
X11090238Y-16260381D01*
X11090238Y-16260381D02*
X11156905Y-16117524D01*
X11156905Y-16117524D02*
X11156905Y-16317524D01*
X11337857Y-16317524D02*
X11337857Y-16212762D01*
X11337857Y-16212762D02*
X11328333Y-16193714D01*
X11328333Y-16193714D02*
X11309286Y-16184190D01*
X11309286Y-16184190D02*
X11271190Y-16184190D01*
X11271190Y-16184190D02*
X11252143Y-16193714D01*
X11337857Y-16308000D02*
X11318809Y-16317524D01*
X11318809Y-16317524D02*
X11271190Y-16317524D01*
X11271190Y-16317524D02*
X11252143Y-16308000D01*
X11252143Y-16308000D02*
X11242619Y-16288952D01*
X11242619Y-16288952D02*
X11242619Y-16269905D01*
X11242619Y-16269905D02*
X11252143Y-16250857D01*
X11252143Y-16250857D02*
X11271190Y-16241333D01*
X11271190Y-16241333D02*
X11318809Y-16241333D01*
X11318809Y-16241333D02*
X11337857Y-16231809D01*
X11433095Y-16184190D02*
X11433095Y-16384190D01*
X11433095Y-16193714D02*
X11452143Y-16184190D01*
X11452143Y-16184190D02*
X11490238Y-16184190D01*
X11490238Y-16184190D02*
X11509286Y-16193714D01*
X11509286Y-16193714D02*
X11518809Y-16203238D01*
X11518809Y-16203238D02*
X11528333Y-16222286D01*
X11528333Y-16222286D02*
X11528333Y-16279428D01*
X11528333Y-16279428D02*
X11518809Y-16298476D01*
X11518809Y-16298476D02*
X11509286Y-16308000D01*
X11509286Y-16308000D02*
X11490238Y-16317524D01*
X11490238Y-16317524D02*
X11452143Y-16317524D01*
X11452143Y-16317524D02*
X11433095Y-16308000D01*
X11614048Y-16298476D02*
X11623571Y-16308000D01*
X11623571Y-16308000D02*
X11614048Y-16317524D01*
X11614048Y-16317524D02*
X11604524Y-16308000D01*
X11604524Y-16308000D02*
X11614048Y-16298476D01*
X11614048Y-16298476D02*
X11614048Y-16317524D01*
X11614048Y-16193714D02*
X11623571Y-16203238D01*
X11623571Y-16203238D02*
X11614048Y-16212762D01*
X11614048Y-16212762D02*
X11604524Y-16203238D01*
X11604524Y-16203238D02*
X11614048Y-16193714D01*
X11614048Y-16193714D02*
X11614048Y-16212762D01*
D12*
X9930000Y-16612500D02*
X9995000Y-16677500D01*
X9995000Y-16612500D02*
X9930000Y-16677500D01*
D11*
X10280714Y-16537524D02*
X10299762Y-16537524D01*
X10299762Y-16537524D02*
X10318810Y-16547048D01*
X10318810Y-16547048D02*
X10328333Y-16556571D01*
X10328333Y-16556571D02*
X10337857Y-16575619D01*
X10337857Y-16575619D02*
X10347381Y-16613714D01*
X10347381Y-16613714D02*
X10347381Y-16661333D01*
X10347381Y-16661333D02*
X10337857Y-16699428D01*
X10337857Y-16699428D02*
X10328333Y-16718476D01*
X10328333Y-16718476D02*
X10318810Y-16728000D01*
X10318810Y-16728000D02*
X10299762Y-16737524D01*
X10299762Y-16737524D02*
X10280714Y-16737524D01*
X10280714Y-16737524D02*
X10261667Y-16728000D01*
X10261667Y-16728000D02*
X10252143Y-16718476D01*
X10252143Y-16718476D02*
X10242619Y-16699428D01*
X10242619Y-16699428D02*
X10233095Y-16661333D01*
X10233095Y-16661333D02*
X10233095Y-16613714D01*
X10233095Y-16613714D02*
X10242619Y-16575619D01*
X10242619Y-16575619D02*
X10252143Y-16556571D01*
X10252143Y-16556571D02*
X10261667Y-16547048D01*
X10261667Y-16547048D02*
X10280714Y-16537524D01*
X10433095Y-16718476D02*
X10442619Y-16728000D01*
X10442619Y-16728000D02*
X10433095Y-16737524D01*
X10433095Y-16737524D02*
X10423571Y-16728000D01*
X10423571Y-16728000D02*
X10433095Y-16718476D01*
X10433095Y-16718476D02*
X10433095Y-16737524D01*
X10614048Y-16537524D02*
X10575952Y-16537524D01*
X10575952Y-16537524D02*
X10556905Y-16547048D01*
X10556905Y-16547048D02*
X10547381Y-16556571D01*
X10547381Y-16556571D02*
X10528333Y-16585143D01*
X10528333Y-16585143D02*
X10518810Y-16623238D01*
X10518810Y-16623238D02*
X10518810Y-16699428D01*
X10518810Y-16699428D02*
X10528333Y-16718476D01*
X10528333Y-16718476D02*
X10537857Y-16728000D01*
X10537857Y-16728000D02*
X10556905Y-16737524D01*
X10556905Y-16737524D02*
X10595000Y-16737524D01*
X10595000Y-16737524D02*
X10614048Y-16728000D01*
X10614048Y-16728000D02*
X10623571Y-16718476D01*
X10623571Y-16718476D02*
X10633095Y-16699428D01*
X10633095Y-16699428D02*
X10633095Y-16651809D01*
X10633095Y-16651809D02*
X10623571Y-16632762D01*
X10623571Y-16632762D02*
X10614048Y-16623238D01*
X10614048Y-16623238D02*
X10595000Y-16613714D01*
X10595000Y-16613714D02*
X10556905Y-16613714D01*
X10556905Y-16613714D02*
X10537857Y-16623238D01*
X10537857Y-16623238D02*
X10528333Y-16632762D01*
X10528333Y-16632762D02*
X10518810Y-16651809D01*
X10814048Y-16537524D02*
X10718810Y-16537524D01*
X10718810Y-16537524D02*
X10709286Y-16632762D01*
X10709286Y-16632762D02*
X10718810Y-16623238D01*
X10718810Y-16623238D02*
X10737857Y-16613714D01*
X10737857Y-16613714D02*
X10785476Y-16613714D01*
X10785476Y-16613714D02*
X10804524Y-16623238D01*
X10804524Y-16623238D02*
X10814048Y-16632762D01*
X10814048Y-16632762D02*
X10823571Y-16651809D01*
X10823571Y-16651809D02*
X10823571Y-16699428D01*
X10823571Y-16699428D02*
X10814048Y-16718476D01*
X10814048Y-16718476D02*
X10804524Y-16728000D01*
X10804524Y-16728000D02*
X10785476Y-16737524D01*
X10785476Y-16737524D02*
X10737857Y-16737524D01*
X10737857Y-16737524D02*
X10718810Y-16728000D01*
X10718810Y-16728000D02*
X10709286Y-16718476D01*
X10947381Y-16537524D02*
X10966429Y-16537524D01*
X10966429Y-16537524D02*
X10985476Y-16547048D01*
X10985476Y-16547048D02*
X10995000Y-16556571D01*
X10995000Y-16556571D02*
X11004524Y-16575619D01*
X11004524Y-16575619D02*
X11014048Y-16613714D01*
X11014048Y-16613714D02*
X11014048Y-16661333D01*
X11014048Y-16661333D02*
X11004524Y-16699428D01*
X11004524Y-16699428D02*
X10995000Y-16718476D01*
X10995000Y-16718476D02*
X10985476Y-16728000D01*
X10985476Y-16728000D02*
X10966429Y-16737524D01*
X10966429Y-16737524D02*
X10947381Y-16737524D01*
X10947381Y-16737524D02*
X10928333Y-16728000D01*
X10928333Y-16728000D02*
X10918810Y-16718476D01*
X10918810Y-16718476D02*
X10909286Y-16699428D01*
X10909286Y-16699428D02*
X10899762Y-16661333D01*
X10899762Y-16661333D02*
X10899762Y-16613714D01*
X10899762Y-16613714D02*
X10909286Y-16575619D01*
X10909286Y-16575619D02*
X10918810Y-16556571D01*
X10918810Y-16556571D02*
X10928333Y-16547048D01*
X10928333Y-16547048D02*
X10947381Y-16537524D01*
X11099762Y-16737524D02*
X11099762Y-16604190D01*
X11099762Y-16623238D02*
X11109286Y-16613714D01*
X11109286Y-16613714D02*
X11128333Y-16604190D01*
X11128333Y-16604190D02*
X11156905Y-16604190D01*
X11156905Y-16604190D02*
X11175952Y-16613714D01*
X11175952Y-16613714D02*
X11185476Y-16632762D01*
X11185476Y-16632762D02*
X11185476Y-16737524D01*
X11185476Y-16632762D02*
X11195000Y-16613714D01*
X11195000Y-16613714D02*
X11214048Y-16604190D01*
X11214048Y-16604190D02*
X11242619Y-16604190D01*
X11242619Y-16604190D02*
X11261667Y-16613714D01*
X11261667Y-16613714D02*
X11271190Y-16632762D01*
X11271190Y-16632762D02*
X11271190Y-16737524D01*
X11366429Y-16737524D02*
X11366429Y-16604190D01*
X11366429Y-16623238D02*
X11375952Y-16613714D01*
X11375952Y-16613714D02*
X11395000Y-16604190D01*
X11395000Y-16604190D02*
X11423571Y-16604190D01*
X11423571Y-16604190D02*
X11442619Y-16613714D01*
X11442619Y-16613714D02*
X11452143Y-16632762D01*
X11452143Y-16632762D02*
X11452143Y-16737524D01*
X11452143Y-16632762D02*
X11461667Y-16613714D01*
X11461667Y-16613714D02*
X11480714Y-16604190D01*
X11480714Y-16604190D02*
X11509286Y-16604190D01*
X11509286Y-16604190D02*
X11528333Y-16613714D01*
X11528333Y-16613714D02*
X11537857Y-16632762D01*
X11537857Y-16632762D02*
X11537857Y-16737524D01*
X11928333Y-16528000D02*
X11756905Y-16785143D01*
X12185476Y-16537524D02*
X12204524Y-16537524D01*
X12204524Y-16537524D02*
X12223572Y-16547048D01*
X12223572Y-16547048D02*
X12233095Y-16556571D01*
X12233095Y-16556571D02*
X12242619Y-16575619D01*
X12242619Y-16575619D02*
X12252143Y-16613714D01*
X12252143Y-16613714D02*
X12252143Y-16661333D01*
X12252143Y-16661333D02*
X12242619Y-16699428D01*
X12242619Y-16699428D02*
X12233095Y-16718476D01*
X12233095Y-16718476D02*
X12223572Y-16728000D01*
X12223572Y-16728000D02*
X12204524Y-16737524D01*
X12204524Y-16737524D02*
X12185476Y-16737524D01*
X12185476Y-16737524D02*
X12166429Y-16728000D01*
X12166429Y-16728000D02*
X12156905Y-16718476D01*
X12156905Y-16718476D02*
X12147381Y-16699428D01*
X12147381Y-16699428D02*
X12137857Y-16661333D01*
X12137857Y-16661333D02*
X12137857Y-16613714D01*
X12137857Y-16613714D02*
X12147381Y-16575619D01*
X12147381Y-16575619D02*
X12156905Y-16556571D01*
X12156905Y-16556571D02*
X12166429Y-16547048D01*
X12166429Y-16547048D02*
X12185476Y-16537524D01*
X12337857Y-16718476D02*
X12347381Y-16728000D01*
X12347381Y-16728000D02*
X12337857Y-16737524D01*
X12337857Y-16737524D02*
X12328333Y-16728000D01*
X12328333Y-16728000D02*
X12337857Y-16718476D01*
X12337857Y-16718476D02*
X12337857Y-16737524D01*
X12471191Y-16537524D02*
X12490238Y-16537524D01*
X12490238Y-16537524D02*
X12509286Y-16547048D01*
X12509286Y-16547048D02*
X12518810Y-16556571D01*
X12518810Y-16556571D02*
X12528333Y-16575619D01*
X12528333Y-16575619D02*
X12537857Y-16613714D01*
X12537857Y-16613714D02*
X12537857Y-16661333D01*
X12537857Y-16661333D02*
X12528333Y-16699428D01*
X12528333Y-16699428D02*
X12518810Y-16718476D01*
X12518810Y-16718476D02*
X12509286Y-16728000D01*
X12509286Y-16728000D02*
X12490238Y-16737524D01*
X12490238Y-16737524D02*
X12471191Y-16737524D01*
X12471191Y-16737524D02*
X12452143Y-16728000D01*
X12452143Y-16728000D02*
X12442619Y-16718476D01*
X12442619Y-16718476D02*
X12433095Y-16699428D01*
X12433095Y-16699428D02*
X12423572Y-16661333D01*
X12423572Y-16661333D02*
X12423572Y-16613714D01*
X12423572Y-16613714D02*
X12433095Y-16575619D01*
X12433095Y-16575619D02*
X12442619Y-16556571D01*
X12442619Y-16556571D02*
X12452143Y-16547048D01*
X12452143Y-16547048D02*
X12471191Y-16537524D01*
X12614048Y-16556571D02*
X12623572Y-16547048D01*
X12623572Y-16547048D02*
X12642619Y-16537524D01*
X12642619Y-16537524D02*
X12690238Y-16537524D01*
X12690238Y-16537524D02*
X12709286Y-16547048D01*
X12709286Y-16547048D02*
X12718810Y-16556571D01*
X12718810Y-16556571D02*
X12728333Y-16575619D01*
X12728333Y-16575619D02*
X12728333Y-16594667D01*
X12728333Y-16594667D02*
X12718810Y-16623238D01*
X12718810Y-16623238D02*
X12604524Y-16737524D01*
X12604524Y-16737524D02*
X12728333Y-16737524D01*
X12909286Y-16537524D02*
X12814048Y-16537524D01*
X12814048Y-16537524D02*
X12804524Y-16632762D01*
X12804524Y-16632762D02*
X12814048Y-16623238D01*
X12814048Y-16623238D02*
X12833095Y-16613714D01*
X12833095Y-16613714D02*
X12880714Y-16613714D01*
X12880714Y-16613714D02*
X12899762Y-16623238D01*
X12899762Y-16623238D02*
X12909286Y-16632762D01*
X12909286Y-16632762D02*
X12918810Y-16651809D01*
X12918810Y-16651809D02*
X12918810Y-16699428D01*
X12918810Y-16699428D02*
X12909286Y-16718476D01*
X12909286Y-16718476D02*
X12899762Y-16728000D01*
X12899762Y-16728000D02*
X12880714Y-16737524D01*
X12880714Y-16737524D02*
X12833095Y-16737524D01*
X12833095Y-16737524D02*
X12814048Y-16728000D01*
X12814048Y-16728000D02*
X12804524Y-16718476D01*
X13090238Y-16537524D02*
X13052143Y-16537524D01*
X13052143Y-16537524D02*
X13033095Y-16547048D01*
X13033095Y-16547048D02*
X13023572Y-16556571D01*
X13023572Y-16556571D02*
X13004524Y-16585143D01*
X13004524Y-16585143D02*
X12995000Y-16623238D01*
X12995000Y-16623238D02*
X12995000Y-16699428D01*
X12995000Y-16699428D02*
X13004524Y-16718476D01*
X13004524Y-16718476D02*
X13014048Y-16728000D01*
X13014048Y-16728000D02*
X13033095Y-16737524D01*
X13033095Y-16737524D02*
X13071191Y-16737524D01*
X13071191Y-16737524D02*
X13090238Y-16728000D01*
X13090238Y-16728000D02*
X13099762Y-16718476D01*
X13099762Y-16718476D02*
X13109286Y-16699428D01*
X13109286Y-16699428D02*
X13109286Y-16651809D01*
X13109286Y-16651809D02*
X13099762Y-16632762D01*
X13099762Y-16632762D02*
X13090238Y-16623238D01*
X13090238Y-16623238D02*
X13071191Y-16613714D01*
X13071191Y-16613714D02*
X13033095Y-16613714D01*
X13033095Y-16613714D02*
X13014048Y-16623238D01*
X13014048Y-16623238D02*
X13004524Y-16632762D01*
X13004524Y-16632762D02*
X12995000Y-16651809D01*
X13185476Y-16537524D02*
X13185476Y-16575619D01*
X13261667Y-16537524D02*
X13261667Y-16575619D01*
X13556905Y-16813714D02*
X13547381Y-16804190D01*
X13547381Y-16804190D02*
X13528334Y-16775619D01*
X13528334Y-16775619D02*
X13518810Y-16756571D01*
X13518810Y-16756571D02*
X13509286Y-16728000D01*
X13509286Y-16728000D02*
X13499762Y-16680381D01*
X13499762Y-16680381D02*
X13499762Y-16642286D01*
X13499762Y-16642286D02*
X13509286Y-16594667D01*
X13509286Y-16594667D02*
X13518810Y-16566095D01*
X13518810Y-16566095D02*
X13528334Y-16547048D01*
X13528334Y-16547048D02*
X13547381Y-16518476D01*
X13547381Y-16518476D02*
X13556905Y-16508952D01*
X13737857Y-16737524D02*
X13623572Y-16737524D01*
X13680714Y-16737524D02*
X13680714Y-16537524D01*
X13680714Y-16537524D02*
X13661667Y-16566095D01*
X13661667Y-16566095D02*
X13642619Y-16585143D01*
X13642619Y-16585143D02*
X13623572Y-16594667D01*
X13975953Y-16737524D02*
X13975953Y-16537524D01*
X14061667Y-16737524D02*
X14061667Y-16632762D01*
X14061667Y-16632762D02*
X14052143Y-16613714D01*
X14052143Y-16613714D02*
X14033096Y-16604190D01*
X14033096Y-16604190D02*
X14004524Y-16604190D01*
X14004524Y-16604190D02*
X13985476Y-16613714D01*
X13985476Y-16613714D02*
X13975953Y-16623238D01*
X14185476Y-16737524D02*
X14166429Y-16728000D01*
X14166429Y-16728000D02*
X14156905Y-16718476D01*
X14156905Y-16718476D02*
X14147381Y-16699428D01*
X14147381Y-16699428D02*
X14147381Y-16642286D01*
X14147381Y-16642286D02*
X14156905Y-16623238D01*
X14156905Y-16623238D02*
X14166429Y-16613714D01*
X14166429Y-16613714D02*
X14185476Y-16604190D01*
X14185476Y-16604190D02*
X14214048Y-16604190D01*
X14214048Y-16604190D02*
X14233096Y-16613714D01*
X14233096Y-16613714D02*
X14242619Y-16623238D01*
X14242619Y-16623238D02*
X14252143Y-16642286D01*
X14252143Y-16642286D02*
X14252143Y-16699428D01*
X14252143Y-16699428D02*
X14242619Y-16718476D01*
X14242619Y-16718476D02*
X14233096Y-16728000D01*
X14233096Y-16728000D02*
X14214048Y-16737524D01*
X14214048Y-16737524D02*
X14185476Y-16737524D01*
X14366429Y-16737524D02*
X14347381Y-16728000D01*
X14347381Y-16728000D02*
X14337857Y-16708952D01*
X14337857Y-16708952D02*
X14337857Y-16537524D01*
X14518810Y-16728000D02*
X14499762Y-16737524D01*
X14499762Y-16737524D02*
X14461667Y-16737524D01*
X14461667Y-16737524D02*
X14442619Y-16728000D01*
X14442619Y-16728000D02*
X14433096Y-16708952D01*
X14433096Y-16708952D02*
X14433096Y-16632762D01*
X14433096Y-16632762D02*
X14442619Y-16613714D01*
X14442619Y-16613714D02*
X14461667Y-16604190D01*
X14461667Y-16604190D02*
X14499762Y-16604190D01*
X14499762Y-16604190D02*
X14518810Y-16613714D01*
X14518810Y-16613714D02*
X14528334Y-16632762D01*
X14528334Y-16632762D02*
X14528334Y-16651809D01*
X14528334Y-16651809D02*
X14433096Y-16670857D01*
X14604524Y-16728000D02*
X14623572Y-16737524D01*
X14623572Y-16737524D02*
X14661667Y-16737524D01*
X14661667Y-16737524D02*
X14680715Y-16728000D01*
X14680715Y-16728000D02*
X14690238Y-16708952D01*
X14690238Y-16708952D02*
X14690238Y-16699428D01*
X14690238Y-16699428D02*
X14680715Y-16680381D01*
X14680715Y-16680381D02*
X14661667Y-16670857D01*
X14661667Y-16670857D02*
X14633096Y-16670857D01*
X14633096Y-16670857D02*
X14614048Y-16661333D01*
X14614048Y-16661333D02*
X14604524Y-16642286D01*
X14604524Y-16642286D02*
X14604524Y-16632762D01*
X14604524Y-16632762D02*
X14614048Y-16613714D01*
X14614048Y-16613714D02*
X14633096Y-16604190D01*
X14633096Y-16604190D02*
X14661667Y-16604190D01*
X14661667Y-16604190D02*
X14680715Y-16613714D01*
X14928334Y-16661333D02*
X15080715Y-16661333D01*
X15004524Y-16737524D02*
X15004524Y-16585143D01*
X15433096Y-16737524D02*
X15318810Y-16737524D01*
X15375953Y-16737524D02*
X15375953Y-16537524D01*
X15375953Y-16537524D02*
X15356905Y-16566095D01*
X15356905Y-16566095D02*
X15337858Y-16585143D01*
X15337858Y-16585143D02*
X15318810Y-16594667D01*
X15661667Y-16728000D02*
X15680715Y-16737524D01*
X15680715Y-16737524D02*
X15718810Y-16737524D01*
X15718810Y-16737524D02*
X15737858Y-16728000D01*
X15737858Y-16728000D02*
X15747381Y-16708952D01*
X15747381Y-16708952D02*
X15747381Y-16699428D01*
X15747381Y-16699428D02*
X15737858Y-16680381D01*
X15737858Y-16680381D02*
X15718810Y-16670857D01*
X15718810Y-16670857D02*
X15690239Y-16670857D01*
X15690239Y-16670857D02*
X15671191Y-16661333D01*
X15671191Y-16661333D02*
X15661667Y-16642286D01*
X15661667Y-16642286D02*
X15661667Y-16632762D01*
X15661667Y-16632762D02*
X15671191Y-16613714D01*
X15671191Y-16613714D02*
X15690239Y-16604190D01*
X15690239Y-16604190D02*
X15718810Y-16604190D01*
X15718810Y-16604190D02*
X15737858Y-16613714D01*
X15861667Y-16737524D02*
X15842620Y-16728000D01*
X15842620Y-16728000D02*
X15833096Y-16708952D01*
X15833096Y-16708952D02*
X15833096Y-16537524D01*
X15966429Y-16737524D02*
X15947381Y-16728000D01*
X15947381Y-16728000D02*
X15937858Y-16718476D01*
X15937858Y-16718476D02*
X15928334Y-16699428D01*
X15928334Y-16699428D02*
X15928334Y-16642286D01*
X15928334Y-16642286D02*
X15937858Y-16623238D01*
X15937858Y-16623238D02*
X15947381Y-16613714D01*
X15947381Y-16613714D02*
X15966429Y-16604190D01*
X15966429Y-16604190D02*
X15995001Y-16604190D01*
X15995001Y-16604190D02*
X16014048Y-16613714D01*
X16014048Y-16613714D02*
X16023572Y-16623238D01*
X16023572Y-16623238D02*
X16033096Y-16642286D01*
X16033096Y-16642286D02*
X16033096Y-16699428D01*
X16033096Y-16699428D02*
X16023572Y-16718476D01*
X16023572Y-16718476D02*
X16014048Y-16728000D01*
X16014048Y-16728000D02*
X15995001Y-16737524D01*
X15995001Y-16737524D02*
X15966429Y-16737524D01*
X16090239Y-16604190D02*
X16166429Y-16604190D01*
X16118810Y-16537524D02*
X16118810Y-16708952D01*
X16118810Y-16708952D02*
X16128334Y-16728000D01*
X16128334Y-16728000D02*
X16147381Y-16737524D01*
X16147381Y-16737524D02*
X16166429Y-16737524D01*
X16214048Y-16813714D02*
X16223572Y-16804190D01*
X16223572Y-16804190D02*
X16242620Y-16775619D01*
X16242620Y-16775619D02*
X16252143Y-16756571D01*
X16252143Y-16756571D02*
X16261667Y-16728000D01*
X16261667Y-16728000D02*
X16271191Y-16680381D01*
X16271191Y-16680381D02*
X16271191Y-16642286D01*
X16271191Y-16642286D02*
X16261667Y-16594667D01*
X16261667Y-16594667D02*
X16252143Y-16566095D01*
X16252143Y-16566095D02*
X16242620Y-16547048D01*
X16242620Y-16547048D02*
X16223572Y-16518476D01*
X16223572Y-16518476D02*
X16214048Y-16508952D01*
X16575953Y-16813714D02*
X16566429Y-16804190D01*
X16566429Y-16804190D02*
X16547381Y-16775619D01*
X16547381Y-16775619D02*
X16537858Y-16756571D01*
X16537858Y-16756571D02*
X16528334Y-16728000D01*
X16528334Y-16728000D02*
X16518810Y-16680381D01*
X16518810Y-16680381D02*
X16518810Y-16642286D01*
X16518810Y-16642286D02*
X16528334Y-16594667D01*
X16528334Y-16594667D02*
X16537858Y-16566095D01*
X16537858Y-16566095D02*
X16547381Y-16547048D01*
X16547381Y-16547048D02*
X16566429Y-16518476D01*
X16566429Y-16518476D02*
X16575953Y-16508952D01*
X16652143Y-16604190D02*
X16652143Y-16737524D01*
X16652143Y-16623238D02*
X16661667Y-16613714D01*
X16661667Y-16613714D02*
X16680715Y-16604190D01*
X16680715Y-16604190D02*
X16709286Y-16604190D01*
X16709286Y-16604190D02*
X16728334Y-16613714D01*
X16728334Y-16613714D02*
X16737858Y-16632762D01*
X16737858Y-16632762D02*
X16737858Y-16737524D01*
X16861667Y-16737524D02*
X16842620Y-16728000D01*
X16842620Y-16728000D02*
X16833096Y-16718476D01*
X16833096Y-16718476D02*
X16823572Y-16699428D01*
X16823572Y-16699428D02*
X16823572Y-16642286D01*
X16823572Y-16642286D02*
X16833096Y-16623238D01*
X16833096Y-16623238D02*
X16842620Y-16613714D01*
X16842620Y-16613714D02*
X16861667Y-16604190D01*
X16861667Y-16604190D02*
X16890239Y-16604190D01*
X16890239Y-16604190D02*
X16909286Y-16613714D01*
X16909286Y-16613714D02*
X16918810Y-16623238D01*
X16918810Y-16623238D02*
X16928334Y-16642286D01*
X16928334Y-16642286D02*
X16928334Y-16699428D01*
X16928334Y-16699428D02*
X16918810Y-16718476D01*
X16918810Y-16718476D02*
X16909286Y-16728000D01*
X16909286Y-16728000D02*
X16890239Y-16737524D01*
X16890239Y-16737524D02*
X16861667Y-16737524D01*
X16985477Y-16604190D02*
X17061667Y-16604190D01*
X17014048Y-16537524D02*
X17014048Y-16708952D01*
X17014048Y-16708952D02*
X17023572Y-16728000D01*
X17023572Y-16728000D02*
X17042620Y-16737524D01*
X17042620Y-16737524D02*
X17061667Y-16737524D01*
X17280715Y-16604190D02*
X17280715Y-16804190D01*
X17280715Y-16613714D02*
X17299763Y-16604190D01*
X17299763Y-16604190D02*
X17337858Y-16604190D01*
X17337858Y-16604190D02*
X17356905Y-16613714D01*
X17356905Y-16613714D02*
X17366429Y-16623238D01*
X17366429Y-16623238D02*
X17375953Y-16642286D01*
X17375953Y-16642286D02*
X17375953Y-16699428D01*
X17375953Y-16699428D02*
X17366429Y-16718476D01*
X17366429Y-16718476D02*
X17356905Y-16728000D01*
X17356905Y-16728000D02*
X17337858Y-16737524D01*
X17337858Y-16737524D02*
X17299763Y-16737524D01*
X17299763Y-16737524D02*
X17280715Y-16728000D01*
X17490239Y-16737524D02*
X17471191Y-16728000D01*
X17471191Y-16728000D02*
X17461667Y-16708952D01*
X17461667Y-16708952D02*
X17461667Y-16537524D01*
X17652144Y-16737524D02*
X17652144Y-16632762D01*
X17652144Y-16632762D02*
X17642620Y-16613714D01*
X17642620Y-16613714D02*
X17623572Y-16604190D01*
X17623572Y-16604190D02*
X17585477Y-16604190D01*
X17585477Y-16604190D02*
X17566429Y-16613714D01*
X17652144Y-16728000D02*
X17633096Y-16737524D01*
X17633096Y-16737524D02*
X17585477Y-16737524D01*
X17585477Y-16737524D02*
X17566429Y-16728000D01*
X17566429Y-16728000D02*
X17556905Y-16708952D01*
X17556905Y-16708952D02*
X17556905Y-16689905D01*
X17556905Y-16689905D02*
X17566429Y-16670857D01*
X17566429Y-16670857D02*
X17585477Y-16661333D01*
X17585477Y-16661333D02*
X17633096Y-16661333D01*
X17633096Y-16661333D02*
X17652144Y-16651809D01*
X17718810Y-16604190D02*
X17795001Y-16604190D01*
X17747382Y-16537524D02*
X17747382Y-16708952D01*
X17747382Y-16708952D02*
X17756905Y-16728000D01*
X17756905Y-16728000D02*
X17775953Y-16737524D01*
X17775953Y-16737524D02*
X17795001Y-16737524D01*
X17937858Y-16728000D02*
X17918810Y-16737524D01*
X17918810Y-16737524D02*
X17880715Y-16737524D01*
X17880715Y-16737524D02*
X17861667Y-16728000D01*
X17861667Y-16728000D02*
X17852144Y-16708952D01*
X17852144Y-16708952D02*
X17852144Y-16632762D01*
X17852144Y-16632762D02*
X17861667Y-16613714D01*
X17861667Y-16613714D02*
X17880715Y-16604190D01*
X17880715Y-16604190D02*
X17918810Y-16604190D01*
X17918810Y-16604190D02*
X17937858Y-16613714D01*
X17937858Y-16613714D02*
X17947382Y-16632762D01*
X17947382Y-16632762D02*
X17947382Y-16651809D01*
X17947382Y-16651809D02*
X17852144Y-16670857D01*
X18118810Y-16737524D02*
X18118810Y-16537524D01*
X18118810Y-16728000D02*
X18099763Y-16737524D01*
X18099763Y-16737524D02*
X18061667Y-16737524D01*
X18061667Y-16737524D02*
X18042620Y-16728000D01*
X18042620Y-16728000D02*
X18033096Y-16718476D01*
X18033096Y-16718476D02*
X18023572Y-16699428D01*
X18023572Y-16699428D02*
X18023572Y-16642286D01*
X18023572Y-16642286D02*
X18033096Y-16623238D01*
X18033096Y-16623238D02*
X18042620Y-16613714D01*
X18042620Y-16613714D02*
X18061667Y-16604190D01*
X18061667Y-16604190D02*
X18099763Y-16604190D01*
X18099763Y-16604190D02*
X18118810Y-16613714D01*
X18195001Y-16813714D02*
X18204525Y-16804190D01*
X18204525Y-16804190D02*
X18223572Y-16775619D01*
X18223572Y-16775619D02*
X18233096Y-16756571D01*
X18233096Y-16756571D02*
X18242620Y-16728000D01*
X18242620Y-16728000D02*
X18252144Y-16680381D01*
X18252144Y-16680381D02*
X18252144Y-16642286D01*
X18252144Y-16642286D02*
X18242620Y-16594667D01*
X18242620Y-16594667D02*
X18233096Y-16566095D01*
X18233096Y-16566095D02*
X18223572Y-16547048D01*
X18223572Y-16547048D02*
X18204525Y-16518476D01*
X18204525Y-16518476D02*
X18195001Y-16508952D01*
X9995000Y-16909000D02*
G75*
G03*
X9995000Y-16909000I-100000J0D01*
G01*
X10223571Y-16801524D02*
X10347381Y-16801524D01*
X10347381Y-16801524D02*
X10280714Y-16877714D01*
X10280714Y-16877714D02*
X10309286Y-16877714D01*
X10309286Y-16877714D02*
X10328333Y-16887238D01*
X10328333Y-16887238D02*
X10337857Y-16896762D01*
X10337857Y-16896762D02*
X10347381Y-16915810D01*
X10347381Y-16915810D02*
X10347381Y-16963429D01*
X10347381Y-16963429D02*
X10337857Y-16982476D01*
X10337857Y-16982476D02*
X10328333Y-16992000D01*
X10328333Y-16992000D02*
X10309286Y-17001524D01*
X10309286Y-17001524D02*
X10252143Y-17001524D01*
X10252143Y-17001524D02*
X10233095Y-16992000D01*
X10233095Y-16992000D02*
X10223571Y-16982476D01*
X10433095Y-16982476D02*
X10442619Y-16992000D01*
X10442619Y-16992000D02*
X10433095Y-17001524D01*
X10433095Y-17001524D02*
X10423571Y-16992000D01*
X10423571Y-16992000D02*
X10433095Y-16982476D01*
X10433095Y-16982476D02*
X10433095Y-17001524D01*
X10566429Y-16801524D02*
X10585476Y-16801524D01*
X10585476Y-16801524D02*
X10604524Y-16811048D01*
X10604524Y-16811048D02*
X10614048Y-16820571D01*
X10614048Y-16820571D02*
X10623571Y-16839619D01*
X10623571Y-16839619D02*
X10633095Y-16877714D01*
X10633095Y-16877714D02*
X10633095Y-16925333D01*
X10633095Y-16925333D02*
X10623571Y-16963429D01*
X10623571Y-16963429D02*
X10614048Y-16982476D01*
X10614048Y-16982476D02*
X10604524Y-16992000D01*
X10604524Y-16992000D02*
X10585476Y-17001524D01*
X10585476Y-17001524D02*
X10566429Y-17001524D01*
X10566429Y-17001524D02*
X10547381Y-16992000D01*
X10547381Y-16992000D02*
X10537857Y-16982476D01*
X10537857Y-16982476D02*
X10528333Y-16963429D01*
X10528333Y-16963429D02*
X10518810Y-16925333D01*
X10518810Y-16925333D02*
X10518810Y-16877714D01*
X10518810Y-16877714D02*
X10528333Y-16839619D01*
X10528333Y-16839619D02*
X10537857Y-16820571D01*
X10537857Y-16820571D02*
X10547381Y-16811048D01*
X10547381Y-16811048D02*
X10566429Y-16801524D01*
X10756905Y-16801524D02*
X10775952Y-16801524D01*
X10775952Y-16801524D02*
X10795000Y-16811048D01*
X10795000Y-16811048D02*
X10804524Y-16820571D01*
X10804524Y-16820571D02*
X10814048Y-16839619D01*
X10814048Y-16839619D02*
X10823571Y-16877714D01*
X10823571Y-16877714D02*
X10823571Y-16925333D01*
X10823571Y-16925333D02*
X10814048Y-16963429D01*
X10814048Y-16963429D02*
X10804524Y-16982476D01*
X10804524Y-16982476D02*
X10795000Y-16992000D01*
X10795000Y-16992000D02*
X10775952Y-17001524D01*
X10775952Y-17001524D02*
X10756905Y-17001524D01*
X10756905Y-17001524D02*
X10737857Y-16992000D01*
X10737857Y-16992000D02*
X10728333Y-16982476D01*
X10728333Y-16982476D02*
X10718810Y-16963429D01*
X10718810Y-16963429D02*
X10709286Y-16925333D01*
X10709286Y-16925333D02*
X10709286Y-16877714D01*
X10709286Y-16877714D02*
X10718810Y-16839619D01*
X10718810Y-16839619D02*
X10728333Y-16820571D01*
X10728333Y-16820571D02*
X10737857Y-16811048D01*
X10737857Y-16811048D02*
X10756905Y-16801524D01*
X10947381Y-16801524D02*
X10966429Y-16801524D01*
X10966429Y-16801524D02*
X10985476Y-16811048D01*
X10985476Y-16811048D02*
X10995000Y-16820571D01*
X10995000Y-16820571D02*
X11004524Y-16839619D01*
X11004524Y-16839619D02*
X11014048Y-16877714D01*
X11014048Y-16877714D02*
X11014048Y-16925333D01*
X11014048Y-16925333D02*
X11004524Y-16963429D01*
X11004524Y-16963429D02*
X10995000Y-16982476D01*
X10995000Y-16982476D02*
X10985476Y-16992000D01*
X10985476Y-16992000D02*
X10966429Y-17001524D01*
X10966429Y-17001524D02*
X10947381Y-17001524D01*
X10947381Y-17001524D02*
X10928333Y-16992000D01*
X10928333Y-16992000D02*
X10918810Y-16982476D01*
X10918810Y-16982476D02*
X10909286Y-16963429D01*
X10909286Y-16963429D02*
X10899762Y-16925333D01*
X10899762Y-16925333D02*
X10899762Y-16877714D01*
X10899762Y-16877714D02*
X10909286Y-16839619D01*
X10909286Y-16839619D02*
X10918810Y-16820571D01*
X10918810Y-16820571D02*
X10928333Y-16811048D01*
X10928333Y-16811048D02*
X10947381Y-16801524D01*
X11099762Y-17001524D02*
X11099762Y-16868190D01*
X11099762Y-16887238D02*
X11109286Y-16877714D01*
X11109286Y-16877714D02*
X11128333Y-16868190D01*
X11128333Y-16868190D02*
X11156905Y-16868190D01*
X11156905Y-16868190D02*
X11175952Y-16877714D01*
X11175952Y-16877714D02*
X11185476Y-16896762D01*
X11185476Y-16896762D02*
X11185476Y-17001524D01*
X11185476Y-16896762D02*
X11195000Y-16877714D01*
X11195000Y-16877714D02*
X11214048Y-16868190D01*
X11214048Y-16868190D02*
X11242619Y-16868190D01*
X11242619Y-16868190D02*
X11261667Y-16877714D01*
X11261667Y-16877714D02*
X11271190Y-16896762D01*
X11271190Y-16896762D02*
X11271190Y-17001524D01*
X11366429Y-17001524D02*
X11366429Y-16868190D01*
X11366429Y-16887238D02*
X11375952Y-16877714D01*
X11375952Y-16877714D02*
X11395000Y-16868190D01*
X11395000Y-16868190D02*
X11423571Y-16868190D01*
X11423571Y-16868190D02*
X11442619Y-16877714D01*
X11442619Y-16877714D02*
X11452143Y-16896762D01*
X11452143Y-16896762D02*
X11452143Y-17001524D01*
X11452143Y-16896762D02*
X11461667Y-16877714D01*
X11461667Y-16877714D02*
X11480714Y-16868190D01*
X11480714Y-16868190D02*
X11509286Y-16868190D01*
X11509286Y-16868190D02*
X11528333Y-16877714D01*
X11528333Y-16877714D02*
X11537857Y-16896762D01*
X11537857Y-16896762D02*
X11537857Y-17001524D01*
X11928333Y-16792000D02*
X11756905Y-17049143D01*
X12185476Y-16801524D02*
X12204524Y-16801524D01*
X12204524Y-16801524D02*
X12223572Y-16811048D01*
X12223572Y-16811048D02*
X12233095Y-16820571D01*
X12233095Y-16820571D02*
X12242619Y-16839619D01*
X12242619Y-16839619D02*
X12252143Y-16877714D01*
X12252143Y-16877714D02*
X12252143Y-16925333D01*
X12252143Y-16925333D02*
X12242619Y-16963429D01*
X12242619Y-16963429D02*
X12233095Y-16982476D01*
X12233095Y-16982476D02*
X12223572Y-16992000D01*
X12223572Y-16992000D02*
X12204524Y-17001524D01*
X12204524Y-17001524D02*
X12185476Y-17001524D01*
X12185476Y-17001524D02*
X12166429Y-16992000D01*
X12166429Y-16992000D02*
X12156905Y-16982476D01*
X12156905Y-16982476D02*
X12147381Y-16963429D01*
X12147381Y-16963429D02*
X12137857Y-16925333D01*
X12137857Y-16925333D02*
X12137857Y-16877714D01*
X12137857Y-16877714D02*
X12147381Y-16839619D01*
X12147381Y-16839619D02*
X12156905Y-16820571D01*
X12156905Y-16820571D02*
X12166429Y-16811048D01*
X12166429Y-16811048D02*
X12185476Y-16801524D01*
X12337857Y-16982476D02*
X12347381Y-16992000D01*
X12347381Y-16992000D02*
X12337857Y-17001524D01*
X12337857Y-17001524D02*
X12328333Y-16992000D01*
X12328333Y-16992000D02*
X12337857Y-16982476D01*
X12337857Y-16982476D02*
X12337857Y-17001524D01*
X12537857Y-17001524D02*
X12423572Y-17001524D01*
X12480714Y-17001524D02*
X12480714Y-16801524D01*
X12480714Y-16801524D02*
X12461667Y-16830095D01*
X12461667Y-16830095D02*
X12442619Y-16849143D01*
X12442619Y-16849143D02*
X12423572Y-16858667D01*
X12728333Y-17001524D02*
X12614048Y-17001524D01*
X12671191Y-17001524D02*
X12671191Y-16801524D01*
X12671191Y-16801524D02*
X12652143Y-16830095D01*
X12652143Y-16830095D02*
X12633095Y-16849143D01*
X12633095Y-16849143D02*
X12614048Y-16858667D01*
X12842619Y-16887238D02*
X12823572Y-16877714D01*
X12823572Y-16877714D02*
X12814048Y-16868190D01*
X12814048Y-16868190D02*
X12804524Y-16849143D01*
X12804524Y-16849143D02*
X12804524Y-16839619D01*
X12804524Y-16839619D02*
X12814048Y-16820571D01*
X12814048Y-16820571D02*
X12823572Y-16811048D01*
X12823572Y-16811048D02*
X12842619Y-16801524D01*
X12842619Y-16801524D02*
X12880714Y-16801524D01*
X12880714Y-16801524D02*
X12899762Y-16811048D01*
X12899762Y-16811048D02*
X12909286Y-16820571D01*
X12909286Y-16820571D02*
X12918810Y-16839619D01*
X12918810Y-16839619D02*
X12918810Y-16849143D01*
X12918810Y-16849143D02*
X12909286Y-16868190D01*
X12909286Y-16868190D02*
X12899762Y-16877714D01*
X12899762Y-16877714D02*
X12880714Y-16887238D01*
X12880714Y-16887238D02*
X12842619Y-16887238D01*
X12842619Y-16887238D02*
X12823572Y-16896762D01*
X12823572Y-16896762D02*
X12814048Y-16906286D01*
X12814048Y-16906286D02*
X12804524Y-16925333D01*
X12804524Y-16925333D02*
X12804524Y-16963429D01*
X12804524Y-16963429D02*
X12814048Y-16982476D01*
X12814048Y-16982476D02*
X12823572Y-16992000D01*
X12823572Y-16992000D02*
X12842619Y-17001524D01*
X12842619Y-17001524D02*
X12880714Y-17001524D01*
X12880714Y-17001524D02*
X12899762Y-16992000D01*
X12899762Y-16992000D02*
X12909286Y-16982476D01*
X12909286Y-16982476D02*
X12918810Y-16963429D01*
X12918810Y-16963429D02*
X12918810Y-16925333D01*
X12918810Y-16925333D02*
X12909286Y-16906286D01*
X12909286Y-16906286D02*
X12899762Y-16896762D01*
X12899762Y-16896762D02*
X12880714Y-16887238D01*
X13109286Y-17001524D02*
X12995000Y-17001524D01*
X13052143Y-17001524D02*
X13052143Y-16801524D01*
X13052143Y-16801524D02*
X13033095Y-16830095D01*
X13033095Y-16830095D02*
X13014048Y-16849143D01*
X13014048Y-16849143D02*
X12995000Y-16858667D01*
X13185476Y-16801524D02*
X13185476Y-16839619D01*
X13261667Y-16801524D02*
X13261667Y-16839619D01*
X13556905Y-17077714D02*
X13547381Y-17068190D01*
X13547381Y-17068190D02*
X13528334Y-17039619D01*
X13528334Y-17039619D02*
X13518810Y-17020571D01*
X13518810Y-17020571D02*
X13509286Y-16992000D01*
X13509286Y-16992000D02*
X13499762Y-16944381D01*
X13499762Y-16944381D02*
X13499762Y-16906286D01*
X13499762Y-16906286D02*
X13509286Y-16858667D01*
X13509286Y-16858667D02*
X13518810Y-16830095D01*
X13518810Y-16830095D02*
X13528334Y-16811048D01*
X13528334Y-16811048D02*
X13547381Y-16782476D01*
X13547381Y-16782476D02*
X13556905Y-16772952D01*
X13614048Y-16801524D02*
X13747381Y-16801524D01*
X13747381Y-16801524D02*
X13661667Y-17001524D01*
X13975953Y-17001524D02*
X13975953Y-16801524D01*
X14061667Y-17001524D02*
X14061667Y-16896762D01*
X14061667Y-16896762D02*
X14052143Y-16877714D01*
X14052143Y-16877714D02*
X14033096Y-16868190D01*
X14033096Y-16868190D02*
X14004524Y-16868190D01*
X14004524Y-16868190D02*
X13985476Y-16877714D01*
X13985476Y-16877714D02*
X13975953Y-16887238D01*
X14185476Y-17001524D02*
X14166429Y-16992000D01*
X14166429Y-16992000D02*
X14156905Y-16982476D01*
X14156905Y-16982476D02*
X14147381Y-16963429D01*
X14147381Y-16963429D02*
X14147381Y-16906286D01*
X14147381Y-16906286D02*
X14156905Y-16887238D01*
X14156905Y-16887238D02*
X14166429Y-16877714D01*
X14166429Y-16877714D02*
X14185476Y-16868190D01*
X14185476Y-16868190D02*
X14214048Y-16868190D01*
X14214048Y-16868190D02*
X14233096Y-16877714D01*
X14233096Y-16877714D02*
X14242619Y-16887238D01*
X14242619Y-16887238D02*
X14252143Y-16906286D01*
X14252143Y-16906286D02*
X14252143Y-16963429D01*
X14252143Y-16963429D02*
X14242619Y-16982476D01*
X14242619Y-16982476D02*
X14233096Y-16992000D01*
X14233096Y-16992000D02*
X14214048Y-17001524D01*
X14214048Y-17001524D02*
X14185476Y-17001524D01*
X14366429Y-17001524D02*
X14347381Y-16992000D01*
X14347381Y-16992000D02*
X14337857Y-16972952D01*
X14337857Y-16972952D02*
X14337857Y-16801524D01*
X14518810Y-16992000D02*
X14499762Y-17001524D01*
X14499762Y-17001524D02*
X14461667Y-17001524D01*
X14461667Y-17001524D02*
X14442619Y-16992000D01*
X14442619Y-16992000D02*
X14433096Y-16972952D01*
X14433096Y-16972952D02*
X14433096Y-16896762D01*
X14433096Y-16896762D02*
X14442619Y-16877714D01*
X14442619Y-16877714D02*
X14461667Y-16868190D01*
X14461667Y-16868190D02*
X14499762Y-16868190D01*
X14499762Y-16868190D02*
X14518810Y-16877714D01*
X14518810Y-16877714D02*
X14528334Y-16896762D01*
X14528334Y-16896762D02*
X14528334Y-16915810D01*
X14528334Y-16915810D02*
X14433096Y-16934857D01*
X14604524Y-16992000D02*
X14623572Y-17001524D01*
X14623572Y-17001524D02*
X14661667Y-17001524D01*
X14661667Y-17001524D02*
X14680715Y-16992000D01*
X14680715Y-16992000D02*
X14690238Y-16972952D01*
X14690238Y-16972952D02*
X14690238Y-16963429D01*
X14690238Y-16963429D02*
X14680715Y-16944381D01*
X14680715Y-16944381D02*
X14661667Y-16934857D01*
X14661667Y-16934857D02*
X14633096Y-16934857D01*
X14633096Y-16934857D02*
X14614048Y-16925333D01*
X14614048Y-16925333D02*
X14604524Y-16906286D01*
X14604524Y-16906286D02*
X14604524Y-16896762D01*
X14604524Y-16896762D02*
X14614048Y-16877714D01*
X14614048Y-16877714D02*
X14633096Y-16868190D01*
X14633096Y-16868190D02*
X14661667Y-16868190D01*
X14661667Y-16868190D02*
X14680715Y-16877714D01*
X14756905Y-17077714D02*
X14766429Y-17068190D01*
X14766429Y-17068190D02*
X14785477Y-17039619D01*
X14785477Y-17039619D02*
X14795000Y-17020571D01*
X14795000Y-17020571D02*
X14804524Y-16992000D01*
X14804524Y-16992000D02*
X14814048Y-16944381D01*
X14814048Y-16944381D02*
X14814048Y-16906286D01*
X14814048Y-16906286D02*
X14804524Y-16858667D01*
X14804524Y-16858667D02*
X14795000Y-16830095D01*
X14795000Y-16830095D02*
X14785477Y-16811048D01*
X14785477Y-16811048D02*
X14766429Y-16782476D01*
X14766429Y-16782476D02*
X14756905Y-16772952D01*
X15118810Y-17077714D02*
X15109286Y-17068190D01*
X15109286Y-17068190D02*
X15090238Y-17039619D01*
X15090238Y-17039619D02*
X15080715Y-17020571D01*
X15080715Y-17020571D02*
X15071191Y-16992000D01*
X15071191Y-16992000D02*
X15061667Y-16944381D01*
X15061667Y-16944381D02*
X15061667Y-16906286D01*
X15061667Y-16906286D02*
X15071191Y-16858667D01*
X15071191Y-16858667D02*
X15080715Y-16830095D01*
X15080715Y-16830095D02*
X15090238Y-16811048D01*
X15090238Y-16811048D02*
X15109286Y-16782476D01*
X15109286Y-16782476D02*
X15118810Y-16772952D01*
X15195000Y-16868190D02*
X15195000Y-17001524D01*
X15195000Y-16887238D02*
X15204524Y-16877714D01*
X15204524Y-16877714D02*
X15223572Y-16868190D01*
X15223572Y-16868190D02*
X15252143Y-16868190D01*
X15252143Y-16868190D02*
X15271191Y-16877714D01*
X15271191Y-16877714D02*
X15280715Y-16896762D01*
X15280715Y-16896762D02*
X15280715Y-17001524D01*
X15404524Y-17001524D02*
X15385477Y-16992000D01*
X15385477Y-16992000D02*
X15375953Y-16982476D01*
X15375953Y-16982476D02*
X15366429Y-16963429D01*
X15366429Y-16963429D02*
X15366429Y-16906286D01*
X15366429Y-16906286D02*
X15375953Y-16887238D01*
X15375953Y-16887238D02*
X15385477Y-16877714D01*
X15385477Y-16877714D02*
X15404524Y-16868190D01*
X15404524Y-16868190D02*
X15433096Y-16868190D01*
X15433096Y-16868190D02*
X15452143Y-16877714D01*
X15452143Y-16877714D02*
X15461667Y-16887238D01*
X15461667Y-16887238D02*
X15471191Y-16906286D01*
X15471191Y-16906286D02*
X15471191Y-16963429D01*
X15471191Y-16963429D02*
X15461667Y-16982476D01*
X15461667Y-16982476D02*
X15452143Y-16992000D01*
X15452143Y-16992000D02*
X15433096Y-17001524D01*
X15433096Y-17001524D02*
X15404524Y-17001524D01*
X15528334Y-16868190D02*
X15604524Y-16868190D01*
X15556905Y-16801524D02*
X15556905Y-16972952D01*
X15556905Y-16972952D02*
X15566429Y-16992000D01*
X15566429Y-16992000D02*
X15585477Y-17001524D01*
X15585477Y-17001524D02*
X15604524Y-17001524D01*
X15823572Y-16868190D02*
X15823572Y-17068190D01*
X15823572Y-16877714D02*
X15842619Y-16868190D01*
X15842619Y-16868190D02*
X15880715Y-16868190D01*
X15880715Y-16868190D02*
X15899762Y-16877714D01*
X15899762Y-16877714D02*
X15909286Y-16887238D01*
X15909286Y-16887238D02*
X15918810Y-16906286D01*
X15918810Y-16906286D02*
X15918810Y-16963429D01*
X15918810Y-16963429D02*
X15909286Y-16982476D01*
X15909286Y-16982476D02*
X15899762Y-16992000D01*
X15899762Y-16992000D02*
X15880715Y-17001524D01*
X15880715Y-17001524D02*
X15842619Y-17001524D01*
X15842619Y-17001524D02*
X15823572Y-16992000D01*
X16033096Y-17001524D02*
X16014048Y-16992000D01*
X16014048Y-16992000D02*
X16004524Y-16972952D01*
X16004524Y-16972952D02*
X16004524Y-16801524D01*
X16195000Y-17001524D02*
X16195000Y-16896762D01*
X16195000Y-16896762D02*
X16185477Y-16877714D01*
X16185477Y-16877714D02*
X16166429Y-16868190D01*
X16166429Y-16868190D02*
X16128334Y-16868190D01*
X16128334Y-16868190D02*
X16109286Y-16877714D01*
X16195000Y-16992000D02*
X16175953Y-17001524D01*
X16175953Y-17001524D02*
X16128334Y-17001524D01*
X16128334Y-17001524D02*
X16109286Y-16992000D01*
X16109286Y-16992000D02*
X16099762Y-16972952D01*
X16099762Y-16972952D02*
X16099762Y-16953905D01*
X16099762Y-16953905D02*
X16109286Y-16934857D01*
X16109286Y-16934857D02*
X16128334Y-16925333D01*
X16128334Y-16925333D02*
X16175953Y-16925333D01*
X16175953Y-16925333D02*
X16195000Y-16915810D01*
X16261667Y-16868190D02*
X16337858Y-16868190D01*
X16290239Y-16801524D02*
X16290239Y-16972952D01*
X16290239Y-16972952D02*
X16299762Y-16992000D01*
X16299762Y-16992000D02*
X16318810Y-17001524D01*
X16318810Y-17001524D02*
X16337858Y-17001524D01*
X16480715Y-16992000D02*
X16461667Y-17001524D01*
X16461667Y-17001524D02*
X16423572Y-17001524D01*
X16423572Y-17001524D02*
X16404524Y-16992000D01*
X16404524Y-16992000D02*
X16395000Y-16972952D01*
X16395000Y-16972952D02*
X16395000Y-16896762D01*
X16395000Y-16896762D02*
X16404524Y-16877714D01*
X16404524Y-16877714D02*
X16423572Y-16868190D01*
X16423572Y-16868190D02*
X16461667Y-16868190D01*
X16461667Y-16868190D02*
X16480715Y-16877714D01*
X16480715Y-16877714D02*
X16490239Y-16896762D01*
X16490239Y-16896762D02*
X16490239Y-16915810D01*
X16490239Y-16915810D02*
X16395000Y-16934857D01*
X16661667Y-17001524D02*
X16661667Y-16801524D01*
X16661667Y-16992000D02*
X16642620Y-17001524D01*
X16642620Y-17001524D02*
X16604524Y-17001524D01*
X16604524Y-17001524D02*
X16585477Y-16992000D01*
X16585477Y-16992000D02*
X16575953Y-16982476D01*
X16575953Y-16982476D02*
X16566429Y-16963429D01*
X16566429Y-16963429D02*
X16566429Y-16906286D01*
X16566429Y-16906286D02*
X16575953Y-16887238D01*
X16575953Y-16887238D02*
X16585477Y-16877714D01*
X16585477Y-16877714D02*
X16604524Y-16868190D01*
X16604524Y-16868190D02*
X16642620Y-16868190D01*
X16642620Y-16868190D02*
X16661667Y-16877714D01*
X16737858Y-17077714D02*
X16747381Y-17068190D01*
X16747381Y-17068190D02*
X16766429Y-17039619D01*
X16766429Y-17039619D02*
X16775953Y-17020571D01*
X16775953Y-17020571D02*
X16785477Y-16992000D01*
X16785477Y-16992000D02*
X16795001Y-16944381D01*
X16795001Y-16944381D02*
X16795001Y-16906286D01*
X16795001Y-16906286D02*
X16785477Y-16858667D01*
X16785477Y-16858667D02*
X16775953Y-16830095D01*
X16775953Y-16830095D02*
X16766429Y-16811048D01*
X16766429Y-16811048D02*
X16747381Y-16782476D01*
X16747381Y-16782476D02*
X16737858Y-16772952D01*
M02*
