M48
; DRILL file {KiCad 7.0.2-6a45011f42~172~ubuntu20.04.1} date Mon 01 May 2023 11:45:53 AM CEST
; FORMAT={-:-/ absolute / metric / decimal}
; #@! TF.CreationDate,2023-05-01T11:45:53+02:00
; #@! TF.GenerationSoftware,Kicad,Pcbnew,7.0.2-6a45011f42~172~ubuntu20.04.1
; #@! TF.FileFunction,Plated,1,2,PTH
FMAT,2
METRIC
; #@! TA.AperFunction,Plated,PTH,ComponentDrill
T1C0.200
; #@! TA.AperFunction,Plated,PTH,ViaDrill
T2C0.400
; #@! TA.AperFunction,Plated,PTH,ComponentDrill
T3C0.500
; #@! TA.AperFunction,Plated,PTH,ComponentDrill
T4C1.000
; #@! TA.AperFunction,Plated,PTH,ComponentDrill
T5C1.020
%
G90
G05
T1
X144.65Y-140.4
X144.65Y-141.5
X144.65Y-142.6
X145.75Y-140.4
X145.75Y-141.5
X145.75Y-142.6
X146.85Y-140.4
X146.85Y-141.5
X146.85Y-142.6
X168.65Y-128.9
X168.65Y-130.0
X168.65Y-131.1
X169.75Y-128.9
X169.75Y-130.0
X169.75Y-131.1
X170.85Y-128.9
X170.85Y-130.0
X170.85Y-131.1
T2
X100.75Y-120.0
X100.75Y-126.5
X100.75Y-132.5
X101.25Y-97.0
X101.25Y-102.0
X101.25Y-107.5
X101.25Y-112.5
X101.4Y-92.3
X101.4Y-94.6
X102.15Y-146.8
X102.25Y-137.5
X103.25Y-150.0
X103.25Y-153.5
X103.25Y-157.5
X103.75Y-135.75
X104.0Y-112.75
X104.0Y-120.25
X104.0Y-146.5
X104.2Y-143.0
X104.521Y-139.7
X105.8Y-149.2
X105.8Y-157.2
X106.0Y-154.0
X106.4Y-145.4
X106.75Y-137.5
X107.6Y-139.6
X108.0Y-135.75
X108.4Y-92.2
X108.8Y-153.2
X109.0Y-107.5
X109.75Y-120.5
X109.75Y-123.5
X110.2Y-157.9
X110.236Y-136.652
X110.25Y-110.0
X110.5Y-100.5
X110.75Y-155.5
X110.8Y-108.2
X111.0Y-119.75
X111.25Y-112.5
X111.25Y-125.0
X112.0Y-135.6
X112.11Y-152.51
X112.7Y-102.9
X113.0Y-97.0
X113.0Y-147.0
X113.25Y-113.5
X113.5Y-126.25
X114.25Y-155.5
X114.4Y-158.0
X114.5Y-109.0
X114.6Y-152.0
X115.25Y-119.5
X116.46Y-142.87
X116.5Y-104.25
X116.75Y-136.5
X117.25Y-109.0
X117.25Y-128.75
X117.916Y-94.448
X118.0Y-150.2
X118.2Y-147.2
X118.5Y-97.5
X118.863Y-101.637
X118.882Y-95.414
X120.0Y-92.5
X120.0Y-117.0
X120.0Y-136.5
X120.0Y-145.8
X120.25Y-125.75
X120.25Y-130.75
X120.25Y-132.5
X120.25Y-134.5
X120.25Y-143.5
X120.25Y-150.5
X120.35Y-100.0
X120.35Y-101.5
X120.5Y-127.75
X120.9Y-153.3
X121.0Y-139.75
X122.5Y-142.5
X122.7Y-94.9
X122.75Y-124.0
X122.8Y-155.6
X122.809Y-135.89
X123.2Y-143.6
X123.75Y-105.5
X123.75Y-109.75
X123.75Y-116.0
X124.0Y-97.25
X124.0Y-99.5
X124.0Y-101.0
X124.0Y-113.0
X124.0Y-121.75
X124.25Y-137.75
X124.5Y-133.5
X124.875Y-122.625
X125.0Y-148.8
X125.75Y-109.5
X125.75Y-116.0
X125.75Y-134.75
X126.0Y-94.0
X126.2Y-153.0
X126.25Y-113.0
X126.5Y-99.5
X126.5Y-101.0
X126.5Y-136.5
X127.0Y-128.75
X127.5Y-118.0
X127.6Y-124.6
X128.0Y-103.0
X128.0Y-109.5
X128.0Y-136.5
X128.0Y-149.0
X128.0Y-153.2
X128.2Y-145.4
X128.25Y-130.5
X128.5Y-104.5
X129.0Y-157.25
X129.25Y-111.75
X129.25Y-150.5
X129.35Y-147.4
X129.5Y-121.5
X129.5Y-127.5
X130.0Y-145.5
X130.5Y-141.25
X131.0Y-92.5
X131.0Y-96.25
X131.0Y-99.5
X131.0Y-103.0
X131.0Y-120.75
X131.2Y-133.2
X131.4Y-131.8
X132.0Y-151.0
X132.25Y-157.25
X132.75Y-94.0
X132.75Y-97.5
X132.75Y-101.0
X132.75Y-104.0
X132.8Y-130.2
X132.9Y-147.8
X133.0Y-108.5
X133.0Y-114.5
X133.6Y-118.4
X133.6Y-131.6
X133.75Y-122.0
X133.8Y-120.0
X134.0Y-127.6
X134.0Y-149.0
X134.112Y-133.35
X134.4Y-113.4
X134.7Y-92.7
X135.0Y-130.0
X135.5Y-94.1
X135.5Y-98.0
X135.5Y-101.0
X135.6Y-103.95
X135.6Y-131.2
X136.144Y-133.35
X136.2Y-122.7
X136.2Y-128.0
X136.5Y-109.5
X136.5Y-112.5
X137.75Y-148.75
X137.75Y-154.75
X138.0Y-150.25
X138.5Y-146.5
X138.6Y-103.8
X139.25Y-148.75
X139.35Y-109.45
X139.5Y-111.0
X139.5Y-154.75
X139.5Y-156.75
X139.65Y-112.85
X140.0Y-143.5
X140.0Y-145.0
X140.75Y-81.0
X141.0Y-146.5
X141.0Y-148.0
X141.4Y-133.7
X141.478Y-136.398
X141.5Y-143.5
X141.5Y-145.0
X141.58Y-95.05
X141.7Y-103.9
X142.0Y-108.5
X142.25Y-111.0
X142.4Y-116.0
X142.5Y-113.0
X142.5Y-146.5
X142.5Y-148.0
X142.75Y-156.25
X142.75Y-158.25
X142.8Y-127.6
X143.0Y-143.5
X143.0Y-145.0
X143.5Y-122.7
X143.75Y-114.75
X144.0Y-96.2
X144.0Y-136.2
X144.0Y-146.0
X144.25Y-138.0
X144.25Y-147.5
X144.25Y-148.75
X144.4Y-132.2
X144.6Y-109.15
X144.8Y-120.9
X145.0Y-94.2
X145.0Y-151.75
X145.0Y-153.75
X145.25Y-112.5
X145.4Y-126.7
X145.5Y-122.4
X145.5Y-147.75
X146.0Y-111.0
X146.0Y-133.5
X146.125Y-131.75
X146.25Y-148.75
X146.4Y-96.4
X146.4Y-118.9
X146.812Y-134.747
X147.0Y-147.5
X147.25Y-137.0
X147.5Y-113.0
X147.5Y-156.5
X147.5Y-159.0
X147.7Y-120.1
X147.7Y-128.6
X147.75Y-122.5
X148.4Y-104.8
X148.75Y-131.0
X148.75Y-151.25
X148.8Y-125.2
X148.8Y-147.4
X149.2Y-94.2
X149.225Y-141.224
X149.25Y-81.5
X149.5Y-137.5
X149.613Y-110.637
X149.75Y-88.5
X150.0Y-156.5
X150.5Y-139.0
X150.75Y-85.25
X150.75Y-90.25
X150.75Y-106.5
X151.0Y-126.0
X151.012Y-150.262
X151.25Y-158.5
X151.575Y-154.7
X151.6Y-147.6
X152.0Y-131.25
X152.0Y-141.175
X152.3Y-113.4
X152.8Y-94.2
X153.0Y-117.974
X153.0Y-126.2
X153.0Y-151.5
X153.2Y-133.9
X153.3Y-136.6
X153.75Y-88.5
X154.0Y-90.25
X154.0Y-131.6
X154.4Y-141.2
X154.6Y-126.6
X155.25Y-110.25
X155.25Y-124.0
X155.41Y-103.84
X155.5Y-130.25
X155.5Y-133.5
X155.5Y-139.75
X155.6Y-137.8
X155.8Y-135.9
X156.5Y-151.5
X156.65Y-111.537
X156.75Y-81.0
X156.75Y-84.0
X156.75Y-90.5
X156.75Y-105.5
X156.75Y-130.0
X156.8Y-125.8
X156.8Y-148.6
X157.5Y-102.5
X157.5Y-122.7
X157.5Y-135.5
X157.912Y-154.612
X157.98Y-108.36
X158.0Y-88.75
X158.0Y-125.8
X158.25Y-130.0
X158.25Y-139.25
X158.369Y-149.352
X158.8Y-94.6
X159.2Y-119.0
X159.31Y-106.974
X159.325Y-158.55
X159.35Y-111.537
X159.6Y-135.7
X159.7Y-137.4
X159.87Y-109.647
X161.2Y-94.6
X161.2Y-143.6
X161.4Y-147.8
X161.75Y-87.5
X161.798Y-110.033
X161.798Y-111.963
X161.987Y-153.537
X162.0Y-81.75
X162.0Y-156.591
X162.1Y-137.5
X163.0Y-89.5
X163.0Y-103.683
X163.0Y-120.6
X163.0Y-143.992
X163.1Y-102.28
X163.25Y-84.5
X163.325Y-158.55
X163.41Y-105.08
X163.8Y-139.3
X163.9Y-142.1
X163.97Y-97.724
X164.084Y-152.273
X164.1Y-133.3
X164.25Y-89.5
X164.6Y-120.6
X165.34Y-99.52
X166.0Y-120.6
X166.0Y-132.8
X166.2Y-122.4
X166.2Y-123.6
X166.2Y-124.8
X166.325Y-158.55
X166.59Y-100.79
X166.6Y-106.0
X166.9Y-135.1
X166.966Y-116.525
X167.2Y-120.8
X167.894Y-132.461
X168.05Y-117.9
X168.2Y-121.8
X168.2Y-123.2
X168.25Y-156.25
X168.288Y-152.487
X168.42Y-100.4
X168.586Y-91.322
X168.7Y-98.4
X168.75Y-115.5
X168.76Y-102.07
X168.8Y-124.6
X168.86Y-103.51
X169.0Y-126.5
X169.4Y-122.2
X170.282Y-109.118
X170.625Y-158.5
X171.4Y-104.4
X171.48Y-88.352
X171.5Y-102.6
X171.734Y-89.876
X171.75Y-127.5
X171.988Y-91.4
X172.0Y-145.0
X172.242Y-92.924
X172.4Y-94.4
X172.4Y-95.8
X172.4Y-97.2
X172.55Y-130.75
X173.2Y-158.4
X173.25Y-136.5
X173.4Y-128.4
X173.736Y-120.65
X173.766Y-92.924
X173.8Y-94.4
X173.8Y-95.8
X173.8Y-97.2
X173.8Y-108.9
X173.8Y-140.6
X174.1Y-122.5
X174.2Y-124.3
X174.274Y-91.4
X174.4Y-129.4
X174.4Y-157.0
X174.782Y-89.876
X174.8Y-99.528
X175.2Y-94.4
X175.2Y-95.8
X175.2Y-97.2
X175.29Y-88.352
X175.29Y-92.924
X175.5Y-137.25
X175.936Y-117.796
X176.0Y-158.5
X176.276Y-128.905
X176.5Y-143.5
X176.56Y-91.4
X176.6Y-131.6
X176.75Y-139.75
X177.068Y-92.924
X177.068Y-94.448
X177.068Y-96.226
X177.2Y-101.8
X177.5Y-98.0
X177.83Y-89.876
X177.83Y-108.418
X178.5Y-99.5
X179.0Y-119.5
X179.0Y-120.75
X179.0Y-122.0
X179.0Y-123.25
X179.0Y-124.5
X179.0Y-125.75
X179.1Y-88.352
X179.197Y-157.861
X179.4Y-107.8
X179.8Y-104.2
X180.0Y-100.5
X180.5Y-119.5
X180.5Y-120.75
X180.5Y-122.0
X180.5Y-123.25
X180.5Y-124.5
X180.5Y-125.75
X181.0Y-109.5
X181.0Y-111.0
X181.0Y-112.5
X181.0Y-114.0
X181.0Y-115.5
X181.5Y-99.5
X181.75Y-158.0
X182.4Y-105.8
X182.5Y-98.0
X182.5Y-101.0
X182.5Y-103.5
X183.0Y-116.5
X183.5Y-118.5
X183.5Y-134.0
X184.0Y-124.0
X184.0Y-126.0
X184.0Y-128.0
X184.0Y-130.5
X184.531Y-157.734
X185.0Y-107.2
X185.5Y-106.0
X185.5Y-118.5
X185.5Y-120.5
X185.5Y-134.25
X186.0Y-117.0
X186.0Y-124.0
X186.0Y-126.0
X186.0Y-128.0
X186.0Y-130.5
X186.5Y-108.5
X186.5Y-132.5
X187.0Y-88.5
X187.0Y-93.5
X187.0Y-100.5
X187.25Y-158.0
X188.0Y-95.5
X188.0Y-124.0
X188.0Y-126.0
X188.0Y-128.0
X188.5Y-110.5
X188.5Y-114.5
X188.5Y-130.5
X189.0Y-102.0
X189.0Y-113.0
X189.0Y-154.25
X189.2Y-96.8
X189.25Y-134.25
X189.5Y-91.0
X190.0Y-93.5
X190.0Y-104.5
X190.0Y-124.0
X190.0Y-126.0
X190.0Y-128.0
X190.5Y-100.5
X190.5Y-102.5
X190.5Y-107.0
X190.5Y-151.5
X190.75Y-157.5
X191.0Y-98.5
X192.0Y-97.0
X192.0Y-124.0
X192.0Y-126.0
X192.0Y-128.0
X192.0Y-134.0
X192.6Y-110.6
X193.7Y-97.9
X194.0Y-99.5
X195.05Y-158.75
X195.25Y-152.0
X195.5Y-97.0
X195.5Y-99.5
X195.5Y-101.5
X195.9Y-155.6
X196.25Y-147.0
X197.0Y-150.75
X197.25Y-152.5
X197.5Y-140.75
X197.5Y-147.0
X197.5Y-149.25
X198.0Y-145.25
X198.0Y-158.1
X198.1Y-154.15
X198.5Y-89.0
X198.5Y-156.25
X199.0Y-140.75
X199.0Y-147.0
X199.0Y-149.25
X199.0Y-150.75
X199.0Y-152.5
X199.25Y-142.5
X199.25Y-144.25
T4
X103.725Y-91.835
X103.725Y-94.375
X103.725Y-96.915
X103.725Y-99.455
X103.725Y-101.995
X103.725Y-104.535
X103.725Y-107.075
X103.725Y-109.615
X104.0Y-122.92
X104.0Y-125.46
X104.0Y-128.0
X104.0Y-130.54
X104.0Y-133.08
X106.265Y-91.835
X106.265Y-94.375
X106.265Y-96.915
X106.265Y-99.455
X106.265Y-101.995
X106.265Y-104.535
X106.265Y-107.075
X106.265Y-109.615
X106.54Y-122.92
X106.54Y-125.46
X106.54Y-128.0
X106.54Y-130.54
X106.54Y-133.08
X115.25Y-111.75
X115.25Y-114.29
X117.79Y-111.75
X117.79Y-114.29
X138.34Y-98.185
X138.34Y-100.725
X140.88Y-98.185
X140.88Y-100.725
X143.42Y-98.185
X143.42Y-100.725
X145.96Y-98.185
X145.96Y-100.725
X148.5Y-98.185
X148.5Y-100.725
X150.21Y-123.81
X150.225Y-120.0
X151.04Y-98.185
X151.04Y-100.725
X152.75Y-123.81
X152.765Y-120.0
X153.58Y-98.185
X153.58Y-100.725
X155.305Y-120.0
X156.12Y-98.185
X156.12Y-100.725
X164.9Y-111.625
X164.9Y-114.165
X167.44Y-111.625
X167.44Y-114.165
X169.98Y-111.625
X169.98Y-114.165
X172.52Y-111.625
X172.52Y-114.165
X175.06Y-111.625
X175.06Y-114.165
X177.6Y-111.625
X177.6Y-114.165
X183.4Y-111.46
X183.4Y-114.0
X185.94Y-111.46
X185.94Y-114.0
X192.46Y-89.92
X192.46Y-92.46
X192.46Y-95.0
X192.46Y-103.42
X192.46Y-105.96
X192.46Y-108.5
X195.0Y-89.92
X195.0Y-92.46
X195.0Y-95.0
X195.0Y-103.42
X195.0Y-105.96
X195.0Y-108.5
T5
X165.2Y-147.3
X165.2Y-150.3
X182.0Y-147.3
X182.0Y-150.3
X185.0Y-147.3
X185.0Y-150.3
X193.25Y-147.3
X193.25Y-150.3
T3
G00X107.808Y-156.424
M15
G01X107.808Y-157.024
M16
G05
G00X108.168Y-150.474
M15
G01X108.168Y-151.074
M16
G05
G00X116.428Y-150.474
M15
G01X116.428Y-151.074
M16
G05
G00X116.788Y-156.424
M15
G01X116.788Y-157.024
M16
G05
T0
M30
