%TF.GenerationSoftware,KiCad,Pcbnew,7.0.2-6a45011f42~172~ubuntu20.04.1*%
%TF.CreationDate,2023-04-30T22:50:11+02:00*%
%TF.ProjectId,pippino_board,70697070-696e-46f5-9f62-6f6172642e6b,rev?*%
%TF.SameCoordinates,Original*%
%TF.FileFunction,Drillmap*%
%TF.FilePolarity,Positive*%
%FSLAX45Y45*%
G04 Gerber Fmt 4.5, Leading zero omitted, Abs format (unit mm)*
G04 Created by KiCad (PCBNEW 7.0.2-6a45011f42~172~ubuntu20.04.1) date 2023-04-30 22:50:11*
%MOMM*%
%LPD*%
G01*
G04 APERTURE LIST*
%ADD10C,0.100000*%
%ADD11C,0.200000*%
%ADD12C,0.020000*%
%ADD13C,0.040000*%
%ADD14C,0.050000*%
%ADD15C,0.102000*%
G04 APERTURE END LIST*
D10*
X20000000Y-16000000D02*
X11940000Y-16000000D01*
X10000000Y-16000000D02*
X10000000Y-8000000D01*
X10000000Y-8000000D02*
X20000000Y-8000000D01*
X10530000Y-16000000D02*
X10000000Y-16000000D01*
X10630000Y-15900000D02*
G75*
G03*
X10530000Y-16000000I0J-100000D01*
G01*
X10630000Y-15900000D02*
X11840000Y-15900000D01*
X11940000Y-16000000D02*
G75*
G03*
X11840000Y-15900000I-100000J0D01*
G01*
X20000000Y-8000000D02*
X20000000Y-16000000D01*
D11*
D12*
X14455000Y-14030000D02*
X14475000Y-14050000D01*
X14475000Y-14030000D02*
X14455000Y-14050000D01*
X14455000Y-14140000D02*
X14475000Y-14160000D01*
X14475000Y-14140000D02*
X14455000Y-14160000D01*
X14455000Y-14250000D02*
X14475000Y-14270000D01*
X14475000Y-14250000D02*
X14455000Y-14270000D01*
X14565000Y-14030000D02*
X14585000Y-14050000D01*
X14585000Y-14030000D02*
X14565000Y-14050000D01*
X14565000Y-14140000D02*
X14585000Y-14160000D01*
X14585000Y-14140000D02*
X14565000Y-14160000D01*
X14565000Y-14250000D02*
X14585000Y-14270000D01*
X14585000Y-14250000D02*
X14565000Y-14270000D01*
X14675000Y-14030000D02*
X14695000Y-14050000D01*
X14695000Y-14030000D02*
X14675000Y-14050000D01*
X14675000Y-14140000D02*
X14695000Y-14160000D01*
X14695000Y-14140000D02*
X14675000Y-14160000D01*
X14675000Y-14250000D02*
X14695000Y-14270000D01*
X14695000Y-14250000D02*
X14675000Y-14270000D01*
X16855000Y-12880000D02*
X16875000Y-12900000D01*
X16875000Y-12880000D02*
X16855000Y-12900000D01*
X16855000Y-12990000D02*
X16875000Y-13010000D01*
X16875000Y-12990000D02*
X16855000Y-13010000D01*
X16855000Y-13100000D02*
X16875000Y-13120000D01*
X16875000Y-13100000D02*
X16855000Y-13120000D01*
X16965000Y-12880000D02*
X16985000Y-12900000D01*
X16985000Y-12880000D02*
X16965000Y-12900000D01*
X16965000Y-12990000D02*
X16985000Y-13010000D01*
X16985000Y-12990000D02*
X16965000Y-13010000D01*
X16965000Y-13100000D02*
X16985000Y-13120000D01*
X16985000Y-13100000D02*
X16965000Y-13120000D01*
X17075000Y-12880000D02*
X17095000Y-12900000D01*
X17095000Y-12880000D02*
X17075000Y-12900000D01*
X17075000Y-12990000D02*
X17095000Y-13010000D01*
X17095000Y-12990000D02*
X17075000Y-13010000D01*
X17075000Y-13100000D02*
X17095000Y-13120000D01*
X17095000Y-13100000D02*
X17075000Y-13120000D01*
D13*
X10095000Y-12000000D02*
G75*
G03*
X10095000Y-12000000I-20000J0D01*
G01*
X10095000Y-12650000D02*
G75*
G03*
X10095000Y-12650000I-20000J0D01*
G01*
X10095000Y-13250000D02*
G75*
G03*
X10095000Y-13250000I-20000J0D01*
G01*
X10145000Y-9700000D02*
G75*
G03*
X10145000Y-9700000I-20000J0D01*
G01*
X10145000Y-10200000D02*
G75*
G03*
X10145000Y-10200000I-20000J0D01*
G01*
X10145000Y-10750000D02*
G75*
G03*
X10145000Y-10750000I-20000J0D01*
G01*
X10145000Y-11250000D02*
G75*
G03*
X10145000Y-11250000I-20000J0D01*
G01*
X10160000Y-9230000D02*
G75*
G03*
X10160000Y-9230000I-20000J0D01*
G01*
X10160000Y-9460000D02*
G75*
G03*
X10160000Y-9460000I-20000J0D01*
G01*
X10235000Y-14680000D02*
G75*
G03*
X10235000Y-14680000I-20000J0D01*
G01*
X10245000Y-13750000D02*
G75*
G03*
X10245000Y-13750000I-20000J0D01*
G01*
X10345000Y-15000000D02*
G75*
G03*
X10345000Y-15000000I-20000J0D01*
G01*
X10345000Y-15350000D02*
G75*
G03*
X10345000Y-15350000I-20000J0D01*
G01*
X10345000Y-15750000D02*
G75*
G03*
X10345000Y-15750000I-20000J0D01*
G01*
X10395000Y-13575000D02*
G75*
G03*
X10395000Y-13575000I-20000J0D01*
G01*
X10420000Y-11275000D02*
G75*
G03*
X10420000Y-11275000I-20000J0D01*
G01*
X10420000Y-12025000D02*
G75*
G03*
X10420000Y-12025000I-20000J0D01*
G01*
X10420000Y-14650000D02*
G75*
G03*
X10420000Y-14650000I-20000J0D01*
G01*
X10440000Y-14300000D02*
G75*
G03*
X10440000Y-14300000I-20000J0D01*
G01*
X10472100Y-13970000D02*
G75*
G03*
X10472100Y-13970000I-20000J0D01*
G01*
X10600000Y-14920000D02*
G75*
G03*
X10600000Y-14920000I-20000J0D01*
G01*
X10600000Y-15720000D02*
G75*
G03*
X10600000Y-15720000I-20000J0D01*
G01*
X10620000Y-15400000D02*
G75*
G03*
X10620000Y-15400000I-20000J0D01*
G01*
X10660000Y-14540000D02*
G75*
G03*
X10660000Y-14540000I-20000J0D01*
G01*
X10695000Y-13750000D02*
G75*
G03*
X10695000Y-13750000I-20000J0D01*
G01*
X10780000Y-13960000D02*
G75*
G03*
X10780000Y-13960000I-20000J0D01*
G01*
X10820000Y-13575000D02*
G75*
G03*
X10820000Y-13575000I-20000J0D01*
G01*
X10860000Y-9220000D02*
G75*
G03*
X10860000Y-9220000I-20000J0D01*
G01*
X10900000Y-15320000D02*
G75*
G03*
X10900000Y-15320000I-20000J0D01*
G01*
X10920000Y-10750000D02*
G75*
G03*
X10920000Y-10750000I-20000J0D01*
G01*
X10995000Y-12050000D02*
G75*
G03*
X10995000Y-12050000I-20000J0D01*
G01*
X10995000Y-12350000D02*
G75*
G03*
X10995000Y-12350000I-20000J0D01*
G01*
X11040000Y-15790000D02*
G75*
G03*
X11040000Y-15790000I-20000J0D01*
G01*
X11043600Y-13665200D02*
G75*
G03*
X11043600Y-13665200I-20000J0D01*
G01*
X11045000Y-11000000D02*
G75*
G03*
X11045000Y-11000000I-20000J0D01*
G01*
X11070000Y-10050000D02*
G75*
G03*
X11070000Y-10050000I-20000J0D01*
G01*
X11095000Y-15550000D02*
G75*
G03*
X11095000Y-15550000I-20000J0D01*
G01*
X11100000Y-10820000D02*
G75*
G03*
X11100000Y-10820000I-20000J0D01*
G01*
X11120000Y-11975000D02*
G75*
G03*
X11120000Y-11975000I-20000J0D01*
G01*
X11145000Y-11250000D02*
G75*
G03*
X11145000Y-11250000I-20000J0D01*
G01*
X11145000Y-12500000D02*
G75*
G03*
X11145000Y-12500000I-20000J0D01*
G01*
X11220000Y-13560000D02*
G75*
G03*
X11220000Y-13560000I-20000J0D01*
G01*
X11231000Y-15251000D02*
G75*
G03*
X11231000Y-15251000I-20000J0D01*
G01*
X11290000Y-10290000D02*
G75*
G03*
X11290000Y-10290000I-20000J0D01*
G01*
X11320000Y-9700000D02*
G75*
G03*
X11320000Y-9700000I-20000J0D01*
G01*
X11320000Y-14700000D02*
G75*
G03*
X11320000Y-14700000I-20000J0D01*
G01*
X11345000Y-11350000D02*
G75*
G03*
X11345000Y-11350000I-20000J0D01*
G01*
X11370000Y-12625000D02*
G75*
G03*
X11370000Y-12625000I-20000J0D01*
G01*
X11445000Y-15550000D02*
G75*
G03*
X11445000Y-15550000I-20000J0D01*
G01*
X11460000Y-15800000D02*
G75*
G03*
X11460000Y-15800000I-20000J0D01*
G01*
X11470000Y-10900000D02*
G75*
G03*
X11470000Y-10900000I-20000J0D01*
G01*
X11480000Y-15200000D02*
G75*
G03*
X11480000Y-15200000I-20000J0D01*
G01*
X11545000Y-11950000D02*
G75*
G03*
X11545000Y-11950000I-20000J0D01*
G01*
X11666000Y-14287000D02*
G75*
G03*
X11666000Y-14287000I-20000J0D01*
G01*
X11670000Y-10425000D02*
G75*
G03*
X11670000Y-10425000I-20000J0D01*
G01*
X11695000Y-13650000D02*
G75*
G03*
X11695000Y-13650000I-20000J0D01*
G01*
X11745000Y-10900000D02*
G75*
G03*
X11745000Y-10900000I-20000J0D01*
G01*
X11745000Y-12875000D02*
G75*
G03*
X11745000Y-12875000I-20000J0D01*
G01*
X11811600Y-9444800D02*
G75*
G03*
X11811600Y-9444800I-20000J0D01*
G01*
X11820000Y-15020000D02*
G75*
G03*
X11820000Y-15020000I-20000J0D01*
G01*
X11840000Y-14720000D02*
G75*
G03*
X11840000Y-14720000I-20000J0D01*
G01*
X11870000Y-9750000D02*
G75*
G03*
X11870000Y-9750000I-20000J0D01*
G01*
X11906270Y-10163730D02*
G75*
G03*
X11906270Y-10163730I-20000J0D01*
G01*
X11908200Y-9541400D02*
G75*
G03*
X11908200Y-9541400I-20000J0D01*
G01*
X12020000Y-9250000D02*
G75*
G03*
X12020000Y-9250000I-20000J0D01*
G01*
X12020000Y-11700000D02*
G75*
G03*
X12020000Y-11700000I-20000J0D01*
G01*
X12020000Y-13650000D02*
G75*
G03*
X12020000Y-13650000I-20000J0D01*
G01*
X12020000Y-14580000D02*
G75*
G03*
X12020000Y-14580000I-20000J0D01*
G01*
X12045000Y-12575000D02*
G75*
G03*
X12045000Y-12575000I-20000J0D01*
G01*
X12045000Y-13075000D02*
G75*
G03*
X12045000Y-13075000I-20000J0D01*
G01*
X12045000Y-13250000D02*
G75*
G03*
X12045000Y-13250000I-20000J0D01*
G01*
X12045000Y-13450000D02*
G75*
G03*
X12045000Y-13450000I-20000J0D01*
G01*
X12045000Y-14350000D02*
G75*
G03*
X12045000Y-14350000I-20000J0D01*
G01*
X12045000Y-15050000D02*
G75*
G03*
X12045000Y-15050000I-20000J0D01*
G01*
X12055050Y-10000000D02*
G75*
G03*
X12055050Y-10000000I-20000J0D01*
G01*
X12055050Y-10150000D02*
G75*
G03*
X12055050Y-10150000I-20000J0D01*
G01*
X12070000Y-12775000D02*
G75*
G03*
X12070000Y-12775000I-20000J0D01*
G01*
X12110000Y-15330000D02*
G75*
G03*
X12110000Y-15330000I-20000J0D01*
G01*
X12120000Y-13975000D02*
G75*
G03*
X12120000Y-13975000I-20000J0D01*
G01*
X12270000Y-14250000D02*
G75*
G03*
X12270000Y-14250000I-20000J0D01*
G01*
X12290000Y-9490000D02*
G75*
G03*
X12290000Y-9490000I-20000J0D01*
G01*
X12295000Y-12400000D02*
G75*
G03*
X12295000Y-12400000I-20000J0D01*
G01*
X12300000Y-15560000D02*
G75*
G03*
X12300000Y-15560000I-20000J0D01*
G01*
X12300900Y-13589000D02*
G75*
G03*
X12300900Y-13589000I-20000J0D01*
G01*
X12340000Y-14360000D02*
G75*
G03*
X12340000Y-14360000I-20000J0D01*
G01*
X12395000Y-10550000D02*
G75*
G03*
X12395000Y-10550000I-20000J0D01*
G01*
X12395000Y-10975000D02*
G75*
G03*
X12395000Y-10975000I-20000J0D01*
G01*
X12395000Y-11600000D02*
G75*
G03*
X12395000Y-11600000I-20000J0D01*
G01*
X12420000Y-9725000D02*
G75*
G03*
X12420000Y-9725000I-20000J0D01*
G01*
X12420000Y-9950000D02*
G75*
G03*
X12420000Y-9950000I-20000J0D01*
G01*
X12420000Y-10100000D02*
G75*
G03*
X12420000Y-10100000I-20000J0D01*
G01*
X12420000Y-11300000D02*
G75*
G03*
X12420000Y-11300000I-20000J0D01*
G01*
X12420000Y-12175000D02*
G75*
G03*
X12420000Y-12175000I-20000J0D01*
G01*
X12445000Y-13775000D02*
G75*
G03*
X12445000Y-13775000I-20000J0D01*
G01*
X12470000Y-13350000D02*
G75*
G03*
X12470000Y-13350000I-20000J0D01*
G01*
X12507500Y-12262500D02*
G75*
G03*
X12507500Y-12262500I-20000J0D01*
G01*
X12520000Y-14880000D02*
G75*
G03*
X12520000Y-14880000I-20000J0D01*
G01*
X12595000Y-10950000D02*
G75*
G03*
X12595000Y-10950000I-20000J0D01*
G01*
X12595000Y-11600000D02*
G75*
G03*
X12595000Y-11600000I-20000J0D01*
G01*
X12595000Y-13475000D02*
G75*
G03*
X12595000Y-13475000I-20000J0D01*
G01*
X12620000Y-9400000D02*
G75*
G03*
X12620000Y-9400000I-20000J0D01*
G01*
X12640000Y-15300000D02*
G75*
G03*
X12640000Y-15300000I-20000J0D01*
G01*
X12645000Y-11300000D02*
G75*
G03*
X12645000Y-11300000I-20000J0D01*
G01*
X12670000Y-9950000D02*
G75*
G03*
X12670000Y-9950000I-20000J0D01*
G01*
X12670000Y-10100000D02*
G75*
G03*
X12670000Y-10100000I-20000J0D01*
G01*
X12670000Y-13650000D02*
G75*
G03*
X12670000Y-13650000I-20000J0D01*
G01*
X12720000Y-12875000D02*
G75*
G03*
X12720000Y-12875000I-20000J0D01*
G01*
X12770000Y-11800000D02*
G75*
G03*
X12770000Y-11800000I-20000J0D01*
G01*
X12780000Y-12460000D02*
G75*
G03*
X12780000Y-12460000I-20000J0D01*
G01*
X12820000Y-10300000D02*
G75*
G03*
X12820000Y-10300000I-20000J0D01*
G01*
X12820000Y-10950000D02*
G75*
G03*
X12820000Y-10950000I-20000J0D01*
G01*
X12820000Y-13650000D02*
G75*
G03*
X12820000Y-13650000I-20000J0D01*
G01*
X12820000Y-14900000D02*
G75*
G03*
X12820000Y-14900000I-20000J0D01*
G01*
X12820000Y-15320000D02*
G75*
G03*
X12820000Y-15320000I-20000J0D01*
G01*
X12840000Y-14540000D02*
G75*
G03*
X12840000Y-14540000I-20000J0D01*
G01*
X12845000Y-13050000D02*
G75*
G03*
X12845000Y-13050000I-20000J0D01*
G01*
X12870000Y-10450000D02*
G75*
G03*
X12870000Y-10450000I-20000J0D01*
G01*
X12920000Y-15725000D02*
G75*
G03*
X12920000Y-15725000I-20000J0D01*
G01*
X12945000Y-11175000D02*
G75*
G03*
X12945000Y-11175000I-20000J0D01*
G01*
X12945000Y-15050000D02*
G75*
G03*
X12945000Y-15050000I-20000J0D01*
G01*
X12955000Y-14740000D02*
G75*
G03*
X12955000Y-14740000I-20000J0D01*
G01*
X12970000Y-12150000D02*
G75*
G03*
X12970000Y-12150000I-20000J0D01*
G01*
X12970000Y-12750000D02*
G75*
G03*
X12970000Y-12750000I-20000J0D01*
G01*
X13020000Y-14550000D02*
G75*
G03*
X13020000Y-14550000I-20000J0D01*
G01*
X13070000Y-14125000D02*
G75*
G03*
X13070000Y-14125000I-20000J0D01*
G01*
X13120000Y-9250000D02*
G75*
G03*
X13120000Y-9250000I-20000J0D01*
G01*
X13120000Y-9625000D02*
G75*
G03*
X13120000Y-9625000I-20000J0D01*
G01*
X13120000Y-9950000D02*
G75*
G03*
X13120000Y-9950000I-20000J0D01*
G01*
X13120000Y-10300000D02*
G75*
G03*
X13120000Y-10300000I-20000J0D01*
G01*
X13120000Y-12075000D02*
G75*
G03*
X13120000Y-12075000I-20000J0D01*
G01*
X13140000Y-13320000D02*
G75*
G03*
X13140000Y-13320000I-20000J0D01*
G01*
X13160000Y-13180000D02*
G75*
G03*
X13160000Y-13180000I-20000J0D01*
G01*
X13220000Y-15100000D02*
G75*
G03*
X13220000Y-15100000I-20000J0D01*
G01*
X13245000Y-15725000D02*
G75*
G03*
X13245000Y-15725000I-20000J0D01*
G01*
X13295000Y-9400000D02*
G75*
G03*
X13295000Y-9400000I-20000J0D01*
G01*
X13295000Y-9750000D02*
G75*
G03*
X13295000Y-9750000I-20000J0D01*
G01*
X13295000Y-10100000D02*
G75*
G03*
X13295000Y-10100000I-20000J0D01*
G01*
X13295000Y-10400000D02*
G75*
G03*
X13295000Y-10400000I-20000J0D01*
G01*
X13300000Y-13020000D02*
G75*
G03*
X13300000Y-13020000I-20000J0D01*
G01*
X13310000Y-14780000D02*
G75*
G03*
X13310000Y-14780000I-20000J0D01*
G01*
X13320000Y-10850000D02*
G75*
G03*
X13320000Y-10850000I-20000J0D01*
G01*
X13320000Y-11450000D02*
G75*
G03*
X13320000Y-11450000I-20000J0D01*
G01*
X13380000Y-11840000D02*
G75*
G03*
X13380000Y-11840000I-20000J0D01*
G01*
X13380000Y-13160000D02*
G75*
G03*
X13380000Y-13160000I-20000J0D01*
G01*
X13395000Y-12200000D02*
G75*
G03*
X13395000Y-12200000I-20000J0D01*
G01*
X13400000Y-12000000D02*
G75*
G03*
X13400000Y-12000000I-20000J0D01*
G01*
X13420000Y-12760000D02*
G75*
G03*
X13420000Y-12760000I-20000J0D01*
G01*
X13420000Y-14900000D02*
G75*
G03*
X13420000Y-14900000I-20000J0D01*
G01*
X13431200Y-13335000D02*
G75*
G03*
X13431200Y-13335000I-20000J0D01*
G01*
X13460000Y-11340000D02*
G75*
G03*
X13460000Y-11340000I-20000J0D01*
G01*
X13490000Y-9270000D02*
G75*
G03*
X13490000Y-9270000I-20000J0D01*
G01*
X13520000Y-13000000D02*
G75*
G03*
X13520000Y-13000000I-20000J0D01*
G01*
X13570000Y-9410000D02*
G75*
G03*
X13570000Y-9410000I-20000J0D01*
G01*
X13570000Y-9800000D02*
G75*
G03*
X13570000Y-9800000I-20000J0D01*
G01*
X13570000Y-10100000D02*
G75*
G03*
X13570000Y-10100000I-20000J0D01*
G01*
X13580000Y-10395000D02*
G75*
G03*
X13580000Y-10395000I-20000J0D01*
G01*
X13580000Y-13120000D02*
G75*
G03*
X13580000Y-13120000I-20000J0D01*
G01*
X13634400Y-13335000D02*
G75*
G03*
X13634400Y-13335000I-20000J0D01*
G01*
X13640000Y-12270000D02*
G75*
G03*
X13640000Y-12270000I-20000J0D01*
G01*
X13640000Y-12800000D02*
G75*
G03*
X13640000Y-12800000I-20000J0D01*
G01*
X13670000Y-10950000D02*
G75*
G03*
X13670000Y-10950000I-20000J0D01*
G01*
X13670000Y-11250000D02*
G75*
G03*
X13670000Y-11250000I-20000J0D01*
G01*
X13795000Y-14875000D02*
G75*
G03*
X13795000Y-14875000I-20000J0D01*
G01*
X13795000Y-15475000D02*
G75*
G03*
X13795000Y-15475000I-20000J0D01*
G01*
X13820000Y-15025000D02*
G75*
G03*
X13820000Y-15025000I-20000J0D01*
G01*
X13870000Y-14650000D02*
G75*
G03*
X13870000Y-14650000I-20000J0D01*
G01*
X13880000Y-10380000D02*
G75*
G03*
X13880000Y-10380000I-20000J0D01*
G01*
X13945000Y-14875000D02*
G75*
G03*
X13945000Y-14875000I-20000J0D01*
G01*
X13955000Y-10945000D02*
G75*
G03*
X13955000Y-10945000I-20000J0D01*
G01*
X13970000Y-11100000D02*
G75*
G03*
X13970000Y-11100000I-20000J0D01*
G01*
X13970000Y-15475000D02*
G75*
G03*
X13970000Y-15475000I-20000J0D01*
G01*
X13970000Y-15675000D02*
G75*
G03*
X13970000Y-15675000I-20000J0D01*
G01*
X13985000Y-11285000D02*
G75*
G03*
X13985000Y-11285000I-20000J0D01*
G01*
X14020000Y-14350000D02*
G75*
G03*
X14020000Y-14350000I-20000J0D01*
G01*
X14020000Y-14500000D02*
G75*
G03*
X14020000Y-14500000I-20000J0D01*
G01*
X14095000Y-8100000D02*
G75*
G03*
X14095000Y-8100000I-20000J0D01*
G01*
X14120000Y-14650000D02*
G75*
G03*
X14120000Y-14650000I-20000J0D01*
G01*
X14120000Y-14800000D02*
G75*
G03*
X14120000Y-14800000I-20000J0D01*
G01*
X14160000Y-13370000D02*
G75*
G03*
X14160000Y-13370000I-20000J0D01*
G01*
X14167800Y-13639800D02*
G75*
G03*
X14167800Y-13639800I-20000J0D01*
G01*
X14170000Y-14350000D02*
G75*
G03*
X14170000Y-14350000I-20000J0D01*
G01*
X14170000Y-14500000D02*
G75*
G03*
X14170000Y-14500000I-20000J0D01*
G01*
X14178000Y-9505000D02*
G75*
G03*
X14178000Y-9505000I-20000J0D01*
G01*
X14190000Y-10390000D02*
G75*
G03*
X14190000Y-10390000I-20000J0D01*
G01*
X14220000Y-10850000D02*
G75*
G03*
X14220000Y-10850000I-20000J0D01*
G01*
X14245000Y-11100000D02*
G75*
G03*
X14245000Y-11100000I-20000J0D01*
G01*
X14260000Y-11600000D02*
G75*
G03*
X14260000Y-11600000I-20000J0D01*
G01*
X14270000Y-11300000D02*
G75*
G03*
X14270000Y-11300000I-20000J0D01*
G01*
X14270000Y-14650000D02*
G75*
G03*
X14270000Y-14650000I-20000J0D01*
G01*
X14270000Y-14800000D02*
G75*
G03*
X14270000Y-14800000I-20000J0D01*
G01*
X14295000Y-15625000D02*
G75*
G03*
X14295000Y-15625000I-20000J0D01*
G01*
X14295000Y-15825000D02*
G75*
G03*
X14295000Y-15825000I-20000J0D01*
G01*
X14300000Y-12760000D02*
G75*
G03*
X14300000Y-12760000I-20000J0D01*
G01*
X14320000Y-14350000D02*
G75*
G03*
X14320000Y-14350000I-20000J0D01*
G01*
X14320000Y-14500000D02*
G75*
G03*
X14320000Y-14500000I-20000J0D01*
G01*
X14370000Y-12270000D02*
G75*
G03*
X14370000Y-12270000I-20000J0D01*
G01*
X14395000Y-11475000D02*
G75*
G03*
X14395000Y-11475000I-20000J0D01*
G01*
X14420000Y-9620000D02*
G75*
G03*
X14420000Y-9620000I-20000J0D01*
G01*
X14420000Y-13620000D02*
G75*
G03*
X14420000Y-13620000I-20000J0D01*
G01*
X14420000Y-14600000D02*
G75*
G03*
X14420000Y-14600000I-20000J0D01*
G01*
X14445000Y-13800000D02*
G75*
G03*
X14445000Y-13800000I-20000J0D01*
G01*
X14445000Y-14750000D02*
G75*
G03*
X14445000Y-14750000I-20000J0D01*
G01*
X14445000Y-14875000D02*
G75*
G03*
X14445000Y-14875000I-20000J0D01*
G01*
X14460000Y-13220000D02*
G75*
G03*
X14460000Y-13220000I-20000J0D01*
G01*
X14480000Y-10915000D02*
G75*
G03*
X14480000Y-10915000I-20000J0D01*
G01*
X14500000Y-12090000D02*
G75*
G03*
X14500000Y-12090000I-20000J0D01*
G01*
X14520000Y-9420000D02*
G75*
G03*
X14520000Y-9420000I-20000J0D01*
G01*
X14520000Y-15175000D02*
G75*
G03*
X14520000Y-15175000I-20000J0D01*
G01*
X14520000Y-15375000D02*
G75*
G03*
X14520000Y-15375000I-20000J0D01*
G01*
X14545000Y-11250000D02*
G75*
G03*
X14545000Y-11250000I-20000J0D01*
G01*
X14560000Y-12670000D02*
G75*
G03*
X14560000Y-12670000I-20000J0D01*
G01*
X14570000Y-12240000D02*
G75*
G03*
X14570000Y-12240000I-20000J0D01*
G01*
X14570000Y-14775000D02*
G75*
G03*
X14570000Y-14775000I-20000J0D01*
G01*
X14620000Y-11100000D02*
G75*
G03*
X14620000Y-11100000I-20000J0D01*
G01*
X14620000Y-13350000D02*
G75*
G03*
X14620000Y-13350000I-20000J0D01*
G01*
X14632500Y-13175000D02*
G75*
G03*
X14632500Y-13175000I-20000J0D01*
G01*
X14645000Y-14875000D02*
G75*
G03*
X14645000Y-14875000I-20000J0D01*
G01*
X14660000Y-9640000D02*
G75*
G03*
X14660000Y-9640000I-20000J0D01*
G01*
X14660000Y-11890000D02*
G75*
G03*
X14660000Y-11890000I-20000J0D01*
G01*
X14701200Y-13474700D02*
G75*
G03*
X14701200Y-13474700I-20000J0D01*
G01*
X14720000Y-14750000D02*
G75*
G03*
X14720000Y-14750000I-20000J0D01*
G01*
X14745000Y-13700000D02*
G75*
G03*
X14745000Y-13700000I-20000J0D01*
G01*
X14770000Y-11300000D02*
G75*
G03*
X14770000Y-11300000I-20000J0D01*
G01*
X14770000Y-15650000D02*
G75*
G03*
X14770000Y-15650000I-20000J0D01*
G01*
X14770000Y-15900000D02*
G75*
G03*
X14770000Y-15900000I-20000J0D01*
G01*
X14790000Y-12010000D02*
G75*
G03*
X14790000Y-12010000I-20000J0D01*
G01*
X14790000Y-12860000D02*
G75*
G03*
X14790000Y-12860000I-20000J0D01*
G01*
X14795000Y-12250000D02*
G75*
G03*
X14795000Y-12250000I-20000J0D01*
G01*
X14860000Y-10480000D02*
G75*
G03*
X14860000Y-10480000I-20000J0D01*
G01*
X14895000Y-13100000D02*
G75*
G03*
X14895000Y-13100000I-20000J0D01*
G01*
X14895000Y-15125000D02*
G75*
G03*
X14895000Y-15125000I-20000J0D01*
G01*
X14900000Y-12520000D02*
G75*
G03*
X14900000Y-12520000I-20000J0D01*
G01*
X14900000Y-14740000D02*
G75*
G03*
X14900000Y-14740000I-20000J0D01*
G01*
X14940000Y-9420000D02*
G75*
G03*
X14940000Y-9420000I-20000J0D01*
G01*
X14942500Y-14122400D02*
G75*
G03*
X14942500Y-14122400I-20000J0D01*
G01*
X14945000Y-8150000D02*
G75*
G03*
X14945000Y-8150000I-20000J0D01*
G01*
X14970000Y-13750000D02*
G75*
G03*
X14970000Y-13750000I-20000J0D01*
G01*
X14981270Y-11063730D02*
G75*
G03*
X14981270Y-11063730I-20000J0D01*
G01*
X14995000Y-8850000D02*
G75*
G03*
X14995000Y-8850000I-20000J0D01*
G01*
X15020000Y-15650000D02*
G75*
G03*
X15020000Y-15650000I-20000J0D01*
G01*
X15070000Y-13900000D02*
G75*
G03*
X15070000Y-13900000I-20000J0D01*
G01*
X15095000Y-8525000D02*
G75*
G03*
X15095000Y-8525000I-20000J0D01*
G01*
X15095000Y-9025000D02*
G75*
G03*
X15095000Y-9025000I-20000J0D01*
G01*
X15095000Y-10650000D02*
G75*
G03*
X15095000Y-10650000I-20000J0D01*
G01*
X15120000Y-12600000D02*
G75*
G03*
X15120000Y-12600000I-20000J0D01*
G01*
X15121230Y-15026230D02*
G75*
G03*
X15121230Y-15026230I-20000J0D01*
G01*
X15145000Y-15850000D02*
G75*
G03*
X15145000Y-15850000I-20000J0D01*
G01*
X15177480Y-15469980D02*
G75*
G03*
X15177480Y-15469980I-20000J0D01*
G01*
X15180000Y-14760000D02*
G75*
G03*
X15180000Y-14760000I-20000J0D01*
G01*
X15220000Y-13125000D02*
G75*
G03*
X15220000Y-13125000I-20000J0D01*
G01*
X15220000Y-14117500D02*
G75*
G03*
X15220000Y-14117500I-20000J0D01*
G01*
X15250000Y-11340000D02*
G75*
G03*
X15250000Y-11340000I-20000J0D01*
G01*
X15300000Y-9420000D02*
G75*
G03*
X15300000Y-9420000I-20000J0D01*
G01*
X15320000Y-11797450D02*
G75*
G03*
X15320000Y-11797450I-20000J0D01*
G01*
X15320000Y-12620000D02*
G75*
G03*
X15320000Y-12620000I-20000J0D01*
G01*
X15320000Y-15150000D02*
G75*
G03*
X15320000Y-15150000I-20000J0D01*
G01*
X15340000Y-13390000D02*
G75*
G03*
X15340000Y-13390000I-20000J0D01*
G01*
X15350000Y-13660000D02*
G75*
G03*
X15350000Y-13660000I-20000J0D01*
G01*
X15395000Y-8850000D02*
G75*
G03*
X15395000Y-8850000I-20000J0D01*
G01*
X15420000Y-9025000D02*
G75*
G03*
X15420000Y-9025000I-20000J0D01*
G01*
X15420000Y-13160000D02*
G75*
G03*
X15420000Y-13160000I-20000J0D01*
G01*
X15460000Y-14120000D02*
G75*
G03*
X15460000Y-14120000I-20000J0D01*
G01*
X15480000Y-12660000D02*
G75*
G03*
X15480000Y-12660000I-20000J0D01*
G01*
X15545000Y-11025000D02*
G75*
G03*
X15545000Y-11025000I-20000J0D01*
G01*
X15545000Y-12400000D02*
G75*
G03*
X15545000Y-12400000I-20000J0D01*
G01*
X15561000Y-10384000D02*
G75*
G03*
X15561000Y-10384000I-20000J0D01*
G01*
X15570000Y-13025000D02*
G75*
G03*
X15570000Y-13025000I-20000J0D01*
G01*
X15570000Y-13350000D02*
G75*
G03*
X15570000Y-13350000I-20000J0D01*
G01*
X15570000Y-13975000D02*
G75*
G03*
X15570000Y-13975000I-20000J0D01*
G01*
X15580000Y-13780000D02*
G75*
G03*
X15580000Y-13780000I-20000J0D01*
G01*
X15600000Y-13590000D02*
G75*
G03*
X15600000Y-13590000I-20000J0D01*
G01*
X15670000Y-15150000D02*
G75*
G03*
X15670000Y-15150000I-20000J0D01*
G01*
X15685000Y-11153750D02*
G75*
G03*
X15685000Y-11153750I-20000J0D01*
G01*
X15695000Y-8100000D02*
G75*
G03*
X15695000Y-8100000I-20000J0D01*
G01*
X15695000Y-8400000D02*
G75*
G03*
X15695000Y-8400000I-20000J0D01*
G01*
X15695000Y-9050000D02*
G75*
G03*
X15695000Y-9050000I-20000J0D01*
G01*
X15695000Y-10550000D02*
G75*
G03*
X15695000Y-10550000I-20000J0D01*
G01*
X15695000Y-13000000D02*
G75*
G03*
X15695000Y-13000000I-20000J0D01*
G01*
X15700000Y-12580000D02*
G75*
G03*
X15700000Y-12580000I-20000J0D01*
G01*
X15700000Y-14860000D02*
G75*
G03*
X15700000Y-14860000I-20000J0D01*
G01*
X15770000Y-10250000D02*
G75*
G03*
X15770000Y-10250000I-20000J0D01*
G01*
X15770000Y-12270000D02*
G75*
G03*
X15770000Y-12270000I-20000J0D01*
G01*
X15770000Y-13550000D02*
G75*
G03*
X15770000Y-13550000I-20000J0D01*
G01*
X15811230Y-15461230D02*
G75*
G03*
X15811230Y-15461230I-20000J0D01*
G01*
X15818000Y-10836000D02*
G75*
G03*
X15818000Y-10836000I-20000J0D01*
G01*
X15820000Y-8875000D02*
G75*
G03*
X15820000Y-8875000I-20000J0D01*
G01*
X15820000Y-12580000D02*
G75*
G03*
X15820000Y-12580000I-20000J0D01*
G01*
X15845000Y-13000000D02*
G75*
G03*
X15845000Y-13000000I-20000J0D01*
G01*
X15845000Y-13925000D02*
G75*
G03*
X15845000Y-13925000I-20000J0D01*
G01*
X15856900Y-14935200D02*
G75*
G03*
X15856900Y-14935200I-20000J0D01*
G01*
X15900000Y-9460000D02*
G75*
G03*
X15900000Y-9460000I-20000J0D01*
G01*
X15940000Y-11900000D02*
G75*
G03*
X15940000Y-11900000I-20000J0D01*
G01*
X15951000Y-10697450D02*
G75*
G03*
X15951000Y-10697450I-20000J0D01*
G01*
X15952500Y-15855000D02*
G75*
G03*
X15952500Y-15855000I-20000J0D01*
G01*
X15955000Y-11153750D02*
G75*
G03*
X15955000Y-11153750I-20000J0D01*
G01*
X15980000Y-13570000D02*
G75*
G03*
X15980000Y-13570000I-20000J0D01*
G01*
X15990000Y-13740000D02*
G75*
G03*
X15990000Y-13740000I-20000J0D01*
G01*
X16006972Y-10964669D02*
G75*
G03*
X16006972Y-10964669I-20000J0D01*
G01*
X16140000Y-9460000D02*
G75*
G03*
X16140000Y-9460000I-20000J0D01*
G01*
X16140000Y-14360000D02*
G75*
G03*
X16140000Y-14360000I-20000J0D01*
G01*
X16160000Y-14780000D02*
G75*
G03*
X16160000Y-14780000I-20000J0D01*
G01*
X16195000Y-8750000D02*
G75*
G03*
X16195000Y-8750000I-20000J0D01*
G01*
X16199800Y-11003280D02*
G75*
G03*
X16199800Y-11003280I-20000J0D01*
G01*
X16199800Y-11196320D02*
G75*
G03*
X16199800Y-11196320I-20000J0D01*
G01*
X16218730Y-15353730D02*
G75*
G03*
X16218730Y-15353730I-20000J0D01*
G01*
X16220000Y-8175000D02*
G75*
G03*
X16220000Y-8175000I-20000J0D01*
G01*
X16220000Y-15659100D02*
G75*
G03*
X16220000Y-15659100I-20000J0D01*
G01*
X16230000Y-13750000D02*
G75*
G03*
X16230000Y-13750000I-20000J0D01*
G01*
X16320000Y-8950000D02*
G75*
G03*
X16320000Y-8950000I-20000J0D01*
G01*
X16320000Y-10368280D02*
G75*
G03*
X16320000Y-10368280I-20000J0D01*
G01*
X16320000Y-12060000D02*
G75*
G03*
X16320000Y-12060000I-20000J0D01*
G01*
X16320000Y-14399230D02*
G75*
G03*
X16320000Y-14399230I-20000J0D01*
G01*
X16330000Y-10228000D02*
G75*
G03*
X16330000Y-10228000I-20000J0D01*
G01*
X16345000Y-8450000D02*
G75*
G03*
X16345000Y-8450000I-20000J0D01*
G01*
X16352500Y-15855000D02*
G75*
G03*
X16352500Y-15855000I-20000J0D01*
G01*
X16361000Y-10508000D02*
G75*
G03*
X16361000Y-10508000I-20000J0D01*
G01*
X16400000Y-13930000D02*
G75*
G03*
X16400000Y-13930000I-20000J0D01*
G01*
X16410000Y-14210000D02*
G75*
G03*
X16410000Y-14210000I-20000J0D01*
G01*
X16416950Y-9772450D02*
G75*
G03*
X16416950Y-9772450I-20000J0D01*
G01*
X16428400Y-15227300D02*
G75*
G03*
X16428400Y-15227300I-20000J0D01*
G01*
X16430000Y-13330000D02*
G75*
G03*
X16430000Y-13330000I-20000J0D01*
G01*
X16445000Y-8950000D02*
G75*
G03*
X16445000Y-8950000I-20000J0D01*
G01*
X16480000Y-12060000D02*
G75*
G03*
X16480000Y-12060000I-20000J0D01*
G01*
X16554000Y-9952000D02*
G75*
G03*
X16554000Y-9952000I-20000J0D01*
G01*
X16620000Y-12060000D02*
G75*
G03*
X16620000Y-12060000I-20000J0D01*
G01*
X16620000Y-13280000D02*
G75*
G03*
X16620000Y-13280000I-20000J0D01*
G01*
X16640000Y-12240000D02*
G75*
G03*
X16640000Y-12240000I-20000J0D01*
G01*
X16640000Y-12360000D02*
G75*
G03*
X16640000Y-12360000I-20000J0D01*
G01*
X16640000Y-12480000D02*
G75*
G03*
X16640000Y-12480000I-20000J0D01*
G01*
X16652500Y-15855000D02*
G75*
G03*
X16652500Y-15855000I-20000J0D01*
G01*
X16679000Y-10079000D02*
G75*
G03*
X16679000Y-10079000I-20000J0D01*
G01*
X16680000Y-10600000D02*
G75*
G03*
X16680000Y-10600000I-20000J0D01*
G01*
X16710000Y-13510000D02*
G75*
G03*
X16710000Y-13510000I-20000J0D01*
G01*
X16716559Y-11652550D02*
G75*
G03*
X16716559Y-11652550I-20000J0D01*
G01*
X16740000Y-12080000D02*
G75*
G03*
X16740000Y-12080000I-20000J0D01*
G01*
X16809400Y-13246100D02*
G75*
G03*
X16809400Y-13246100I-20000J0D01*
G01*
X16825000Y-11790000D02*
G75*
G03*
X16825000Y-11790000I-20000J0D01*
G01*
X16840000Y-12180000D02*
G75*
G03*
X16840000Y-12180000I-20000J0D01*
G01*
X16840000Y-12320000D02*
G75*
G03*
X16840000Y-12320000I-20000J0D01*
G01*
X16845000Y-15625000D02*
G75*
G03*
X16845000Y-15625000I-20000J0D01*
G01*
X16848768Y-15248692D02*
G75*
G03*
X16848768Y-15248692I-20000J0D01*
G01*
X16862000Y-10040000D02*
G75*
G03*
X16862000Y-10040000I-20000J0D01*
G01*
X16878600Y-9132200D02*
G75*
G03*
X16878600Y-9132200I-20000J0D01*
G01*
X16890000Y-9840000D02*
G75*
G03*
X16890000Y-9840000I-20000J0D01*
G01*
X16895000Y-11550000D02*
G75*
G03*
X16895000Y-11550000I-20000J0D01*
G01*
X16896000Y-10207000D02*
G75*
G03*
X16896000Y-10207000I-20000J0D01*
G01*
X16900000Y-12460000D02*
G75*
G03*
X16900000Y-12460000I-20000J0D01*
G01*
X16906000Y-10351000D02*
G75*
G03*
X16906000Y-10351000I-20000J0D01*
G01*
X16920000Y-12650000D02*
G75*
G03*
X16920000Y-12650000I-20000J0D01*
G01*
X16960000Y-12220000D02*
G75*
G03*
X16960000Y-12220000I-20000J0D01*
G01*
X17048160Y-10911840D02*
G75*
G03*
X17048160Y-10911840I-20000J0D01*
G01*
X17082500Y-15850000D02*
G75*
G03*
X17082500Y-15850000I-20000J0D01*
G01*
X17160000Y-10440000D02*
G75*
G03*
X17160000Y-10440000I-20000J0D01*
G01*
X17168000Y-8835200D02*
G75*
G03*
X17168000Y-8835200I-20000J0D01*
G01*
X17170000Y-10260000D02*
G75*
G03*
X17170000Y-10260000I-20000J0D01*
G01*
X17193400Y-8987600D02*
G75*
G03*
X17193400Y-8987600I-20000J0D01*
G01*
X17195000Y-12750000D02*
G75*
G03*
X17195000Y-12750000I-20000J0D01*
G01*
X17218800Y-9140000D02*
G75*
G03*
X17218800Y-9140000I-20000J0D01*
G01*
X17220000Y-14500000D02*
G75*
G03*
X17220000Y-14500000I-20000J0D01*
G01*
X17244200Y-9292400D02*
G75*
G03*
X17244200Y-9292400I-20000J0D01*
G01*
X17260000Y-9440000D02*
G75*
G03*
X17260000Y-9440000I-20000J0D01*
G01*
X17260000Y-9580000D02*
G75*
G03*
X17260000Y-9580000I-20000J0D01*
G01*
X17260000Y-9720000D02*
G75*
G03*
X17260000Y-9720000I-20000J0D01*
G01*
X17275000Y-13075000D02*
G75*
G03*
X17275000Y-13075000I-20000J0D01*
G01*
X17340000Y-15840000D02*
G75*
G03*
X17340000Y-15840000I-20000J0D01*
G01*
X17345000Y-13650000D02*
G75*
G03*
X17345000Y-13650000I-20000J0D01*
G01*
X17360000Y-12840000D02*
G75*
G03*
X17360000Y-12840000I-20000J0D01*
G01*
X17393600Y-12065000D02*
G75*
G03*
X17393600Y-12065000I-20000J0D01*
G01*
X17396600Y-9292400D02*
G75*
G03*
X17396600Y-9292400I-20000J0D01*
G01*
X17400000Y-9440000D02*
G75*
G03*
X17400000Y-9440000I-20000J0D01*
G01*
X17400000Y-9580000D02*
G75*
G03*
X17400000Y-9580000I-20000J0D01*
G01*
X17400000Y-9720000D02*
G75*
G03*
X17400000Y-9720000I-20000J0D01*
G01*
X17400000Y-10890000D02*
G75*
G03*
X17400000Y-10890000I-20000J0D01*
G01*
X17400000Y-14060000D02*
G75*
G03*
X17400000Y-14060000I-20000J0D01*
G01*
X17430000Y-12250000D02*
G75*
G03*
X17430000Y-12250000I-20000J0D01*
G01*
X17440000Y-12430000D02*
G75*
G03*
X17440000Y-12430000I-20000J0D01*
G01*
X17447400Y-9140000D02*
G75*
G03*
X17447400Y-9140000I-20000J0D01*
G01*
X17460000Y-12940000D02*
G75*
G03*
X17460000Y-12940000I-20000J0D01*
G01*
X17460000Y-15700000D02*
G75*
G03*
X17460000Y-15700000I-20000J0D01*
G01*
X17498200Y-8987600D02*
G75*
G03*
X17498200Y-8987600I-20000J0D01*
G01*
X17500000Y-9952800D02*
G75*
G03*
X17500000Y-9952800I-20000J0D01*
G01*
X17540000Y-9440000D02*
G75*
G03*
X17540000Y-9440000I-20000J0D01*
G01*
X17540000Y-9580000D02*
G75*
G03*
X17540000Y-9580000I-20000J0D01*
G01*
X17540000Y-9720000D02*
G75*
G03*
X17540000Y-9720000I-20000J0D01*
G01*
X17549000Y-8835200D02*
G75*
G03*
X17549000Y-8835200I-20000J0D01*
G01*
X17549000Y-9292400D02*
G75*
G03*
X17549000Y-9292400I-20000J0D01*
G01*
X17570000Y-13725000D02*
G75*
G03*
X17570000Y-13725000I-20000J0D01*
G01*
X17613577Y-11779616D02*
G75*
G03*
X17613577Y-11779616I-20000J0D01*
G01*
X17620000Y-15850000D02*
G75*
G03*
X17620000Y-15850000I-20000J0D01*
G01*
X17647600Y-12890500D02*
G75*
G03*
X17647600Y-12890500I-20000J0D01*
G01*
X17670000Y-14350000D02*
G75*
G03*
X17670000Y-14350000I-20000J0D01*
G01*
X17676000Y-9140000D02*
G75*
G03*
X17676000Y-9140000I-20000J0D01*
G01*
X17680000Y-13160000D02*
G75*
G03*
X17680000Y-13160000I-20000J0D01*
G01*
X17695000Y-13975000D02*
G75*
G03*
X17695000Y-13975000I-20000J0D01*
G01*
X17726800Y-9292400D02*
G75*
G03*
X17726800Y-9292400I-20000J0D01*
G01*
X17726800Y-9444800D02*
G75*
G03*
X17726800Y-9444800I-20000J0D01*
G01*
X17726800Y-9622600D02*
G75*
G03*
X17726800Y-9622600I-20000J0D01*
G01*
X17740000Y-10180000D02*
G75*
G03*
X17740000Y-10180000I-20000J0D01*
G01*
X17770000Y-9800000D02*
G75*
G03*
X17770000Y-9800000I-20000J0D01*
G01*
X17803000Y-8987600D02*
G75*
G03*
X17803000Y-8987600I-20000J0D01*
G01*
X17803000Y-10841800D02*
G75*
G03*
X17803000Y-10841800I-20000J0D01*
G01*
X17870000Y-9950000D02*
G75*
G03*
X17870000Y-9950000I-20000J0D01*
G01*
X17920000Y-11950000D02*
G75*
G03*
X17920000Y-11950000I-20000J0D01*
G01*
X17920000Y-12075000D02*
G75*
G03*
X17920000Y-12075000I-20000J0D01*
G01*
X17920000Y-12200000D02*
G75*
G03*
X17920000Y-12200000I-20000J0D01*
G01*
X17920000Y-12325000D02*
G75*
G03*
X17920000Y-12325000I-20000J0D01*
G01*
X17920000Y-12450000D02*
G75*
G03*
X17920000Y-12450000I-20000J0D01*
G01*
X17920000Y-12575000D02*
G75*
G03*
X17920000Y-12575000I-20000J0D01*
G01*
X17930000Y-8835200D02*
G75*
G03*
X17930000Y-8835200I-20000J0D01*
G01*
X17939700Y-15786100D02*
G75*
G03*
X17939700Y-15786100I-20000J0D01*
G01*
X17960000Y-10780000D02*
G75*
G03*
X17960000Y-10780000I-20000J0D01*
G01*
X18000000Y-10420000D02*
G75*
G03*
X18000000Y-10420000I-20000J0D01*
G01*
X18020000Y-10050000D02*
G75*
G03*
X18020000Y-10050000I-20000J0D01*
G01*
X18070000Y-11950000D02*
G75*
G03*
X18070000Y-11950000I-20000J0D01*
G01*
X18070000Y-12075000D02*
G75*
G03*
X18070000Y-12075000I-20000J0D01*
G01*
X18070000Y-12200000D02*
G75*
G03*
X18070000Y-12200000I-20000J0D01*
G01*
X18070000Y-12325000D02*
G75*
G03*
X18070000Y-12325000I-20000J0D01*
G01*
X18070000Y-12450000D02*
G75*
G03*
X18070000Y-12450000I-20000J0D01*
G01*
X18070000Y-12575000D02*
G75*
G03*
X18070000Y-12575000I-20000J0D01*
G01*
X18120000Y-10950000D02*
G75*
G03*
X18120000Y-10950000I-20000J0D01*
G01*
X18120000Y-11100000D02*
G75*
G03*
X18120000Y-11100000I-20000J0D01*
G01*
X18120000Y-11250000D02*
G75*
G03*
X18120000Y-11250000I-20000J0D01*
G01*
X18120000Y-11400000D02*
G75*
G03*
X18120000Y-11400000I-20000J0D01*
G01*
X18120000Y-11550000D02*
G75*
G03*
X18120000Y-11550000I-20000J0D01*
G01*
X18170000Y-9950000D02*
G75*
G03*
X18170000Y-9950000I-20000J0D01*
G01*
X18195000Y-15800000D02*
G75*
G03*
X18195000Y-15800000I-20000J0D01*
G01*
X18260000Y-10580000D02*
G75*
G03*
X18260000Y-10580000I-20000J0D01*
G01*
X18270000Y-9800000D02*
G75*
G03*
X18270000Y-9800000I-20000J0D01*
G01*
X18270000Y-10100000D02*
G75*
G03*
X18270000Y-10100000I-20000J0D01*
G01*
X18270000Y-10350000D02*
G75*
G03*
X18270000Y-10350000I-20000J0D01*
G01*
X18320000Y-11650000D02*
G75*
G03*
X18320000Y-11650000I-20000J0D01*
G01*
X18370000Y-11850000D02*
G75*
G03*
X18370000Y-11850000I-20000J0D01*
G01*
X18370000Y-13400000D02*
G75*
G03*
X18370000Y-13400000I-20000J0D01*
G01*
X18420000Y-12400000D02*
G75*
G03*
X18420000Y-12400000I-20000J0D01*
G01*
X18420000Y-12600000D02*
G75*
G03*
X18420000Y-12600000I-20000J0D01*
G01*
X18420000Y-12800000D02*
G75*
G03*
X18420000Y-12800000I-20000J0D01*
G01*
X18420000Y-13050000D02*
G75*
G03*
X18420000Y-13050000I-20000J0D01*
G01*
X18473100Y-15773400D02*
G75*
G03*
X18473100Y-15773400I-20000J0D01*
G01*
X18520000Y-10720000D02*
G75*
G03*
X18520000Y-10720000I-20000J0D01*
G01*
X18570000Y-10600000D02*
G75*
G03*
X18570000Y-10600000I-20000J0D01*
G01*
X18570000Y-11850000D02*
G75*
G03*
X18570000Y-11850000I-20000J0D01*
G01*
X18570000Y-12050000D02*
G75*
G03*
X18570000Y-12050000I-20000J0D01*
G01*
X18570000Y-13425000D02*
G75*
G03*
X18570000Y-13425000I-20000J0D01*
G01*
X18620000Y-11700000D02*
G75*
G03*
X18620000Y-11700000I-20000J0D01*
G01*
X18620000Y-12400000D02*
G75*
G03*
X18620000Y-12400000I-20000J0D01*
G01*
X18620000Y-12600000D02*
G75*
G03*
X18620000Y-12600000I-20000J0D01*
G01*
X18620000Y-12800000D02*
G75*
G03*
X18620000Y-12800000I-20000J0D01*
G01*
X18620000Y-13050000D02*
G75*
G03*
X18620000Y-13050000I-20000J0D01*
G01*
X18670000Y-10850000D02*
G75*
G03*
X18670000Y-10850000I-20000J0D01*
G01*
X18670000Y-13250000D02*
G75*
G03*
X18670000Y-13250000I-20000J0D01*
G01*
X18720000Y-8850000D02*
G75*
G03*
X18720000Y-8850000I-20000J0D01*
G01*
X18720000Y-9350000D02*
G75*
G03*
X18720000Y-9350000I-20000J0D01*
G01*
X18720000Y-10050000D02*
G75*
G03*
X18720000Y-10050000I-20000J0D01*
G01*
X18745000Y-15800000D02*
G75*
G03*
X18745000Y-15800000I-20000J0D01*
G01*
X18820000Y-9550000D02*
G75*
G03*
X18820000Y-9550000I-20000J0D01*
G01*
X18820000Y-12400000D02*
G75*
G03*
X18820000Y-12400000I-20000J0D01*
G01*
X18820000Y-12600000D02*
G75*
G03*
X18820000Y-12600000I-20000J0D01*
G01*
X18820000Y-12800000D02*
G75*
G03*
X18820000Y-12800000I-20000J0D01*
G01*
X18870000Y-11050000D02*
G75*
G03*
X18870000Y-11050000I-20000J0D01*
G01*
X18870000Y-11450000D02*
G75*
G03*
X18870000Y-11450000I-20000J0D01*
G01*
X18870000Y-13050000D02*
G75*
G03*
X18870000Y-13050000I-20000J0D01*
G01*
X18920000Y-10200000D02*
G75*
G03*
X18920000Y-10200000I-20000J0D01*
G01*
X18920000Y-11300000D02*
G75*
G03*
X18920000Y-11300000I-20000J0D01*
G01*
X18920000Y-15425000D02*
G75*
G03*
X18920000Y-15425000I-20000J0D01*
G01*
X18940000Y-9680000D02*
G75*
G03*
X18940000Y-9680000I-20000J0D01*
G01*
X18945000Y-13425000D02*
G75*
G03*
X18945000Y-13425000I-20000J0D01*
G01*
X18970000Y-9100000D02*
G75*
G03*
X18970000Y-9100000I-20000J0D01*
G01*
X19020000Y-9350000D02*
G75*
G03*
X19020000Y-9350000I-20000J0D01*
G01*
X19020000Y-10450000D02*
G75*
G03*
X19020000Y-10450000I-20000J0D01*
G01*
X19020000Y-12400000D02*
G75*
G03*
X19020000Y-12400000I-20000J0D01*
G01*
X19020000Y-12600000D02*
G75*
G03*
X19020000Y-12600000I-20000J0D01*
G01*
X19020000Y-12800000D02*
G75*
G03*
X19020000Y-12800000I-20000J0D01*
G01*
X19070000Y-10050000D02*
G75*
G03*
X19070000Y-10050000I-20000J0D01*
G01*
X19070000Y-10250000D02*
G75*
G03*
X19070000Y-10250000I-20000J0D01*
G01*
X19070000Y-10700000D02*
G75*
G03*
X19070000Y-10700000I-20000J0D01*
G01*
X19070000Y-15150000D02*
G75*
G03*
X19070000Y-15150000I-20000J0D01*
G01*
X19095000Y-15750000D02*
G75*
G03*
X19095000Y-15750000I-20000J0D01*
G01*
X19120000Y-9850000D02*
G75*
G03*
X19120000Y-9850000I-20000J0D01*
G01*
X19220000Y-9700000D02*
G75*
G03*
X19220000Y-9700000I-20000J0D01*
G01*
X19220000Y-12400000D02*
G75*
G03*
X19220000Y-12400000I-20000J0D01*
G01*
X19220000Y-12600000D02*
G75*
G03*
X19220000Y-12600000I-20000J0D01*
G01*
X19220000Y-12800000D02*
G75*
G03*
X19220000Y-12800000I-20000J0D01*
G01*
X19220000Y-13400000D02*
G75*
G03*
X19220000Y-13400000I-20000J0D01*
G01*
X19280000Y-11060000D02*
G75*
G03*
X19280000Y-11060000I-20000J0D01*
G01*
X19390000Y-9790000D02*
G75*
G03*
X19390000Y-9790000I-20000J0D01*
G01*
X19420000Y-9950000D02*
G75*
G03*
X19420000Y-9950000I-20000J0D01*
G01*
X19525000Y-15875000D02*
G75*
G03*
X19525000Y-15875000I-20000J0D01*
G01*
X19545000Y-15200000D02*
G75*
G03*
X19545000Y-15200000I-20000J0D01*
G01*
X19570000Y-9700000D02*
G75*
G03*
X19570000Y-9700000I-20000J0D01*
G01*
X19570000Y-9950000D02*
G75*
G03*
X19570000Y-9950000I-20000J0D01*
G01*
X19570000Y-10150000D02*
G75*
G03*
X19570000Y-10150000I-20000J0D01*
G01*
X19610000Y-15560000D02*
G75*
G03*
X19610000Y-15560000I-20000J0D01*
G01*
X19645000Y-14700000D02*
G75*
G03*
X19645000Y-14700000I-20000J0D01*
G01*
X19720000Y-15075000D02*
G75*
G03*
X19720000Y-15075000I-20000J0D01*
G01*
X19745000Y-15250000D02*
G75*
G03*
X19745000Y-15250000I-20000J0D01*
G01*
X19770000Y-14075000D02*
G75*
G03*
X19770000Y-14075000I-20000J0D01*
G01*
X19770000Y-14700000D02*
G75*
G03*
X19770000Y-14700000I-20000J0D01*
G01*
X19770000Y-14925000D02*
G75*
G03*
X19770000Y-14925000I-20000J0D01*
G01*
X19820000Y-14525000D02*
G75*
G03*
X19820000Y-14525000I-20000J0D01*
G01*
X19820000Y-15810000D02*
G75*
G03*
X19820000Y-15810000I-20000J0D01*
G01*
X19830000Y-15415000D02*
G75*
G03*
X19830000Y-15415000I-20000J0D01*
G01*
X19870000Y-8900000D02*
G75*
G03*
X19870000Y-8900000I-20000J0D01*
G01*
X19870000Y-15625000D02*
G75*
G03*
X19870000Y-15625000I-20000J0D01*
G01*
X19920000Y-14075000D02*
G75*
G03*
X19920000Y-14075000I-20000J0D01*
G01*
X19920000Y-14700000D02*
G75*
G03*
X19920000Y-14700000I-20000J0D01*
G01*
X19920000Y-14925000D02*
G75*
G03*
X19920000Y-14925000I-20000J0D01*
G01*
X19920000Y-15075000D02*
G75*
G03*
X19920000Y-15075000I-20000J0D01*
G01*
X19920000Y-15250000D02*
G75*
G03*
X19920000Y-15250000I-20000J0D01*
G01*
X19945000Y-14250000D02*
G75*
G03*
X19945000Y-14250000I-20000J0D01*
G01*
X19945000Y-14425000D02*
G75*
G03*
X19945000Y-14425000I-20000J0D01*
G01*
D14*
X10780800Y-15647400D02*
X10780800Y-15697400D01*
X10755800Y-15672400D02*
X10805800Y-15672400D01*
D11*
X10755800Y-15642400D02*
X10755800Y-15702400D01*
X10755800Y-15702400D02*
G75*
G03*
X10805800Y-15702400I25000J0D01*
G01*
X10805800Y-15702400D02*
X10805800Y-15642400D01*
X10805800Y-15642400D02*
G75*
G03*
X10755800Y-15642400I-25000J0D01*
G01*
D14*
X10816800Y-15052400D02*
X10816800Y-15102400D01*
X10791800Y-15077400D02*
X10841800Y-15077400D01*
D11*
X10791800Y-15047400D02*
X10791800Y-15107400D01*
X10791800Y-15107400D02*
G75*
G03*
X10841800Y-15107400I25000J0D01*
G01*
X10841800Y-15107400D02*
X10841800Y-15047400D01*
X10841800Y-15047400D02*
G75*
G03*
X10791800Y-15047400I-25000J0D01*
G01*
D14*
X11642800Y-15052400D02*
X11642800Y-15102400D01*
X11617800Y-15077400D02*
X11667800Y-15077400D01*
D11*
X11617800Y-15047400D02*
X11617800Y-15107400D01*
X11617800Y-15107400D02*
G75*
G03*
X11667800Y-15107400I25000J0D01*
G01*
X11667800Y-15107400D02*
X11667800Y-15047400D01*
X11667800Y-15047400D02*
G75*
G03*
X11617800Y-15047400I-25000J0D01*
G01*
D14*
X11678800Y-15647400D02*
X11678800Y-15697400D01*
X11653800Y-15672400D02*
X11703800Y-15672400D01*
D11*
X11653800Y-15642400D02*
X11653800Y-15702400D01*
X11653800Y-15702400D02*
G75*
G03*
X11703800Y-15702400I25000J0D01*
G01*
X11703800Y-15702400D02*
X11703800Y-15642400D01*
X11703800Y-15642400D02*
G75*
G03*
X11653800Y-15642400I-25000J0D01*
G01*
D10*
X10407856Y-9218856D02*
X10407856Y-9148144D01*
X10337144Y-9148144D01*
X10337144Y-9218856D01*
X10407856Y-9218856D01*
X10407856Y-9472856D02*
X10407856Y-9402144D01*
X10337144Y-9402144D01*
X10337144Y-9472856D01*
X10407856Y-9472856D01*
X10407856Y-9726856D02*
X10407856Y-9656144D01*
X10337144Y-9656144D01*
X10337144Y-9726856D01*
X10407856Y-9726856D01*
X10407856Y-9980856D02*
X10407856Y-9910144D01*
X10337144Y-9910144D01*
X10337144Y-9980856D01*
X10407856Y-9980856D01*
X10407856Y-10234856D02*
X10407856Y-10164144D01*
X10337144Y-10164144D01*
X10337144Y-10234856D01*
X10407856Y-10234856D01*
X10407856Y-10488856D02*
X10407856Y-10418144D01*
X10337144Y-10418144D01*
X10337144Y-10488856D01*
X10407856Y-10488856D01*
X10407856Y-10742856D02*
X10407856Y-10672144D01*
X10337144Y-10672144D01*
X10337144Y-10742856D01*
X10407856Y-10742856D01*
X10407856Y-10996856D02*
X10407856Y-10926144D01*
X10337144Y-10926144D01*
X10337144Y-10996856D01*
X10407856Y-10996856D01*
X10435356Y-12327356D02*
X10435356Y-12256644D01*
X10364644Y-12256644D01*
X10364644Y-12327356D01*
X10435356Y-12327356D01*
X10435356Y-12581356D02*
X10435356Y-12510644D01*
X10364644Y-12510644D01*
X10364644Y-12581356D01*
X10435356Y-12581356D01*
X10435356Y-12835356D02*
X10435356Y-12764644D01*
X10364644Y-12764644D01*
X10364644Y-12835356D01*
X10435356Y-12835356D01*
X10435356Y-13089356D02*
X10435356Y-13018644D01*
X10364644Y-13018644D01*
X10364644Y-13089356D01*
X10435356Y-13089356D01*
X10435356Y-13343356D02*
X10435356Y-13272644D01*
X10364644Y-13272644D01*
X10364644Y-13343356D01*
X10435356Y-13343356D01*
X10661856Y-9218856D02*
X10661856Y-9148144D01*
X10591144Y-9148144D01*
X10591144Y-9218856D01*
X10661856Y-9218856D01*
X10661856Y-9472856D02*
X10661856Y-9402144D01*
X10591144Y-9402144D01*
X10591144Y-9472856D01*
X10661856Y-9472856D01*
X10661856Y-9726856D02*
X10661856Y-9656144D01*
X10591144Y-9656144D01*
X10591144Y-9726856D01*
X10661856Y-9726856D01*
X10661856Y-9980856D02*
X10661856Y-9910144D01*
X10591144Y-9910144D01*
X10591144Y-9980856D01*
X10661856Y-9980856D01*
X10661856Y-10234856D02*
X10661856Y-10164144D01*
X10591144Y-10164144D01*
X10591144Y-10234856D01*
X10661856Y-10234856D01*
X10661856Y-10488856D02*
X10661856Y-10418144D01*
X10591144Y-10418144D01*
X10591144Y-10488856D01*
X10661856Y-10488856D01*
X10661856Y-10742856D02*
X10661856Y-10672144D01*
X10591144Y-10672144D01*
X10591144Y-10742856D01*
X10661856Y-10742856D01*
X10661856Y-10996856D02*
X10661856Y-10926144D01*
X10591144Y-10926144D01*
X10591144Y-10996856D01*
X10661856Y-10996856D01*
X10689356Y-12327356D02*
X10689356Y-12256644D01*
X10618644Y-12256644D01*
X10618644Y-12327356D01*
X10689356Y-12327356D01*
X10689356Y-12581356D02*
X10689356Y-12510644D01*
X10618644Y-12510644D01*
X10618644Y-12581356D01*
X10689356Y-12581356D01*
X10689356Y-12835356D02*
X10689356Y-12764644D01*
X10618644Y-12764644D01*
X10618644Y-12835356D01*
X10689356Y-12835356D01*
X10689356Y-13089356D02*
X10689356Y-13018644D01*
X10618644Y-13018644D01*
X10618644Y-13089356D01*
X10689356Y-13089356D01*
X10689356Y-13343356D02*
X10689356Y-13272644D01*
X10618644Y-13272644D01*
X10618644Y-13343356D01*
X10689356Y-13343356D01*
X11560356Y-11210356D02*
X11560356Y-11139644D01*
X11489644Y-11139644D01*
X11489644Y-11210356D01*
X11560356Y-11210356D01*
X11560356Y-11464356D02*
X11560356Y-11393644D01*
X11489644Y-11393644D01*
X11489644Y-11464356D01*
X11560356Y-11464356D01*
X11814356Y-11210356D02*
X11814356Y-11139644D01*
X11743644Y-11139644D01*
X11743644Y-11210356D01*
X11814356Y-11210356D01*
X11814356Y-11464356D02*
X11814356Y-11393644D01*
X11743644Y-11393644D01*
X11743644Y-11464356D01*
X11814356Y-11464356D01*
X13869356Y-9853856D02*
X13869356Y-9783144D01*
X13798644Y-9783144D01*
X13798644Y-9853856D01*
X13869356Y-9853856D01*
X13869356Y-10107856D02*
X13869356Y-10037144D01*
X13798644Y-10037144D01*
X13798644Y-10107856D01*
X13869356Y-10107856D01*
X14123356Y-9853856D02*
X14123356Y-9783144D01*
X14052644Y-9783144D01*
X14052644Y-9853856D01*
X14123356Y-9853856D01*
X14123356Y-10107856D02*
X14123356Y-10037144D01*
X14052644Y-10037144D01*
X14052644Y-10107856D01*
X14123356Y-10107856D01*
X14377356Y-9853856D02*
X14377356Y-9783144D01*
X14306644Y-9783144D01*
X14306644Y-9853856D01*
X14377356Y-9853856D01*
X14377356Y-10107856D02*
X14377356Y-10037144D01*
X14306644Y-10037144D01*
X14306644Y-10107856D01*
X14377356Y-10107856D01*
X14631356Y-9853856D02*
X14631356Y-9783144D01*
X14560644Y-9783144D01*
X14560644Y-9853856D01*
X14631356Y-9853856D01*
X14631356Y-10107856D02*
X14631356Y-10037144D01*
X14560644Y-10037144D01*
X14560644Y-10107856D01*
X14631356Y-10107856D01*
X14885356Y-9853856D02*
X14885356Y-9783144D01*
X14814644Y-9783144D01*
X14814644Y-9853856D01*
X14885356Y-9853856D01*
X14885356Y-10107856D02*
X14885356Y-10037144D01*
X14814644Y-10037144D01*
X14814644Y-10107856D01*
X14885356Y-10107856D01*
X15056356Y-12416356D02*
X15056356Y-12345644D01*
X14985644Y-12345644D01*
X14985644Y-12416356D01*
X15056356Y-12416356D01*
X15057856Y-12035356D02*
X15057856Y-11964644D01*
X14987144Y-11964644D01*
X14987144Y-12035356D01*
X15057856Y-12035356D01*
X15139356Y-9853856D02*
X15139356Y-9783144D01*
X15068644Y-9783144D01*
X15068644Y-9853856D01*
X15139356Y-9853856D01*
X15139356Y-10107856D02*
X15139356Y-10037144D01*
X15068644Y-10037144D01*
X15068644Y-10107856D01*
X15139356Y-10107856D01*
X15310356Y-12416356D02*
X15310356Y-12345644D01*
X15239644Y-12345644D01*
X15239644Y-12416356D01*
X15310356Y-12416356D01*
X15311856Y-12035356D02*
X15311856Y-11964644D01*
X15241144Y-11964644D01*
X15241144Y-12035356D01*
X15311856Y-12035356D01*
X15393356Y-9853856D02*
X15393356Y-9783144D01*
X15322644Y-9783144D01*
X15322644Y-9853856D01*
X15393356Y-9853856D01*
X15393356Y-10107856D02*
X15393356Y-10037144D01*
X15322644Y-10037144D01*
X15322644Y-10107856D01*
X15393356Y-10107856D01*
X15565856Y-12035356D02*
X15565856Y-11964644D01*
X15495144Y-11964644D01*
X15495144Y-12035356D01*
X15565856Y-12035356D01*
X15647356Y-9853856D02*
X15647356Y-9783144D01*
X15576644Y-9783144D01*
X15576644Y-9853856D01*
X15647356Y-9853856D01*
X15647356Y-10107856D02*
X15647356Y-10037144D01*
X15576644Y-10037144D01*
X15576644Y-10107856D01*
X15647356Y-10107856D01*
X16525356Y-11197856D02*
X16525356Y-11127144D01*
X16454644Y-11127144D01*
X16454644Y-11197856D01*
X16525356Y-11197856D01*
X16525356Y-11451856D02*
X16525356Y-11381144D01*
X16454644Y-11381144D01*
X16454644Y-11451856D01*
X16525356Y-11451856D01*
X16779356Y-11197856D02*
X16779356Y-11127144D01*
X16708644Y-11127144D01*
X16708644Y-11197856D01*
X16779356Y-11197856D01*
X16779356Y-11451856D02*
X16779356Y-11381144D01*
X16708644Y-11381144D01*
X16708644Y-11451856D01*
X16779356Y-11451856D01*
X17033356Y-11197856D02*
X17033356Y-11127144D01*
X16962644Y-11127144D01*
X16962644Y-11197856D01*
X17033356Y-11197856D01*
X17033356Y-11451856D02*
X17033356Y-11381144D01*
X16962644Y-11381144D01*
X16962644Y-11451856D01*
X17033356Y-11451856D01*
X17287356Y-11197856D02*
X17287356Y-11127144D01*
X17216644Y-11127144D01*
X17216644Y-11197856D01*
X17287356Y-11197856D01*
X17287356Y-11451856D02*
X17287356Y-11381144D01*
X17216644Y-11381144D01*
X17216644Y-11451856D01*
X17287356Y-11451856D01*
X17541356Y-11197856D02*
X17541356Y-11127144D01*
X17470644Y-11127144D01*
X17470644Y-11197856D01*
X17541356Y-11197856D01*
X17541356Y-11451856D02*
X17541356Y-11381144D01*
X17470644Y-11381144D01*
X17470644Y-11451856D01*
X17541356Y-11451856D01*
X17795356Y-11197856D02*
X17795356Y-11127144D01*
X17724644Y-11127144D01*
X17724644Y-11197856D01*
X17795356Y-11197856D01*
X17795356Y-11451856D02*
X17795356Y-11381144D01*
X17724644Y-11381144D01*
X17724644Y-11451856D01*
X17795356Y-11451856D01*
X18375356Y-11181356D02*
X18375356Y-11110644D01*
X18304644Y-11110644D01*
X18304644Y-11181356D01*
X18375356Y-11181356D01*
X18375356Y-11435356D02*
X18375356Y-11364644D01*
X18304644Y-11364644D01*
X18304644Y-11435356D01*
X18375356Y-11435356D01*
X18629356Y-11181356D02*
X18629356Y-11110644D01*
X18558644Y-11110644D01*
X18558644Y-11181356D01*
X18629356Y-11181356D01*
X18629356Y-11435356D02*
X18629356Y-11364644D01*
X18558644Y-11364644D01*
X18558644Y-11435356D01*
X18629356Y-11435356D01*
X19281356Y-9027356D02*
X19281356Y-8956644D01*
X19210644Y-8956644D01*
X19210644Y-9027356D01*
X19281356Y-9027356D01*
X19281356Y-9281356D02*
X19281356Y-9210644D01*
X19210644Y-9210644D01*
X19210644Y-9281356D01*
X19281356Y-9281356D01*
X19281356Y-9535356D02*
X19281356Y-9464644D01*
X19210644Y-9464644D01*
X19210644Y-9535356D01*
X19281356Y-9535356D01*
X19281356Y-10377356D02*
X19281356Y-10306644D01*
X19210644Y-10306644D01*
X19210644Y-10377356D01*
X19281356Y-10377356D01*
X19281356Y-10631356D02*
X19281356Y-10560644D01*
X19210644Y-10560644D01*
X19210644Y-10631356D01*
X19281356Y-10631356D01*
X19281356Y-10885356D02*
X19281356Y-10814644D01*
X19210644Y-10814644D01*
X19210644Y-10885356D01*
X19281356Y-10885356D01*
X19535356Y-9027356D02*
X19535356Y-8956644D01*
X19464644Y-8956644D01*
X19464644Y-9027356D01*
X19535356Y-9027356D01*
X19535356Y-9281356D02*
X19535356Y-9210644D01*
X19464644Y-9210644D01*
X19464644Y-9281356D01*
X19535356Y-9281356D01*
X19535356Y-9535356D02*
X19535356Y-9464644D01*
X19464644Y-9464644D01*
X19464644Y-9535356D01*
X19535356Y-9535356D01*
X19535356Y-10377356D02*
X19535356Y-10306644D01*
X19464644Y-10306644D01*
X19464644Y-10377356D01*
X19535356Y-10377356D01*
X19535356Y-10631356D02*
X19535356Y-10560644D01*
X19464644Y-10560644D01*
X19464644Y-10631356D01*
X19535356Y-10631356D01*
X19535356Y-10885356D02*
X19535356Y-10814644D01*
X19464644Y-10814644D01*
X19464644Y-10885356D01*
X19535356Y-10885356D01*
D15*
X16520000Y-14781000D02*
X16571000Y-14730000D01*
X16520000Y-14679000D01*
X16469000Y-14730000D01*
X16520000Y-14781000D01*
X16520000Y-15081000D02*
X16571000Y-15030000D01*
X16520000Y-14979000D01*
X16469000Y-15030000D01*
X16520000Y-15081000D01*
X18200000Y-14781000D02*
X18251000Y-14730000D01*
X18200000Y-14679000D01*
X18149000Y-14730000D01*
X18200000Y-14781000D01*
X18200000Y-15081000D02*
X18251000Y-15030000D01*
X18200000Y-14979000D01*
X18149000Y-15030000D01*
X18200000Y-15081000D01*
X18500000Y-14781000D02*
X18551000Y-14730000D01*
X18500000Y-14679000D01*
X18449000Y-14730000D01*
X18500000Y-14781000D01*
X18500000Y-15081000D02*
X18551000Y-15030000D01*
X18500000Y-14979000D01*
X18449000Y-15030000D01*
X18500000Y-15081000D01*
X19325000Y-14781000D02*
X19376000Y-14730000D01*
X19325000Y-14679000D01*
X19274000Y-14730000D01*
X19325000Y-14781000D01*
X19325000Y-15081000D02*
X19376000Y-15030000D01*
X19325000Y-14979000D01*
X19274000Y-15030000D01*
X19325000Y-15081000D01*
D11*
X10242619Y-16317524D02*
X10242619Y-16117524D01*
X10242619Y-16117524D02*
X10290238Y-16117524D01*
X10290238Y-16117524D02*
X10318810Y-16127048D01*
X10318810Y-16127048D02*
X10337857Y-16146095D01*
X10337857Y-16146095D02*
X10347381Y-16165143D01*
X10347381Y-16165143D02*
X10356905Y-16203238D01*
X10356905Y-16203238D02*
X10356905Y-16231809D01*
X10356905Y-16231809D02*
X10347381Y-16269905D01*
X10347381Y-16269905D02*
X10337857Y-16288952D01*
X10337857Y-16288952D02*
X10318810Y-16308000D01*
X10318810Y-16308000D02*
X10290238Y-16317524D01*
X10290238Y-16317524D02*
X10242619Y-16317524D01*
X10442619Y-16317524D02*
X10442619Y-16184190D01*
X10442619Y-16222286D02*
X10452143Y-16203238D01*
X10452143Y-16203238D02*
X10461667Y-16193714D01*
X10461667Y-16193714D02*
X10480714Y-16184190D01*
X10480714Y-16184190D02*
X10499762Y-16184190D01*
X10566429Y-16317524D02*
X10566429Y-16184190D01*
X10566429Y-16117524D02*
X10556905Y-16127048D01*
X10556905Y-16127048D02*
X10566429Y-16136571D01*
X10566429Y-16136571D02*
X10575952Y-16127048D01*
X10575952Y-16127048D02*
X10566429Y-16117524D01*
X10566429Y-16117524D02*
X10566429Y-16136571D01*
X10690238Y-16317524D02*
X10671190Y-16308000D01*
X10671190Y-16308000D02*
X10661667Y-16288952D01*
X10661667Y-16288952D02*
X10661667Y-16117524D01*
X10795000Y-16317524D02*
X10775952Y-16308000D01*
X10775952Y-16308000D02*
X10766429Y-16288952D01*
X10766429Y-16288952D02*
X10766429Y-16117524D01*
X11023571Y-16317524D02*
X11023571Y-16117524D01*
X11023571Y-16117524D02*
X11090238Y-16260381D01*
X11090238Y-16260381D02*
X11156905Y-16117524D01*
X11156905Y-16117524D02*
X11156905Y-16317524D01*
X11337857Y-16317524D02*
X11337857Y-16212762D01*
X11337857Y-16212762D02*
X11328333Y-16193714D01*
X11328333Y-16193714D02*
X11309286Y-16184190D01*
X11309286Y-16184190D02*
X11271190Y-16184190D01*
X11271190Y-16184190D02*
X11252143Y-16193714D01*
X11337857Y-16308000D02*
X11318809Y-16317524D01*
X11318809Y-16317524D02*
X11271190Y-16317524D01*
X11271190Y-16317524D02*
X11252143Y-16308000D01*
X11252143Y-16308000D02*
X11242619Y-16288952D01*
X11242619Y-16288952D02*
X11242619Y-16269905D01*
X11242619Y-16269905D02*
X11252143Y-16250857D01*
X11252143Y-16250857D02*
X11271190Y-16241333D01*
X11271190Y-16241333D02*
X11318809Y-16241333D01*
X11318809Y-16241333D02*
X11337857Y-16231809D01*
X11433095Y-16184190D02*
X11433095Y-16384190D01*
X11433095Y-16193714D02*
X11452143Y-16184190D01*
X11452143Y-16184190D02*
X11490238Y-16184190D01*
X11490238Y-16184190D02*
X11509286Y-16193714D01*
X11509286Y-16193714D02*
X11518809Y-16203238D01*
X11518809Y-16203238D02*
X11528333Y-16222286D01*
X11528333Y-16222286D02*
X11528333Y-16279428D01*
X11528333Y-16279428D02*
X11518809Y-16298476D01*
X11518809Y-16298476D02*
X11509286Y-16308000D01*
X11509286Y-16308000D02*
X11490238Y-16317524D01*
X11490238Y-16317524D02*
X11452143Y-16317524D01*
X11452143Y-16317524D02*
X11433095Y-16308000D01*
X11614048Y-16298476D02*
X11623571Y-16308000D01*
X11623571Y-16308000D02*
X11614048Y-16317524D01*
X11614048Y-16317524D02*
X11604524Y-16308000D01*
X11604524Y-16308000D02*
X11614048Y-16298476D01*
X11614048Y-16298476D02*
X11614048Y-16317524D01*
X11614048Y-16193714D02*
X11623571Y-16203238D01*
X11623571Y-16203238D02*
X11614048Y-16212762D01*
X11614048Y-16212762D02*
X11604524Y-16203238D01*
X11604524Y-16203238D02*
X11614048Y-16193714D01*
X11614048Y-16193714D02*
X11614048Y-16212762D01*
D12*
X9975000Y-16635000D02*
X9995000Y-16655000D01*
X9995000Y-16635000D02*
X9975000Y-16655000D01*
D11*
X10280714Y-16537524D02*
X10299762Y-16537524D01*
X10299762Y-16537524D02*
X10318810Y-16547048D01*
X10318810Y-16547048D02*
X10328333Y-16556571D01*
X10328333Y-16556571D02*
X10337857Y-16575619D01*
X10337857Y-16575619D02*
X10347381Y-16613714D01*
X10347381Y-16613714D02*
X10347381Y-16661333D01*
X10347381Y-16661333D02*
X10337857Y-16699428D01*
X10337857Y-16699428D02*
X10328333Y-16718476D01*
X10328333Y-16718476D02*
X10318810Y-16728000D01*
X10318810Y-16728000D02*
X10299762Y-16737524D01*
X10299762Y-16737524D02*
X10280714Y-16737524D01*
X10280714Y-16737524D02*
X10261667Y-16728000D01*
X10261667Y-16728000D02*
X10252143Y-16718476D01*
X10252143Y-16718476D02*
X10242619Y-16699428D01*
X10242619Y-16699428D02*
X10233095Y-16661333D01*
X10233095Y-16661333D02*
X10233095Y-16613714D01*
X10233095Y-16613714D02*
X10242619Y-16575619D01*
X10242619Y-16575619D02*
X10252143Y-16556571D01*
X10252143Y-16556571D02*
X10261667Y-16547048D01*
X10261667Y-16547048D02*
X10280714Y-16537524D01*
X10433095Y-16718476D02*
X10442619Y-16728000D01*
X10442619Y-16728000D02*
X10433095Y-16737524D01*
X10433095Y-16737524D02*
X10423571Y-16728000D01*
X10423571Y-16728000D02*
X10433095Y-16718476D01*
X10433095Y-16718476D02*
X10433095Y-16737524D01*
X10518810Y-16556571D02*
X10528333Y-16547048D01*
X10528333Y-16547048D02*
X10547381Y-16537524D01*
X10547381Y-16537524D02*
X10595000Y-16537524D01*
X10595000Y-16537524D02*
X10614048Y-16547048D01*
X10614048Y-16547048D02*
X10623571Y-16556571D01*
X10623571Y-16556571D02*
X10633095Y-16575619D01*
X10633095Y-16575619D02*
X10633095Y-16594667D01*
X10633095Y-16594667D02*
X10623571Y-16623238D01*
X10623571Y-16623238D02*
X10509286Y-16737524D01*
X10509286Y-16737524D02*
X10633095Y-16737524D01*
X10756905Y-16537524D02*
X10775952Y-16537524D01*
X10775952Y-16537524D02*
X10795000Y-16547048D01*
X10795000Y-16547048D02*
X10804524Y-16556571D01*
X10804524Y-16556571D02*
X10814048Y-16575619D01*
X10814048Y-16575619D02*
X10823571Y-16613714D01*
X10823571Y-16613714D02*
X10823571Y-16661333D01*
X10823571Y-16661333D02*
X10814048Y-16699428D01*
X10814048Y-16699428D02*
X10804524Y-16718476D01*
X10804524Y-16718476D02*
X10795000Y-16728000D01*
X10795000Y-16728000D02*
X10775952Y-16737524D01*
X10775952Y-16737524D02*
X10756905Y-16737524D01*
X10756905Y-16737524D02*
X10737857Y-16728000D01*
X10737857Y-16728000D02*
X10728333Y-16718476D01*
X10728333Y-16718476D02*
X10718810Y-16699428D01*
X10718810Y-16699428D02*
X10709286Y-16661333D01*
X10709286Y-16661333D02*
X10709286Y-16613714D01*
X10709286Y-16613714D02*
X10718810Y-16575619D01*
X10718810Y-16575619D02*
X10728333Y-16556571D01*
X10728333Y-16556571D02*
X10737857Y-16547048D01*
X10737857Y-16547048D02*
X10756905Y-16537524D01*
X10947381Y-16537524D02*
X10966429Y-16537524D01*
X10966429Y-16537524D02*
X10985476Y-16547048D01*
X10985476Y-16547048D02*
X10995000Y-16556571D01*
X10995000Y-16556571D02*
X11004524Y-16575619D01*
X11004524Y-16575619D02*
X11014048Y-16613714D01*
X11014048Y-16613714D02*
X11014048Y-16661333D01*
X11014048Y-16661333D02*
X11004524Y-16699428D01*
X11004524Y-16699428D02*
X10995000Y-16718476D01*
X10995000Y-16718476D02*
X10985476Y-16728000D01*
X10985476Y-16728000D02*
X10966429Y-16737524D01*
X10966429Y-16737524D02*
X10947381Y-16737524D01*
X10947381Y-16737524D02*
X10928333Y-16728000D01*
X10928333Y-16728000D02*
X10918810Y-16718476D01*
X10918810Y-16718476D02*
X10909286Y-16699428D01*
X10909286Y-16699428D02*
X10899762Y-16661333D01*
X10899762Y-16661333D02*
X10899762Y-16613714D01*
X10899762Y-16613714D02*
X10909286Y-16575619D01*
X10909286Y-16575619D02*
X10918810Y-16556571D01*
X10918810Y-16556571D02*
X10928333Y-16547048D01*
X10928333Y-16547048D02*
X10947381Y-16537524D01*
X11099762Y-16737524D02*
X11099762Y-16604190D01*
X11099762Y-16623238D02*
X11109286Y-16613714D01*
X11109286Y-16613714D02*
X11128333Y-16604190D01*
X11128333Y-16604190D02*
X11156905Y-16604190D01*
X11156905Y-16604190D02*
X11175952Y-16613714D01*
X11175952Y-16613714D02*
X11185476Y-16632762D01*
X11185476Y-16632762D02*
X11185476Y-16737524D01*
X11185476Y-16632762D02*
X11195000Y-16613714D01*
X11195000Y-16613714D02*
X11214048Y-16604190D01*
X11214048Y-16604190D02*
X11242619Y-16604190D01*
X11242619Y-16604190D02*
X11261667Y-16613714D01*
X11261667Y-16613714D02*
X11271190Y-16632762D01*
X11271190Y-16632762D02*
X11271190Y-16737524D01*
X11366429Y-16737524D02*
X11366429Y-16604190D01*
X11366429Y-16623238D02*
X11375952Y-16613714D01*
X11375952Y-16613714D02*
X11395000Y-16604190D01*
X11395000Y-16604190D02*
X11423571Y-16604190D01*
X11423571Y-16604190D02*
X11442619Y-16613714D01*
X11442619Y-16613714D02*
X11452143Y-16632762D01*
X11452143Y-16632762D02*
X11452143Y-16737524D01*
X11452143Y-16632762D02*
X11461667Y-16613714D01*
X11461667Y-16613714D02*
X11480714Y-16604190D01*
X11480714Y-16604190D02*
X11509286Y-16604190D01*
X11509286Y-16604190D02*
X11528333Y-16613714D01*
X11528333Y-16613714D02*
X11537857Y-16632762D01*
X11537857Y-16632762D02*
X11537857Y-16737524D01*
X11928333Y-16528000D02*
X11756905Y-16785143D01*
X12185476Y-16537524D02*
X12204524Y-16537524D01*
X12204524Y-16537524D02*
X12223572Y-16547048D01*
X12223572Y-16547048D02*
X12233095Y-16556571D01*
X12233095Y-16556571D02*
X12242619Y-16575619D01*
X12242619Y-16575619D02*
X12252143Y-16613714D01*
X12252143Y-16613714D02*
X12252143Y-16661333D01*
X12252143Y-16661333D02*
X12242619Y-16699428D01*
X12242619Y-16699428D02*
X12233095Y-16718476D01*
X12233095Y-16718476D02*
X12223572Y-16728000D01*
X12223572Y-16728000D02*
X12204524Y-16737524D01*
X12204524Y-16737524D02*
X12185476Y-16737524D01*
X12185476Y-16737524D02*
X12166429Y-16728000D01*
X12166429Y-16728000D02*
X12156905Y-16718476D01*
X12156905Y-16718476D02*
X12147381Y-16699428D01*
X12147381Y-16699428D02*
X12137857Y-16661333D01*
X12137857Y-16661333D02*
X12137857Y-16613714D01*
X12137857Y-16613714D02*
X12147381Y-16575619D01*
X12147381Y-16575619D02*
X12156905Y-16556571D01*
X12156905Y-16556571D02*
X12166429Y-16547048D01*
X12166429Y-16547048D02*
X12185476Y-16537524D01*
X12337857Y-16718476D02*
X12347381Y-16728000D01*
X12347381Y-16728000D02*
X12337857Y-16737524D01*
X12337857Y-16737524D02*
X12328333Y-16728000D01*
X12328333Y-16728000D02*
X12337857Y-16718476D01*
X12337857Y-16718476D02*
X12337857Y-16737524D01*
X12471191Y-16537524D02*
X12490238Y-16537524D01*
X12490238Y-16537524D02*
X12509286Y-16547048D01*
X12509286Y-16547048D02*
X12518810Y-16556571D01*
X12518810Y-16556571D02*
X12528333Y-16575619D01*
X12528333Y-16575619D02*
X12537857Y-16613714D01*
X12537857Y-16613714D02*
X12537857Y-16661333D01*
X12537857Y-16661333D02*
X12528333Y-16699428D01*
X12528333Y-16699428D02*
X12518810Y-16718476D01*
X12518810Y-16718476D02*
X12509286Y-16728000D01*
X12509286Y-16728000D02*
X12490238Y-16737524D01*
X12490238Y-16737524D02*
X12471191Y-16737524D01*
X12471191Y-16737524D02*
X12452143Y-16728000D01*
X12452143Y-16728000D02*
X12442619Y-16718476D01*
X12442619Y-16718476D02*
X12433095Y-16699428D01*
X12433095Y-16699428D02*
X12423572Y-16661333D01*
X12423572Y-16661333D02*
X12423572Y-16613714D01*
X12423572Y-16613714D02*
X12433095Y-16575619D01*
X12433095Y-16575619D02*
X12442619Y-16556571D01*
X12442619Y-16556571D02*
X12452143Y-16547048D01*
X12452143Y-16547048D02*
X12471191Y-16537524D01*
X12661667Y-16537524D02*
X12680714Y-16537524D01*
X12680714Y-16537524D02*
X12699762Y-16547048D01*
X12699762Y-16547048D02*
X12709286Y-16556571D01*
X12709286Y-16556571D02*
X12718810Y-16575619D01*
X12718810Y-16575619D02*
X12728333Y-16613714D01*
X12728333Y-16613714D02*
X12728333Y-16661333D01*
X12728333Y-16661333D02*
X12718810Y-16699428D01*
X12718810Y-16699428D02*
X12709286Y-16718476D01*
X12709286Y-16718476D02*
X12699762Y-16728000D01*
X12699762Y-16728000D02*
X12680714Y-16737524D01*
X12680714Y-16737524D02*
X12661667Y-16737524D01*
X12661667Y-16737524D02*
X12642619Y-16728000D01*
X12642619Y-16728000D02*
X12633095Y-16718476D01*
X12633095Y-16718476D02*
X12623572Y-16699428D01*
X12623572Y-16699428D02*
X12614048Y-16661333D01*
X12614048Y-16661333D02*
X12614048Y-16613714D01*
X12614048Y-16613714D02*
X12623572Y-16575619D01*
X12623572Y-16575619D02*
X12633095Y-16556571D01*
X12633095Y-16556571D02*
X12642619Y-16547048D01*
X12642619Y-16547048D02*
X12661667Y-16537524D01*
X12795000Y-16537524D02*
X12928333Y-16537524D01*
X12928333Y-16537524D02*
X12842619Y-16737524D01*
X13014048Y-16737524D02*
X13052143Y-16737524D01*
X13052143Y-16737524D02*
X13071191Y-16728000D01*
X13071191Y-16728000D02*
X13080714Y-16718476D01*
X13080714Y-16718476D02*
X13099762Y-16689905D01*
X13099762Y-16689905D02*
X13109286Y-16651809D01*
X13109286Y-16651809D02*
X13109286Y-16575619D01*
X13109286Y-16575619D02*
X13099762Y-16556571D01*
X13099762Y-16556571D02*
X13090238Y-16547048D01*
X13090238Y-16547048D02*
X13071191Y-16537524D01*
X13071191Y-16537524D02*
X13033095Y-16537524D01*
X13033095Y-16537524D02*
X13014048Y-16547048D01*
X13014048Y-16547048D02*
X13004524Y-16556571D01*
X13004524Y-16556571D02*
X12995000Y-16575619D01*
X12995000Y-16575619D02*
X12995000Y-16623238D01*
X12995000Y-16623238D02*
X13004524Y-16642286D01*
X13004524Y-16642286D02*
X13014048Y-16651809D01*
X13014048Y-16651809D02*
X13033095Y-16661333D01*
X13033095Y-16661333D02*
X13071191Y-16661333D01*
X13071191Y-16661333D02*
X13090238Y-16651809D01*
X13090238Y-16651809D02*
X13099762Y-16642286D01*
X13099762Y-16642286D02*
X13109286Y-16623238D01*
X13185476Y-16537524D02*
X13185476Y-16575619D01*
X13261667Y-16537524D02*
X13261667Y-16575619D01*
X13556905Y-16813714D02*
X13547381Y-16804190D01*
X13547381Y-16804190D02*
X13528334Y-16775619D01*
X13528334Y-16775619D02*
X13518810Y-16756571D01*
X13518810Y-16756571D02*
X13509286Y-16728000D01*
X13509286Y-16728000D02*
X13499762Y-16680381D01*
X13499762Y-16680381D02*
X13499762Y-16642286D01*
X13499762Y-16642286D02*
X13509286Y-16594667D01*
X13509286Y-16594667D02*
X13518810Y-16566095D01*
X13518810Y-16566095D02*
X13528334Y-16547048D01*
X13528334Y-16547048D02*
X13547381Y-16518476D01*
X13547381Y-16518476D02*
X13556905Y-16508952D01*
X13737857Y-16737524D02*
X13623572Y-16737524D01*
X13680714Y-16737524D02*
X13680714Y-16537524D01*
X13680714Y-16537524D02*
X13661667Y-16566095D01*
X13661667Y-16566095D02*
X13642619Y-16585143D01*
X13642619Y-16585143D02*
X13623572Y-16594667D01*
X13852143Y-16623238D02*
X13833095Y-16613714D01*
X13833095Y-16613714D02*
X13823572Y-16604190D01*
X13823572Y-16604190D02*
X13814048Y-16585143D01*
X13814048Y-16585143D02*
X13814048Y-16575619D01*
X13814048Y-16575619D02*
X13823572Y-16556571D01*
X13823572Y-16556571D02*
X13833095Y-16547048D01*
X13833095Y-16547048D02*
X13852143Y-16537524D01*
X13852143Y-16537524D02*
X13890238Y-16537524D01*
X13890238Y-16537524D02*
X13909286Y-16547048D01*
X13909286Y-16547048D02*
X13918810Y-16556571D01*
X13918810Y-16556571D02*
X13928334Y-16575619D01*
X13928334Y-16575619D02*
X13928334Y-16585143D01*
X13928334Y-16585143D02*
X13918810Y-16604190D01*
X13918810Y-16604190D02*
X13909286Y-16613714D01*
X13909286Y-16613714D02*
X13890238Y-16623238D01*
X13890238Y-16623238D02*
X13852143Y-16623238D01*
X13852143Y-16623238D02*
X13833095Y-16632762D01*
X13833095Y-16632762D02*
X13823572Y-16642286D01*
X13823572Y-16642286D02*
X13814048Y-16661333D01*
X13814048Y-16661333D02*
X13814048Y-16699428D01*
X13814048Y-16699428D02*
X13823572Y-16718476D01*
X13823572Y-16718476D02*
X13833095Y-16728000D01*
X13833095Y-16728000D02*
X13852143Y-16737524D01*
X13852143Y-16737524D02*
X13890238Y-16737524D01*
X13890238Y-16737524D02*
X13909286Y-16728000D01*
X13909286Y-16728000D02*
X13918810Y-16718476D01*
X13918810Y-16718476D02*
X13928334Y-16699428D01*
X13928334Y-16699428D02*
X13928334Y-16661333D01*
X13928334Y-16661333D02*
X13918810Y-16642286D01*
X13918810Y-16642286D02*
X13909286Y-16632762D01*
X13909286Y-16632762D02*
X13890238Y-16623238D01*
X14166429Y-16737524D02*
X14166429Y-16537524D01*
X14252143Y-16737524D02*
X14252143Y-16632762D01*
X14252143Y-16632762D02*
X14242619Y-16613714D01*
X14242619Y-16613714D02*
X14223572Y-16604190D01*
X14223572Y-16604190D02*
X14195000Y-16604190D01*
X14195000Y-16604190D02*
X14175953Y-16613714D01*
X14175953Y-16613714D02*
X14166429Y-16623238D01*
X14375953Y-16737524D02*
X14356905Y-16728000D01*
X14356905Y-16728000D02*
X14347381Y-16718476D01*
X14347381Y-16718476D02*
X14337857Y-16699428D01*
X14337857Y-16699428D02*
X14337857Y-16642286D01*
X14337857Y-16642286D02*
X14347381Y-16623238D01*
X14347381Y-16623238D02*
X14356905Y-16613714D01*
X14356905Y-16613714D02*
X14375953Y-16604190D01*
X14375953Y-16604190D02*
X14404524Y-16604190D01*
X14404524Y-16604190D02*
X14423572Y-16613714D01*
X14423572Y-16613714D02*
X14433096Y-16623238D01*
X14433096Y-16623238D02*
X14442619Y-16642286D01*
X14442619Y-16642286D02*
X14442619Y-16699428D01*
X14442619Y-16699428D02*
X14433096Y-16718476D01*
X14433096Y-16718476D02*
X14423572Y-16728000D01*
X14423572Y-16728000D02*
X14404524Y-16737524D01*
X14404524Y-16737524D02*
X14375953Y-16737524D01*
X14556905Y-16737524D02*
X14537857Y-16728000D01*
X14537857Y-16728000D02*
X14528334Y-16708952D01*
X14528334Y-16708952D02*
X14528334Y-16537524D01*
X14709286Y-16728000D02*
X14690238Y-16737524D01*
X14690238Y-16737524D02*
X14652143Y-16737524D01*
X14652143Y-16737524D02*
X14633096Y-16728000D01*
X14633096Y-16728000D02*
X14623572Y-16708952D01*
X14623572Y-16708952D02*
X14623572Y-16632762D01*
X14623572Y-16632762D02*
X14633096Y-16613714D01*
X14633096Y-16613714D02*
X14652143Y-16604190D01*
X14652143Y-16604190D02*
X14690238Y-16604190D01*
X14690238Y-16604190D02*
X14709286Y-16613714D01*
X14709286Y-16613714D02*
X14718810Y-16632762D01*
X14718810Y-16632762D02*
X14718810Y-16651809D01*
X14718810Y-16651809D02*
X14623572Y-16670857D01*
X14795000Y-16728000D02*
X14814048Y-16737524D01*
X14814048Y-16737524D02*
X14852143Y-16737524D01*
X14852143Y-16737524D02*
X14871191Y-16728000D01*
X14871191Y-16728000D02*
X14880715Y-16708952D01*
X14880715Y-16708952D02*
X14880715Y-16699428D01*
X14880715Y-16699428D02*
X14871191Y-16680381D01*
X14871191Y-16680381D02*
X14852143Y-16670857D01*
X14852143Y-16670857D02*
X14823572Y-16670857D01*
X14823572Y-16670857D02*
X14804524Y-16661333D01*
X14804524Y-16661333D02*
X14795000Y-16642286D01*
X14795000Y-16642286D02*
X14795000Y-16632762D01*
X14795000Y-16632762D02*
X14804524Y-16613714D01*
X14804524Y-16613714D02*
X14823572Y-16604190D01*
X14823572Y-16604190D02*
X14852143Y-16604190D01*
X14852143Y-16604190D02*
X14871191Y-16613714D01*
X14947381Y-16813714D02*
X14956905Y-16804190D01*
X14956905Y-16804190D02*
X14975953Y-16775619D01*
X14975953Y-16775619D02*
X14985477Y-16756571D01*
X14985477Y-16756571D02*
X14995000Y-16728000D01*
X14995000Y-16728000D02*
X15004524Y-16680381D01*
X15004524Y-16680381D02*
X15004524Y-16642286D01*
X15004524Y-16642286D02*
X14995000Y-16594667D01*
X14995000Y-16594667D02*
X14985477Y-16566095D01*
X14985477Y-16566095D02*
X14975953Y-16547048D01*
X14975953Y-16547048D02*
X14956905Y-16518476D01*
X14956905Y-16518476D02*
X14947381Y-16508952D01*
D13*
X9995000Y-16909000D02*
G75*
G03*
X9995000Y-16909000I-20000J0D01*
G01*
D11*
X10280714Y-16801524D02*
X10299762Y-16801524D01*
X10299762Y-16801524D02*
X10318810Y-16811048D01*
X10318810Y-16811048D02*
X10328333Y-16820571D01*
X10328333Y-16820571D02*
X10337857Y-16839619D01*
X10337857Y-16839619D02*
X10347381Y-16877714D01*
X10347381Y-16877714D02*
X10347381Y-16925333D01*
X10347381Y-16925333D02*
X10337857Y-16963429D01*
X10337857Y-16963429D02*
X10328333Y-16982476D01*
X10328333Y-16982476D02*
X10318810Y-16992000D01*
X10318810Y-16992000D02*
X10299762Y-17001524D01*
X10299762Y-17001524D02*
X10280714Y-17001524D01*
X10280714Y-17001524D02*
X10261667Y-16992000D01*
X10261667Y-16992000D02*
X10252143Y-16982476D01*
X10252143Y-16982476D02*
X10242619Y-16963429D01*
X10242619Y-16963429D02*
X10233095Y-16925333D01*
X10233095Y-16925333D02*
X10233095Y-16877714D01*
X10233095Y-16877714D02*
X10242619Y-16839619D01*
X10242619Y-16839619D02*
X10252143Y-16820571D01*
X10252143Y-16820571D02*
X10261667Y-16811048D01*
X10261667Y-16811048D02*
X10280714Y-16801524D01*
X10433095Y-16982476D02*
X10442619Y-16992000D01*
X10442619Y-16992000D02*
X10433095Y-17001524D01*
X10433095Y-17001524D02*
X10423571Y-16992000D01*
X10423571Y-16992000D02*
X10433095Y-16982476D01*
X10433095Y-16982476D02*
X10433095Y-17001524D01*
X10614048Y-16868190D02*
X10614048Y-17001524D01*
X10566429Y-16792000D02*
X10518810Y-16934857D01*
X10518810Y-16934857D02*
X10642619Y-16934857D01*
X10756905Y-16801524D02*
X10775952Y-16801524D01*
X10775952Y-16801524D02*
X10795000Y-16811048D01*
X10795000Y-16811048D02*
X10804524Y-16820571D01*
X10804524Y-16820571D02*
X10814048Y-16839619D01*
X10814048Y-16839619D02*
X10823571Y-16877714D01*
X10823571Y-16877714D02*
X10823571Y-16925333D01*
X10823571Y-16925333D02*
X10814048Y-16963429D01*
X10814048Y-16963429D02*
X10804524Y-16982476D01*
X10804524Y-16982476D02*
X10795000Y-16992000D01*
X10795000Y-16992000D02*
X10775952Y-17001524D01*
X10775952Y-17001524D02*
X10756905Y-17001524D01*
X10756905Y-17001524D02*
X10737857Y-16992000D01*
X10737857Y-16992000D02*
X10728333Y-16982476D01*
X10728333Y-16982476D02*
X10718810Y-16963429D01*
X10718810Y-16963429D02*
X10709286Y-16925333D01*
X10709286Y-16925333D02*
X10709286Y-16877714D01*
X10709286Y-16877714D02*
X10718810Y-16839619D01*
X10718810Y-16839619D02*
X10728333Y-16820571D01*
X10728333Y-16820571D02*
X10737857Y-16811048D01*
X10737857Y-16811048D02*
X10756905Y-16801524D01*
X10947381Y-16801524D02*
X10966429Y-16801524D01*
X10966429Y-16801524D02*
X10985476Y-16811048D01*
X10985476Y-16811048D02*
X10995000Y-16820571D01*
X10995000Y-16820571D02*
X11004524Y-16839619D01*
X11004524Y-16839619D02*
X11014048Y-16877714D01*
X11014048Y-16877714D02*
X11014048Y-16925333D01*
X11014048Y-16925333D02*
X11004524Y-16963429D01*
X11004524Y-16963429D02*
X10995000Y-16982476D01*
X10995000Y-16982476D02*
X10985476Y-16992000D01*
X10985476Y-16992000D02*
X10966429Y-17001524D01*
X10966429Y-17001524D02*
X10947381Y-17001524D01*
X10947381Y-17001524D02*
X10928333Y-16992000D01*
X10928333Y-16992000D02*
X10918810Y-16982476D01*
X10918810Y-16982476D02*
X10909286Y-16963429D01*
X10909286Y-16963429D02*
X10899762Y-16925333D01*
X10899762Y-16925333D02*
X10899762Y-16877714D01*
X10899762Y-16877714D02*
X10909286Y-16839619D01*
X10909286Y-16839619D02*
X10918810Y-16820571D01*
X10918810Y-16820571D02*
X10928333Y-16811048D01*
X10928333Y-16811048D02*
X10947381Y-16801524D01*
X11099762Y-17001524D02*
X11099762Y-16868190D01*
X11099762Y-16887238D02*
X11109286Y-16877714D01*
X11109286Y-16877714D02*
X11128333Y-16868190D01*
X11128333Y-16868190D02*
X11156905Y-16868190D01*
X11156905Y-16868190D02*
X11175952Y-16877714D01*
X11175952Y-16877714D02*
X11185476Y-16896762D01*
X11185476Y-16896762D02*
X11185476Y-17001524D01*
X11185476Y-16896762D02*
X11195000Y-16877714D01*
X11195000Y-16877714D02*
X11214048Y-16868190D01*
X11214048Y-16868190D02*
X11242619Y-16868190D01*
X11242619Y-16868190D02*
X11261667Y-16877714D01*
X11261667Y-16877714D02*
X11271190Y-16896762D01*
X11271190Y-16896762D02*
X11271190Y-17001524D01*
X11366429Y-17001524D02*
X11366429Y-16868190D01*
X11366429Y-16887238D02*
X11375952Y-16877714D01*
X11375952Y-16877714D02*
X11395000Y-16868190D01*
X11395000Y-16868190D02*
X11423571Y-16868190D01*
X11423571Y-16868190D02*
X11442619Y-16877714D01*
X11442619Y-16877714D02*
X11452143Y-16896762D01*
X11452143Y-16896762D02*
X11452143Y-17001524D01*
X11452143Y-16896762D02*
X11461667Y-16877714D01*
X11461667Y-16877714D02*
X11480714Y-16868190D01*
X11480714Y-16868190D02*
X11509286Y-16868190D01*
X11509286Y-16868190D02*
X11528333Y-16877714D01*
X11528333Y-16877714D02*
X11537857Y-16896762D01*
X11537857Y-16896762D02*
X11537857Y-17001524D01*
X11928333Y-16792000D02*
X11756905Y-17049143D01*
X12185476Y-16801524D02*
X12204524Y-16801524D01*
X12204524Y-16801524D02*
X12223572Y-16811048D01*
X12223572Y-16811048D02*
X12233095Y-16820571D01*
X12233095Y-16820571D02*
X12242619Y-16839619D01*
X12242619Y-16839619D02*
X12252143Y-16877714D01*
X12252143Y-16877714D02*
X12252143Y-16925333D01*
X12252143Y-16925333D02*
X12242619Y-16963429D01*
X12242619Y-16963429D02*
X12233095Y-16982476D01*
X12233095Y-16982476D02*
X12223572Y-16992000D01*
X12223572Y-16992000D02*
X12204524Y-17001524D01*
X12204524Y-17001524D02*
X12185476Y-17001524D01*
X12185476Y-17001524D02*
X12166429Y-16992000D01*
X12166429Y-16992000D02*
X12156905Y-16982476D01*
X12156905Y-16982476D02*
X12147381Y-16963429D01*
X12147381Y-16963429D02*
X12137857Y-16925333D01*
X12137857Y-16925333D02*
X12137857Y-16877714D01*
X12137857Y-16877714D02*
X12147381Y-16839619D01*
X12147381Y-16839619D02*
X12156905Y-16820571D01*
X12156905Y-16820571D02*
X12166429Y-16811048D01*
X12166429Y-16811048D02*
X12185476Y-16801524D01*
X12337857Y-16982476D02*
X12347381Y-16992000D01*
X12347381Y-16992000D02*
X12337857Y-17001524D01*
X12337857Y-17001524D02*
X12328333Y-16992000D01*
X12328333Y-16992000D02*
X12337857Y-16982476D01*
X12337857Y-16982476D02*
X12337857Y-17001524D01*
X12471191Y-16801524D02*
X12490238Y-16801524D01*
X12490238Y-16801524D02*
X12509286Y-16811048D01*
X12509286Y-16811048D02*
X12518810Y-16820571D01*
X12518810Y-16820571D02*
X12528333Y-16839619D01*
X12528333Y-16839619D02*
X12537857Y-16877714D01*
X12537857Y-16877714D02*
X12537857Y-16925333D01*
X12537857Y-16925333D02*
X12528333Y-16963429D01*
X12528333Y-16963429D02*
X12518810Y-16982476D01*
X12518810Y-16982476D02*
X12509286Y-16992000D01*
X12509286Y-16992000D02*
X12490238Y-17001524D01*
X12490238Y-17001524D02*
X12471191Y-17001524D01*
X12471191Y-17001524D02*
X12452143Y-16992000D01*
X12452143Y-16992000D02*
X12442619Y-16982476D01*
X12442619Y-16982476D02*
X12433095Y-16963429D01*
X12433095Y-16963429D02*
X12423572Y-16925333D01*
X12423572Y-16925333D02*
X12423572Y-16877714D01*
X12423572Y-16877714D02*
X12433095Y-16839619D01*
X12433095Y-16839619D02*
X12442619Y-16820571D01*
X12442619Y-16820571D02*
X12452143Y-16811048D01*
X12452143Y-16811048D02*
X12471191Y-16801524D01*
X12728333Y-17001524D02*
X12614048Y-17001524D01*
X12671191Y-17001524D02*
X12671191Y-16801524D01*
X12671191Y-16801524D02*
X12652143Y-16830095D01*
X12652143Y-16830095D02*
X12633095Y-16849143D01*
X12633095Y-16849143D02*
X12614048Y-16858667D01*
X12909286Y-16801524D02*
X12814048Y-16801524D01*
X12814048Y-16801524D02*
X12804524Y-16896762D01*
X12804524Y-16896762D02*
X12814048Y-16887238D01*
X12814048Y-16887238D02*
X12833095Y-16877714D01*
X12833095Y-16877714D02*
X12880714Y-16877714D01*
X12880714Y-16877714D02*
X12899762Y-16887238D01*
X12899762Y-16887238D02*
X12909286Y-16896762D01*
X12909286Y-16896762D02*
X12918810Y-16915810D01*
X12918810Y-16915810D02*
X12918810Y-16963429D01*
X12918810Y-16963429D02*
X12909286Y-16982476D01*
X12909286Y-16982476D02*
X12899762Y-16992000D01*
X12899762Y-16992000D02*
X12880714Y-17001524D01*
X12880714Y-17001524D02*
X12833095Y-17001524D01*
X12833095Y-17001524D02*
X12814048Y-16992000D01*
X12814048Y-16992000D02*
X12804524Y-16982476D01*
X12985476Y-16801524D02*
X13118810Y-16801524D01*
X13118810Y-16801524D02*
X13033095Y-17001524D01*
X13185476Y-16801524D02*
X13185476Y-16839619D01*
X13261667Y-16801524D02*
X13261667Y-16839619D01*
X13556905Y-17077714D02*
X13547381Y-17068190D01*
X13547381Y-17068190D02*
X13528334Y-17039619D01*
X13528334Y-17039619D02*
X13518810Y-17020571D01*
X13518810Y-17020571D02*
X13509286Y-16992000D01*
X13509286Y-16992000D02*
X13499762Y-16944381D01*
X13499762Y-16944381D02*
X13499762Y-16906286D01*
X13499762Y-16906286D02*
X13509286Y-16858667D01*
X13509286Y-16858667D02*
X13518810Y-16830095D01*
X13518810Y-16830095D02*
X13528334Y-16811048D01*
X13528334Y-16811048D02*
X13547381Y-16782476D01*
X13547381Y-16782476D02*
X13556905Y-16772952D01*
X13728334Y-16801524D02*
X13633095Y-16801524D01*
X13633095Y-16801524D02*
X13623572Y-16896762D01*
X13623572Y-16896762D02*
X13633095Y-16887238D01*
X13633095Y-16887238D02*
X13652143Y-16877714D01*
X13652143Y-16877714D02*
X13699762Y-16877714D01*
X13699762Y-16877714D02*
X13718810Y-16887238D01*
X13718810Y-16887238D02*
X13728334Y-16896762D01*
X13728334Y-16896762D02*
X13737857Y-16915810D01*
X13737857Y-16915810D02*
X13737857Y-16963429D01*
X13737857Y-16963429D02*
X13728334Y-16982476D01*
X13728334Y-16982476D02*
X13718810Y-16992000D01*
X13718810Y-16992000D02*
X13699762Y-17001524D01*
X13699762Y-17001524D02*
X13652143Y-17001524D01*
X13652143Y-17001524D02*
X13633095Y-16992000D01*
X13633095Y-16992000D02*
X13623572Y-16982476D01*
X13928334Y-17001524D02*
X13814048Y-17001524D01*
X13871191Y-17001524D02*
X13871191Y-16801524D01*
X13871191Y-16801524D02*
X13852143Y-16830095D01*
X13852143Y-16830095D02*
X13833095Y-16849143D01*
X13833095Y-16849143D02*
X13814048Y-16858667D01*
X14052143Y-16801524D02*
X14071191Y-16801524D01*
X14071191Y-16801524D02*
X14090238Y-16811048D01*
X14090238Y-16811048D02*
X14099762Y-16820571D01*
X14099762Y-16820571D02*
X14109286Y-16839619D01*
X14109286Y-16839619D02*
X14118810Y-16877714D01*
X14118810Y-16877714D02*
X14118810Y-16925333D01*
X14118810Y-16925333D02*
X14109286Y-16963429D01*
X14109286Y-16963429D02*
X14099762Y-16982476D01*
X14099762Y-16982476D02*
X14090238Y-16992000D01*
X14090238Y-16992000D02*
X14071191Y-17001524D01*
X14071191Y-17001524D02*
X14052143Y-17001524D01*
X14052143Y-17001524D02*
X14033095Y-16992000D01*
X14033095Y-16992000D02*
X14023572Y-16982476D01*
X14023572Y-16982476D02*
X14014048Y-16963429D01*
X14014048Y-16963429D02*
X14004524Y-16925333D01*
X14004524Y-16925333D02*
X14004524Y-16877714D01*
X14004524Y-16877714D02*
X14014048Y-16839619D01*
X14014048Y-16839619D02*
X14023572Y-16820571D01*
X14023572Y-16820571D02*
X14033095Y-16811048D01*
X14033095Y-16811048D02*
X14052143Y-16801524D01*
X14356905Y-17001524D02*
X14356905Y-16801524D01*
X14442619Y-17001524D02*
X14442619Y-16896762D01*
X14442619Y-16896762D02*
X14433096Y-16877714D01*
X14433096Y-16877714D02*
X14414048Y-16868190D01*
X14414048Y-16868190D02*
X14385476Y-16868190D01*
X14385476Y-16868190D02*
X14366429Y-16877714D01*
X14366429Y-16877714D02*
X14356905Y-16887238D01*
X14566429Y-17001524D02*
X14547381Y-16992000D01*
X14547381Y-16992000D02*
X14537857Y-16982476D01*
X14537857Y-16982476D02*
X14528334Y-16963429D01*
X14528334Y-16963429D02*
X14528334Y-16906286D01*
X14528334Y-16906286D02*
X14537857Y-16887238D01*
X14537857Y-16887238D02*
X14547381Y-16877714D01*
X14547381Y-16877714D02*
X14566429Y-16868190D01*
X14566429Y-16868190D02*
X14595000Y-16868190D01*
X14595000Y-16868190D02*
X14614048Y-16877714D01*
X14614048Y-16877714D02*
X14623572Y-16887238D01*
X14623572Y-16887238D02*
X14633096Y-16906286D01*
X14633096Y-16906286D02*
X14633096Y-16963429D01*
X14633096Y-16963429D02*
X14623572Y-16982476D01*
X14623572Y-16982476D02*
X14614048Y-16992000D01*
X14614048Y-16992000D02*
X14595000Y-17001524D01*
X14595000Y-17001524D02*
X14566429Y-17001524D01*
X14747381Y-17001524D02*
X14728334Y-16992000D01*
X14728334Y-16992000D02*
X14718810Y-16972952D01*
X14718810Y-16972952D02*
X14718810Y-16801524D01*
X14899762Y-16992000D02*
X14880715Y-17001524D01*
X14880715Y-17001524D02*
X14842619Y-17001524D01*
X14842619Y-17001524D02*
X14823572Y-16992000D01*
X14823572Y-16992000D02*
X14814048Y-16972952D01*
X14814048Y-16972952D02*
X14814048Y-16896762D01*
X14814048Y-16896762D02*
X14823572Y-16877714D01*
X14823572Y-16877714D02*
X14842619Y-16868190D01*
X14842619Y-16868190D02*
X14880715Y-16868190D01*
X14880715Y-16868190D02*
X14899762Y-16877714D01*
X14899762Y-16877714D02*
X14909286Y-16896762D01*
X14909286Y-16896762D02*
X14909286Y-16915810D01*
X14909286Y-16915810D02*
X14814048Y-16934857D01*
X14985477Y-16992000D02*
X15004524Y-17001524D01*
X15004524Y-17001524D02*
X15042619Y-17001524D01*
X15042619Y-17001524D02*
X15061667Y-16992000D01*
X15061667Y-16992000D02*
X15071191Y-16972952D01*
X15071191Y-16972952D02*
X15071191Y-16963429D01*
X15071191Y-16963429D02*
X15061667Y-16944381D01*
X15061667Y-16944381D02*
X15042619Y-16934857D01*
X15042619Y-16934857D02*
X15014048Y-16934857D01*
X15014048Y-16934857D02*
X14995000Y-16925333D01*
X14995000Y-16925333D02*
X14985477Y-16906286D01*
X14985477Y-16906286D02*
X14985477Y-16896762D01*
X14985477Y-16896762D02*
X14995000Y-16877714D01*
X14995000Y-16877714D02*
X15014048Y-16868190D01*
X15014048Y-16868190D02*
X15042619Y-16868190D01*
X15042619Y-16868190D02*
X15061667Y-16877714D01*
X15137858Y-17077714D02*
X15147381Y-17068190D01*
X15147381Y-17068190D02*
X15166429Y-17039619D01*
X15166429Y-17039619D02*
X15175953Y-17020571D01*
X15175953Y-17020571D02*
X15185477Y-16992000D01*
X15185477Y-16992000D02*
X15195000Y-16944381D01*
X15195000Y-16944381D02*
X15195000Y-16906286D01*
X15195000Y-16906286D02*
X15185477Y-16858667D01*
X15185477Y-16858667D02*
X15175953Y-16830095D01*
X15175953Y-16830095D02*
X15166429Y-16811048D01*
X15166429Y-16811048D02*
X15147381Y-16782476D01*
X15147381Y-16782476D02*
X15137858Y-16772952D01*
D14*
X9970000Y-17148000D02*
X9970000Y-17198000D01*
X9945000Y-17173000D02*
X9995000Y-17173000D01*
D11*
X10280714Y-17065524D02*
X10299762Y-17065524D01*
X10299762Y-17065524D02*
X10318810Y-17075048D01*
X10318810Y-17075048D02*
X10328333Y-17084571D01*
X10328333Y-17084571D02*
X10337857Y-17103619D01*
X10337857Y-17103619D02*
X10347381Y-17141714D01*
X10347381Y-17141714D02*
X10347381Y-17189333D01*
X10347381Y-17189333D02*
X10337857Y-17227429D01*
X10337857Y-17227429D02*
X10328333Y-17246476D01*
X10328333Y-17246476D02*
X10318810Y-17256000D01*
X10318810Y-17256000D02*
X10299762Y-17265524D01*
X10299762Y-17265524D02*
X10280714Y-17265524D01*
X10280714Y-17265524D02*
X10261667Y-17256000D01*
X10261667Y-17256000D02*
X10252143Y-17246476D01*
X10252143Y-17246476D02*
X10242619Y-17227429D01*
X10242619Y-17227429D02*
X10233095Y-17189333D01*
X10233095Y-17189333D02*
X10233095Y-17141714D01*
X10233095Y-17141714D02*
X10242619Y-17103619D01*
X10242619Y-17103619D02*
X10252143Y-17084571D01*
X10252143Y-17084571D02*
X10261667Y-17075048D01*
X10261667Y-17075048D02*
X10280714Y-17065524D01*
X10433095Y-17246476D02*
X10442619Y-17256000D01*
X10442619Y-17256000D02*
X10433095Y-17265524D01*
X10433095Y-17265524D02*
X10423571Y-17256000D01*
X10423571Y-17256000D02*
X10433095Y-17246476D01*
X10433095Y-17246476D02*
X10433095Y-17265524D01*
X10623571Y-17065524D02*
X10528333Y-17065524D01*
X10528333Y-17065524D02*
X10518810Y-17160762D01*
X10518810Y-17160762D02*
X10528333Y-17151238D01*
X10528333Y-17151238D02*
X10547381Y-17141714D01*
X10547381Y-17141714D02*
X10595000Y-17141714D01*
X10595000Y-17141714D02*
X10614048Y-17151238D01*
X10614048Y-17151238D02*
X10623571Y-17160762D01*
X10623571Y-17160762D02*
X10633095Y-17179810D01*
X10633095Y-17179810D02*
X10633095Y-17227429D01*
X10633095Y-17227429D02*
X10623571Y-17246476D01*
X10623571Y-17246476D02*
X10614048Y-17256000D01*
X10614048Y-17256000D02*
X10595000Y-17265524D01*
X10595000Y-17265524D02*
X10547381Y-17265524D01*
X10547381Y-17265524D02*
X10528333Y-17256000D01*
X10528333Y-17256000D02*
X10518810Y-17246476D01*
X10756905Y-17065524D02*
X10775952Y-17065524D01*
X10775952Y-17065524D02*
X10795000Y-17075048D01*
X10795000Y-17075048D02*
X10804524Y-17084571D01*
X10804524Y-17084571D02*
X10814048Y-17103619D01*
X10814048Y-17103619D02*
X10823571Y-17141714D01*
X10823571Y-17141714D02*
X10823571Y-17189333D01*
X10823571Y-17189333D02*
X10814048Y-17227429D01*
X10814048Y-17227429D02*
X10804524Y-17246476D01*
X10804524Y-17246476D02*
X10795000Y-17256000D01*
X10795000Y-17256000D02*
X10775952Y-17265524D01*
X10775952Y-17265524D02*
X10756905Y-17265524D01*
X10756905Y-17265524D02*
X10737857Y-17256000D01*
X10737857Y-17256000D02*
X10728333Y-17246476D01*
X10728333Y-17246476D02*
X10718810Y-17227429D01*
X10718810Y-17227429D02*
X10709286Y-17189333D01*
X10709286Y-17189333D02*
X10709286Y-17141714D01*
X10709286Y-17141714D02*
X10718810Y-17103619D01*
X10718810Y-17103619D02*
X10728333Y-17084571D01*
X10728333Y-17084571D02*
X10737857Y-17075048D01*
X10737857Y-17075048D02*
X10756905Y-17065524D01*
X10947381Y-17065524D02*
X10966429Y-17065524D01*
X10966429Y-17065524D02*
X10985476Y-17075048D01*
X10985476Y-17075048D02*
X10995000Y-17084571D01*
X10995000Y-17084571D02*
X11004524Y-17103619D01*
X11004524Y-17103619D02*
X11014048Y-17141714D01*
X11014048Y-17141714D02*
X11014048Y-17189333D01*
X11014048Y-17189333D02*
X11004524Y-17227429D01*
X11004524Y-17227429D02*
X10995000Y-17246476D01*
X10995000Y-17246476D02*
X10985476Y-17256000D01*
X10985476Y-17256000D02*
X10966429Y-17265524D01*
X10966429Y-17265524D02*
X10947381Y-17265524D01*
X10947381Y-17265524D02*
X10928333Y-17256000D01*
X10928333Y-17256000D02*
X10918810Y-17246476D01*
X10918810Y-17246476D02*
X10909286Y-17227429D01*
X10909286Y-17227429D02*
X10899762Y-17189333D01*
X10899762Y-17189333D02*
X10899762Y-17141714D01*
X10899762Y-17141714D02*
X10909286Y-17103619D01*
X10909286Y-17103619D02*
X10918810Y-17084571D01*
X10918810Y-17084571D02*
X10928333Y-17075048D01*
X10928333Y-17075048D02*
X10947381Y-17065524D01*
X11099762Y-17265524D02*
X11099762Y-17132190D01*
X11099762Y-17151238D02*
X11109286Y-17141714D01*
X11109286Y-17141714D02*
X11128333Y-17132190D01*
X11128333Y-17132190D02*
X11156905Y-17132190D01*
X11156905Y-17132190D02*
X11175952Y-17141714D01*
X11175952Y-17141714D02*
X11185476Y-17160762D01*
X11185476Y-17160762D02*
X11185476Y-17265524D01*
X11185476Y-17160762D02*
X11195000Y-17141714D01*
X11195000Y-17141714D02*
X11214048Y-17132190D01*
X11214048Y-17132190D02*
X11242619Y-17132190D01*
X11242619Y-17132190D02*
X11261667Y-17141714D01*
X11261667Y-17141714D02*
X11271190Y-17160762D01*
X11271190Y-17160762D02*
X11271190Y-17265524D01*
X11366429Y-17265524D02*
X11366429Y-17132190D01*
X11366429Y-17151238D02*
X11375952Y-17141714D01*
X11375952Y-17141714D02*
X11395000Y-17132190D01*
X11395000Y-17132190D02*
X11423571Y-17132190D01*
X11423571Y-17132190D02*
X11442619Y-17141714D01*
X11442619Y-17141714D02*
X11452143Y-17160762D01*
X11452143Y-17160762D02*
X11452143Y-17265524D01*
X11452143Y-17160762D02*
X11461667Y-17141714D01*
X11461667Y-17141714D02*
X11480714Y-17132190D01*
X11480714Y-17132190D02*
X11509286Y-17132190D01*
X11509286Y-17132190D02*
X11528333Y-17141714D01*
X11528333Y-17141714D02*
X11537857Y-17160762D01*
X11537857Y-17160762D02*
X11537857Y-17265524D01*
X11928333Y-17056000D02*
X11756905Y-17313143D01*
X12185476Y-17065524D02*
X12204524Y-17065524D01*
X12204524Y-17065524D02*
X12223572Y-17075048D01*
X12223572Y-17075048D02*
X12233095Y-17084571D01*
X12233095Y-17084571D02*
X12242619Y-17103619D01*
X12242619Y-17103619D02*
X12252143Y-17141714D01*
X12252143Y-17141714D02*
X12252143Y-17189333D01*
X12252143Y-17189333D02*
X12242619Y-17227429D01*
X12242619Y-17227429D02*
X12233095Y-17246476D01*
X12233095Y-17246476D02*
X12223572Y-17256000D01*
X12223572Y-17256000D02*
X12204524Y-17265524D01*
X12204524Y-17265524D02*
X12185476Y-17265524D01*
X12185476Y-17265524D02*
X12166429Y-17256000D01*
X12166429Y-17256000D02*
X12156905Y-17246476D01*
X12156905Y-17246476D02*
X12147381Y-17227429D01*
X12147381Y-17227429D02*
X12137857Y-17189333D01*
X12137857Y-17189333D02*
X12137857Y-17141714D01*
X12137857Y-17141714D02*
X12147381Y-17103619D01*
X12147381Y-17103619D02*
X12156905Y-17084571D01*
X12156905Y-17084571D02*
X12166429Y-17075048D01*
X12166429Y-17075048D02*
X12185476Y-17065524D01*
X12337857Y-17246476D02*
X12347381Y-17256000D01*
X12347381Y-17256000D02*
X12337857Y-17265524D01*
X12337857Y-17265524D02*
X12328333Y-17256000D01*
X12328333Y-17256000D02*
X12337857Y-17246476D01*
X12337857Y-17246476D02*
X12337857Y-17265524D01*
X12471191Y-17065524D02*
X12490238Y-17065524D01*
X12490238Y-17065524D02*
X12509286Y-17075048D01*
X12509286Y-17075048D02*
X12518810Y-17084571D01*
X12518810Y-17084571D02*
X12528333Y-17103619D01*
X12528333Y-17103619D02*
X12537857Y-17141714D01*
X12537857Y-17141714D02*
X12537857Y-17189333D01*
X12537857Y-17189333D02*
X12528333Y-17227429D01*
X12528333Y-17227429D02*
X12518810Y-17246476D01*
X12518810Y-17246476D02*
X12509286Y-17256000D01*
X12509286Y-17256000D02*
X12490238Y-17265524D01*
X12490238Y-17265524D02*
X12471191Y-17265524D01*
X12471191Y-17265524D02*
X12452143Y-17256000D01*
X12452143Y-17256000D02*
X12442619Y-17246476D01*
X12442619Y-17246476D02*
X12433095Y-17227429D01*
X12433095Y-17227429D02*
X12423572Y-17189333D01*
X12423572Y-17189333D02*
X12423572Y-17141714D01*
X12423572Y-17141714D02*
X12433095Y-17103619D01*
X12433095Y-17103619D02*
X12442619Y-17084571D01*
X12442619Y-17084571D02*
X12452143Y-17075048D01*
X12452143Y-17075048D02*
X12471191Y-17065524D01*
X12728333Y-17265524D02*
X12614048Y-17265524D01*
X12671191Y-17265524D02*
X12671191Y-17065524D01*
X12671191Y-17065524D02*
X12652143Y-17094095D01*
X12652143Y-17094095D02*
X12633095Y-17113143D01*
X12633095Y-17113143D02*
X12614048Y-17122667D01*
X12823572Y-17265524D02*
X12861667Y-17265524D01*
X12861667Y-17265524D02*
X12880714Y-17256000D01*
X12880714Y-17256000D02*
X12890238Y-17246476D01*
X12890238Y-17246476D02*
X12909286Y-17217905D01*
X12909286Y-17217905D02*
X12918810Y-17179810D01*
X12918810Y-17179810D02*
X12918810Y-17103619D01*
X12918810Y-17103619D02*
X12909286Y-17084571D01*
X12909286Y-17084571D02*
X12899762Y-17075048D01*
X12899762Y-17075048D02*
X12880714Y-17065524D01*
X12880714Y-17065524D02*
X12842619Y-17065524D01*
X12842619Y-17065524D02*
X12823572Y-17075048D01*
X12823572Y-17075048D02*
X12814048Y-17084571D01*
X12814048Y-17084571D02*
X12804524Y-17103619D01*
X12804524Y-17103619D02*
X12804524Y-17151238D01*
X12804524Y-17151238D02*
X12814048Y-17170286D01*
X12814048Y-17170286D02*
X12823572Y-17179810D01*
X12823572Y-17179810D02*
X12842619Y-17189333D01*
X12842619Y-17189333D02*
X12880714Y-17189333D01*
X12880714Y-17189333D02*
X12899762Y-17179810D01*
X12899762Y-17179810D02*
X12909286Y-17170286D01*
X12909286Y-17170286D02*
X12918810Y-17151238D01*
X12985476Y-17065524D02*
X13118810Y-17065524D01*
X13118810Y-17065524D02*
X13033095Y-17265524D01*
X13185476Y-17065524D02*
X13185476Y-17103619D01*
X13261667Y-17065524D02*
X13261667Y-17103619D01*
X13556905Y-17341714D02*
X13547381Y-17332190D01*
X13547381Y-17332190D02*
X13528334Y-17303619D01*
X13528334Y-17303619D02*
X13518810Y-17284571D01*
X13518810Y-17284571D02*
X13509286Y-17256000D01*
X13509286Y-17256000D02*
X13499762Y-17208381D01*
X13499762Y-17208381D02*
X13499762Y-17170286D01*
X13499762Y-17170286D02*
X13509286Y-17122667D01*
X13509286Y-17122667D02*
X13518810Y-17094095D01*
X13518810Y-17094095D02*
X13528334Y-17075048D01*
X13528334Y-17075048D02*
X13547381Y-17046476D01*
X13547381Y-17046476D02*
X13556905Y-17036952D01*
X13671191Y-17065524D02*
X13690238Y-17065524D01*
X13690238Y-17065524D02*
X13709286Y-17075048D01*
X13709286Y-17075048D02*
X13718810Y-17084571D01*
X13718810Y-17084571D02*
X13728334Y-17103619D01*
X13728334Y-17103619D02*
X13737857Y-17141714D01*
X13737857Y-17141714D02*
X13737857Y-17189333D01*
X13737857Y-17189333D02*
X13728334Y-17227429D01*
X13728334Y-17227429D02*
X13718810Y-17246476D01*
X13718810Y-17246476D02*
X13709286Y-17256000D01*
X13709286Y-17256000D02*
X13690238Y-17265524D01*
X13690238Y-17265524D02*
X13671191Y-17265524D01*
X13671191Y-17265524D02*
X13652143Y-17256000D01*
X13652143Y-17256000D02*
X13642619Y-17246476D01*
X13642619Y-17246476D02*
X13633095Y-17227429D01*
X13633095Y-17227429D02*
X13623572Y-17189333D01*
X13623572Y-17189333D02*
X13623572Y-17141714D01*
X13623572Y-17141714D02*
X13633095Y-17103619D01*
X13633095Y-17103619D02*
X13642619Y-17084571D01*
X13642619Y-17084571D02*
X13652143Y-17075048D01*
X13652143Y-17075048D02*
X13671191Y-17065524D01*
X13975953Y-17265524D02*
X13975953Y-17065524D01*
X14061667Y-17265524D02*
X14061667Y-17160762D01*
X14061667Y-17160762D02*
X14052143Y-17141714D01*
X14052143Y-17141714D02*
X14033096Y-17132190D01*
X14033096Y-17132190D02*
X14004524Y-17132190D01*
X14004524Y-17132190D02*
X13985476Y-17141714D01*
X13985476Y-17141714D02*
X13975953Y-17151238D01*
X14185476Y-17265524D02*
X14166429Y-17256000D01*
X14166429Y-17256000D02*
X14156905Y-17246476D01*
X14156905Y-17246476D02*
X14147381Y-17227429D01*
X14147381Y-17227429D02*
X14147381Y-17170286D01*
X14147381Y-17170286D02*
X14156905Y-17151238D01*
X14156905Y-17151238D02*
X14166429Y-17141714D01*
X14166429Y-17141714D02*
X14185476Y-17132190D01*
X14185476Y-17132190D02*
X14214048Y-17132190D01*
X14214048Y-17132190D02*
X14233096Y-17141714D01*
X14233096Y-17141714D02*
X14242619Y-17151238D01*
X14242619Y-17151238D02*
X14252143Y-17170286D01*
X14252143Y-17170286D02*
X14252143Y-17227429D01*
X14252143Y-17227429D02*
X14242619Y-17246476D01*
X14242619Y-17246476D02*
X14233096Y-17256000D01*
X14233096Y-17256000D02*
X14214048Y-17265524D01*
X14214048Y-17265524D02*
X14185476Y-17265524D01*
X14366429Y-17265524D02*
X14347381Y-17256000D01*
X14347381Y-17256000D02*
X14337857Y-17236952D01*
X14337857Y-17236952D02*
X14337857Y-17065524D01*
X14518810Y-17256000D02*
X14499762Y-17265524D01*
X14499762Y-17265524D02*
X14461667Y-17265524D01*
X14461667Y-17265524D02*
X14442619Y-17256000D01*
X14442619Y-17256000D02*
X14433096Y-17236952D01*
X14433096Y-17236952D02*
X14433096Y-17160762D01*
X14433096Y-17160762D02*
X14442619Y-17141714D01*
X14442619Y-17141714D02*
X14461667Y-17132190D01*
X14461667Y-17132190D02*
X14499762Y-17132190D01*
X14499762Y-17132190D02*
X14518810Y-17141714D01*
X14518810Y-17141714D02*
X14528334Y-17160762D01*
X14528334Y-17160762D02*
X14528334Y-17179810D01*
X14528334Y-17179810D02*
X14433096Y-17198857D01*
X14604524Y-17256000D02*
X14623572Y-17265524D01*
X14623572Y-17265524D02*
X14661667Y-17265524D01*
X14661667Y-17265524D02*
X14680715Y-17256000D01*
X14680715Y-17256000D02*
X14690238Y-17236952D01*
X14690238Y-17236952D02*
X14690238Y-17227429D01*
X14690238Y-17227429D02*
X14680715Y-17208381D01*
X14680715Y-17208381D02*
X14661667Y-17198857D01*
X14661667Y-17198857D02*
X14633096Y-17198857D01*
X14633096Y-17198857D02*
X14614048Y-17189333D01*
X14614048Y-17189333D02*
X14604524Y-17170286D01*
X14604524Y-17170286D02*
X14604524Y-17160762D01*
X14604524Y-17160762D02*
X14614048Y-17141714D01*
X14614048Y-17141714D02*
X14633096Y-17132190D01*
X14633096Y-17132190D02*
X14661667Y-17132190D01*
X14661667Y-17132190D02*
X14680715Y-17141714D01*
X14928334Y-17189333D02*
X15080715Y-17189333D01*
X15004524Y-17265524D02*
X15004524Y-17113143D01*
X15414048Y-17132190D02*
X15414048Y-17265524D01*
X15366429Y-17056000D02*
X15318810Y-17198857D01*
X15318810Y-17198857D02*
X15442619Y-17198857D01*
X15661667Y-17256000D02*
X15680715Y-17265524D01*
X15680715Y-17265524D02*
X15718810Y-17265524D01*
X15718810Y-17265524D02*
X15737858Y-17256000D01*
X15737858Y-17256000D02*
X15747381Y-17236952D01*
X15747381Y-17236952D02*
X15747381Y-17227429D01*
X15747381Y-17227429D02*
X15737858Y-17208381D01*
X15737858Y-17208381D02*
X15718810Y-17198857D01*
X15718810Y-17198857D02*
X15690239Y-17198857D01*
X15690239Y-17198857D02*
X15671191Y-17189333D01*
X15671191Y-17189333D02*
X15661667Y-17170286D01*
X15661667Y-17170286D02*
X15661667Y-17160762D01*
X15661667Y-17160762D02*
X15671191Y-17141714D01*
X15671191Y-17141714D02*
X15690239Y-17132190D01*
X15690239Y-17132190D02*
X15718810Y-17132190D01*
X15718810Y-17132190D02*
X15737858Y-17141714D01*
X15861667Y-17265524D02*
X15842620Y-17256000D01*
X15842620Y-17256000D02*
X15833096Y-17236952D01*
X15833096Y-17236952D02*
X15833096Y-17065524D01*
X15966429Y-17265524D02*
X15947381Y-17256000D01*
X15947381Y-17256000D02*
X15937858Y-17246476D01*
X15937858Y-17246476D02*
X15928334Y-17227429D01*
X15928334Y-17227429D02*
X15928334Y-17170286D01*
X15928334Y-17170286D02*
X15937858Y-17151238D01*
X15937858Y-17151238D02*
X15947381Y-17141714D01*
X15947381Y-17141714D02*
X15966429Y-17132190D01*
X15966429Y-17132190D02*
X15995001Y-17132190D01*
X15995001Y-17132190D02*
X16014048Y-17141714D01*
X16014048Y-17141714D02*
X16023572Y-17151238D01*
X16023572Y-17151238D02*
X16033096Y-17170286D01*
X16033096Y-17170286D02*
X16033096Y-17227429D01*
X16033096Y-17227429D02*
X16023572Y-17246476D01*
X16023572Y-17246476D02*
X16014048Y-17256000D01*
X16014048Y-17256000D02*
X15995001Y-17265524D01*
X15995001Y-17265524D02*
X15966429Y-17265524D01*
X16090239Y-17132190D02*
X16166429Y-17132190D01*
X16118810Y-17065524D02*
X16118810Y-17236952D01*
X16118810Y-17236952D02*
X16128334Y-17256000D01*
X16128334Y-17256000D02*
X16147381Y-17265524D01*
X16147381Y-17265524D02*
X16166429Y-17265524D01*
X16223572Y-17256000D02*
X16242620Y-17265524D01*
X16242620Y-17265524D02*
X16280715Y-17265524D01*
X16280715Y-17265524D02*
X16299762Y-17256000D01*
X16299762Y-17256000D02*
X16309286Y-17236952D01*
X16309286Y-17236952D02*
X16309286Y-17227429D01*
X16309286Y-17227429D02*
X16299762Y-17208381D01*
X16299762Y-17208381D02*
X16280715Y-17198857D01*
X16280715Y-17198857D02*
X16252143Y-17198857D01*
X16252143Y-17198857D02*
X16233096Y-17189333D01*
X16233096Y-17189333D02*
X16223572Y-17170286D01*
X16223572Y-17170286D02*
X16223572Y-17160762D01*
X16223572Y-17160762D02*
X16233096Y-17141714D01*
X16233096Y-17141714D02*
X16252143Y-17132190D01*
X16252143Y-17132190D02*
X16280715Y-17132190D01*
X16280715Y-17132190D02*
X16299762Y-17141714D01*
X16375953Y-17341714D02*
X16385477Y-17332190D01*
X16385477Y-17332190D02*
X16404524Y-17303619D01*
X16404524Y-17303619D02*
X16414048Y-17284571D01*
X16414048Y-17284571D02*
X16423572Y-17256000D01*
X16423572Y-17256000D02*
X16433096Y-17208381D01*
X16433096Y-17208381D02*
X16433096Y-17170286D01*
X16433096Y-17170286D02*
X16423572Y-17122667D01*
X16423572Y-17122667D02*
X16414048Y-17094095D01*
X16414048Y-17094095D02*
X16404524Y-17075048D01*
X16404524Y-17075048D02*
X16385477Y-17046476D01*
X16385477Y-17046476D02*
X16375953Y-17036952D01*
D10*
X9980356Y-17472356D02*
X9980356Y-17401644D01*
X9909644Y-17401644D01*
X9909644Y-17472356D01*
X9980356Y-17472356D01*
D11*
X10347381Y-17529524D02*
X10233095Y-17529524D01*
X10290238Y-17529524D02*
X10290238Y-17329524D01*
X10290238Y-17329524D02*
X10271190Y-17358095D01*
X10271190Y-17358095D02*
X10252143Y-17377143D01*
X10252143Y-17377143D02*
X10233095Y-17386667D01*
X10433095Y-17510476D02*
X10442619Y-17520000D01*
X10442619Y-17520000D02*
X10433095Y-17529524D01*
X10433095Y-17529524D02*
X10423571Y-17520000D01*
X10423571Y-17520000D02*
X10433095Y-17510476D01*
X10433095Y-17510476D02*
X10433095Y-17529524D01*
X10566429Y-17329524D02*
X10585476Y-17329524D01*
X10585476Y-17329524D02*
X10604524Y-17339048D01*
X10604524Y-17339048D02*
X10614048Y-17348571D01*
X10614048Y-17348571D02*
X10623571Y-17367619D01*
X10623571Y-17367619D02*
X10633095Y-17405714D01*
X10633095Y-17405714D02*
X10633095Y-17453333D01*
X10633095Y-17453333D02*
X10623571Y-17491429D01*
X10623571Y-17491429D02*
X10614048Y-17510476D01*
X10614048Y-17510476D02*
X10604524Y-17520000D01*
X10604524Y-17520000D02*
X10585476Y-17529524D01*
X10585476Y-17529524D02*
X10566429Y-17529524D01*
X10566429Y-17529524D02*
X10547381Y-17520000D01*
X10547381Y-17520000D02*
X10537857Y-17510476D01*
X10537857Y-17510476D02*
X10528333Y-17491429D01*
X10528333Y-17491429D02*
X10518810Y-17453333D01*
X10518810Y-17453333D02*
X10518810Y-17405714D01*
X10518810Y-17405714D02*
X10528333Y-17367619D01*
X10528333Y-17367619D02*
X10537857Y-17348571D01*
X10537857Y-17348571D02*
X10547381Y-17339048D01*
X10547381Y-17339048D02*
X10566429Y-17329524D01*
X10756905Y-17329524D02*
X10775952Y-17329524D01*
X10775952Y-17329524D02*
X10795000Y-17339048D01*
X10795000Y-17339048D02*
X10804524Y-17348571D01*
X10804524Y-17348571D02*
X10814048Y-17367619D01*
X10814048Y-17367619D02*
X10823571Y-17405714D01*
X10823571Y-17405714D02*
X10823571Y-17453333D01*
X10823571Y-17453333D02*
X10814048Y-17491429D01*
X10814048Y-17491429D02*
X10804524Y-17510476D01*
X10804524Y-17510476D02*
X10795000Y-17520000D01*
X10795000Y-17520000D02*
X10775952Y-17529524D01*
X10775952Y-17529524D02*
X10756905Y-17529524D01*
X10756905Y-17529524D02*
X10737857Y-17520000D01*
X10737857Y-17520000D02*
X10728333Y-17510476D01*
X10728333Y-17510476D02*
X10718810Y-17491429D01*
X10718810Y-17491429D02*
X10709286Y-17453333D01*
X10709286Y-17453333D02*
X10709286Y-17405714D01*
X10709286Y-17405714D02*
X10718810Y-17367619D01*
X10718810Y-17367619D02*
X10728333Y-17348571D01*
X10728333Y-17348571D02*
X10737857Y-17339048D01*
X10737857Y-17339048D02*
X10756905Y-17329524D01*
X10947381Y-17329524D02*
X10966429Y-17329524D01*
X10966429Y-17329524D02*
X10985476Y-17339048D01*
X10985476Y-17339048D02*
X10995000Y-17348571D01*
X10995000Y-17348571D02*
X11004524Y-17367619D01*
X11004524Y-17367619D02*
X11014048Y-17405714D01*
X11014048Y-17405714D02*
X11014048Y-17453333D01*
X11014048Y-17453333D02*
X11004524Y-17491429D01*
X11004524Y-17491429D02*
X10995000Y-17510476D01*
X10995000Y-17510476D02*
X10985476Y-17520000D01*
X10985476Y-17520000D02*
X10966429Y-17529524D01*
X10966429Y-17529524D02*
X10947381Y-17529524D01*
X10947381Y-17529524D02*
X10928333Y-17520000D01*
X10928333Y-17520000D02*
X10918810Y-17510476D01*
X10918810Y-17510476D02*
X10909286Y-17491429D01*
X10909286Y-17491429D02*
X10899762Y-17453333D01*
X10899762Y-17453333D02*
X10899762Y-17405714D01*
X10899762Y-17405714D02*
X10909286Y-17367619D01*
X10909286Y-17367619D02*
X10918810Y-17348571D01*
X10918810Y-17348571D02*
X10928333Y-17339048D01*
X10928333Y-17339048D02*
X10947381Y-17329524D01*
X11099762Y-17529524D02*
X11099762Y-17396190D01*
X11099762Y-17415238D02*
X11109286Y-17405714D01*
X11109286Y-17405714D02*
X11128333Y-17396190D01*
X11128333Y-17396190D02*
X11156905Y-17396190D01*
X11156905Y-17396190D02*
X11175952Y-17405714D01*
X11175952Y-17405714D02*
X11185476Y-17424762D01*
X11185476Y-17424762D02*
X11185476Y-17529524D01*
X11185476Y-17424762D02*
X11195000Y-17405714D01*
X11195000Y-17405714D02*
X11214048Y-17396190D01*
X11214048Y-17396190D02*
X11242619Y-17396190D01*
X11242619Y-17396190D02*
X11261667Y-17405714D01*
X11261667Y-17405714D02*
X11271190Y-17424762D01*
X11271190Y-17424762D02*
X11271190Y-17529524D01*
X11366429Y-17529524D02*
X11366429Y-17396190D01*
X11366429Y-17415238D02*
X11375952Y-17405714D01*
X11375952Y-17405714D02*
X11395000Y-17396190D01*
X11395000Y-17396190D02*
X11423571Y-17396190D01*
X11423571Y-17396190D02*
X11442619Y-17405714D01*
X11442619Y-17405714D02*
X11452143Y-17424762D01*
X11452143Y-17424762D02*
X11452143Y-17529524D01*
X11452143Y-17424762D02*
X11461667Y-17405714D01*
X11461667Y-17405714D02*
X11480714Y-17396190D01*
X11480714Y-17396190D02*
X11509286Y-17396190D01*
X11509286Y-17396190D02*
X11528333Y-17405714D01*
X11528333Y-17405714D02*
X11537857Y-17424762D01*
X11537857Y-17424762D02*
X11537857Y-17529524D01*
X11928333Y-17320000D02*
X11756905Y-17577143D01*
X12185476Y-17329524D02*
X12204524Y-17329524D01*
X12204524Y-17329524D02*
X12223572Y-17339048D01*
X12223572Y-17339048D02*
X12233095Y-17348571D01*
X12233095Y-17348571D02*
X12242619Y-17367619D01*
X12242619Y-17367619D02*
X12252143Y-17405714D01*
X12252143Y-17405714D02*
X12252143Y-17453333D01*
X12252143Y-17453333D02*
X12242619Y-17491429D01*
X12242619Y-17491429D02*
X12233095Y-17510476D01*
X12233095Y-17510476D02*
X12223572Y-17520000D01*
X12223572Y-17520000D02*
X12204524Y-17529524D01*
X12204524Y-17529524D02*
X12185476Y-17529524D01*
X12185476Y-17529524D02*
X12166429Y-17520000D01*
X12166429Y-17520000D02*
X12156905Y-17510476D01*
X12156905Y-17510476D02*
X12147381Y-17491429D01*
X12147381Y-17491429D02*
X12137857Y-17453333D01*
X12137857Y-17453333D02*
X12137857Y-17405714D01*
X12137857Y-17405714D02*
X12147381Y-17367619D01*
X12147381Y-17367619D02*
X12156905Y-17348571D01*
X12156905Y-17348571D02*
X12166429Y-17339048D01*
X12166429Y-17339048D02*
X12185476Y-17329524D01*
X12337857Y-17510476D02*
X12347381Y-17520000D01*
X12347381Y-17520000D02*
X12337857Y-17529524D01*
X12337857Y-17529524D02*
X12328333Y-17520000D01*
X12328333Y-17520000D02*
X12337857Y-17510476D01*
X12337857Y-17510476D02*
X12337857Y-17529524D01*
X12471191Y-17329524D02*
X12490238Y-17329524D01*
X12490238Y-17329524D02*
X12509286Y-17339048D01*
X12509286Y-17339048D02*
X12518810Y-17348571D01*
X12518810Y-17348571D02*
X12528333Y-17367619D01*
X12528333Y-17367619D02*
X12537857Y-17405714D01*
X12537857Y-17405714D02*
X12537857Y-17453333D01*
X12537857Y-17453333D02*
X12528333Y-17491429D01*
X12528333Y-17491429D02*
X12518810Y-17510476D01*
X12518810Y-17510476D02*
X12509286Y-17520000D01*
X12509286Y-17520000D02*
X12490238Y-17529524D01*
X12490238Y-17529524D02*
X12471191Y-17529524D01*
X12471191Y-17529524D02*
X12452143Y-17520000D01*
X12452143Y-17520000D02*
X12442619Y-17510476D01*
X12442619Y-17510476D02*
X12433095Y-17491429D01*
X12433095Y-17491429D02*
X12423572Y-17453333D01*
X12423572Y-17453333D02*
X12423572Y-17405714D01*
X12423572Y-17405714D02*
X12433095Y-17367619D01*
X12433095Y-17367619D02*
X12442619Y-17348571D01*
X12442619Y-17348571D02*
X12452143Y-17339048D01*
X12452143Y-17339048D02*
X12471191Y-17329524D01*
X12604524Y-17329524D02*
X12728333Y-17329524D01*
X12728333Y-17329524D02*
X12661667Y-17405714D01*
X12661667Y-17405714D02*
X12690238Y-17405714D01*
X12690238Y-17405714D02*
X12709286Y-17415238D01*
X12709286Y-17415238D02*
X12718810Y-17424762D01*
X12718810Y-17424762D02*
X12728333Y-17443810D01*
X12728333Y-17443810D02*
X12728333Y-17491429D01*
X12728333Y-17491429D02*
X12718810Y-17510476D01*
X12718810Y-17510476D02*
X12709286Y-17520000D01*
X12709286Y-17520000D02*
X12690238Y-17529524D01*
X12690238Y-17529524D02*
X12633095Y-17529524D01*
X12633095Y-17529524D02*
X12614048Y-17520000D01*
X12614048Y-17520000D02*
X12604524Y-17510476D01*
X12823572Y-17529524D02*
X12861667Y-17529524D01*
X12861667Y-17529524D02*
X12880714Y-17520000D01*
X12880714Y-17520000D02*
X12890238Y-17510476D01*
X12890238Y-17510476D02*
X12909286Y-17481905D01*
X12909286Y-17481905D02*
X12918810Y-17443810D01*
X12918810Y-17443810D02*
X12918810Y-17367619D01*
X12918810Y-17367619D02*
X12909286Y-17348571D01*
X12909286Y-17348571D02*
X12899762Y-17339048D01*
X12899762Y-17339048D02*
X12880714Y-17329524D01*
X12880714Y-17329524D02*
X12842619Y-17329524D01*
X12842619Y-17329524D02*
X12823572Y-17339048D01*
X12823572Y-17339048D02*
X12814048Y-17348571D01*
X12814048Y-17348571D02*
X12804524Y-17367619D01*
X12804524Y-17367619D02*
X12804524Y-17415238D01*
X12804524Y-17415238D02*
X12814048Y-17434286D01*
X12814048Y-17434286D02*
X12823572Y-17443810D01*
X12823572Y-17443810D02*
X12842619Y-17453333D01*
X12842619Y-17453333D02*
X12880714Y-17453333D01*
X12880714Y-17453333D02*
X12899762Y-17443810D01*
X12899762Y-17443810D02*
X12909286Y-17434286D01*
X12909286Y-17434286D02*
X12918810Y-17415238D01*
X13090238Y-17396190D02*
X13090238Y-17529524D01*
X13042619Y-17320000D02*
X12995000Y-17462857D01*
X12995000Y-17462857D02*
X13118810Y-17462857D01*
X13185476Y-17329524D02*
X13185476Y-17367619D01*
X13261667Y-17329524D02*
X13261667Y-17367619D01*
X13556905Y-17605714D02*
X13547381Y-17596190D01*
X13547381Y-17596190D02*
X13528334Y-17567619D01*
X13528334Y-17567619D02*
X13518810Y-17548571D01*
X13518810Y-17548571D02*
X13509286Y-17520000D01*
X13509286Y-17520000D02*
X13499762Y-17472381D01*
X13499762Y-17472381D02*
X13499762Y-17434286D01*
X13499762Y-17434286D02*
X13509286Y-17386667D01*
X13509286Y-17386667D02*
X13518810Y-17358095D01*
X13518810Y-17358095D02*
X13528334Y-17339048D01*
X13528334Y-17339048D02*
X13547381Y-17310476D01*
X13547381Y-17310476D02*
X13556905Y-17300952D01*
X13614048Y-17329524D02*
X13747381Y-17329524D01*
X13747381Y-17329524D02*
X13661667Y-17529524D01*
X13833095Y-17529524D02*
X13871191Y-17529524D01*
X13871191Y-17529524D02*
X13890238Y-17520000D01*
X13890238Y-17520000D02*
X13899762Y-17510476D01*
X13899762Y-17510476D02*
X13918810Y-17481905D01*
X13918810Y-17481905D02*
X13928334Y-17443810D01*
X13928334Y-17443810D02*
X13928334Y-17367619D01*
X13928334Y-17367619D02*
X13918810Y-17348571D01*
X13918810Y-17348571D02*
X13909286Y-17339048D01*
X13909286Y-17339048D02*
X13890238Y-17329524D01*
X13890238Y-17329524D02*
X13852143Y-17329524D01*
X13852143Y-17329524D02*
X13833095Y-17339048D01*
X13833095Y-17339048D02*
X13823572Y-17348571D01*
X13823572Y-17348571D02*
X13814048Y-17367619D01*
X13814048Y-17367619D02*
X13814048Y-17415238D01*
X13814048Y-17415238D02*
X13823572Y-17434286D01*
X13823572Y-17434286D02*
X13833095Y-17443810D01*
X13833095Y-17443810D02*
X13852143Y-17453333D01*
X13852143Y-17453333D02*
X13890238Y-17453333D01*
X13890238Y-17453333D02*
X13909286Y-17443810D01*
X13909286Y-17443810D02*
X13918810Y-17434286D01*
X13918810Y-17434286D02*
X13928334Y-17415238D01*
X14166429Y-17529524D02*
X14166429Y-17329524D01*
X14252143Y-17529524D02*
X14252143Y-17424762D01*
X14252143Y-17424762D02*
X14242619Y-17405714D01*
X14242619Y-17405714D02*
X14223572Y-17396190D01*
X14223572Y-17396190D02*
X14195000Y-17396190D01*
X14195000Y-17396190D02*
X14175953Y-17405714D01*
X14175953Y-17405714D02*
X14166429Y-17415238D01*
X14375953Y-17529524D02*
X14356905Y-17520000D01*
X14356905Y-17520000D02*
X14347381Y-17510476D01*
X14347381Y-17510476D02*
X14337857Y-17491429D01*
X14337857Y-17491429D02*
X14337857Y-17434286D01*
X14337857Y-17434286D02*
X14347381Y-17415238D01*
X14347381Y-17415238D02*
X14356905Y-17405714D01*
X14356905Y-17405714D02*
X14375953Y-17396190D01*
X14375953Y-17396190D02*
X14404524Y-17396190D01*
X14404524Y-17396190D02*
X14423572Y-17405714D01*
X14423572Y-17405714D02*
X14433096Y-17415238D01*
X14433096Y-17415238D02*
X14442619Y-17434286D01*
X14442619Y-17434286D02*
X14442619Y-17491429D01*
X14442619Y-17491429D02*
X14433096Y-17510476D01*
X14433096Y-17510476D02*
X14423572Y-17520000D01*
X14423572Y-17520000D02*
X14404524Y-17529524D01*
X14404524Y-17529524D02*
X14375953Y-17529524D01*
X14556905Y-17529524D02*
X14537857Y-17520000D01*
X14537857Y-17520000D02*
X14528334Y-17500952D01*
X14528334Y-17500952D02*
X14528334Y-17329524D01*
X14709286Y-17520000D02*
X14690238Y-17529524D01*
X14690238Y-17529524D02*
X14652143Y-17529524D01*
X14652143Y-17529524D02*
X14633096Y-17520000D01*
X14633096Y-17520000D02*
X14623572Y-17500952D01*
X14623572Y-17500952D02*
X14623572Y-17424762D01*
X14623572Y-17424762D02*
X14633096Y-17405714D01*
X14633096Y-17405714D02*
X14652143Y-17396190D01*
X14652143Y-17396190D02*
X14690238Y-17396190D01*
X14690238Y-17396190D02*
X14709286Y-17405714D01*
X14709286Y-17405714D02*
X14718810Y-17424762D01*
X14718810Y-17424762D02*
X14718810Y-17443810D01*
X14718810Y-17443810D02*
X14623572Y-17462857D01*
X14795000Y-17520000D02*
X14814048Y-17529524D01*
X14814048Y-17529524D02*
X14852143Y-17529524D01*
X14852143Y-17529524D02*
X14871191Y-17520000D01*
X14871191Y-17520000D02*
X14880715Y-17500952D01*
X14880715Y-17500952D02*
X14880715Y-17491429D01*
X14880715Y-17491429D02*
X14871191Y-17472381D01*
X14871191Y-17472381D02*
X14852143Y-17462857D01*
X14852143Y-17462857D02*
X14823572Y-17462857D01*
X14823572Y-17462857D02*
X14804524Y-17453333D01*
X14804524Y-17453333D02*
X14795000Y-17434286D01*
X14795000Y-17434286D02*
X14795000Y-17424762D01*
X14795000Y-17424762D02*
X14804524Y-17405714D01*
X14804524Y-17405714D02*
X14823572Y-17396190D01*
X14823572Y-17396190D02*
X14852143Y-17396190D01*
X14852143Y-17396190D02*
X14871191Y-17405714D01*
X14947381Y-17605714D02*
X14956905Y-17596190D01*
X14956905Y-17596190D02*
X14975953Y-17567619D01*
X14975953Y-17567619D02*
X14985477Y-17548571D01*
X14985477Y-17548571D02*
X14995000Y-17520000D01*
X14995000Y-17520000D02*
X15004524Y-17472381D01*
X15004524Y-17472381D02*
X15004524Y-17434286D01*
X15004524Y-17434286D02*
X14995000Y-17386667D01*
X14995000Y-17386667D02*
X14985477Y-17358095D01*
X14985477Y-17358095D02*
X14975953Y-17339048D01*
X14975953Y-17339048D02*
X14956905Y-17310476D01*
X14956905Y-17310476D02*
X14947381Y-17300952D01*
D15*
X9944000Y-17752000D02*
X9995000Y-17701000D01*
X9944000Y-17650000D01*
X9893000Y-17701000D01*
X9944000Y-17752000D01*
D11*
X10347381Y-17793524D02*
X10233095Y-17793524D01*
X10290238Y-17793524D02*
X10290238Y-17593524D01*
X10290238Y-17593524D02*
X10271190Y-17622095D01*
X10271190Y-17622095D02*
X10252143Y-17641143D01*
X10252143Y-17641143D02*
X10233095Y-17650667D01*
X10433095Y-17774476D02*
X10442619Y-17784000D01*
X10442619Y-17784000D02*
X10433095Y-17793524D01*
X10433095Y-17793524D02*
X10423571Y-17784000D01*
X10423571Y-17784000D02*
X10433095Y-17774476D01*
X10433095Y-17774476D02*
X10433095Y-17793524D01*
X10566429Y-17593524D02*
X10585476Y-17593524D01*
X10585476Y-17593524D02*
X10604524Y-17603048D01*
X10604524Y-17603048D02*
X10614048Y-17612571D01*
X10614048Y-17612571D02*
X10623571Y-17631619D01*
X10623571Y-17631619D02*
X10633095Y-17669714D01*
X10633095Y-17669714D02*
X10633095Y-17717333D01*
X10633095Y-17717333D02*
X10623571Y-17755429D01*
X10623571Y-17755429D02*
X10614048Y-17774476D01*
X10614048Y-17774476D02*
X10604524Y-17784000D01*
X10604524Y-17784000D02*
X10585476Y-17793524D01*
X10585476Y-17793524D02*
X10566429Y-17793524D01*
X10566429Y-17793524D02*
X10547381Y-17784000D01*
X10547381Y-17784000D02*
X10537857Y-17774476D01*
X10537857Y-17774476D02*
X10528333Y-17755429D01*
X10528333Y-17755429D02*
X10518810Y-17717333D01*
X10518810Y-17717333D02*
X10518810Y-17669714D01*
X10518810Y-17669714D02*
X10528333Y-17631619D01*
X10528333Y-17631619D02*
X10537857Y-17612571D01*
X10537857Y-17612571D02*
X10547381Y-17603048D01*
X10547381Y-17603048D02*
X10566429Y-17593524D01*
X10709286Y-17612571D02*
X10718810Y-17603048D01*
X10718810Y-17603048D02*
X10737857Y-17593524D01*
X10737857Y-17593524D02*
X10785476Y-17593524D01*
X10785476Y-17593524D02*
X10804524Y-17603048D01*
X10804524Y-17603048D02*
X10814048Y-17612571D01*
X10814048Y-17612571D02*
X10823571Y-17631619D01*
X10823571Y-17631619D02*
X10823571Y-17650667D01*
X10823571Y-17650667D02*
X10814048Y-17679238D01*
X10814048Y-17679238D02*
X10699762Y-17793524D01*
X10699762Y-17793524D02*
X10823571Y-17793524D01*
X10947381Y-17593524D02*
X10966429Y-17593524D01*
X10966429Y-17593524D02*
X10985476Y-17603048D01*
X10985476Y-17603048D02*
X10995000Y-17612571D01*
X10995000Y-17612571D02*
X11004524Y-17631619D01*
X11004524Y-17631619D02*
X11014048Y-17669714D01*
X11014048Y-17669714D02*
X11014048Y-17717333D01*
X11014048Y-17717333D02*
X11004524Y-17755429D01*
X11004524Y-17755429D02*
X10995000Y-17774476D01*
X10995000Y-17774476D02*
X10985476Y-17784000D01*
X10985476Y-17784000D02*
X10966429Y-17793524D01*
X10966429Y-17793524D02*
X10947381Y-17793524D01*
X10947381Y-17793524D02*
X10928333Y-17784000D01*
X10928333Y-17784000D02*
X10918810Y-17774476D01*
X10918810Y-17774476D02*
X10909286Y-17755429D01*
X10909286Y-17755429D02*
X10899762Y-17717333D01*
X10899762Y-17717333D02*
X10899762Y-17669714D01*
X10899762Y-17669714D02*
X10909286Y-17631619D01*
X10909286Y-17631619D02*
X10918810Y-17612571D01*
X10918810Y-17612571D02*
X10928333Y-17603048D01*
X10928333Y-17603048D02*
X10947381Y-17593524D01*
X11099762Y-17793524D02*
X11099762Y-17660190D01*
X11099762Y-17679238D02*
X11109286Y-17669714D01*
X11109286Y-17669714D02*
X11128333Y-17660190D01*
X11128333Y-17660190D02*
X11156905Y-17660190D01*
X11156905Y-17660190D02*
X11175952Y-17669714D01*
X11175952Y-17669714D02*
X11185476Y-17688762D01*
X11185476Y-17688762D02*
X11185476Y-17793524D01*
X11185476Y-17688762D02*
X11195000Y-17669714D01*
X11195000Y-17669714D02*
X11214048Y-17660190D01*
X11214048Y-17660190D02*
X11242619Y-17660190D01*
X11242619Y-17660190D02*
X11261667Y-17669714D01*
X11261667Y-17669714D02*
X11271190Y-17688762D01*
X11271190Y-17688762D02*
X11271190Y-17793524D01*
X11366429Y-17793524D02*
X11366429Y-17660190D01*
X11366429Y-17679238D02*
X11375952Y-17669714D01*
X11375952Y-17669714D02*
X11395000Y-17660190D01*
X11395000Y-17660190D02*
X11423571Y-17660190D01*
X11423571Y-17660190D02*
X11442619Y-17669714D01*
X11442619Y-17669714D02*
X11452143Y-17688762D01*
X11452143Y-17688762D02*
X11452143Y-17793524D01*
X11452143Y-17688762D02*
X11461667Y-17669714D01*
X11461667Y-17669714D02*
X11480714Y-17660190D01*
X11480714Y-17660190D02*
X11509286Y-17660190D01*
X11509286Y-17660190D02*
X11528333Y-17669714D01*
X11528333Y-17669714D02*
X11537857Y-17688762D01*
X11537857Y-17688762D02*
X11537857Y-17793524D01*
X11928333Y-17584000D02*
X11756905Y-17841143D01*
X12185476Y-17593524D02*
X12204524Y-17593524D01*
X12204524Y-17593524D02*
X12223572Y-17603048D01*
X12223572Y-17603048D02*
X12233095Y-17612571D01*
X12233095Y-17612571D02*
X12242619Y-17631619D01*
X12242619Y-17631619D02*
X12252143Y-17669714D01*
X12252143Y-17669714D02*
X12252143Y-17717333D01*
X12252143Y-17717333D02*
X12242619Y-17755429D01*
X12242619Y-17755429D02*
X12233095Y-17774476D01*
X12233095Y-17774476D02*
X12223572Y-17784000D01*
X12223572Y-17784000D02*
X12204524Y-17793524D01*
X12204524Y-17793524D02*
X12185476Y-17793524D01*
X12185476Y-17793524D02*
X12166429Y-17784000D01*
X12166429Y-17784000D02*
X12156905Y-17774476D01*
X12156905Y-17774476D02*
X12147381Y-17755429D01*
X12147381Y-17755429D02*
X12137857Y-17717333D01*
X12137857Y-17717333D02*
X12137857Y-17669714D01*
X12137857Y-17669714D02*
X12147381Y-17631619D01*
X12147381Y-17631619D02*
X12156905Y-17612571D01*
X12156905Y-17612571D02*
X12166429Y-17603048D01*
X12166429Y-17603048D02*
X12185476Y-17593524D01*
X12337857Y-17774476D02*
X12347381Y-17784000D01*
X12347381Y-17784000D02*
X12337857Y-17793524D01*
X12337857Y-17793524D02*
X12328333Y-17784000D01*
X12328333Y-17784000D02*
X12337857Y-17774476D01*
X12337857Y-17774476D02*
X12337857Y-17793524D01*
X12471191Y-17593524D02*
X12490238Y-17593524D01*
X12490238Y-17593524D02*
X12509286Y-17603048D01*
X12509286Y-17603048D02*
X12518810Y-17612571D01*
X12518810Y-17612571D02*
X12528333Y-17631619D01*
X12528333Y-17631619D02*
X12537857Y-17669714D01*
X12537857Y-17669714D02*
X12537857Y-17717333D01*
X12537857Y-17717333D02*
X12528333Y-17755429D01*
X12528333Y-17755429D02*
X12518810Y-17774476D01*
X12518810Y-17774476D02*
X12509286Y-17784000D01*
X12509286Y-17784000D02*
X12490238Y-17793524D01*
X12490238Y-17793524D02*
X12471191Y-17793524D01*
X12471191Y-17793524D02*
X12452143Y-17784000D01*
X12452143Y-17784000D02*
X12442619Y-17774476D01*
X12442619Y-17774476D02*
X12433095Y-17755429D01*
X12433095Y-17755429D02*
X12423572Y-17717333D01*
X12423572Y-17717333D02*
X12423572Y-17669714D01*
X12423572Y-17669714D02*
X12433095Y-17631619D01*
X12433095Y-17631619D02*
X12442619Y-17612571D01*
X12442619Y-17612571D02*
X12452143Y-17603048D01*
X12452143Y-17603048D02*
X12471191Y-17593524D01*
X12709286Y-17660190D02*
X12709286Y-17793524D01*
X12661667Y-17584000D02*
X12614048Y-17726857D01*
X12614048Y-17726857D02*
X12737857Y-17726857D01*
X12852143Y-17593524D02*
X12871191Y-17593524D01*
X12871191Y-17593524D02*
X12890238Y-17603048D01*
X12890238Y-17603048D02*
X12899762Y-17612571D01*
X12899762Y-17612571D02*
X12909286Y-17631619D01*
X12909286Y-17631619D02*
X12918810Y-17669714D01*
X12918810Y-17669714D02*
X12918810Y-17717333D01*
X12918810Y-17717333D02*
X12909286Y-17755429D01*
X12909286Y-17755429D02*
X12899762Y-17774476D01*
X12899762Y-17774476D02*
X12890238Y-17784000D01*
X12890238Y-17784000D02*
X12871191Y-17793524D01*
X12871191Y-17793524D02*
X12852143Y-17793524D01*
X12852143Y-17793524D02*
X12833095Y-17784000D01*
X12833095Y-17784000D02*
X12823572Y-17774476D01*
X12823572Y-17774476D02*
X12814048Y-17755429D01*
X12814048Y-17755429D02*
X12804524Y-17717333D01*
X12804524Y-17717333D02*
X12804524Y-17669714D01*
X12804524Y-17669714D02*
X12814048Y-17631619D01*
X12814048Y-17631619D02*
X12823572Y-17612571D01*
X12823572Y-17612571D02*
X12833095Y-17603048D01*
X12833095Y-17603048D02*
X12852143Y-17593524D01*
X12995000Y-17612571D02*
X13004524Y-17603048D01*
X13004524Y-17603048D02*
X13023572Y-17593524D01*
X13023572Y-17593524D02*
X13071191Y-17593524D01*
X13071191Y-17593524D02*
X13090238Y-17603048D01*
X13090238Y-17603048D02*
X13099762Y-17612571D01*
X13099762Y-17612571D02*
X13109286Y-17631619D01*
X13109286Y-17631619D02*
X13109286Y-17650667D01*
X13109286Y-17650667D02*
X13099762Y-17679238D01*
X13099762Y-17679238D02*
X12985476Y-17793524D01*
X12985476Y-17793524D02*
X13109286Y-17793524D01*
X13185476Y-17593524D02*
X13185476Y-17631619D01*
X13261667Y-17593524D02*
X13261667Y-17631619D01*
X13556905Y-17869714D02*
X13547381Y-17860190D01*
X13547381Y-17860190D02*
X13528334Y-17831619D01*
X13528334Y-17831619D02*
X13518810Y-17812571D01*
X13518810Y-17812571D02*
X13509286Y-17784000D01*
X13509286Y-17784000D02*
X13499762Y-17736381D01*
X13499762Y-17736381D02*
X13499762Y-17698286D01*
X13499762Y-17698286D02*
X13509286Y-17650667D01*
X13509286Y-17650667D02*
X13518810Y-17622095D01*
X13518810Y-17622095D02*
X13528334Y-17603048D01*
X13528334Y-17603048D02*
X13547381Y-17574476D01*
X13547381Y-17574476D02*
X13556905Y-17564952D01*
X13661667Y-17679238D02*
X13642619Y-17669714D01*
X13642619Y-17669714D02*
X13633095Y-17660190D01*
X13633095Y-17660190D02*
X13623572Y-17641143D01*
X13623572Y-17641143D02*
X13623572Y-17631619D01*
X13623572Y-17631619D02*
X13633095Y-17612571D01*
X13633095Y-17612571D02*
X13642619Y-17603048D01*
X13642619Y-17603048D02*
X13661667Y-17593524D01*
X13661667Y-17593524D02*
X13699762Y-17593524D01*
X13699762Y-17593524D02*
X13718810Y-17603048D01*
X13718810Y-17603048D02*
X13728334Y-17612571D01*
X13728334Y-17612571D02*
X13737857Y-17631619D01*
X13737857Y-17631619D02*
X13737857Y-17641143D01*
X13737857Y-17641143D02*
X13728334Y-17660190D01*
X13728334Y-17660190D02*
X13718810Y-17669714D01*
X13718810Y-17669714D02*
X13699762Y-17679238D01*
X13699762Y-17679238D02*
X13661667Y-17679238D01*
X13661667Y-17679238D02*
X13642619Y-17688762D01*
X13642619Y-17688762D02*
X13633095Y-17698286D01*
X13633095Y-17698286D02*
X13623572Y-17717333D01*
X13623572Y-17717333D02*
X13623572Y-17755429D01*
X13623572Y-17755429D02*
X13633095Y-17774476D01*
X13633095Y-17774476D02*
X13642619Y-17784000D01*
X13642619Y-17784000D02*
X13661667Y-17793524D01*
X13661667Y-17793524D02*
X13699762Y-17793524D01*
X13699762Y-17793524D02*
X13718810Y-17784000D01*
X13718810Y-17784000D02*
X13728334Y-17774476D01*
X13728334Y-17774476D02*
X13737857Y-17755429D01*
X13737857Y-17755429D02*
X13737857Y-17717333D01*
X13737857Y-17717333D02*
X13728334Y-17698286D01*
X13728334Y-17698286D02*
X13718810Y-17688762D01*
X13718810Y-17688762D02*
X13699762Y-17679238D01*
X13975953Y-17793524D02*
X13975953Y-17593524D01*
X14061667Y-17793524D02*
X14061667Y-17688762D01*
X14061667Y-17688762D02*
X14052143Y-17669714D01*
X14052143Y-17669714D02*
X14033096Y-17660190D01*
X14033096Y-17660190D02*
X14004524Y-17660190D01*
X14004524Y-17660190D02*
X13985476Y-17669714D01*
X13985476Y-17669714D02*
X13975953Y-17679238D01*
X14185476Y-17793524D02*
X14166429Y-17784000D01*
X14166429Y-17784000D02*
X14156905Y-17774476D01*
X14156905Y-17774476D02*
X14147381Y-17755429D01*
X14147381Y-17755429D02*
X14147381Y-17698286D01*
X14147381Y-17698286D02*
X14156905Y-17679238D01*
X14156905Y-17679238D02*
X14166429Y-17669714D01*
X14166429Y-17669714D02*
X14185476Y-17660190D01*
X14185476Y-17660190D02*
X14214048Y-17660190D01*
X14214048Y-17660190D02*
X14233096Y-17669714D01*
X14233096Y-17669714D02*
X14242619Y-17679238D01*
X14242619Y-17679238D02*
X14252143Y-17698286D01*
X14252143Y-17698286D02*
X14252143Y-17755429D01*
X14252143Y-17755429D02*
X14242619Y-17774476D01*
X14242619Y-17774476D02*
X14233096Y-17784000D01*
X14233096Y-17784000D02*
X14214048Y-17793524D01*
X14214048Y-17793524D02*
X14185476Y-17793524D01*
X14366429Y-17793524D02*
X14347381Y-17784000D01*
X14347381Y-17784000D02*
X14337857Y-17764952D01*
X14337857Y-17764952D02*
X14337857Y-17593524D01*
X14518810Y-17784000D02*
X14499762Y-17793524D01*
X14499762Y-17793524D02*
X14461667Y-17793524D01*
X14461667Y-17793524D02*
X14442619Y-17784000D01*
X14442619Y-17784000D02*
X14433096Y-17764952D01*
X14433096Y-17764952D02*
X14433096Y-17688762D01*
X14433096Y-17688762D02*
X14442619Y-17669714D01*
X14442619Y-17669714D02*
X14461667Y-17660190D01*
X14461667Y-17660190D02*
X14499762Y-17660190D01*
X14499762Y-17660190D02*
X14518810Y-17669714D01*
X14518810Y-17669714D02*
X14528334Y-17688762D01*
X14528334Y-17688762D02*
X14528334Y-17707810D01*
X14528334Y-17707810D02*
X14433096Y-17726857D01*
X14604524Y-17784000D02*
X14623572Y-17793524D01*
X14623572Y-17793524D02*
X14661667Y-17793524D01*
X14661667Y-17793524D02*
X14680715Y-17784000D01*
X14680715Y-17784000D02*
X14690238Y-17764952D01*
X14690238Y-17764952D02*
X14690238Y-17755429D01*
X14690238Y-17755429D02*
X14680715Y-17736381D01*
X14680715Y-17736381D02*
X14661667Y-17726857D01*
X14661667Y-17726857D02*
X14633096Y-17726857D01*
X14633096Y-17726857D02*
X14614048Y-17717333D01*
X14614048Y-17717333D02*
X14604524Y-17698286D01*
X14604524Y-17698286D02*
X14604524Y-17688762D01*
X14604524Y-17688762D02*
X14614048Y-17669714D01*
X14614048Y-17669714D02*
X14633096Y-17660190D01*
X14633096Y-17660190D02*
X14661667Y-17660190D01*
X14661667Y-17660190D02*
X14680715Y-17669714D01*
X14756905Y-17869714D02*
X14766429Y-17860190D01*
X14766429Y-17860190D02*
X14785477Y-17831619D01*
X14785477Y-17831619D02*
X14795000Y-17812571D01*
X14795000Y-17812571D02*
X14804524Y-17784000D01*
X14804524Y-17784000D02*
X14814048Y-17736381D01*
X14814048Y-17736381D02*
X14814048Y-17698286D01*
X14814048Y-17698286D02*
X14804524Y-17650667D01*
X14804524Y-17650667D02*
X14795000Y-17622095D01*
X14795000Y-17622095D02*
X14785477Y-17603048D01*
X14785477Y-17603048D02*
X14766429Y-17574476D01*
X14766429Y-17574476D02*
X14756905Y-17564952D01*
M02*
