M48
INCH,TZ
T1C0.0118
T2C0.0157
T3C0.0197
T4C0.0394
T5C0.0402
%
G90
G05
T1
X73091Y-51220
X73091Y-51535
X73091Y-51850
X73091Y-52165
X73091Y-52480
X73189Y-50846
X73189Y-52815
X73406Y-51220
X73406Y-51535
X73406Y-51850
X73406Y-52165
X73406Y-52480
X73504Y-50846
X73504Y-52815
X73720Y-51220
X73720Y-51535
X73720Y-51850
X73720Y-52165
X73720Y-52480
X73819Y-50846
X73819Y-52815
X74035Y-51220
X74035Y-51535
X74035Y-51850
X74035Y-52165
X74035Y-52480
X74134Y-50846
X74134Y-52815
X74350Y-51220
X74350Y-51535
X74350Y-51850
X74350Y-52165
X74350Y-52480
X74449Y-50846
X74449Y-52815
X74665Y-51220
X74665Y-51535
X74665Y-51850
X74665Y-52165
X74665Y-52480
X74764Y-50846
X74764Y-52815
X74980Y-51220
X74980Y-51535
X74980Y-51850
X74980Y-52165
X74980Y-52480
X75079Y-50846
X75079Y-52815
X75295Y-51220
X75295Y-51535
X75295Y-51850
X75295Y-52165
X75295Y-52480
T2
X39665Y-47244
X39665Y-49803
X39665Y-52165
X39862Y-38189
X39862Y-40157
X39862Y-42323
X39862Y-44291
X40217Y-57795
X40256Y-54134
X40650Y-59055
X40650Y-60433
X40650Y-62008
X41988Y-57677
X42028Y-54134
X42421Y-36417
X42638Y-55551
X42913Y-42323
X43209Y-47441
X43209Y-48622
X43406Y-43307
X43602Y-61220
X43602Y-62402
X43799Y-40157
X44138Y-60043
X44390Y-55807
X44488Y-57874
X44980Y-61220
X44980Y-62402
X45177Y-53740
X45374Y-47047
X45630Y-39242
X45850Y-56248
X45965Y-38189
X46012Y-37184
X46392Y-37565
X46516Y-40020
X47028Y-39843
X47244Y-53740
X47343Y-52165
X47343Y-56496
X47343Y-60433
X47421Y-58110
X47441Y-49705
X47441Y-50295
X47539Y-45669
X47638Y-55020
X47736Y-42913
X47736Y-44488
X47933Y-37205
X48228Y-56102
X48327Y-48819
X48563Y-57992
X48819Y-47933
X48917Y-37205
X48917Y-54232
X49114Y-56988
X49163Y-48278
X49311Y-39370
X49508Y-43110
X49508Y-45669
X49508Y-53051
X49567Y-36398
X49705Y-44488
X49803Y-53740
X50295Y-49213
X50394Y-53740
X50492Y-51378
X50591Y-50591
X50886Y-59252
X50925Y-58031
X51181Y-47638
X51476Y-62205
X51772Y-47638
X52264Y-37008
X52264Y-38386
X52264Y-39764
X52264Y-40945
X52264Y-48031
X52264Y-49803
X53346Y-37047
X53386Y-40925
X53445Y-47835
X53445Y-51181
X53543Y-62008
X53642Y-57480
X54350Y-58327
X54862Y-43091
X54980Y-44429
X55020Y-59252
X55413Y-31890
X55610Y-62598
X55740Y-37421
X55807Y-51181
X56004Y-43701
X56004Y-57087
X56496Y-48307
X56555Y-46024
X56791Y-53642
X56791Y-54331
X56929Y-42972
X57185Y-44291
X57195Y-57645
X57382Y-55709
X57579Y-60630
X57677Y-51378
X58169Y-48228
X58345Y-56133
X58366Y-49606
X58476Y-43461
X58563Y-51772
X58760Y-32087
X58858Y-53839
X58957Y-34843
X58957Y-54528
X59350Y-41929
X59382Y-56331
X59454Y-59158
X59547Y-62402
X59675Y-60905
X60097Y-44726
X60138Y-51378
X60138Y-57087
X60531Y-34843
X61362Y-42807
X61417Y-51122
X61650Y-41346
X61673Y-43386
X61713Y-31890
X61713Y-33071
X61772Y-49606
X62106Y-48248
X62170Y-60871
X62197Y-42661
X62440Y-40740
X62614Y-42220
X62677Y-54350
X62726Y-62421
X62866Y-43303
X63700Y-43320
X63700Y-44080
X63775Y-60448
X63784Y-58568
X63980Y-40820
X64173Y-35236
X64173Y-56690
X64213Y-40268
X64301Y-62421
X64335Y-41370
X64398Y-38484
X64452Y-39036
X64665Y-35236
X65482Y-62421
X65734Y-45876
X65846Y-51969
X66161Y-46417
X66255Y-60034
X66295Y-37953
X66307Y-39528
X66319Y-37299
X66372Y-35954
X66417Y-38740
X66437Y-49803
X66441Y-40185
X66480Y-40752
X66831Y-51181
X67040Y-42960
X67175Y-62539
X67224Y-53937
X67512Y-34784
X67612Y-35384
X67618Y-50197
X67712Y-35984
X67812Y-36584
X67874Y-37165
X67874Y-37717
X67874Y-38268
X67933Y-51614
X68209Y-53740
X68412Y-36584
X68425Y-37165
X68425Y-37717
X68425Y-38268
X68425Y-42874
X68612Y-35984
X68812Y-35384
X68976Y-37165
X68976Y-37717
X68976Y-38268
X69012Y-34784
X69012Y-36584
X69094Y-54035
X69094Y-59744
X69193Y-62402
X69291Y-57087
X69429Y-46900
X69512Y-35984
X69512Y-39184
X69587Y-55020
X69712Y-36584
X69712Y-37184
X69712Y-37884
X70012Y-35384
X70012Y-42684
X70412Y-39784
X70472Y-47047
X70472Y-47539
X70472Y-48031
X70472Y-48524
X70472Y-49016
X70472Y-49508
X70512Y-34784
X70912Y-40084
X71063Y-47047
X71063Y-47539
X71063Y-48031
X71063Y-48524
X71063Y-49016
X71063Y-49508
X71112Y-40684
X71161Y-45098
X71437Y-44035
X71555Y-62205
X71712Y-40884
X72441Y-46909
X73248Y-43524
X73307Y-45925
X73642Y-42264
X73720Y-62205
X73917Y-34843
X74016Y-48524
X74114Y-38386
X75098Y-60433
X75098Y-62008
X75492Y-38386
X75669Y-42480
X76083Y-44980
X76083Y-45571
X76083Y-46161
X76083Y-46752
X76363Y-58971
X76614Y-38524
X76673Y-33465
X76772Y-61417
X76791Y-62500
X77657Y-32480
X77657Y-34252
X77953Y-62244
X77992Y-60689
X78051Y-56102
X78051Y-57283
T4
X40837Y-37156
X40837Y-38156
X40837Y-39156
X40837Y-40156
X40837Y-41156
X40837Y-42156
X40837Y-43156
X40945Y-48394
X40945Y-49394
X40945Y-50394
X40945Y-51394
X40945Y-52394
X41837Y-37156
X41837Y-38156
X41837Y-39156
X41837Y-40156
X41837Y-41156
X41837Y-42156
X41837Y-43156
X41945Y-48394
X41945Y-49394
X41945Y-50394
X41945Y-51394
X41945Y-52394
X45374Y-43996
X45374Y-44996
X46374Y-43996
X46374Y-44996
X54465Y-38656
X54465Y-39656
X55465Y-38656
X55465Y-39656
X56465Y-38656
X56465Y-39656
X57465Y-38656
X57465Y-39656
X58465Y-38656
X58465Y-39656
X59138Y-48744
X59144Y-47244
X59465Y-38656
X59465Y-39656
X60138Y-48744
X60144Y-47244
X60465Y-38656
X60465Y-39656
X61144Y-47244
X61465Y-38656
X61465Y-39656
X62465Y-38656
X62465Y-39656
X64921Y-43947
X64921Y-44947
X65921Y-43947
X65921Y-44947
X66921Y-43947
X66921Y-44947
X67921Y-43947
X67921Y-44947
X68921Y-43947
X68921Y-44947
X69921Y-43947
X69921Y-44947
X75486Y-35411
X75486Y-36411
X75486Y-37411
X75486Y-39654
X75486Y-40654
X75486Y-41654
X76486Y-35411
X76486Y-36411
X76486Y-37411
X76486Y-39654
X76486Y-40654
X76486Y-41654
T5
X65672Y-57992
X65672Y-59173
X72657Y-57992
X72657Y-59173
X73839Y-57992
X73839Y-59173
T3
G00X42444Y-61584
M15
G01X42444Y-61820
M16
G05
G00X42586Y-59242
M15
G01X42586Y-59478
M16
G05
G00X45838Y-59242
M15
G01X45838Y-59478
M16
G05
G00X45980Y-61584
M15
G01X45980Y-61820
M16
G05
T0
M30
