%TF.GenerationSoftware,KiCad,Pcbnew,(6.0.9-0)*%
%TF.CreationDate,2023-01-03T00:22:42+08:00*%
%TF.ProjectId,pippino_board,70697070-696e-46f5-9f62-6f6172642e6b,rev?*%
%TF.SameCoordinates,Original*%
%TF.FileFunction,Soldermask,Top*%
%TF.FilePolarity,Negative*%
%FSLAX46Y46*%
G04 Gerber Fmt 4.6, Leading zero omitted, Abs format (unit mm)*
G04 Created by KiCad (PCBNEW (6.0.9-0)) date 2023-01-03 00:22:42*
%MOMM*%
%LPD*%
G01*
G04 APERTURE LIST*
G04 Aperture macros list*
%AMRoundRect*
0 Rectangle with rounded corners*
0 $1 Rounding radius*
0 $2 $3 $4 $5 $6 $7 $8 $9 X,Y pos of 4 corners*
0 Add a 4 corners polygon primitive as box body*
4,1,4,$2,$3,$4,$5,$6,$7,$8,$9,$2,$3,0*
0 Add four circle primitives for the rounded corners*
1,1,$1+$1,$2,$3*
1,1,$1+$1,$4,$5*
1,1,$1+$1,$6,$7*
1,1,$1+$1,$8,$9*
0 Add four rect primitives between the rounded corners*
20,1,$1+$1,$2,$3,$4,$5,0*
20,1,$1+$1,$4,$5,$6,$7,0*
20,1,$1+$1,$6,$7,$8,$9,0*
20,1,$1+$1,$8,$9,$2,$3,0*%
G04 Aperture macros list end*
%ADD10RoundRect,0.250000X0.625000X-0.312500X0.625000X0.312500X-0.625000X0.312500X-0.625000X-0.312500X0*%
%ADD11RoundRect,0.250000X0.312500X0.625000X-0.312500X0.625000X-0.312500X-0.625000X0.312500X-0.625000X0*%
%ADD12RoundRect,0.250000X-0.312500X-0.625000X0.312500X-0.625000X0.312500X0.625000X-0.312500X0.625000X0*%
%ADD13RoundRect,0.250000X-0.375000X-0.625000X0.375000X-0.625000X0.375000X0.625000X-0.375000X0.625000X0*%
%ADD14R,1.750000X0.450000*%
%ADD15RoundRect,0.250000X-0.625000X0.375000X-0.625000X-0.375000X0.625000X-0.375000X0.625000X0.375000X0*%
%ADD16RoundRect,0.250000X0.625000X-0.375000X0.625000X0.375000X-0.625000X0.375000X-0.625000X-0.375000X0*%
%ADD17RoundRect,0.250000X0.250000X0.475000X-0.250000X0.475000X-0.250000X-0.475000X0.250000X-0.475000X0*%
%ADD18C,3.000000*%
%ADD19R,0.600000X0.700000*%
%ADD20RoundRect,0.250000X-0.475000X0.250000X-0.475000X-0.250000X0.475000X-0.250000X0.475000X0.250000X0*%
%ADD21RoundRect,0.625000X0.625000X0.875000X-0.625000X0.875000X-0.625000X-0.875000X0.625000X-0.875000X0*%
%ADD22RoundRect,0.605188X0.605187X2.394812X-0.605187X2.394812X-0.605187X-2.394812X0.605187X-2.394812X0*%
%ADD23RoundRect,0.378000X0.378000X-0.818500X0.378000X0.818500X-0.378000X0.818500X-0.378000X-0.818500X0*%
%ADD24RoundRect,1.250000X2.250000X-1.250000X2.250000X1.250000X-2.250000X1.250000X-2.250000X-1.250000X0*%
%ADD25RoundRect,1.500000X2.250000X-1.500000X2.250000X1.500000X-2.250000X1.500000X-2.250000X-1.500000X0*%
%ADD26RoundRect,0.062500X0.062500X-0.375000X0.062500X0.375000X-0.062500X0.375000X-0.062500X-0.375000X0*%
%ADD27RoundRect,0.062500X0.375000X-0.062500X0.375000X0.062500X-0.375000X0.062500X-0.375000X-0.062500X0*%
%ADD28R,1.500000X1.500000*%
%ADD29R,0.250000X1.100000*%
%ADD30RoundRect,0.250001X0.499999X0.499999X-0.499999X0.499999X-0.499999X-0.499999X0.499999X-0.499999X0*%
%ADD31C,1.500000*%
%ADD32RoundRect,0.150000X0.587500X0.150000X-0.587500X0.150000X-0.587500X-0.150000X0.587500X-0.150000X0*%
%ADD33R,1.700000X1.700000*%
%ADD34O,1.700000X1.700000*%
%ADD35R,0.900000X1.200000*%
%ADD36RoundRect,0.250000X-1.000000X1.950000X-1.000000X-1.950000X1.000000X-1.950000X1.000000X1.950000X0*%
%ADD37RoundRect,0.250000X0.475000X-0.250000X0.475000X0.250000X-0.475000X0.250000X-0.475000X-0.250000X0*%
%ADD38RoundRect,0.250000X-0.250000X-0.475000X0.250000X-0.475000X0.250000X0.475000X-0.250000X0.475000X0*%
%ADD39RoundRect,0.150000X-0.587500X-0.150000X0.587500X-0.150000X0.587500X0.150000X-0.587500X0.150000X0*%
%ADD40RoundRect,0.250000X0.650000X-0.325000X0.650000X0.325000X-0.650000X0.325000X-0.650000X-0.325000X0*%
%ADD41RoundRect,0.250000X-0.625000X0.312500X-0.625000X-0.312500X0.625000X-0.312500X0.625000X0.312500X0*%
%ADD42R,2.150000X5.500000*%
%ADD43RoundRect,0.062500X-0.337500X-0.062500X0.337500X-0.062500X0.337500X0.062500X-0.337500X0.062500X0*%
%ADD44RoundRect,0.062500X-0.062500X-0.337500X0.062500X-0.337500X0.062500X0.337500X-0.062500X0.337500X0*%
%ADD45R,3.350000X3.350000*%
%ADD46R,1.500000X0.900000*%
%ADD47R,0.900000X1.500000*%
%ADD48R,0.900000X0.900000*%
%ADD49C,0.650000*%
%ADD50O,0.950000X0.650000*%
%ADD51R,0.300000X0.700000*%
%ADD52O,0.800000X1.400000*%
%ADD53RoundRect,0.150000X-0.825000X-0.150000X0.825000X-0.150000X0.825000X0.150000X-0.825000X0.150000X0*%
%ADD54R,2.000000X0.700000*%
%ADD55R,0.700000X2.000000*%
G04 APERTURE END LIST*
D10*
X138250000Y-131462500D03*
X138250000Y-128537500D03*
D11*
X110912500Y-117590000D03*
X107987500Y-117590000D03*
D12*
X134287500Y-155250000D03*
X137212500Y-155250000D03*
D13*
X103381250Y-117590000D03*
X106181250Y-117590000D03*
D14*
X122600000Y-134225000D03*
X122600000Y-133575000D03*
X122600000Y-132925000D03*
X122600000Y-132275000D03*
X122600000Y-131625000D03*
X122600000Y-130975000D03*
X122600000Y-130325000D03*
X122600000Y-129675000D03*
X122600000Y-129025000D03*
X122600000Y-128375000D03*
X122600000Y-127725000D03*
X122600000Y-127075000D03*
X122600000Y-126425000D03*
X122600000Y-125775000D03*
X115400000Y-125775000D03*
X115400000Y-126425000D03*
X115400000Y-127075000D03*
X115400000Y-127725000D03*
X115400000Y-128375000D03*
X115400000Y-129025000D03*
X115400000Y-129675000D03*
X115400000Y-130325000D03*
X115400000Y-130975000D03*
X115400000Y-131625000D03*
X115400000Y-132275000D03*
X115400000Y-132925000D03*
X115400000Y-133575000D03*
X115400000Y-134225000D03*
D13*
X103381250Y-115000000D03*
X106181250Y-115000000D03*
D15*
X143440000Y-83100000D03*
X143440000Y-85900000D03*
D16*
X195500000Y-157400000D03*
X195500000Y-154600000D03*
D11*
X110912500Y-115000000D03*
X107987500Y-115000000D03*
D17*
X177984000Y-125104000D03*
X176084000Y-125104000D03*
D18*
X190000000Y-84000000D03*
D19*
X117700000Y-145250000D03*
X116300000Y-145250000D03*
D12*
X164537500Y-124000000D03*
X167462500Y-124000000D03*
D10*
X124500000Y-157500000D03*
X124500000Y-154575000D03*
D20*
X118750000Y-155587500D03*
X118750000Y-157487500D03*
D21*
X180200000Y-137400000D03*
D22*
X180239625Y-130900000D03*
D21*
X180200000Y-124400000D03*
D23*
X198944000Y-115453500D03*
D24*
X188450000Y-131650000D03*
D25*
X188200000Y-131650000D03*
D10*
X157000000Y-139262500D03*
X157000000Y-136337500D03*
D12*
X134287500Y-152710000D03*
X137212500Y-152710000D03*
D26*
X169000000Y-131437500D03*
X169500000Y-131437500D03*
X170000000Y-131437500D03*
X170500000Y-131437500D03*
D27*
X171187500Y-130750000D03*
X171187500Y-130250000D03*
X171187500Y-129750000D03*
X171187500Y-129250000D03*
D26*
X170500000Y-128562500D03*
X170000000Y-128562500D03*
X169500000Y-128562500D03*
X169000000Y-128562500D03*
D27*
X168312500Y-129250000D03*
X168312500Y-129750000D03*
X168312500Y-130250000D03*
X168312500Y-130750000D03*
D28*
X169750000Y-130000000D03*
D29*
X131109000Y-114927000D03*
X130609000Y-114927000D03*
X130109000Y-114927000D03*
X129609000Y-114927000D03*
X129109000Y-114927000D03*
X129109000Y-119227000D03*
X129609000Y-119227000D03*
X130109000Y-119227000D03*
X130609000Y-119227000D03*
X131109000Y-119227000D03*
D10*
X154462000Y-135534500D03*
X154462000Y-132609500D03*
D17*
X179100000Y-145700000D03*
X177200000Y-145700000D03*
D20*
X170500000Y-123550000D03*
X170500000Y-125450000D03*
D18*
X104000000Y-84000000D03*
X186050000Y-154620000D03*
D30*
X187550000Y-150300000D03*
D31*
X184550000Y-150300000D03*
X187550000Y-147300000D03*
X184550000Y-147300000D03*
D11*
X121478500Y-121872000D03*
X118553500Y-121872000D03*
D32*
X175365500Y-145866000D03*
X175365500Y-143966000D03*
X173490500Y-144916000D03*
D33*
X177600000Y-111625000D03*
D34*
X177600000Y-114165000D03*
X175060000Y-111625000D03*
X175060000Y-114165000D03*
X172520000Y-111625000D03*
X172520000Y-114165000D03*
X169980000Y-111625000D03*
X169980000Y-114165000D03*
X167440000Y-111625000D03*
X167440000Y-114165000D03*
X164900000Y-111625000D03*
X164900000Y-114165000D03*
D18*
X166808000Y-154620000D03*
D30*
X166808000Y-150300000D03*
D31*
X166808000Y-147300000D03*
D15*
X140900000Y-83100000D03*
X140900000Y-85900000D03*
D12*
X121787500Y-151750000D03*
X124712500Y-151750000D03*
D35*
X162110000Y-141868000D03*
X165410000Y-141868000D03*
D36*
X155124000Y-148336000D03*
X155124000Y-156736000D03*
D18*
X190000000Y-143000000D03*
D37*
X157000000Y-142950000D03*
X157000000Y-141050000D03*
D12*
X113473500Y-121872000D03*
X116398500Y-121872000D03*
D38*
X139050000Y-118500000D03*
X140950000Y-118500000D03*
D12*
X134296000Y-110473000D03*
X137221000Y-110473000D03*
D18*
X104000000Y-143000000D03*
D39*
X139512500Y-152850000D03*
X139512500Y-154750000D03*
X141387500Y-153800000D03*
D11*
X141462500Y-115750000D03*
X138537500Y-115750000D03*
D19*
X112800000Y-145250000D03*
X114200000Y-145250000D03*
D40*
X135500000Y-134975000D03*
X135500000Y-132025000D03*
D12*
X172457500Y-139328000D03*
X175382500Y-139328000D03*
D33*
X104000000Y-122920000D03*
D34*
X106540000Y-122920000D03*
X104000000Y-125460000D03*
X106540000Y-125460000D03*
X104000000Y-128000000D03*
X106540000Y-128000000D03*
X104000000Y-130540000D03*
X106540000Y-130540000D03*
X104000000Y-133080000D03*
X106540000Y-133080000D03*
D17*
X161450000Y-89500000D03*
X159550000Y-89500000D03*
D11*
X170810500Y-141868000D03*
X167885500Y-141868000D03*
D33*
X150225000Y-120000000D03*
D34*
X152765000Y-120000000D03*
X155305000Y-120000000D03*
D33*
X138340000Y-100725000D03*
D34*
X138340000Y-98185000D03*
X140880000Y-100725000D03*
X140880000Y-98185000D03*
X143420000Y-100725000D03*
X143420000Y-98185000D03*
X145960000Y-100725000D03*
X145960000Y-98185000D03*
X148500000Y-100725000D03*
X148500000Y-98185000D03*
X151040000Y-100725000D03*
X151040000Y-98185000D03*
X153580000Y-100725000D03*
X153580000Y-98185000D03*
X156120000Y-100725000D03*
X156120000Y-98185000D03*
X158660000Y-100725000D03*
X158660000Y-98185000D03*
D33*
X194275000Y-105800000D03*
D34*
X191735000Y-105800000D03*
X194275000Y-103260000D03*
X191735000Y-103260000D03*
X194275000Y-100720000D03*
X191735000Y-100720000D03*
D10*
X131440500Y-112443500D03*
X131440500Y-109518500D03*
X151922000Y-135534500D03*
X151922000Y-132609500D03*
D15*
X138360000Y-83100000D03*
X138360000Y-85900000D03*
D10*
X173000000Y-125462500D03*
X173000000Y-122537500D03*
D41*
X165000000Y-133737500D03*
X165000000Y-136662500D03*
D10*
X127000000Y-157500000D03*
X127000000Y-154575000D03*
D12*
X172457500Y-141868000D03*
X175382500Y-141868000D03*
D33*
X115250000Y-111750000D03*
D34*
X117790000Y-111750000D03*
X115250000Y-114290000D03*
X117790000Y-114290000D03*
D10*
X143440000Y-90752500D03*
X143440000Y-87827500D03*
D28*
X160900000Y-84000000D03*
X153100000Y-84000000D03*
D37*
X133000000Y-135000000D03*
X133000000Y-133100000D03*
D10*
X152000000Y-142962500D03*
X152000000Y-140037500D03*
X156650000Y-114462500D03*
X156650000Y-111537500D03*
D12*
X110787500Y-139500000D03*
X113712500Y-139500000D03*
D10*
X140900000Y-90752500D03*
X140900000Y-87827500D03*
D40*
X160750000Y-124725000D03*
X160750000Y-121775000D03*
D42*
X139175000Y-139750000D03*
X135325000Y-139750000D03*
D43*
X124580000Y-139684000D03*
X124580000Y-140184000D03*
X124580000Y-140684000D03*
X124580000Y-141184000D03*
X124580000Y-141684000D03*
X124580000Y-142184000D03*
X124580000Y-142684000D03*
D44*
X125530000Y-143634000D03*
X126030000Y-143634000D03*
X126530000Y-143634000D03*
X127030000Y-143634000D03*
X127530000Y-143634000D03*
X128030000Y-143634000D03*
X128530000Y-143634000D03*
D43*
X129480000Y-142684000D03*
X129480000Y-142184000D03*
X129480000Y-141684000D03*
X129480000Y-141184000D03*
X129480000Y-140684000D03*
X129480000Y-140184000D03*
X129480000Y-139684000D03*
D44*
X128530000Y-138734000D03*
X128030000Y-138734000D03*
X127530000Y-138734000D03*
X127030000Y-138734000D03*
X126530000Y-138734000D03*
X126030000Y-138734000D03*
X125530000Y-138734000D03*
D45*
X127030000Y-141184000D03*
D46*
X166590000Y-88090000D03*
X166590000Y-89360000D03*
X166590000Y-90630000D03*
X166590000Y-91900000D03*
X166590000Y-93170000D03*
X166590000Y-94440000D03*
X166590000Y-95710000D03*
X166590000Y-96980000D03*
X166590000Y-98250000D03*
X166590000Y-99520000D03*
X166590000Y-100790000D03*
X166590000Y-102060000D03*
X166590000Y-103330000D03*
X166590000Y-104600000D03*
D47*
X168355000Y-105850000D03*
X169625000Y-105850000D03*
X170895000Y-105850000D03*
X172165000Y-105850000D03*
X173435000Y-105850000D03*
X174705000Y-105850000D03*
X175975000Y-105850000D03*
X177245000Y-105850000D03*
X178515000Y-105850000D03*
X179785000Y-105850000D03*
X181055000Y-105850000D03*
X182325000Y-105850000D03*
D46*
X184090000Y-104600000D03*
X184090000Y-103330000D03*
X184090000Y-102060000D03*
X184090000Y-100790000D03*
X184090000Y-99520000D03*
X184090000Y-98250000D03*
X184090000Y-96980000D03*
X184090000Y-95710000D03*
X184090000Y-94440000D03*
X184090000Y-93170000D03*
X184090000Y-91900000D03*
X184090000Y-90630000D03*
X184090000Y-89360000D03*
X184090000Y-88090000D03*
D48*
X173840000Y-94410000D03*
X172440000Y-95810000D03*
X175240000Y-95810000D03*
X173840000Y-97210000D03*
X175240000Y-97210000D03*
X173840000Y-95810000D03*
X172440000Y-97210000D03*
X172440000Y-94410000D03*
X175240000Y-94410000D03*
D10*
X135750000Y-118462500D03*
X135750000Y-115537500D03*
D38*
X140300000Y-132000000D03*
X142200000Y-132000000D03*
D10*
X154500000Y-142962500D03*
X154500000Y-140037500D03*
D12*
X139537500Y-134500000D03*
X142462500Y-134500000D03*
D37*
X110774000Y-93950000D03*
X110774000Y-92050000D03*
D11*
X119712500Y-139500000D03*
X116787500Y-139500000D03*
D37*
X159250000Y-142950000D03*
X159250000Y-141050000D03*
D17*
X177984000Y-123072000D03*
X176084000Y-123072000D03*
D12*
X167885500Y-139328000D03*
X170810500Y-139328000D03*
D20*
X168750000Y-133800000D03*
X168750000Y-135700000D03*
D49*
X108698000Y-149524000D03*
D50*
X115898000Y-149524000D03*
D51*
X109548000Y-148864000D03*
X110048000Y-148864000D03*
X110548000Y-148864000D03*
X111048000Y-148864000D03*
X111548000Y-148864000D03*
X112048000Y-148864000D03*
X112548000Y-148864000D03*
X113048000Y-148864000D03*
X113548000Y-148864000D03*
X114048000Y-148864000D03*
X114548000Y-148864000D03*
X115048000Y-148864000D03*
X114798000Y-150564000D03*
X114298000Y-150564000D03*
X113798000Y-150564000D03*
X113298000Y-150564000D03*
X112798000Y-150564000D03*
X112298000Y-150564000D03*
X111798000Y-150564000D03*
X111298000Y-150564000D03*
X110798000Y-150564000D03*
X110298000Y-150564000D03*
X109798000Y-150564000D03*
X109298000Y-150564000D03*
D52*
X116788000Y-156724000D03*
X107808000Y-156724000D03*
X108168000Y-150774000D03*
X116428000Y-150774000D03*
D17*
X177984000Y-121040000D03*
X176084000Y-121040000D03*
D53*
X173477000Y-151139000D03*
X173477000Y-152409000D03*
X173477000Y-153679000D03*
X173477000Y-154949000D03*
X178427000Y-154949000D03*
X178427000Y-153679000D03*
X178427000Y-152409000D03*
X178427000Y-151139000D03*
D15*
X145980000Y-83100000D03*
X145980000Y-85900000D03*
D20*
X121000000Y-155587500D03*
X121000000Y-157487500D03*
D26*
X145000000Y-142937500D03*
X145500000Y-142937500D03*
X146000000Y-142937500D03*
X146500000Y-142937500D03*
D27*
X147187500Y-142250000D03*
X147187500Y-141750000D03*
X147187500Y-141250000D03*
X147187500Y-140750000D03*
D26*
X146500000Y-140062500D03*
X146000000Y-140062500D03*
X145500000Y-140062500D03*
X145000000Y-140062500D03*
D27*
X144312500Y-140750000D03*
X144312500Y-141250000D03*
X144312500Y-141750000D03*
X144312500Y-142250000D03*
D28*
X145750000Y-141500000D03*
D33*
X194275000Y-95025000D03*
D34*
X191735000Y-95025000D03*
X194275000Y-92485000D03*
X191735000Y-92485000D03*
X194275000Y-89945000D03*
X191735000Y-89945000D03*
D19*
X110966000Y-145248000D03*
X109566000Y-145248000D03*
D10*
X145980000Y-90752500D03*
X145980000Y-87827500D03*
D32*
X132087500Y-154750000D03*
X132087500Y-152850000D03*
X130212500Y-153800000D03*
D41*
X195500000Y-149787500D03*
X195500000Y-152712500D03*
D42*
X164425000Y-129250000D03*
X160575000Y-129250000D03*
D33*
X103725000Y-94375000D03*
D34*
X106265000Y-94375000D03*
X103725000Y-96915000D03*
X106265000Y-96915000D03*
X103725000Y-99455000D03*
X106265000Y-99455000D03*
X103725000Y-101995000D03*
X106265000Y-101995000D03*
X103725000Y-104535000D03*
X106265000Y-104535000D03*
X103725000Y-107075000D03*
X106265000Y-107075000D03*
X103725000Y-109615000D03*
X106265000Y-109615000D03*
D17*
X137155000Y-113013000D03*
X135255000Y-113013000D03*
D10*
X159350000Y-114462500D03*
X159350000Y-111537500D03*
D33*
X152750000Y-123810000D03*
D34*
X150210000Y-123810000D03*
D10*
X175500000Y-133462500D03*
X175500000Y-130537500D03*
X138360000Y-90752500D03*
X138360000Y-87827500D03*
D54*
X114036400Y-92410400D03*
X114036400Y-93680400D03*
X114036400Y-94950400D03*
X114036400Y-96220400D03*
X114036400Y-97490400D03*
X114036400Y-98760400D03*
X114036400Y-100030400D03*
X114036400Y-101300400D03*
D55*
X116626400Y-103560400D03*
X117896400Y-103560400D03*
X119166400Y-103560400D03*
X120436400Y-103560400D03*
X121706400Y-103560400D03*
X122976400Y-103560400D03*
X124246400Y-103560400D03*
X125516400Y-103560400D03*
D54*
X128136400Y-101300400D03*
X128136400Y-100030400D03*
X128136400Y-98760400D03*
X128136400Y-97490400D03*
X128136400Y-96220400D03*
X128136400Y-94950400D03*
X128136400Y-93680400D03*
X128136400Y-92410400D03*
D35*
X162110000Y-139328000D03*
X165410000Y-139328000D03*
D10*
X162450000Y-136662500D03*
X162450000Y-133737500D03*
D28*
X145980000Y-149144000D03*
X145980000Y-156944000D03*
D12*
X174537500Y-149000000D03*
X177462500Y-149000000D03*
D20*
X171000000Y-133800000D03*
X171000000Y-135700000D03*
M02*
