%TF.GenerationSoftware,KiCad,Pcbnew,(6.0.9-0)*%
%TF.CreationDate,2023-01-05T01:08:25+08:00*%
%TF.ProjectId,pippino_board,70697070-696e-46f5-9f62-6f6172642e6b,rev?*%
%TF.SameCoordinates,Original*%
%TF.FileFunction,Paste,Top*%
%TF.FilePolarity,Positive*%
%FSLAX46Y46*%
G04 Gerber Fmt 4.6, Leading zero omitted, Abs format (unit mm)*
G04 Created by KiCad (PCBNEW (6.0.9-0)) date 2023-01-05 01:08:25*
%MOMM*%
%LPD*%
G01*
G04 APERTURE LIST*
G04 Aperture macros list*
%AMRoundRect*
0 Rectangle with rounded corners*
0 $1 Rounding radius*
0 $2 $3 $4 $5 $6 $7 $8 $9 X,Y pos of 4 corners*
0 Add a 4 corners polygon primitive as box body*
4,1,4,$2,$3,$4,$5,$6,$7,$8,$9,$2,$3,0*
0 Add four circle primitives for the rounded corners*
1,1,$1+$1,$2,$3*
1,1,$1+$1,$4,$5*
1,1,$1+$1,$6,$7*
1,1,$1+$1,$8,$9*
0 Add four rect primitives between the rounded corners*
20,1,$1+$1,$2,$3,$4,$5,0*
20,1,$1+$1,$4,$5,$6,$7,0*
20,1,$1+$1,$6,$7,$8,$9,0*
20,1,$1+$1,$8,$9,$2,$3,0*%
G04 Aperture macros list end*
%ADD10R,1.750000X5.100000*%
%ADD11RoundRect,0.150000X0.150000X-0.150000X0.150000X0.150000X-0.150000X0.150000X-0.150000X-0.150000X0*%
%ADD12RoundRect,0.425000X0.625000X0.875000X-0.625000X0.875000X-0.625000X-0.875000X0.625000X-0.875000X0*%
%ADD13RoundRect,0.405188X0.605187X2.394812X-0.605187X2.394812X-0.605187X-2.394812X0.605187X-2.394812X0*%
%ADD14RoundRect,0.378000X0.378000X-0.818500X0.378000X0.818500X-0.378000X0.818500X-0.378000X-0.818500X0*%
%ADD15RoundRect,0.250000X0.625000X-0.312500X0.625000X0.312500X-0.625000X0.312500X-0.625000X-0.312500X0*%
%ADD16RoundRect,0.250000X0.312500X0.625000X-0.312500X0.625000X-0.312500X-0.625000X0.312500X-0.625000X0*%
%ADD17RoundRect,0.250000X-0.312500X-0.625000X0.312500X-0.625000X0.312500X0.625000X-0.312500X0.625000X0*%
%ADD18RoundRect,0.250000X-0.375000X-0.625000X0.375000X-0.625000X0.375000X0.625000X-0.375000X0.625000X0*%
%ADD19R,1.750000X0.450000*%
%ADD20RoundRect,0.250000X-0.625000X0.375000X-0.625000X-0.375000X0.625000X-0.375000X0.625000X0.375000X0*%
%ADD21RoundRect,0.250000X0.625000X-0.375000X0.625000X0.375000X-0.625000X0.375000X-0.625000X-0.375000X0*%
%ADD22RoundRect,0.250000X0.250000X0.475000X-0.250000X0.475000X-0.250000X-0.475000X0.250000X-0.475000X0*%
%ADD23R,0.600000X0.700000*%
%ADD24RoundRect,0.250000X-0.475000X0.250000X-0.475000X-0.250000X0.475000X-0.250000X0.475000X0.250000X0*%
%ADD25RoundRect,0.062500X0.062500X-0.375000X0.062500X0.375000X-0.062500X0.375000X-0.062500X-0.375000X0*%
%ADD26RoundRect,0.062500X0.375000X-0.062500X0.375000X0.062500X-0.375000X0.062500X-0.375000X-0.062500X0*%
%ADD27R,0.250000X1.100000*%
%ADD28RoundRect,0.150000X0.587500X0.150000X-0.587500X0.150000X-0.587500X-0.150000X0.587500X-0.150000X0*%
%ADD29R,0.900000X1.200000*%
%ADD30RoundRect,0.250000X-1.000000X1.950000X-1.000000X-1.950000X1.000000X-1.950000X1.000000X1.950000X0*%
%ADD31RoundRect,0.250000X0.475000X-0.250000X0.475000X0.250000X-0.475000X0.250000X-0.475000X-0.250000X0*%
%ADD32RoundRect,0.250000X-0.250000X-0.475000X0.250000X-0.475000X0.250000X0.475000X-0.250000X0.475000X0*%
%ADD33RoundRect,0.150000X-0.587500X-0.150000X0.587500X-0.150000X0.587500X0.150000X-0.587500X0.150000X0*%
%ADD34RoundRect,0.250000X0.650000X-0.325000X0.650000X0.325000X-0.650000X0.325000X-0.650000X-0.325000X0*%
%ADD35RoundRect,0.250000X-0.625000X0.312500X-0.625000X-0.312500X0.625000X-0.312500X0.625000X0.312500X0*%
%ADD36R,1.500000X1.500000*%
%ADD37RoundRect,0.225000X-0.225000X-0.225000X0.225000X-0.225000X0.225000X0.225000X-0.225000X0.225000X0*%
%ADD38RoundRect,0.062500X-0.337500X-0.062500X0.337500X-0.062500X0.337500X0.062500X-0.337500X0.062500X0*%
%ADD39RoundRect,0.062500X-0.062500X-0.337500X0.062500X-0.337500X0.062500X0.337500X-0.062500X0.337500X0*%
%ADD40R,1.500000X0.900000*%
%ADD41R,0.900000X1.500000*%
%ADD42R,0.900000X0.900000*%
%ADD43R,0.300000X0.700000*%
%ADD44RoundRect,0.150000X-0.825000X-0.150000X0.825000X-0.150000X0.825000X0.150000X-0.825000X0.150000X0*%
%ADD45R,2.000000X0.700000*%
%ADD46R,0.700000X2.000000*%
G04 APERTURE END LIST*
D10*
X164425000Y-129250000D03*
X160575000Y-129250000D03*
X139175000Y-139750000D03*
X135325000Y-139750000D03*
D11*
X191450000Y-129400000D03*
X191450000Y-133400000D03*
X191450000Y-132400000D03*
X191450000Y-131400000D03*
X190450000Y-130900000D03*
X190450000Y-132900000D03*
X190450000Y-133900000D03*
X191450000Y-130400000D03*
X190450000Y-129900000D03*
X190450000Y-131900000D03*
X189450000Y-133400000D03*
X189450000Y-132400000D03*
X189450000Y-131400000D03*
X189450000Y-129400000D03*
X188450000Y-130900000D03*
X188450000Y-132900000D03*
X188450000Y-133900000D03*
X189450000Y-130400000D03*
X188450000Y-129900000D03*
X188450000Y-131900000D03*
X187450000Y-132400000D03*
X187450000Y-133400000D03*
X186450000Y-129900000D03*
X186450000Y-130900000D03*
X186450000Y-131900000D03*
X186450000Y-132900000D03*
X186450000Y-133900000D03*
X185450000Y-129400000D03*
X185450000Y-130400000D03*
X185450000Y-131400000D03*
X185450000Y-132400000D03*
X185450000Y-133400000D03*
D12*
X180200000Y-137400000D03*
D13*
X180239625Y-130900000D03*
D12*
X180200000Y-124400000D03*
D14*
X198944000Y-115453500D03*
D11*
X187450000Y-130400000D03*
X187450000Y-131400000D03*
X187450000Y-129400000D03*
D15*
X138250000Y-131462500D03*
X138250000Y-128537500D03*
D16*
X110912500Y-117590000D03*
X107987500Y-117590000D03*
D17*
X134287500Y-155250000D03*
X137212500Y-155250000D03*
D18*
X103381250Y-117590000D03*
X106181250Y-117590000D03*
D19*
X122600000Y-134225000D03*
X122600000Y-133575000D03*
X122600000Y-132925000D03*
X122600000Y-132275000D03*
X122600000Y-131625000D03*
X122600000Y-130975000D03*
X122600000Y-130325000D03*
X122600000Y-129675000D03*
X122600000Y-129025000D03*
X122600000Y-128375000D03*
X122600000Y-127725000D03*
X122600000Y-127075000D03*
X122600000Y-126425000D03*
X122600000Y-125775000D03*
X115400000Y-125775000D03*
X115400000Y-126425000D03*
X115400000Y-127075000D03*
X115400000Y-127725000D03*
X115400000Y-128375000D03*
X115400000Y-129025000D03*
X115400000Y-129675000D03*
X115400000Y-130325000D03*
X115400000Y-130975000D03*
X115400000Y-131625000D03*
X115400000Y-132275000D03*
X115400000Y-132925000D03*
X115400000Y-133575000D03*
X115400000Y-134225000D03*
D18*
X103381250Y-115000000D03*
X106181250Y-115000000D03*
D20*
X143440000Y-83100000D03*
X143440000Y-85900000D03*
D21*
X195500000Y-157400000D03*
X195500000Y-154600000D03*
D16*
X110912500Y-115000000D03*
X107987500Y-115000000D03*
D22*
X177984000Y-125104000D03*
X176084000Y-125104000D03*
D23*
X117700000Y-145250000D03*
X116300000Y-145250000D03*
D17*
X164537500Y-124000000D03*
X167462500Y-124000000D03*
D15*
X124500000Y-157500000D03*
X124500000Y-154575000D03*
D24*
X118750000Y-155587500D03*
X118750000Y-157487500D03*
D15*
X157000000Y-139262500D03*
X157000000Y-136337500D03*
D17*
X134287500Y-152710000D03*
X137212500Y-152710000D03*
D11*
X169375000Y-129625000D03*
X169375000Y-130375000D03*
X170125000Y-130375000D03*
X170125000Y-129625000D03*
D25*
X169000000Y-131437500D03*
X169500000Y-131437500D03*
X170000000Y-131437500D03*
X170500000Y-131437500D03*
D26*
X171187500Y-130750000D03*
X171187500Y-130250000D03*
X171187500Y-129750000D03*
X171187500Y-129250000D03*
D25*
X170500000Y-128562500D03*
X170000000Y-128562500D03*
X169500000Y-128562500D03*
X169000000Y-128562500D03*
D26*
X168312500Y-129250000D03*
X168312500Y-129750000D03*
X168312500Y-130250000D03*
X168312500Y-130750000D03*
D27*
X131109000Y-114927000D03*
X130609000Y-114927000D03*
X130109000Y-114927000D03*
X129609000Y-114927000D03*
X129109000Y-114927000D03*
X129109000Y-119227000D03*
X129609000Y-119227000D03*
X130109000Y-119227000D03*
X130609000Y-119227000D03*
X131109000Y-119227000D03*
D15*
X154462000Y-135534500D03*
X154462000Y-132609500D03*
D22*
X179100000Y-145700000D03*
X177200000Y-145700000D03*
D24*
X170500000Y-123550000D03*
X170500000Y-125450000D03*
D16*
X121478500Y-121872000D03*
X118553500Y-121872000D03*
D28*
X175365500Y-145866000D03*
X175365500Y-143966000D03*
X173490500Y-144916000D03*
D20*
X140900000Y-83100000D03*
X140900000Y-85900000D03*
D17*
X121787500Y-151750000D03*
X124712500Y-151750000D03*
D29*
X162110000Y-141868000D03*
X165410000Y-141868000D03*
D30*
X155124000Y-148336000D03*
X155124000Y-156736000D03*
D31*
X157000000Y-142950000D03*
X157000000Y-141050000D03*
D17*
X113473500Y-121872000D03*
X116398500Y-121872000D03*
D32*
X139050000Y-118500000D03*
X140950000Y-118500000D03*
D17*
X134296000Y-110473000D03*
X137221000Y-110473000D03*
D33*
X139512500Y-152850000D03*
X139512500Y-154750000D03*
X141387500Y-153800000D03*
D16*
X141462500Y-115750000D03*
X138537500Y-115750000D03*
D23*
X112800000Y-145250000D03*
X114200000Y-145250000D03*
D34*
X135500000Y-134975000D03*
X135500000Y-132025000D03*
D17*
X172457500Y-139328000D03*
X175382500Y-139328000D03*
D22*
X161450000Y-89500000D03*
X159550000Y-89500000D03*
D16*
X170810500Y-141868000D03*
X167885500Y-141868000D03*
D15*
X131440500Y-112443500D03*
X131440500Y-109518500D03*
X151922000Y-135534500D03*
X151922000Y-132609500D03*
D20*
X138360000Y-83100000D03*
X138360000Y-85900000D03*
D15*
X173000000Y-125462500D03*
X173000000Y-122537500D03*
D35*
X165000000Y-133737500D03*
X165000000Y-136662500D03*
D15*
X127000000Y-157500000D03*
X127000000Y-154575000D03*
D17*
X172457500Y-141868000D03*
X175382500Y-141868000D03*
D15*
X143440000Y-90752500D03*
X143440000Y-87827500D03*
D36*
X160900000Y-84000000D03*
X153100000Y-84000000D03*
D31*
X133000000Y-135000000D03*
X133000000Y-133100000D03*
D15*
X152000000Y-142962500D03*
X152000000Y-140037500D03*
X156650000Y-114462500D03*
X156650000Y-111537500D03*
D17*
X110787500Y-139500000D03*
X113712500Y-139500000D03*
D15*
X140900000Y-90752500D03*
X140900000Y-87827500D03*
D34*
X160750000Y-124725000D03*
X160750000Y-121775000D03*
D37*
X128150000Y-141184000D03*
X125910000Y-141184000D03*
X127030000Y-142304000D03*
X125910000Y-142304000D03*
X128150000Y-140064000D03*
X128150000Y-142304000D03*
X127030000Y-141184000D03*
X125910000Y-140064000D03*
X127030000Y-140064000D03*
D38*
X124580000Y-139684000D03*
X124580000Y-140184000D03*
X124580000Y-140684000D03*
X124580000Y-141184000D03*
X124580000Y-141684000D03*
X124580000Y-142184000D03*
X124580000Y-142684000D03*
D39*
X125530000Y-143634000D03*
X126030000Y-143634000D03*
X126530000Y-143634000D03*
X127030000Y-143634000D03*
X127530000Y-143634000D03*
X128030000Y-143634000D03*
X128530000Y-143634000D03*
D38*
X129480000Y-142684000D03*
X129480000Y-142184000D03*
X129480000Y-141684000D03*
X129480000Y-141184000D03*
X129480000Y-140684000D03*
X129480000Y-140184000D03*
X129480000Y-139684000D03*
D39*
X128530000Y-138734000D03*
X128030000Y-138734000D03*
X127530000Y-138734000D03*
X127030000Y-138734000D03*
X126530000Y-138734000D03*
X126030000Y-138734000D03*
X125530000Y-138734000D03*
D40*
X166590000Y-88090000D03*
X166590000Y-89360000D03*
X166590000Y-90630000D03*
X166590000Y-91900000D03*
X166590000Y-93170000D03*
X166590000Y-94440000D03*
X166590000Y-95710000D03*
X166590000Y-96980000D03*
X166590000Y-98250000D03*
X166590000Y-99520000D03*
X166590000Y-100790000D03*
X166590000Y-102060000D03*
X166590000Y-103330000D03*
X166590000Y-104600000D03*
D41*
X168355000Y-105850000D03*
X169625000Y-105850000D03*
X170895000Y-105850000D03*
X172165000Y-105850000D03*
X173435000Y-105850000D03*
X174705000Y-105850000D03*
X175975000Y-105850000D03*
X177245000Y-105850000D03*
X178515000Y-105850000D03*
X179785000Y-105850000D03*
X181055000Y-105850000D03*
X182325000Y-105850000D03*
D40*
X184090000Y-104600000D03*
X184090000Y-103330000D03*
X184090000Y-102060000D03*
X184090000Y-100790000D03*
X184090000Y-99520000D03*
X184090000Y-98250000D03*
X184090000Y-96980000D03*
X184090000Y-95710000D03*
X184090000Y-94440000D03*
X184090000Y-93170000D03*
X184090000Y-91900000D03*
X184090000Y-90630000D03*
X184090000Y-89360000D03*
X184090000Y-88090000D03*
D42*
X173840000Y-94410000D03*
X172440000Y-95810000D03*
X175240000Y-95810000D03*
X173840000Y-97210000D03*
X175240000Y-97210000D03*
X173840000Y-95810000D03*
X172440000Y-97210000D03*
X172440000Y-94410000D03*
X175240000Y-94410000D03*
D15*
X135750000Y-118462500D03*
X135750000Y-115537500D03*
D32*
X140300000Y-132000000D03*
X142200000Y-132000000D03*
D15*
X154500000Y-142962500D03*
X154500000Y-140037500D03*
D17*
X139537500Y-134500000D03*
X142462500Y-134500000D03*
D31*
X110774000Y-93950000D03*
X110774000Y-92050000D03*
D16*
X119712500Y-139500000D03*
X116787500Y-139500000D03*
D31*
X159250000Y-142950000D03*
X159250000Y-141050000D03*
D22*
X177984000Y-123072000D03*
X176084000Y-123072000D03*
D17*
X167885500Y-139328000D03*
X170810500Y-139328000D03*
D24*
X168750000Y-133800000D03*
X168750000Y-135700000D03*
D43*
X109548000Y-148864000D03*
X110048000Y-148864000D03*
X110548000Y-148864000D03*
X111048000Y-148864000D03*
X111548000Y-148864000D03*
X112048000Y-148864000D03*
X112548000Y-148864000D03*
X113048000Y-148864000D03*
X113548000Y-148864000D03*
X114048000Y-148864000D03*
X114548000Y-148864000D03*
X115048000Y-148864000D03*
X114798000Y-150564000D03*
X114298000Y-150564000D03*
X113798000Y-150564000D03*
X113298000Y-150564000D03*
X112798000Y-150564000D03*
X112298000Y-150564000D03*
X111798000Y-150564000D03*
X111298000Y-150564000D03*
X110798000Y-150564000D03*
X110298000Y-150564000D03*
X109798000Y-150564000D03*
X109298000Y-150564000D03*
D22*
X177984000Y-121040000D03*
X176084000Y-121040000D03*
D44*
X173477000Y-151139000D03*
X173477000Y-152409000D03*
X173477000Y-153679000D03*
X173477000Y-154949000D03*
X178427000Y-154949000D03*
X178427000Y-153679000D03*
X178427000Y-152409000D03*
X178427000Y-151139000D03*
D20*
X145980000Y-83100000D03*
X145980000Y-85900000D03*
D24*
X121000000Y-155587500D03*
X121000000Y-157487500D03*
D11*
X145375000Y-141125000D03*
X146125000Y-141125000D03*
X146125000Y-141875000D03*
X145375000Y-141875000D03*
D25*
X145000000Y-142937500D03*
X145500000Y-142937500D03*
X146000000Y-142937500D03*
X146500000Y-142937500D03*
D26*
X147187500Y-142250000D03*
X147187500Y-141750000D03*
X147187500Y-141250000D03*
X147187500Y-140750000D03*
D25*
X146500000Y-140062500D03*
X146000000Y-140062500D03*
X145500000Y-140062500D03*
X145000000Y-140062500D03*
D26*
X144312500Y-140750000D03*
X144312500Y-141250000D03*
X144312500Y-141750000D03*
X144312500Y-142250000D03*
D23*
X110966000Y-145248000D03*
X109566000Y-145248000D03*
D15*
X145980000Y-90752500D03*
X145980000Y-87827500D03*
D28*
X132087500Y-154750000D03*
X132087500Y-152850000D03*
X130212500Y-153800000D03*
D35*
X195500000Y-149787500D03*
X195500000Y-152712500D03*
D22*
X137155000Y-113013000D03*
X135255000Y-113013000D03*
D15*
X159350000Y-114462500D03*
X159350000Y-111537500D03*
X175500000Y-133462500D03*
X175500000Y-130537500D03*
X138360000Y-90752500D03*
X138360000Y-87827500D03*
D45*
X114036400Y-92410400D03*
X114036400Y-93680400D03*
X114036400Y-94950400D03*
X114036400Y-96220400D03*
X114036400Y-97490400D03*
X114036400Y-98760400D03*
X114036400Y-100030400D03*
X114036400Y-101300400D03*
D46*
X116626400Y-103560400D03*
X117896400Y-103560400D03*
X119166400Y-103560400D03*
X120436400Y-103560400D03*
X121706400Y-103560400D03*
X122976400Y-103560400D03*
X124246400Y-103560400D03*
X125516400Y-103560400D03*
D45*
X128136400Y-101300400D03*
X128136400Y-100030400D03*
X128136400Y-98760400D03*
X128136400Y-97490400D03*
X128136400Y-96220400D03*
X128136400Y-94950400D03*
X128136400Y-93680400D03*
X128136400Y-92410400D03*
D29*
X162110000Y-139328000D03*
X165410000Y-139328000D03*
D15*
X162450000Y-136662500D03*
X162450000Y-133737500D03*
D36*
X145980000Y-149144000D03*
X145980000Y-156944000D03*
D17*
X174537500Y-149000000D03*
X177462500Y-149000000D03*
D24*
X171000000Y-133800000D03*
X171000000Y-135700000D03*
M02*
