%TF.GenerationSoftware,KiCad,Pcbnew,6.0.1-79c1e3a40b~116~ubuntu20.04.1*%
%TF.CreationDate,2022-01-24T14:31:55+01:00*%
%TF.ProjectId,pippino_board,70697070-696e-46f5-9f62-6f6172642e6b,rev?*%
%TF.SameCoordinates,Original*%
%TF.FileFunction,Soldermask,Top*%
%TF.FilePolarity,Negative*%
%FSLAX46Y46*%
G04 Gerber Fmt 4.6, Leading zero omitted, Abs format (unit mm)*
G04 Created by KiCad (PCBNEW 6.0.1-79c1e3a40b~116~ubuntu20.04.1) date 2022-01-24 14:31:55*
%MOMM*%
%LPD*%
G01*
G04 APERTURE LIST*
G04 Aperture macros list*
%AMRoundRect*
0 Rectangle with rounded corners*
0 $1 Rounding radius*
0 $2 $3 $4 $5 $6 $7 $8 $9 X,Y pos of 4 corners*
0 Add a 4 corners polygon primitive as box body*
4,1,4,$2,$3,$4,$5,$6,$7,$8,$9,$2,$3,0*
0 Add four circle primitives for the rounded corners*
1,1,$1+$1,$2,$3*
1,1,$1+$1,$4,$5*
1,1,$1+$1,$6,$7*
1,1,$1+$1,$8,$9*
0 Add four rect primitives between the rounded corners*
20,1,$1+$1,$2,$3,$4,$5,0*
20,1,$1+$1,$4,$5,$6,$7,0*
20,1,$1+$1,$6,$7,$8,$9,0*
20,1,$1+$1,$8,$9,$2,$3,0*%
G04 Aperture macros list end*
%ADD10R,1.700000X1.700000*%
%ADD11O,1.700000X1.700000*%
%ADD12RoundRect,0.250000X0.625000X-0.312500X0.625000X0.312500X-0.625000X0.312500X-0.625000X-0.312500X0*%
%ADD13RoundRect,0.250000X0.312500X0.625000X-0.312500X0.625000X-0.312500X-0.625000X0.312500X-0.625000X0*%
%ADD14R,2.055000X2.055000*%
%ADD15C,2.055000*%
%ADD16C,1.500000*%
%ADD17RoundRect,0.250001X0.499999X-0.499999X0.499999X0.499999X-0.499999X0.499999X-0.499999X-0.499999X0*%
%ADD18C,3.000000*%
%ADD19RoundRect,0.250000X-0.312500X-0.625000X0.312500X-0.625000X0.312500X0.625000X-0.312500X0.625000X0*%
%ADD20RoundRect,0.250001X0.499999X0.499999X-0.499999X0.499999X-0.499999X-0.499999X0.499999X-0.499999X0*%
%ADD21RoundRect,0.250000X0.475000X-0.250000X0.475000X0.250000X-0.475000X0.250000X-0.475000X-0.250000X0*%
%ADD22R,0.250000X1.100000*%
%ADD23RoundRect,0.250000X-0.625000X0.312500X-0.625000X-0.312500X0.625000X-0.312500X0.625000X0.312500X0*%
%ADD24RoundRect,0.250000X-0.475000X0.250000X-0.475000X-0.250000X0.475000X-0.250000X0.475000X0.250000X0*%
%ADD25O,2.500000X2.000000*%
%ADD26R,2.500000X1.800000*%
%ADD27RoundRect,0.250000X0.350000X0.625000X-0.350000X0.625000X-0.350000X-0.625000X0.350000X-0.625000X0*%
%ADD28O,1.200000X1.750000*%
%ADD29RoundRect,0.150000X-0.150000X0.587500X-0.150000X-0.587500X0.150000X-0.587500X0.150000X0.587500X0*%
%ADD30RoundRect,0.250000X-0.625000X0.375000X-0.625000X-0.375000X0.625000X-0.375000X0.625000X0.375000X0*%
%ADD31RoundRect,0.381000X-1.460500X-0.381000X1.460500X-0.381000X1.460500X0.381000X-1.460500X0.381000X0*%
%ADD32RoundRect,0.381000X-0.762000X-0.381000X0.762000X-0.381000X0.762000X0.381000X-0.762000X0.381000X0*%
%ADD33R,3.100000X2.400000*%
%ADD34RoundRect,0.070000X0.250000X-1.100000X0.250000X1.100000X-0.250000X1.100000X-0.250000X-1.100000X0*%
%ADD35C,0.770000*%
%ADD36R,1.500000X1.500000*%
%ADD37R,2.000000X0.700000*%
%ADD38R,0.700000X2.000000*%
%ADD39R,1.600000X1.600000*%
%ADD40C,1.600000*%
G04 APERTURE END LIST*
D10*
X242000000Y-48500000D03*
D11*
X242000000Y-45960000D03*
D12*
X238100000Y-58862500D03*
X238100000Y-55937500D03*
D13*
X234762500Y-51900000D03*
X231837500Y-51900000D03*
D14*
X167170000Y-77465000D03*
D15*
X167170000Y-74930000D03*
X167170000Y-72395000D03*
D12*
X183070000Y-49722500D03*
X183070000Y-46797500D03*
D16*
X171955000Y-45720000D03*
D17*
X168955000Y-45720000D03*
D18*
X164635000Y-45720000D03*
X250000000Y-85090000D03*
D19*
X227137500Y-60960000D03*
X230062500Y-60960000D03*
D13*
X190438500Y-59436000D03*
X187513500Y-59436000D03*
D18*
X176530000Y-81745000D03*
D20*
X178030000Y-77425000D03*
D16*
X175030000Y-77425000D03*
X178030000Y-74425000D03*
X175030000Y-74425000D03*
D10*
X250190000Y-48895000D03*
D11*
X250190000Y-46355000D03*
X250190000Y-43815000D03*
X250190000Y-41275000D03*
D21*
X180800000Y-71250000D03*
X180800000Y-69350000D03*
D22*
X232680000Y-60570000D03*
X233180000Y-60570000D03*
X233680000Y-60570000D03*
X234180000Y-60570000D03*
X234680000Y-60570000D03*
X234680000Y-56270000D03*
X234180000Y-56270000D03*
X233680000Y-56270000D03*
X233180000Y-56270000D03*
X232680000Y-56270000D03*
D10*
X199390000Y-46355000D03*
D11*
X201930000Y-46355000D03*
X204470000Y-46355000D03*
X207010000Y-46355000D03*
D10*
X212500000Y-39800000D03*
D11*
X215040000Y-39800000D03*
X212500000Y-42340000D03*
X215040000Y-42340000D03*
X212500000Y-44880000D03*
X215040000Y-44880000D03*
X212500000Y-47420000D03*
X215040000Y-47420000D03*
X212500000Y-49960000D03*
X215040000Y-49960000D03*
X212500000Y-52500000D03*
X215040000Y-52500000D03*
X212500000Y-55040000D03*
X215040000Y-55040000D03*
D23*
X228500000Y-52937500D03*
X228500000Y-55862500D03*
D24*
X183070000Y-42230000D03*
X183070000Y-44130000D03*
D19*
X198181500Y-61976000D03*
X201106500Y-61976000D03*
D10*
X199390000Y-41910000D03*
D11*
X201930000Y-41910000D03*
X204470000Y-41910000D03*
X207010000Y-41910000D03*
D13*
X238462500Y-64770000D03*
X235537500Y-64770000D03*
D18*
X160000000Y-35000000D03*
D25*
X160880000Y-52580000D03*
X160880000Y-61720000D03*
X176120000Y-52580000D03*
X176120000Y-61720000D03*
D26*
X180880000Y-55880000D03*
X184880000Y-55880000D03*
D13*
X176662500Y-57037500D03*
X173737500Y-57037500D03*
D23*
X172720000Y-68580000D03*
X172720000Y-71505000D03*
D19*
X165542500Y-40005000D03*
X168467500Y-40005000D03*
D26*
X180880000Y-59436000D03*
X184880000Y-59436000D03*
D21*
X241300000Y-58100000D03*
X241300000Y-56200000D03*
D13*
X232602500Y-64770000D03*
X229677500Y-64770000D03*
D12*
X194310000Y-49722500D03*
X194310000Y-46797500D03*
D18*
X160000000Y-85000000D03*
D10*
X250190000Y-79365000D03*
D11*
X250190000Y-76825000D03*
X250190000Y-74285000D03*
X250190000Y-71745000D03*
D27*
X198040000Y-36110000D03*
D28*
X196040000Y-36110000D03*
X194040000Y-36110000D03*
X192040000Y-36110000D03*
X190040000Y-36110000D03*
X188040000Y-36110000D03*
D27*
X181530000Y-36110000D03*
D28*
X179530000Y-36110000D03*
X177530000Y-36110000D03*
X175530000Y-36110000D03*
X173530000Y-36110000D03*
X171530000Y-36110000D03*
D29*
X175580000Y-69297500D03*
X177480000Y-69297500D03*
X176530000Y-71172500D03*
D12*
X196088000Y-64962500D03*
X196088000Y-62037500D03*
D30*
X191400000Y-63900000D03*
X191400000Y-66700000D03*
D10*
X205090000Y-58928000D03*
D11*
X202550000Y-58928000D03*
X200010000Y-58928000D03*
D31*
X185991500Y-69850000D03*
X185991500Y-77470000D03*
X185991500Y-85090000D03*
D32*
X196850000Y-85090000D03*
X196850000Y-74930000D03*
X196850000Y-69850000D03*
D14*
X160820000Y-77465000D03*
D15*
X160820000Y-74930000D03*
X160820000Y-72395000D03*
D24*
X194310000Y-42230000D03*
X194310000Y-44130000D03*
D33*
X189230000Y-45720000D03*
D34*
X187325000Y-48595000D03*
X188595000Y-48595000D03*
X189865000Y-48595000D03*
X191135000Y-48595000D03*
X191135000Y-42845000D03*
X189865000Y-42845000D03*
X188595000Y-42845000D03*
X187325000Y-42845000D03*
D35*
X190530000Y-45070000D03*
X187930000Y-46370000D03*
X189230000Y-46370000D03*
X187930000Y-45070000D03*
X190530000Y-46370000D03*
X189230000Y-45070000D03*
D36*
X167730000Y-66040000D03*
X159930000Y-66040000D03*
D37*
X213850000Y-75750000D03*
X213850000Y-74480000D03*
X213850000Y-73210000D03*
X213850000Y-71940000D03*
X213850000Y-70670000D03*
X213850000Y-69400000D03*
X213850000Y-68130000D03*
X213850000Y-66860000D03*
D38*
X211260000Y-64600000D03*
X209990000Y-64600000D03*
X208720000Y-64600000D03*
X207450000Y-64600000D03*
X206180000Y-64600000D03*
X204910000Y-64600000D03*
X203640000Y-64600000D03*
X202370000Y-64600000D03*
D37*
X199750000Y-66860000D03*
X199750000Y-68130000D03*
X199750000Y-69400000D03*
X199750000Y-70670000D03*
X199750000Y-71940000D03*
X199750000Y-73210000D03*
X199750000Y-74480000D03*
X199750000Y-75750000D03*
D18*
X250000000Y-35000000D03*
D39*
X219710000Y-40640000D03*
D40*
X219710000Y-43180000D03*
X219710000Y-45720000D03*
X219710000Y-48260000D03*
X219710000Y-50800000D03*
X219710000Y-53340000D03*
X219710000Y-55880000D03*
X219710000Y-58420000D03*
X219710000Y-60960000D03*
X219710000Y-63500000D03*
X219710000Y-66040000D03*
X219710000Y-68580000D03*
X219710000Y-71120000D03*
X219710000Y-73660000D03*
X219710000Y-76200000D03*
X219710000Y-78740000D03*
X219710000Y-81280000D03*
X219710000Y-83820000D03*
X219710000Y-86360000D03*
X245110000Y-86360000D03*
X245110000Y-83820000D03*
X245110000Y-81280000D03*
X245110000Y-78740000D03*
X245110000Y-76200000D03*
X245110000Y-73660000D03*
X245110000Y-71120000D03*
X245110000Y-68580000D03*
X245110000Y-66040000D03*
X245110000Y-63500000D03*
X245110000Y-60960000D03*
X245110000Y-58420000D03*
X245110000Y-55880000D03*
X245110000Y-53340000D03*
X245110000Y-50800000D03*
X245110000Y-48260000D03*
X245110000Y-45720000D03*
X245110000Y-43180000D03*
X245110000Y-40640000D03*
D19*
X187513500Y-55880000D03*
X190438500Y-55880000D03*
D24*
X224790000Y-57470000D03*
X224790000Y-59370000D03*
X172720000Y-40640000D03*
X172720000Y-42540000D03*
D13*
X187862500Y-64500000D03*
X184937500Y-64500000D03*
D33*
X177990000Y-45720000D03*
D34*
X176085000Y-48595000D03*
X177355000Y-48595000D03*
X178625000Y-48595000D03*
X179895000Y-48595000D03*
X179895000Y-42845000D03*
X178625000Y-42845000D03*
X177355000Y-42845000D03*
X176085000Y-42845000D03*
D35*
X179290000Y-46370000D03*
X176690000Y-45070000D03*
X177990000Y-46370000D03*
X179290000Y-45070000D03*
X177990000Y-45070000D03*
X176690000Y-46370000D03*
D11*
X200025000Y-55118000D03*
X202565000Y-55118000D03*
D10*
X205105000Y-55118000D03*
X250190000Y-53975000D03*
D11*
X250190000Y-56515000D03*
X250190000Y-59055000D03*
X250190000Y-61595000D03*
X250190000Y-64135000D03*
X250190000Y-66675000D03*
M02*
