%TF.GenerationSoftware,KiCad,Pcbnew,6.0.1-79c1e3a40b~116~ubuntu20.04.1*%
%TF.CreationDate,2022-01-24T14:31:54+01:00*%
%TF.ProjectId,pippino_board,70697070-696e-46f5-9f62-6f6172642e6b,rev?*%
%TF.SameCoordinates,Original*%
%TF.FileFunction,Legend,Bot*%
%TF.FilePolarity,Positive*%
%FSLAX46Y46*%
G04 Gerber Fmt 4.6, Leading zero omitted, Abs format (unit mm)*
G04 Created by KiCad (PCBNEW 6.0.1-79c1e3a40b~116~ubuntu20.04.1) date 2022-01-24 14:31:54*
%MOMM*%
%LPD*%
G01*
G04 APERTURE LIST*
%ADD10C,0.150000*%
%ADD11C,0.120000*%
G04 APERTURE END LIST*
D10*
X239857142Y-35572619D02*
X239857142Y-36572619D01*
X239476190Y-36572619D01*
X239380952Y-36525000D01*
X239333333Y-36477380D01*
X239285714Y-36382142D01*
X239285714Y-36239285D01*
X239333333Y-36144047D01*
X239380952Y-36096428D01*
X239476190Y-36048809D01*
X239857142Y-36048809D01*
X238857142Y-35572619D02*
X238857142Y-36239285D01*
X238857142Y-36572619D02*
X238904761Y-36525000D01*
X238857142Y-36477380D01*
X238809523Y-36525000D01*
X238857142Y-36572619D01*
X238857142Y-36477380D01*
X238380952Y-36239285D02*
X238380952Y-35239285D01*
X238380952Y-36191666D02*
X238285714Y-36239285D01*
X238095238Y-36239285D01*
X238000000Y-36191666D01*
X237952380Y-36144047D01*
X237904761Y-36048809D01*
X237904761Y-35763095D01*
X237952380Y-35667857D01*
X238000000Y-35620238D01*
X238095238Y-35572619D01*
X238285714Y-35572619D01*
X238380952Y-35620238D01*
X237476190Y-36239285D02*
X237476190Y-35239285D01*
X237476190Y-36191666D02*
X237380952Y-36239285D01*
X237190476Y-36239285D01*
X237095238Y-36191666D01*
X237047619Y-36144047D01*
X237000000Y-36048809D01*
X237000000Y-35763095D01*
X237047619Y-35667857D01*
X237095238Y-35620238D01*
X237190476Y-35572619D01*
X237380952Y-35572619D01*
X237476190Y-35620238D01*
X236571428Y-35572619D02*
X236571428Y-36239285D01*
X236571428Y-36572619D02*
X236619047Y-36525000D01*
X236571428Y-36477380D01*
X236523809Y-36525000D01*
X236571428Y-36572619D01*
X236571428Y-36477380D01*
X236095238Y-36239285D02*
X236095238Y-35572619D01*
X236095238Y-36144047D02*
X236047619Y-36191666D01*
X235952380Y-36239285D01*
X235809523Y-36239285D01*
X235714285Y-36191666D01*
X235666666Y-36096428D01*
X235666666Y-35572619D01*
X235047619Y-35572619D02*
X235142857Y-35620238D01*
X235190476Y-35667857D01*
X235238095Y-35763095D01*
X235238095Y-36048809D01*
X235190476Y-36144047D01*
X235142857Y-36191666D01*
X235047619Y-36239285D01*
X234904761Y-36239285D01*
X234809523Y-36191666D01*
X234761904Y-36144047D01*
X234714285Y-36048809D01*
X234714285Y-35763095D01*
X234761904Y-35667857D01*
X234809523Y-35620238D01*
X234904761Y-35572619D01*
X235047619Y-35572619D01*
X233523809Y-35572619D02*
X233523809Y-36572619D01*
X233047619Y-35572619D02*
X233047619Y-36572619D01*
X231809523Y-35572619D02*
X231809523Y-36572619D01*
X231809523Y-36191666D02*
X231714285Y-36239285D01*
X231523809Y-36239285D01*
X231428571Y-36191666D01*
X231380952Y-36144047D01*
X231333333Y-36048809D01*
X231333333Y-35763095D01*
X231380952Y-35667857D01*
X231428571Y-35620238D01*
X231523809Y-35572619D01*
X231714285Y-35572619D01*
X231809523Y-35620238D01*
X230761904Y-35572619D02*
X230857142Y-35620238D01*
X230904761Y-35667857D01*
X230952380Y-35763095D01*
X230952380Y-36048809D01*
X230904761Y-36144047D01*
X230857142Y-36191666D01*
X230761904Y-36239285D01*
X230619047Y-36239285D01*
X230523809Y-36191666D01*
X230476190Y-36144047D01*
X230428571Y-36048809D01*
X230428571Y-35763095D01*
X230476190Y-35667857D01*
X230523809Y-35620238D01*
X230619047Y-35572619D01*
X230761904Y-35572619D01*
X229571428Y-35572619D02*
X229571428Y-36096428D01*
X229619047Y-36191666D01*
X229714285Y-36239285D01*
X229904761Y-36239285D01*
X230000000Y-36191666D01*
X229571428Y-35620238D02*
X229666666Y-35572619D01*
X229904761Y-35572619D01*
X230000000Y-35620238D01*
X230047619Y-35715476D01*
X230047619Y-35810714D01*
X230000000Y-35905952D01*
X229904761Y-35953571D01*
X229666666Y-35953571D01*
X229571428Y-36001190D01*
X229095238Y-35572619D02*
X229095238Y-36239285D01*
X229095238Y-36048809D02*
X229047619Y-36144047D01*
X229000000Y-36191666D01*
X228904761Y-36239285D01*
X228809523Y-36239285D01*
X228047619Y-35572619D02*
X228047619Y-36572619D01*
X228047619Y-35620238D02*
X228142857Y-35572619D01*
X228333333Y-35572619D01*
X228428571Y-35620238D01*
X228476190Y-35667857D01*
X228523809Y-35763095D01*
X228523809Y-36048809D01*
X228476190Y-36144047D01*
X228428571Y-36191666D01*
X228333333Y-36239285D01*
X228142857Y-36239285D01*
X228047619Y-36191666D01*
X226904761Y-36239285D02*
X226666666Y-35572619D01*
X226428571Y-36239285D01*
X225523809Y-35572619D02*
X226095238Y-35572619D01*
X225809523Y-35572619D02*
X225809523Y-36572619D01*
X225904761Y-36429761D01*
X226000000Y-36334523D01*
X226095238Y-36286904D01*
X225095238Y-35667857D02*
X225047619Y-35620238D01*
X225095238Y-35572619D01*
X225142857Y-35620238D01*
X225095238Y-35667857D01*
X225095238Y-35572619D01*
X224428571Y-36572619D02*
X224333333Y-36572619D01*
X224238095Y-36525000D01*
X224190476Y-36477380D01*
X224142857Y-36382142D01*
X224095238Y-36191666D01*
X224095238Y-35953571D01*
X224142857Y-35763095D01*
X224190476Y-35667857D01*
X224238095Y-35620238D01*
X224333333Y-35572619D01*
X224428571Y-35572619D01*
X224523809Y-35620238D01*
X224571428Y-35667857D01*
X224619047Y-35763095D01*
X224666666Y-35953571D01*
X224666666Y-36191666D01*
X224619047Y-36382142D01*
X224571428Y-36477380D01*
X224523809Y-36525000D01*
X224428571Y-36572619D01*
X240571428Y-33962619D02*
X240571428Y-34962619D01*
X240190476Y-34962619D01*
X240095238Y-34915000D01*
X240047619Y-34867380D01*
X240000000Y-34772142D01*
X240000000Y-34629285D01*
X240047619Y-34534047D01*
X240095238Y-34486428D01*
X240190476Y-34438809D01*
X240571428Y-34438809D01*
X239142857Y-33962619D02*
X239142857Y-34486428D01*
X239190476Y-34581666D01*
X239285714Y-34629285D01*
X239476190Y-34629285D01*
X239571428Y-34581666D01*
X239142857Y-34010238D02*
X239238095Y-33962619D01*
X239476190Y-33962619D01*
X239571428Y-34010238D01*
X239619047Y-34105476D01*
X239619047Y-34200714D01*
X239571428Y-34295952D01*
X239476190Y-34343571D01*
X239238095Y-34343571D01*
X239142857Y-34391190D01*
X238666666Y-34629285D02*
X238666666Y-33772142D01*
X238714285Y-33676904D01*
X238809523Y-33629285D01*
X238857142Y-33629285D01*
X238666666Y-34962619D02*
X238714285Y-34915000D01*
X238666666Y-34867380D01*
X238619047Y-34915000D01*
X238666666Y-34962619D01*
X238666666Y-34867380D01*
X237761904Y-33962619D02*
X237761904Y-34486428D01*
X237809523Y-34581666D01*
X237904761Y-34629285D01*
X238095238Y-34629285D01*
X238190476Y-34581666D01*
X237761904Y-34010238D02*
X237857142Y-33962619D01*
X238095238Y-33962619D01*
X238190476Y-34010238D01*
X238238095Y-34105476D01*
X238238095Y-34200714D01*
X238190476Y-34295952D01*
X238095238Y-34343571D01*
X237857142Y-34343571D01*
X237761904Y-34391190D01*
X237380952Y-34629285D02*
X236857142Y-34629285D01*
X237380952Y-33962619D01*
X236857142Y-33962619D01*
X235285714Y-33962619D02*
X235285714Y-34962619D01*
X235285714Y-34010238D02*
X235380952Y-33962619D01*
X235571428Y-33962619D01*
X235666666Y-34010238D01*
X235714285Y-34057857D01*
X235761904Y-34153095D01*
X235761904Y-34438809D01*
X235714285Y-34534047D01*
X235666666Y-34581666D01*
X235571428Y-34629285D01*
X235380952Y-34629285D01*
X235285714Y-34581666D01*
X234428571Y-34010238D02*
X234523809Y-33962619D01*
X234714285Y-33962619D01*
X234809523Y-34010238D01*
X234857142Y-34105476D01*
X234857142Y-34486428D01*
X234809523Y-34581666D01*
X234714285Y-34629285D01*
X234523809Y-34629285D01*
X234428571Y-34581666D01*
X234380952Y-34486428D01*
X234380952Y-34391190D01*
X234857142Y-34295952D01*
X234000000Y-34010238D02*
X233904761Y-33962619D01*
X233714285Y-33962619D01*
X233619047Y-34010238D01*
X233571428Y-34105476D01*
X233571428Y-34153095D01*
X233619047Y-34248333D01*
X233714285Y-34295952D01*
X233857142Y-34295952D01*
X233952380Y-34343571D01*
X234000000Y-34438809D01*
X234000000Y-34486428D01*
X233952380Y-34581666D01*
X233857142Y-34629285D01*
X233714285Y-34629285D01*
X233619047Y-34581666D01*
X233142857Y-33962619D02*
X233142857Y-34629285D01*
X233142857Y-34962619D02*
X233190476Y-34915000D01*
X233142857Y-34867380D01*
X233095238Y-34915000D01*
X233142857Y-34962619D01*
X233142857Y-34867380D01*
X232238095Y-34629285D02*
X232238095Y-33819761D01*
X232285714Y-33724523D01*
X232333333Y-33676904D01*
X232428571Y-33629285D01*
X232571428Y-33629285D01*
X232666666Y-33676904D01*
X232238095Y-34010238D02*
X232333333Y-33962619D01*
X232523809Y-33962619D01*
X232619047Y-34010238D01*
X232666666Y-34057857D01*
X232714285Y-34153095D01*
X232714285Y-34438809D01*
X232666666Y-34534047D01*
X232619047Y-34581666D01*
X232523809Y-34629285D01*
X232333333Y-34629285D01*
X232238095Y-34581666D01*
X231761904Y-34629285D02*
X231761904Y-33962619D01*
X231761904Y-34534047D02*
X231714285Y-34581666D01*
X231619047Y-34629285D01*
X231476190Y-34629285D01*
X231380952Y-34581666D01*
X231333333Y-34486428D01*
X231333333Y-33962619D01*
X229809523Y-34962619D02*
X229809523Y-34248333D01*
X229857142Y-34105476D01*
X229952380Y-34010238D01*
X230095238Y-33962619D01*
X230190476Y-33962619D01*
X228904761Y-33962619D02*
X228904761Y-34486428D01*
X228952380Y-34581666D01*
X229047619Y-34629285D01*
X229238095Y-34629285D01*
X229333333Y-34581666D01*
X228904761Y-34010238D02*
X229000000Y-33962619D01*
X229238095Y-33962619D01*
X229333333Y-34010238D01*
X229380952Y-34105476D01*
X229380952Y-34200714D01*
X229333333Y-34295952D01*
X229238095Y-34343571D01*
X229000000Y-34343571D01*
X228904761Y-34391190D01*
X228428571Y-34629285D02*
X228428571Y-33962619D01*
X228428571Y-34534047D02*
X228380952Y-34581666D01*
X228285714Y-34629285D01*
X228142857Y-34629285D01*
X228047619Y-34581666D01*
X228000000Y-34486428D01*
X228000000Y-33962619D01*
X226809523Y-34867380D02*
X226761904Y-34915000D01*
X226666666Y-34962619D01*
X226428571Y-34962619D01*
X226333333Y-34915000D01*
X226285714Y-34867380D01*
X226238095Y-34772142D01*
X226238095Y-34676904D01*
X226285714Y-34534047D01*
X226857142Y-33962619D01*
X226238095Y-33962619D01*
X225619047Y-34962619D02*
X225523809Y-34962619D01*
X225428571Y-34915000D01*
X225380952Y-34867380D01*
X225333333Y-34772142D01*
X225285714Y-34581666D01*
X225285714Y-34343571D01*
X225333333Y-34153095D01*
X225380952Y-34057857D01*
X225428571Y-34010238D01*
X225523809Y-33962619D01*
X225619047Y-33962619D01*
X225714285Y-34010238D01*
X225761904Y-34057857D01*
X225809523Y-34153095D01*
X225857142Y-34343571D01*
X225857142Y-34581666D01*
X225809523Y-34772142D01*
X225761904Y-34867380D01*
X225714285Y-34915000D01*
X225619047Y-34962619D01*
X224904761Y-34867380D02*
X224857142Y-34915000D01*
X224761904Y-34962619D01*
X224523809Y-34962619D01*
X224428571Y-34915000D01*
X224380952Y-34867380D01*
X224333333Y-34772142D01*
X224333333Y-34676904D01*
X224380952Y-34534047D01*
X224952380Y-33962619D01*
X224333333Y-33962619D01*
X223952380Y-34867380D02*
X223904761Y-34915000D01*
X223809523Y-34962619D01*
X223571428Y-34962619D01*
X223476190Y-34915000D01*
X223428571Y-34867380D01*
X223380952Y-34772142D01*
X223380952Y-34676904D01*
X223428571Y-34534047D01*
X224000000Y-33962619D01*
X223380952Y-33962619D01*
D11*
X235585000Y-87630000D02*
X229235000Y-87630000D01*
X229235000Y-87630000D02*
X229235000Y-83820000D01*
X229235000Y-83820000D02*
X235585000Y-83820000D01*
X235585000Y-83820000D02*
X235585000Y-87630000D01*
M02*
