M48
; DRILL file {KiCad 6.0.1-79c1e3a40b~116~ubuntu20.04.1} date Mon 24 Jan 2022 02:31:57 PM CET
; FORMAT={-:-/ absolute / inch / decimal}
; #@! TF.CreationDate,2022-01-24T14:31:57+01:00
; #@! TF.GenerationSoftware,Kicad,Pcbnew,6.0.1-79c1e3a40b~116~ubuntu20.04.1
; #@! TF.FileFunction,Plated,1,2,PTH
FMAT,2
INCH
; #@! TA.AperFunction,Plated,PTH,ComponentDrill
T1C0.0130
; #@! TA.AperFunction,Plated,PTH,ViaDrill
T2C0.0157
; #@! TA.AperFunction,Plated,PTH,ComponentDrill
T3C0.0295
; #@! TA.AperFunction,Plated,PTH,ComponentDrill
T4C0.0300
; #@! TA.AperFunction,Plated,PTH,ComponentDrill
T5C0.0394
; #@! TA.AperFunction,Plated,PTH,ComponentDrill
T6C0.0402
; #@! TA.AperFunction,Plated,PTH,ComponentDrill
T7C0.0472
; #@! TA.AperFunction,Plated,PTH,ComponentDrill
T8C0.0539
%
G90
G05
T1
X6.9563Y-1.7744
X6.9563Y-1.8256
X7.0075Y-1.7744
X7.0075Y-1.8256
X7.0587Y-1.7744
X7.0587Y-1.8256
X7.3988Y-1.7744
X7.3988Y-1.8256
X7.45Y-1.7744
X7.45Y-1.8256
X7.5012Y-1.7744
X7.5012Y-1.8256
T2
X6.2205Y-2.5
X6.2205Y-2.7362
X6.2205Y-2.9626
X6.2205Y-3.1791
X6.2303Y-1.6929
X6.2303Y-2.2736
X6.2402Y-1.9094
X6.2894Y-2.1752
X6.3Y-1.58
X6.36Y-1.54
X6.4075Y-3.2382
X6.42Y-1.5
X6.4594Y-2.95
X6.5354Y-3.22
X6.5354Y-3.3858
X6.54Y-1.38
X6.58Y-1.68
X6.6Y-1.38
X6.6142Y-2.4311
X6.6518Y-1.8915
X6.6535Y-1.9685
X6.6563Y-2.95
X6.6732Y-2.372
X6.68Y-1.68
X6.6929Y-2.9134
X6.7323Y-2.874
X6.7323Y-3.1496
X6.7323Y-3.2677
X6.7323Y-3.3858
X6.74Y-2.3
X6.8Y-2.58
X6.811Y-1.8898
X6.8504Y-1.9291
X6.8504Y-2.126
X6.8583Y-1.5984
X6.86Y-2.58
X6.998Y-1.5118
X7.0768Y-3.3661
X7.14Y-2.4488
X7.14Y-2.5
X7.1496Y-1.5984
X7.1496Y-1.6496
X7.185Y-2.6614
X7.2008Y-1.5984
X7.2441Y-2.6614
X7.26Y-1.46
X7.3031Y-2.6614
X7.3228Y-3.1496
X7.3622Y-2.6614
X7.4173Y-2.6614
X7.4587Y-1.5039
X7.4803Y-3.0315
X7.5Y-2.874
X7.5591Y-3.3465
X7.58Y-2.45
X7.5846Y-1.6634
X7.5866Y-1.6142
X7.6378Y-3.2283
X7.6496Y-1.6161
X7.66Y-2.34
X7.7165Y-1.7717
X7.7165Y-2.8543
X7.72Y-2.16
X7.72Y-2.62
X7.74Y-2.34
X7.92Y-1.42
X7.9331Y-2.874
X7.9724Y-2.6378
X7.9724Y-2.7756
X7.9921Y-1.9291
X8.0Y-2.97
X8.0378Y-2.6264
X8.04Y-1.42
X8.0512Y-2.874
X8.09Y-2.97
X8.1378Y-1.9488
X8.1496Y-2.874
X8.16Y-1.42
X8.1693Y-2.3425
X8.17Y-2.97
X8.2082Y-2.7958
X8.2087Y-2.2835
X8.248Y-2.3228
X8.28Y-1.42
X8.3268Y-2.8543
X8.3465Y-2.7559
X8.35Y-3.04
X8.3661Y-2.4606
X8.4Y-1.42
X8.4Y-2.256
X8.4646Y-1.4764
X8.4843Y-2.5
X8.54Y-3.42
X8.563Y-1.7953
X8.8189Y-3.0315
X8.82Y-2.5591
X8.82Y-2.6378
X8.86Y-1.65
X8.8976Y-2.5591
X8.8976Y-3.2677
X8.8976Y-3.3858
X8.92Y-1.74
X8.92Y-1.82
X8.94Y-2.6378
X8.9961Y-2.0276
X9.0157Y-3.0315
X9.0551Y-3.2677
X9.0551Y-3.3858
X9.1339Y-1.62
X9.1339Y-1.7323
X9.1339Y-1.8504
X9.1732Y-3.0315
X9.2126Y-3.2677
X9.2126Y-3.3858
X9.2441Y-2.1496
X9.2717Y-1.7126
X9.2913Y-1.62
X9.3071Y-2.0354
X9.311Y-1.9291
X9.311Y-2.4409
X9.3307Y-2.874
X9.3307Y-3.0315
X9.3504Y-2.3819
X9.3701Y-3.2677
X9.3701Y-3.3858
X9.3898Y-1.811
X9.4094Y-1.6535
X9.46Y-2.1
X9.4882Y-2.874
X9.4882Y-3.0315
X9.52Y-2.1
X9.52Y-2.5
X9.52Y-2.61
X9.5276Y-1.6535
X9.74Y-2.94
X9.76Y-1.52
X9.76Y-1.6
X9.76Y-1.68
X9.76Y-2.62
X9.76Y-2.7
X9.9016Y-3.2283
T3
X6.7531Y-1.4217
X6.8319Y-1.4217
X6.9106Y-1.4217
X6.9894Y-1.4217
X7.0681Y-1.4217
X7.1469Y-1.4217
X7.4031Y-1.4217
X7.4819Y-1.4217
X7.5606Y-1.4217
X7.6394Y-1.4217
X7.7181Y-1.4217
X7.7969Y-1.4217
T4
X6.3339Y-2.0701
X6.3339Y-2.4299
X6.9339Y-2.0701
X6.9339Y-2.4299
T5
X7.85Y-1.65
X7.85Y-1.825
X7.8744Y-2.32
X7.875Y-2.17
X7.95Y-1.65
X7.95Y-1.825
X7.9744Y-2.32
X7.975Y-2.17
X8.05Y-1.65
X8.05Y-1.825
X8.0744Y-2.32
X8.075Y-2.17
X8.15Y-1.65
X8.15Y-1.825
X8.3661Y-1.5669
X8.3661Y-1.6669
X8.3661Y-1.7669
X8.3661Y-1.8669
X8.3661Y-1.9669
X8.3661Y-2.0669
X8.3661Y-2.1669
X8.4661Y-1.5669
X8.4661Y-1.6669
X8.4661Y-1.7669
X8.4661Y-1.8669
X8.4661Y-1.9669
X8.4661Y-2.0669
X8.4661Y-2.1669
X9.5276Y-1.8094
X9.5276Y-1.9094
X9.85Y-1.625
X9.85Y-1.725
X9.85Y-1.825
X9.85Y-1.925
X9.85Y-2.125
X9.85Y-2.225
X9.85Y-2.325
X9.85Y-2.425
X9.85Y-2.525
X9.85Y-2.625
X9.85Y-2.8246
X9.85Y-2.9246
X9.85Y-3.0246
X9.85Y-3.1246
T6
X6.6518Y-1.8
X6.7699Y-1.8
X6.8909Y-2.9301
X6.8909Y-3.0482
X7.0091Y-2.9301
X7.0091Y-3.0482
T7
X8.65Y-1.6
X8.65Y-1.7
X8.65Y-1.8
X8.65Y-1.9
X8.65Y-2.0
X8.65Y-2.1
X8.65Y-2.2
X8.65Y-2.3
X8.65Y-2.4
X8.65Y-2.5
X8.65Y-2.6
X8.65Y-2.7
X8.65Y-2.8
X8.65Y-2.9
X8.65Y-3.0
X8.65Y-3.1
X8.65Y-3.2
X8.65Y-3.3
X8.65Y-3.4
X9.65Y-1.6
X9.65Y-1.7
X9.65Y-1.8
X9.65Y-1.9
X9.65Y-2.0
X9.65Y-2.1
X9.65Y-2.2
X9.65Y-2.3
X9.65Y-2.4
X9.65Y-2.5
X9.65Y-2.6
X9.65Y-2.7
X9.65Y-2.8
X9.65Y-2.9
X9.65Y-3.0
X9.65Y-3.1
X9.65Y-3.2
X9.65Y-3.3
X9.65Y-3.4
T8
X6.3315Y-2.8502
X6.3315Y-2.95
X6.3315Y-3.0498
X6.5815Y-2.8502
X6.5815Y-2.95
X6.5815Y-3.0498
T0
M30
