%TF.GenerationSoftware,KiCad,Pcbnew,6.0.1-79c1e3a40b~116~ubuntu20.04.1*%
%TF.CreationDate,2022-01-24T14:05:44+01:00*%
%TF.ProjectId,pippino_board,70697070-696e-46f5-9f62-6f6172642e6b,rev?*%
%TF.SameCoordinates,Original*%
%TF.FileFunction,Legend,Top*%
%TF.FilePolarity,Positive*%
%FSLAX46Y46*%
G04 Gerber Fmt 4.6, Leading zero omitted, Abs format (unit mm)*
G04 Created by KiCad (PCBNEW 6.0.1-79c1e3a40b~116~ubuntu20.04.1) date 2022-01-24 14:05:44*
%MOMM*%
%LPD*%
G01*
G04 APERTURE LIST*
%ADD10C,0.100000*%
%ADD11C,0.080000*%
%ADD12C,0.150000*%
%ADD13C,0.254000*%
%ADD14C,0.120000*%
%ADD15C,0.200000*%
G04 APERTURE END LIST*
D10*
X238928571Y-50726190D02*
X238761904Y-50488095D01*
X238642857Y-50726190D02*
X238642857Y-50226190D01*
X238833333Y-50226190D01*
X238880952Y-50250000D01*
X238904761Y-50273809D01*
X238928571Y-50321428D01*
X238928571Y-50392857D01*
X238904761Y-50440476D01*
X238880952Y-50464285D01*
X238833333Y-50488095D01*
X238642857Y-50488095D01*
X239095238Y-50226190D02*
X239428571Y-50726190D01*
X239428571Y-50226190D02*
X239095238Y-50726190D01*
X239619047Y-50726190D02*
X239619047Y-50226190D01*
X239738095Y-50226190D01*
X239809523Y-50250000D01*
X239857142Y-50297619D01*
X239880952Y-50345238D01*
X239904761Y-50440476D01*
X239904761Y-50511904D01*
X239880952Y-50607142D01*
X239857142Y-50654761D01*
X239809523Y-50702380D01*
X239738095Y-50726190D01*
X239619047Y-50726190D01*
X240214285Y-50226190D02*
X240261904Y-50226190D01*
X240309523Y-50250000D01*
X240333333Y-50273809D01*
X240357142Y-50321428D01*
X240380952Y-50416666D01*
X240380952Y-50535714D01*
X240357142Y-50630952D01*
X240333333Y-50678571D01*
X240309523Y-50702380D01*
X240261904Y-50726190D01*
X240214285Y-50726190D01*
X240166666Y-50702380D01*
X240142857Y-50678571D01*
X240119047Y-50630952D01*
X240095238Y-50535714D01*
X240095238Y-50416666D01*
X240119047Y-50321428D01*
X240142857Y-50273809D01*
X240166666Y-50250000D01*
X240214285Y-50226190D01*
X238630952Y-43726190D02*
X238916666Y-43726190D01*
X238773809Y-44226190D02*
X238773809Y-43726190D01*
X239035714Y-43726190D02*
X239369047Y-44226190D01*
X239369047Y-43726190D02*
X239035714Y-44226190D01*
X239559523Y-44226190D02*
X239559523Y-43726190D01*
X239678571Y-43726190D01*
X239750000Y-43750000D01*
X239797619Y-43797619D01*
X239821428Y-43845238D01*
X239845238Y-43940476D01*
X239845238Y-44011904D01*
X239821428Y-44107142D01*
X239797619Y-44154761D01*
X239750000Y-44202380D01*
X239678571Y-44226190D01*
X239559523Y-44226190D01*
X240154761Y-43726190D02*
X240202380Y-43726190D01*
X240250000Y-43750000D01*
X240273809Y-43773809D01*
X240297619Y-43821428D01*
X240321428Y-43916666D01*
X240321428Y-44035714D01*
X240297619Y-44130952D01*
X240273809Y-44178571D01*
X240250000Y-44202380D01*
X240202380Y-44226190D01*
X240154761Y-44226190D01*
X240107142Y-44202380D01*
X240083333Y-44178571D01*
X240059523Y-44130952D01*
X240035714Y-44035714D01*
X240035714Y-43916666D01*
X240059523Y-43821428D01*
X240083333Y-43773809D01*
X240107142Y-43750000D01*
X240154761Y-43726190D01*
X216566698Y-39518836D02*
X216876222Y-39518836D01*
X216709555Y-39709312D01*
X216780984Y-39709312D01*
X216828603Y-39733122D01*
X216852412Y-39756931D01*
X216876222Y-39804550D01*
X216876222Y-39923598D01*
X216852412Y-39971217D01*
X216828603Y-39995026D01*
X216780984Y-40018836D01*
X216638126Y-40018836D01*
X216590507Y-39995026D01*
X216566698Y-39971217D01*
X217019079Y-39518836D02*
X217185746Y-40018836D01*
X217352412Y-39518836D01*
X217471460Y-39518836D02*
X217780984Y-39518836D01*
X217614317Y-39709312D01*
X217685746Y-39709312D01*
X217733365Y-39733122D01*
X217757174Y-39756931D01*
X217780984Y-39804550D01*
X217780984Y-39923598D01*
X217757174Y-39971217D01*
X217733365Y-39995026D01*
X217685746Y-40018836D01*
X217542888Y-40018836D01*
X217495269Y-39995026D01*
X217471460Y-39971217D01*
X197750000Y-55345238D02*
X197726190Y-55392857D01*
X197726190Y-55464285D01*
X197750000Y-55535714D01*
X197797619Y-55583333D01*
X197845238Y-55607142D01*
X197940476Y-55630952D01*
X198011904Y-55630952D01*
X198107142Y-55607142D01*
X198154761Y-55583333D01*
X198202380Y-55535714D01*
X198226190Y-55464285D01*
X198226190Y-55416666D01*
X198202380Y-55345238D01*
X198178571Y-55321428D01*
X198011904Y-55321428D01*
X198011904Y-55416666D01*
X198226190Y-54845238D02*
X198226190Y-55130952D01*
X198226190Y-54988095D02*
X197726190Y-54988095D01*
X197797619Y-55035714D01*
X197845238Y-55083333D01*
X197869047Y-55130952D01*
X197726190Y-54416666D02*
X197726190Y-54511904D01*
X197750000Y-54559523D01*
X197773809Y-54583333D01*
X197845238Y-54630952D01*
X197940476Y-54654761D01*
X198130952Y-54654761D01*
X198178571Y-54630952D01*
X198202380Y-54607142D01*
X198226190Y-54559523D01*
X198226190Y-54464285D01*
X198202380Y-54416666D01*
X198178571Y-54392857D01*
X198130952Y-54369047D01*
X198011904Y-54369047D01*
X197964285Y-54392857D01*
X197940476Y-54416666D01*
X197916666Y-54464285D01*
X197916666Y-54559523D01*
X197940476Y-54607142D01*
X197964285Y-54630952D01*
X198011904Y-54654761D01*
D11*
X209190476Y-54971428D02*
X209323809Y-54971428D01*
X209380952Y-55180952D02*
X209190476Y-55180952D01*
X209190476Y-54780952D01*
X209380952Y-54780952D01*
X209761904Y-55180952D02*
X209533333Y-55180952D01*
X209647619Y-55180952D02*
X209647619Y-54780952D01*
X209609523Y-54838095D01*
X209571428Y-54876190D01*
X209533333Y-54895238D01*
X209990476Y-54952380D02*
X209952380Y-54933333D01*
X209933333Y-54914285D01*
X209914285Y-54876190D01*
X209914285Y-54857142D01*
X209933333Y-54819047D01*
X209952380Y-54800000D01*
X209990476Y-54780952D01*
X210066666Y-54780952D01*
X210104761Y-54800000D01*
X210123809Y-54819047D01*
X210142857Y-54857142D01*
X210142857Y-54876190D01*
X210123809Y-54914285D01*
X210104761Y-54933333D01*
X210066666Y-54952380D01*
X209990476Y-54952380D01*
X209952380Y-54971428D01*
X209933333Y-54990476D01*
X209914285Y-55028571D01*
X209914285Y-55104761D01*
X209933333Y-55142857D01*
X209952380Y-55161904D01*
X209990476Y-55180952D01*
X210066666Y-55180952D01*
X210104761Y-55161904D01*
X210123809Y-55142857D01*
X210142857Y-55104761D01*
X210142857Y-55028571D01*
X210123809Y-54990476D01*
X210104761Y-54971428D01*
X210066666Y-54952380D01*
X210257142Y-54780952D02*
X210485714Y-54780952D01*
X210371428Y-55180952D02*
X210371428Y-54780952D01*
X210580952Y-54780952D02*
X210847619Y-55180952D01*
X210847619Y-54780952D02*
X210580952Y-55180952D01*
D12*
X178809523Y-38547619D02*
X178809523Y-39547619D01*
X178476190Y-38833333D01*
X178142857Y-39547619D01*
X178142857Y-38547619D01*
X177523809Y-38547619D02*
X177619047Y-38595238D01*
X177666666Y-38642857D01*
X177714285Y-38738095D01*
X177714285Y-39023809D01*
X177666666Y-39119047D01*
X177619047Y-39166666D01*
X177523809Y-39214285D01*
X177380952Y-39214285D01*
X177285714Y-39166666D01*
X177238095Y-39119047D01*
X177190476Y-39023809D01*
X177190476Y-38738095D01*
X177238095Y-38642857D01*
X177285714Y-38595238D01*
X177380952Y-38547619D01*
X177523809Y-38547619D01*
X176904761Y-39214285D02*
X176523809Y-39214285D01*
X176761904Y-39547619D02*
X176761904Y-38690476D01*
X176714285Y-38595238D01*
X176619047Y-38547619D01*
X176523809Y-38547619D01*
X176047619Y-38547619D02*
X176142857Y-38595238D01*
X176190476Y-38642857D01*
X176238095Y-38738095D01*
X176238095Y-39023809D01*
X176190476Y-39119047D01*
X176142857Y-39166666D01*
X176047619Y-39214285D01*
X175904761Y-39214285D01*
X175809523Y-39166666D01*
X175761904Y-39119047D01*
X175714285Y-39023809D01*
X175714285Y-38738095D01*
X175761904Y-38642857D01*
X175809523Y-38595238D01*
X175904761Y-38547619D01*
X176047619Y-38547619D01*
X175285714Y-38547619D02*
X175285714Y-39214285D01*
X175285714Y-39023809D02*
X175238095Y-39119047D01*
X175190476Y-39166666D01*
X175095238Y-39214285D01*
X175000000Y-39214285D01*
X174714285Y-39452380D02*
X174666666Y-39500000D01*
X174571428Y-39547619D01*
X174333333Y-39547619D01*
X174238095Y-39500000D01*
X174190476Y-39452380D01*
X174142857Y-39357142D01*
X174142857Y-39261904D01*
X174190476Y-39119047D01*
X174761904Y-38547619D01*
X174142857Y-38547619D01*
D10*
X251694190Y-54467047D02*
X251694190Y-54157523D01*
X251884666Y-54324190D01*
X251884666Y-54252761D01*
X251908476Y-54205142D01*
X251932285Y-54181333D01*
X251979904Y-54157523D01*
X252098952Y-54157523D01*
X252146571Y-54181333D01*
X252170380Y-54205142D01*
X252194190Y-54252761D01*
X252194190Y-54395619D01*
X252170380Y-54443238D01*
X252146571Y-54467047D01*
X251694190Y-54014666D02*
X252194190Y-53848000D01*
X251694190Y-53681333D01*
X251694190Y-53562285D02*
X251694190Y-53252761D01*
X251884666Y-53419428D01*
X251884666Y-53348000D01*
X251908476Y-53300380D01*
X251932285Y-53276571D01*
X251979904Y-53252761D01*
X252098952Y-53252761D01*
X252146571Y-53276571D01*
X252170380Y-53300380D01*
X252194190Y-53348000D01*
X252194190Y-53490857D01*
X252170380Y-53538476D01*
X252146571Y-53562285D01*
X209764995Y-39449773D02*
X209717376Y-39425963D01*
X209645948Y-39425963D01*
X209574519Y-39449773D01*
X209526900Y-39497392D01*
X209503090Y-39545011D01*
X209479281Y-39640249D01*
X209479281Y-39711677D01*
X209503090Y-39806915D01*
X209526900Y-39854534D01*
X209574519Y-39902153D01*
X209645948Y-39925963D01*
X209693567Y-39925963D01*
X209764995Y-39902153D01*
X209788805Y-39878344D01*
X209788805Y-39711677D01*
X209693567Y-39711677D01*
X210003090Y-39925963D02*
X210003090Y-39425963D01*
X210288805Y-39925963D01*
X210288805Y-39425963D01*
X210526900Y-39925963D02*
X210526900Y-39425963D01*
X210645948Y-39425963D01*
X210717376Y-39449773D01*
X210764995Y-39497392D01*
X210788805Y-39545011D01*
X210812614Y-39640249D01*
X210812614Y-39711677D01*
X210788805Y-39806915D01*
X210764995Y-39854534D01*
X210717376Y-39902153D01*
X210645948Y-39925963D01*
X210526900Y-39925963D01*
X252194190Y-57173714D02*
X251694190Y-57173714D01*
X252051333Y-57007047D01*
X251694190Y-56840380D01*
X252194190Y-56840380D01*
X251694190Y-56507047D02*
X251694190Y-56411809D01*
X251718000Y-56364190D01*
X251765619Y-56316571D01*
X251860857Y-56292761D01*
X252027523Y-56292761D01*
X252122761Y-56316571D01*
X252170380Y-56364190D01*
X252194190Y-56411809D01*
X252194190Y-56507047D01*
X252170380Y-56554666D01*
X252122761Y-56602285D01*
X252027523Y-56626095D01*
X251860857Y-56626095D01*
X251765619Y-56602285D01*
X251718000Y-56554666D01*
X251694190Y-56507047D01*
X252170380Y-56102285D02*
X252194190Y-56030857D01*
X252194190Y-55911809D01*
X252170380Y-55864190D01*
X252146571Y-55840380D01*
X252098952Y-55816571D01*
X252051333Y-55816571D01*
X252003714Y-55840380D01*
X251979904Y-55864190D01*
X251956095Y-55911809D01*
X251932285Y-56007047D01*
X251908476Y-56054666D01*
X251884666Y-56078476D01*
X251837047Y-56102285D01*
X251789428Y-56102285D01*
X251741809Y-56078476D01*
X251718000Y-56054666D01*
X251694190Y-56007047D01*
X251694190Y-55888000D01*
X251718000Y-55816571D01*
X252194190Y-55602285D02*
X251694190Y-55602285D01*
D11*
X216536093Y-45066666D02*
X216726569Y-45066666D01*
X216497998Y-45180952D02*
X216631331Y-44780952D01*
X216764664Y-45180952D01*
X216897998Y-45180952D02*
X216897998Y-44780952D01*
X216993236Y-44780952D01*
X217050379Y-44800000D01*
X217088474Y-44838095D01*
X217107522Y-44876190D01*
X217126569Y-44952380D01*
X217126569Y-45009523D01*
X217107522Y-45085714D01*
X217088474Y-45123809D01*
X217050379Y-45161904D01*
X216993236Y-45180952D01*
X216897998Y-45180952D01*
X217278950Y-45161904D02*
X217336093Y-45180952D01*
X217431331Y-45180952D01*
X217469426Y-45161904D01*
X217488474Y-45142857D01*
X217507522Y-45104761D01*
X217507522Y-45066666D01*
X217488474Y-45028571D01*
X217469426Y-45009523D01*
X217431331Y-44990476D01*
X217355141Y-44971428D01*
X217317045Y-44952380D01*
X217297998Y-44933333D01*
X217278950Y-44895238D01*
X217278950Y-44857142D01*
X217297998Y-44819047D01*
X217317045Y-44800000D01*
X217355141Y-44780952D01*
X217450379Y-44780952D01*
X217507522Y-44800000D01*
X217888474Y-45180952D02*
X217659903Y-45180952D01*
X217774188Y-45180952D02*
X217774188Y-44780952D01*
X217736093Y-44838095D01*
X217697998Y-44876190D01*
X217659903Y-44895238D01*
D10*
X201781761Y-39882000D02*
X201734142Y-39858190D01*
X201662714Y-39858190D01*
X201591285Y-39882000D01*
X201543666Y-39929619D01*
X201519857Y-39977238D01*
X201496047Y-40072476D01*
X201496047Y-40143904D01*
X201519857Y-40239142D01*
X201543666Y-40286761D01*
X201591285Y-40334380D01*
X201662714Y-40358190D01*
X201710333Y-40358190D01*
X201781761Y-40334380D01*
X201805571Y-40310571D01*
X201805571Y-40143904D01*
X201710333Y-40143904D01*
X201972238Y-39858190D02*
X202281761Y-39858190D01*
X202115095Y-40048666D01*
X202186523Y-40048666D01*
X202234142Y-40072476D01*
X202257952Y-40096285D01*
X202281761Y-40143904D01*
X202281761Y-40262952D01*
X202257952Y-40310571D01*
X202234142Y-40334380D01*
X202186523Y-40358190D01*
X202043666Y-40358190D01*
X201996047Y-40334380D01*
X201972238Y-40310571D01*
X202519857Y-40358190D02*
X202615095Y-40358190D01*
X202662714Y-40334380D01*
X202686523Y-40310571D01*
X202734142Y-40239142D01*
X202757952Y-40143904D01*
X202757952Y-39953428D01*
X202734142Y-39905809D01*
X202710333Y-39882000D01*
X202662714Y-39858190D01*
X202567476Y-39858190D01*
X202519857Y-39882000D01*
X202496047Y-39905809D01*
X202472238Y-39953428D01*
X202472238Y-40072476D01*
X202496047Y-40120095D01*
X202519857Y-40143904D01*
X202567476Y-40167714D01*
X202662714Y-40167714D01*
X202710333Y-40143904D01*
X202734142Y-40120095D01*
X202757952Y-40072476D01*
D11*
X202390476Y-60418952D02*
X202523809Y-60818952D01*
X202657142Y-60418952D01*
X202923809Y-60609428D02*
X202980952Y-60628476D01*
X203000000Y-60647523D01*
X203019047Y-60685619D01*
X203019047Y-60742761D01*
X203000000Y-60780857D01*
X202980952Y-60799904D01*
X202942857Y-60818952D01*
X202790476Y-60818952D01*
X202790476Y-60418952D01*
X202923809Y-60418952D01*
X202961904Y-60438000D01*
X202980952Y-60457047D01*
X203000000Y-60495142D01*
X203000000Y-60533238D01*
X202980952Y-60571333D01*
X202961904Y-60590380D01*
X202923809Y-60609428D01*
X202790476Y-60609428D01*
X203171428Y-60704666D02*
X203361904Y-60704666D01*
X203133333Y-60818952D02*
X203266666Y-60418952D01*
X203400000Y-60818952D01*
X203476190Y-60418952D02*
X203704761Y-60418952D01*
X203590476Y-60818952D02*
X203590476Y-60418952D01*
X203780952Y-60418952D02*
X204009523Y-60418952D01*
X203895238Y-60818952D02*
X203895238Y-60418952D01*
X202723809Y-61196285D02*
X202876190Y-61196285D01*
X202780952Y-61062952D02*
X202780952Y-61405809D01*
X202800000Y-61443904D01*
X202838095Y-61462952D01*
X202876190Y-61462952D01*
X203009523Y-61462952D02*
X203009523Y-61196285D01*
X203009523Y-61272476D02*
X203028571Y-61234380D01*
X203047619Y-61215333D01*
X203085714Y-61196285D01*
X203123809Y-61196285D01*
X203257142Y-61462952D02*
X203257142Y-61196285D01*
X203257142Y-61062952D02*
X203238095Y-61082000D01*
X203257142Y-61101047D01*
X203276190Y-61082000D01*
X203257142Y-61062952D01*
X203257142Y-61101047D01*
X203619047Y-61196285D02*
X203619047Y-61520095D01*
X203600000Y-61558190D01*
X203580952Y-61577238D01*
X203542857Y-61596285D01*
X203485714Y-61596285D01*
X203447619Y-61577238D01*
X203619047Y-61443904D02*
X203580952Y-61462952D01*
X203504761Y-61462952D01*
X203466666Y-61443904D01*
X203447619Y-61424857D01*
X203428571Y-61386761D01*
X203428571Y-61272476D01*
X203447619Y-61234380D01*
X203466666Y-61215333D01*
X203504761Y-61196285D01*
X203580952Y-61196285D01*
X203619047Y-61215333D01*
D10*
X251718000Y-41528952D02*
X251694190Y-41576571D01*
X251694190Y-41648000D01*
X251718000Y-41719428D01*
X251765619Y-41767047D01*
X251813238Y-41790857D01*
X251908476Y-41814666D01*
X251979904Y-41814666D01*
X252075142Y-41790857D01*
X252122761Y-41767047D01*
X252170380Y-41719428D01*
X252194190Y-41648000D01*
X252194190Y-41600380D01*
X252170380Y-41528952D01*
X252146571Y-41505142D01*
X251979904Y-41505142D01*
X251979904Y-41600380D01*
X252194190Y-41290857D02*
X251694190Y-41290857D01*
X252194190Y-41005142D01*
X251694190Y-41005142D01*
X252194190Y-40767047D02*
X251694190Y-40767047D01*
X251694190Y-40648000D01*
X251718000Y-40576571D01*
X251765619Y-40528952D01*
X251813238Y-40505142D01*
X251908476Y-40481333D01*
X251979904Y-40481333D01*
X252075142Y-40505142D01*
X252122761Y-40528952D01*
X252170380Y-40576571D01*
X252194190Y-40648000D01*
X252194190Y-40767047D01*
D11*
X216604428Y-42052524D02*
X216737761Y-42052524D01*
X216794904Y-42262048D02*
X216604428Y-42262048D01*
X216604428Y-41862048D01*
X216794904Y-41862048D01*
X216947285Y-42243000D02*
X217004428Y-42262048D01*
X217099666Y-42262048D01*
X217137761Y-42243000D01*
X217156809Y-42223953D01*
X217175857Y-42185857D01*
X217175857Y-42147762D01*
X217156809Y-42109667D01*
X217137761Y-42090619D01*
X217099666Y-42071572D01*
X217023476Y-42052524D01*
X216985380Y-42033476D01*
X216966333Y-42014429D01*
X216947285Y-41976334D01*
X216947285Y-41938238D01*
X216966333Y-41900143D01*
X216985380Y-41881096D01*
X217023476Y-41862048D01*
X217118714Y-41862048D01*
X217175857Y-41881096D01*
X217347285Y-42262048D02*
X217347285Y-41862048D01*
X217499666Y-41862048D01*
X217537761Y-41881096D01*
X217556809Y-41900143D01*
X217575857Y-41938238D01*
X217575857Y-41995381D01*
X217556809Y-42033476D01*
X217537761Y-42052524D01*
X217499666Y-42071572D01*
X217347285Y-42071572D01*
X216785380Y-42696524D02*
X216918714Y-42696524D01*
X216975857Y-42906048D02*
X216785380Y-42906048D01*
X216785380Y-42506048D01*
X216975857Y-42506048D01*
X217147285Y-42906048D02*
X217147285Y-42506048D01*
X217375857Y-42906048D01*
X217375857Y-42506048D01*
D10*
X251718000Y-72008952D02*
X251694190Y-72056571D01*
X251694190Y-72128000D01*
X251718000Y-72199428D01*
X251765619Y-72247047D01*
X251813238Y-72270857D01*
X251908476Y-72294666D01*
X251979904Y-72294666D01*
X252075142Y-72270857D01*
X252122761Y-72247047D01*
X252170380Y-72199428D01*
X252194190Y-72128000D01*
X252194190Y-72080380D01*
X252170380Y-72008952D01*
X252146571Y-71985142D01*
X251979904Y-71985142D01*
X251979904Y-72080380D01*
X252194190Y-71770857D02*
X251694190Y-71770857D01*
X252194190Y-71485142D01*
X251694190Y-71485142D01*
X252194190Y-71247047D02*
X251694190Y-71247047D01*
X251694190Y-71128000D01*
X251718000Y-71056571D01*
X251765619Y-71008952D01*
X251813238Y-70985142D01*
X251908476Y-70961333D01*
X251979904Y-70961333D01*
X252075142Y-70985142D01*
X252122761Y-71008952D01*
X252170380Y-71056571D01*
X252194190Y-71128000D01*
X252194190Y-71247047D01*
X252194190Y-59810714D02*
X251694190Y-59810714D01*
X252051333Y-59644047D01*
X251694190Y-59477380D01*
X252194190Y-59477380D01*
X252194190Y-59239285D02*
X251694190Y-59239285D01*
X252170380Y-59025000D02*
X252194190Y-58953571D01*
X252194190Y-58834523D01*
X252170380Y-58786904D01*
X252146571Y-58763095D01*
X252098952Y-58739285D01*
X252051333Y-58739285D01*
X252003714Y-58763095D01*
X251979904Y-58786904D01*
X251956095Y-58834523D01*
X251932285Y-58929761D01*
X251908476Y-58977380D01*
X251884666Y-59001190D01*
X251837047Y-59025000D01*
X251789428Y-59025000D01*
X251741809Y-59001190D01*
X251718000Y-58977380D01*
X251694190Y-58929761D01*
X251694190Y-58810714D01*
X251718000Y-58739285D01*
X251694190Y-58429761D02*
X251694190Y-58334523D01*
X251718000Y-58286904D01*
X251765619Y-58239285D01*
X251860857Y-58215476D01*
X252027523Y-58215476D01*
X252122761Y-58239285D01*
X252170380Y-58286904D01*
X252194190Y-58334523D01*
X252194190Y-58429761D01*
X252170380Y-58477380D01*
X252122761Y-58525000D01*
X252027523Y-58548809D01*
X251860857Y-58548809D01*
X251765619Y-58525000D01*
X251718000Y-58477380D01*
X251694190Y-58429761D01*
X251694190Y-49387047D02*
X251694190Y-49077523D01*
X251884666Y-49244190D01*
X251884666Y-49172761D01*
X251908476Y-49125142D01*
X251932285Y-49101333D01*
X251979904Y-49077523D01*
X252098952Y-49077523D01*
X252146571Y-49101333D01*
X252170380Y-49125142D01*
X252194190Y-49172761D01*
X252194190Y-49315619D01*
X252170380Y-49363238D01*
X252146571Y-49387047D01*
X251694190Y-48934666D02*
X252194190Y-48768000D01*
X251694190Y-48601333D01*
X251694190Y-48482285D02*
X251694190Y-48172761D01*
X251884666Y-48339428D01*
X251884666Y-48268000D01*
X251908476Y-48220380D01*
X251932285Y-48196571D01*
X251979904Y-48172761D01*
X252098952Y-48172761D01*
X252146571Y-48196571D01*
X252170380Y-48220380D01*
X252194190Y-48268000D01*
X252194190Y-48410857D01*
X252170380Y-48458476D01*
X252146571Y-48482285D01*
D12*
X249136000Y-69196000D02*
X249059809Y-69157904D01*
X248945523Y-69157904D01*
X248831238Y-69196000D01*
X248755047Y-69272190D01*
X248716952Y-69348380D01*
X248678857Y-69500761D01*
X248678857Y-69615047D01*
X248716952Y-69767428D01*
X248755047Y-69843619D01*
X248831238Y-69919809D01*
X248945523Y-69957904D01*
X249021714Y-69957904D01*
X249136000Y-69919809D01*
X249174095Y-69881714D01*
X249174095Y-69615047D01*
X249021714Y-69615047D01*
X249516952Y-69957904D02*
X249516952Y-69157904D01*
X249821714Y-69157904D01*
X249897904Y-69196000D01*
X249936000Y-69234095D01*
X249974095Y-69310285D01*
X249974095Y-69424571D01*
X249936000Y-69500761D01*
X249897904Y-69538857D01*
X249821714Y-69576952D01*
X249516952Y-69576952D01*
X250316952Y-69957904D02*
X250316952Y-69157904D01*
X250850285Y-69157904D02*
X251002666Y-69157904D01*
X251078857Y-69196000D01*
X251155047Y-69272190D01*
X251193142Y-69424571D01*
X251193142Y-69691238D01*
X251155047Y-69843619D01*
X251078857Y-69919809D01*
X251002666Y-69957904D01*
X250850285Y-69957904D01*
X250774095Y-69919809D01*
X250697904Y-69843619D01*
X250659809Y-69691238D01*
X250659809Y-69424571D01*
X250697904Y-69272190D01*
X250774095Y-69196000D01*
X250850285Y-69157904D01*
D10*
X251718000Y-66928952D02*
X251694190Y-66976571D01*
X251694190Y-67048000D01*
X251718000Y-67119428D01*
X251765619Y-67167047D01*
X251813238Y-67190857D01*
X251908476Y-67214666D01*
X251979904Y-67214666D01*
X252075142Y-67190857D01*
X252122761Y-67167047D01*
X252170380Y-67119428D01*
X252194190Y-67048000D01*
X252194190Y-67000380D01*
X252170380Y-66928952D01*
X252146571Y-66905142D01*
X251979904Y-66905142D01*
X251979904Y-67000380D01*
X252194190Y-66690857D02*
X251694190Y-66690857D01*
X252194190Y-66405142D01*
X251694190Y-66405142D01*
X252194190Y-66167047D02*
X251694190Y-66167047D01*
X251694190Y-66048000D01*
X251718000Y-65976571D01*
X251765619Y-65928952D01*
X251813238Y-65905142D01*
X251908476Y-65881333D01*
X251979904Y-65881333D01*
X252075142Y-65905142D01*
X252122761Y-65928952D01*
X252170380Y-65976571D01*
X252194190Y-66048000D01*
X252194190Y-66167047D01*
D11*
X198614623Y-32088694D02*
X198614623Y-32588694D01*
X198447956Y-32231551D01*
X198281290Y-32588694D01*
X198281290Y-32088694D01*
X198043194Y-32279170D02*
X197662242Y-32279170D01*
X197852718Y-32088694D02*
X197852718Y-32469646D01*
D10*
X251718000Y-74372142D02*
X251694190Y-74419761D01*
X251694190Y-74491190D01*
X251718000Y-74562619D01*
X251765619Y-74610238D01*
X251813238Y-74634047D01*
X251908476Y-74657857D01*
X251979904Y-74657857D01*
X252075142Y-74634047D01*
X252122761Y-74610238D01*
X252170380Y-74562619D01*
X252194190Y-74491190D01*
X252194190Y-74443571D01*
X252170380Y-74372142D01*
X252146571Y-74348333D01*
X251979904Y-74348333D01*
X251979904Y-74443571D01*
X251860857Y-73919761D02*
X252194190Y-73919761D01*
X251670380Y-74038809D02*
X252027523Y-74157857D01*
X252027523Y-73848333D01*
D11*
X188954344Y-32088694D02*
X188954344Y-32588694D01*
X188787677Y-32231551D01*
X188621011Y-32588694D01*
X188621011Y-32088694D01*
X188382915Y-32279170D02*
X188001963Y-32279170D01*
D10*
X252146571Y-61822619D02*
X252170380Y-61846428D01*
X252194190Y-61917857D01*
X252194190Y-61965476D01*
X252170380Y-62036904D01*
X252122761Y-62084523D01*
X252075142Y-62108333D01*
X251979904Y-62132142D01*
X251908476Y-62132142D01*
X251813238Y-62108333D01*
X251765619Y-62084523D01*
X251718000Y-62036904D01*
X251694190Y-61965476D01*
X251694190Y-61917857D01*
X251718000Y-61846428D01*
X251741809Y-61822619D01*
X252194190Y-61370238D02*
X252194190Y-61608333D01*
X251694190Y-61608333D01*
X252194190Y-61203571D02*
X251694190Y-61203571D01*
X252194190Y-60917857D02*
X251908476Y-61132142D01*
X251694190Y-60917857D02*
X251979904Y-61203571D01*
D11*
X216525079Y-54930448D02*
X216658412Y-54930448D01*
X216715555Y-55139972D02*
X216525079Y-55139972D01*
X216525079Y-54739972D01*
X216715555Y-54739972D01*
X217096507Y-55139972D02*
X216867936Y-55139972D01*
X216982222Y-55139972D02*
X216982222Y-54739972D01*
X216944126Y-54797115D01*
X216906031Y-54835210D01*
X216867936Y-54854258D01*
X217325079Y-54911400D02*
X217286984Y-54892353D01*
X217267936Y-54873305D01*
X217248888Y-54835210D01*
X217248888Y-54816162D01*
X217267936Y-54778067D01*
X217286984Y-54759020D01*
X217325079Y-54739972D01*
X217401269Y-54739972D01*
X217439365Y-54759020D01*
X217458412Y-54778067D01*
X217477460Y-54816162D01*
X217477460Y-54835210D01*
X217458412Y-54873305D01*
X217439365Y-54892353D01*
X217401269Y-54911400D01*
X217325079Y-54911400D01*
X217286984Y-54930448D01*
X217267936Y-54949496D01*
X217248888Y-54987591D01*
X217248888Y-55063781D01*
X217267936Y-55101877D01*
X217286984Y-55120924D01*
X217325079Y-55139972D01*
X217401269Y-55139972D01*
X217439365Y-55120924D01*
X217458412Y-55101877D01*
X217477460Y-55063781D01*
X217477460Y-54987591D01*
X217458412Y-54949496D01*
X217439365Y-54930448D01*
X217401269Y-54911400D01*
X217648888Y-55139972D02*
X217648888Y-54739972D01*
X217744126Y-54739972D01*
X217801269Y-54759020D01*
X217839365Y-54797115D01*
X217858412Y-54835210D01*
X217877460Y-54911400D01*
X217877460Y-54968543D01*
X217858412Y-55044734D01*
X217839365Y-55082829D01*
X217801269Y-55120924D01*
X217744126Y-55139972D01*
X217648888Y-55139972D01*
X218277460Y-55101877D02*
X218258412Y-55120924D01*
X218201269Y-55139972D01*
X218163174Y-55139972D01*
X218106031Y-55120924D01*
X218067936Y-55082829D01*
X218048888Y-55044734D01*
X218029841Y-54968543D01*
X218029841Y-54911400D01*
X218048888Y-54835210D01*
X218067936Y-54797115D01*
X218106031Y-54759020D01*
X218163174Y-54739972D01*
X218201269Y-54739972D01*
X218258412Y-54759020D01*
X218277460Y-54778067D01*
D10*
X204281761Y-48010000D02*
X204234142Y-47986190D01*
X204162714Y-47986190D01*
X204091285Y-48010000D01*
X204043666Y-48057619D01*
X204019857Y-48105238D01*
X203996047Y-48200476D01*
X203996047Y-48271904D01*
X204019857Y-48367142D01*
X204043666Y-48414761D01*
X204091285Y-48462380D01*
X204162714Y-48486190D01*
X204210333Y-48486190D01*
X204281761Y-48462380D01*
X204305571Y-48438571D01*
X204305571Y-48271904D01*
X204210333Y-48271904D01*
X204781761Y-48486190D02*
X204496047Y-48486190D01*
X204638904Y-48486190D02*
X204638904Y-47986190D01*
X204591285Y-48057619D01*
X204543666Y-48105238D01*
X204496047Y-48129047D01*
X204948428Y-47986190D02*
X205281761Y-47986190D01*
X205067476Y-48486190D01*
X252146571Y-64091333D02*
X252170380Y-64115142D01*
X252194190Y-64186571D01*
X252194190Y-64234190D01*
X252170380Y-64305619D01*
X252122761Y-64353238D01*
X252075142Y-64377047D01*
X251979904Y-64400857D01*
X251908476Y-64400857D01*
X251813238Y-64377047D01*
X251765619Y-64353238D01*
X251718000Y-64305619D01*
X251694190Y-64234190D01*
X251694190Y-64186571D01*
X251718000Y-64115142D01*
X251741809Y-64091333D01*
X252170380Y-63900857D02*
X252194190Y-63829428D01*
X252194190Y-63710380D01*
X252170380Y-63662761D01*
X252146571Y-63638952D01*
X252098952Y-63615142D01*
X252051333Y-63615142D01*
X252003714Y-63638952D01*
X251979904Y-63662761D01*
X251956095Y-63710380D01*
X251932285Y-63805619D01*
X251908476Y-63853238D01*
X251884666Y-63877047D01*
X251837047Y-63900857D01*
X251789428Y-63900857D01*
X251741809Y-63877047D01*
X251718000Y-63853238D01*
X251694190Y-63805619D01*
X251694190Y-63686571D01*
X251718000Y-63615142D01*
D11*
X182033909Y-32061657D02*
X182033909Y-32561657D01*
X181867242Y-32204514D01*
X181700576Y-32561657D01*
X181700576Y-32061657D01*
X181462480Y-32252133D02*
X181081528Y-32252133D01*
X181272004Y-32061657D02*
X181272004Y-32442609D01*
D12*
X172095238Y-87952380D02*
X171523809Y-87952380D01*
X171809523Y-87952380D02*
X171809523Y-86952380D01*
X171714285Y-87095238D01*
X171619047Y-87190476D01*
X171523809Y-87238095D01*
X172476190Y-87047619D02*
X172523809Y-87000000D01*
X172619047Y-86952380D01*
X172857142Y-86952380D01*
X172952380Y-87000000D01*
X173000000Y-87047619D01*
X173047619Y-87142857D01*
X173047619Y-87238095D01*
X173000000Y-87380952D01*
X172428571Y-87952380D01*
X173047619Y-87952380D01*
X173333333Y-86952380D02*
X173666666Y-87952380D01*
X174000000Y-86952380D01*
X175571428Y-86952380D02*
X175095238Y-86952380D01*
X175047619Y-87428571D01*
X175095238Y-87380952D01*
X175190476Y-87333333D01*
X175428571Y-87333333D01*
X175523809Y-87380952D01*
X175571428Y-87428571D01*
X175619047Y-87523809D01*
X175619047Y-87761904D01*
X175571428Y-87857142D01*
X175523809Y-87904761D01*
X175428571Y-87952380D01*
X175190476Y-87952380D01*
X175095238Y-87904761D01*
X175047619Y-87857142D01*
X175904761Y-86952380D02*
X176238095Y-87952380D01*
X176571428Y-86952380D01*
X178190476Y-87000000D02*
X178095238Y-86952380D01*
X177952380Y-86952380D01*
X177809523Y-87000000D01*
X177714285Y-87095238D01*
X177666666Y-87190476D01*
X177619047Y-87380952D01*
X177619047Y-87523809D01*
X177666666Y-87714285D01*
X177714285Y-87809523D01*
X177809523Y-87904761D01*
X177952380Y-87952380D01*
X178047619Y-87952380D01*
X178190476Y-87904761D01*
X178238095Y-87857142D01*
X178238095Y-87523809D01*
X178047619Y-87523809D01*
X179095238Y-87952380D02*
X179095238Y-87428571D01*
X179047619Y-87333333D01*
X178952380Y-87285714D01*
X178761904Y-87285714D01*
X178666666Y-87333333D01*
X179095238Y-87904761D02*
X179000000Y-87952380D01*
X178761904Y-87952380D01*
X178666666Y-87904761D01*
X178619047Y-87809523D01*
X178619047Y-87714285D01*
X178666666Y-87619047D01*
X178761904Y-87571428D01*
X179000000Y-87571428D01*
X179095238Y-87523809D01*
X179428571Y-87285714D02*
X179809523Y-87285714D01*
X179571428Y-86952380D02*
X179571428Y-87809523D01*
X179619047Y-87904761D01*
X179714285Y-87952380D01*
X179809523Y-87952380D01*
X180523809Y-87904761D02*
X180428571Y-87952380D01*
X180238095Y-87952380D01*
X180142857Y-87904761D01*
X180095238Y-87809523D01*
X180095238Y-87428571D01*
X180142857Y-87333333D01*
X180238095Y-87285714D01*
X180428571Y-87285714D01*
X180523809Y-87333333D01*
X180571428Y-87428571D01*
X180571428Y-87523809D01*
X180095238Y-87619047D01*
X181428571Y-87952380D02*
X181428571Y-86952380D01*
X181428571Y-87904761D02*
X181333333Y-87952380D01*
X181142857Y-87952380D01*
X181047619Y-87904761D01*
X181000000Y-87857142D01*
X180952380Y-87761904D01*
X180952380Y-87476190D01*
X181000000Y-87380952D01*
X181047619Y-87333333D01*
X181142857Y-87285714D01*
X181333333Y-87285714D01*
X181428571Y-87333333D01*
D11*
X216689893Y-49655491D02*
X216823226Y-49655491D01*
X216880369Y-49865015D02*
X216689893Y-49865015D01*
X216689893Y-49465015D01*
X216880369Y-49465015D01*
X217261321Y-49865015D02*
X217032750Y-49865015D01*
X217147036Y-49865015D02*
X217147036Y-49465015D01*
X217108940Y-49522158D01*
X217070845Y-49560253D01*
X217032750Y-49579301D01*
X217489893Y-49636443D02*
X217451798Y-49617396D01*
X217432750Y-49598348D01*
X217413702Y-49560253D01*
X217413702Y-49541205D01*
X217432750Y-49503110D01*
X217451798Y-49484063D01*
X217489893Y-49465015D01*
X217566083Y-49465015D01*
X217604179Y-49484063D01*
X217623226Y-49503110D01*
X217642274Y-49541205D01*
X217642274Y-49560253D01*
X217623226Y-49598348D01*
X217604179Y-49617396D01*
X217566083Y-49636443D01*
X217489893Y-49636443D01*
X217451798Y-49655491D01*
X217432750Y-49674539D01*
X217413702Y-49712634D01*
X217413702Y-49788824D01*
X217432750Y-49826920D01*
X217451798Y-49845967D01*
X217489893Y-49865015D01*
X217566083Y-49865015D01*
X217604179Y-49845967D01*
X217623226Y-49826920D01*
X217642274Y-49788824D01*
X217642274Y-49712634D01*
X217623226Y-49674539D01*
X217604179Y-49655491D01*
X217566083Y-49636443D01*
X216937512Y-50509015D02*
X216804179Y-50318539D01*
X216708940Y-50509015D02*
X216708940Y-50109015D01*
X216861321Y-50109015D01*
X216899417Y-50128063D01*
X216918464Y-50147110D01*
X216937512Y-50185205D01*
X216937512Y-50242348D01*
X216918464Y-50280443D01*
X216899417Y-50299491D01*
X216861321Y-50318539D01*
X216708940Y-50318539D01*
X217089893Y-50489967D02*
X217147036Y-50509015D01*
X217242274Y-50509015D01*
X217280369Y-50489967D01*
X217299417Y-50470920D01*
X217318464Y-50432824D01*
X217318464Y-50394729D01*
X217299417Y-50356634D01*
X217280369Y-50337586D01*
X217242274Y-50318539D01*
X217166083Y-50299491D01*
X217127988Y-50280443D01*
X217108940Y-50261396D01*
X217089893Y-50223301D01*
X217089893Y-50185205D01*
X217108940Y-50147110D01*
X217127988Y-50128063D01*
X217166083Y-50109015D01*
X217261321Y-50109015D01*
X217318464Y-50128063D01*
X217432750Y-50109015D02*
X217661321Y-50109015D01*
X217547036Y-50509015D02*
X217547036Y-50109015D01*
X196859106Y-32564885D02*
X196906725Y-32588694D01*
X196978154Y-32588694D01*
X197049582Y-32564885D01*
X197097201Y-32517265D01*
X197121011Y-32469646D01*
X197144820Y-32374408D01*
X197144820Y-32302980D01*
X197121011Y-32207742D01*
X197097201Y-32160123D01*
X197049582Y-32112504D01*
X196978154Y-32088694D01*
X196930534Y-32088694D01*
X196859106Y-32112504D01*
X196835296Y-32136313D01*
X196835296Y-32302980D01*
X196930534Y-32302980D01*
X196621011Y-32088694D02*
X196621011Y-32588694D01*
X196335296Y-32088694D01*
X196335296Y-32588694D01*
X196097201Y-32088694D02*
X196097201Y-32588694D01*
X195978154Y-32588694D01*
X195906725Y-32564885D01*
X195859106Y-32517265D01*
X195835296Y-32469646D01*
X195811487Y-32374408D01*
X195811487Y-32302980D01*
X195835296Y-32207742D01*
X195859106Y-32160123D01*
X195906725Y-32112504D01*
X195978154Y-32088694D01*
X196097201Y-32088694D01*
D10*
X204281761Y-39882000D02*
X204234142Y-39858190D01*
X204162714Y-39858190D01*
X204091285Y-39882000D01*
X204043666Y-39929619D01*
X204019857Y-39977238D01*
X203996047Y-40072476D01*
X203996047Y-40143904D01*
X204019857Y-40239142D01*
X204043666Y-40286761D01*
X204091285Y-40334380D01*
X204162714Y-40358190D01*
X204210333Y-40358190D01*
X204281761Y-40334380D01*
X204305571Y-40310571D01*
X204305571Y-40143904D01*
X204210333Y-40143904D01*
X204781761Y-40358190D02*
X204496047Y-40358190D01*
X204638904Y-40358190D02*
X204638904Y-39858190D01*
X204591285Y-39929619D01*
X204543666Y-39977238D01*
X204496047Y-40001047D01*
X204948428Y-39858190D02*
X205257952Y-39858190D01*
X205091285Y-40048666D01*
X205162714Y-40048666D01*
X205210333Y-40072476D01*
X205234142Y-40096285D01*
X205257952Y-40143904D01*
X205257952Y-40262952D01*
X205234142Y-40310571D01*
X205210333Y-40334380D01*
X205162714Y-40358190D01*
X205019857Y-40358190D01*
X204972238Y-40334380D01*
X204948428Y-40310571D01*
X206964285Y-59273809D02*
X206964285Y-59107142D01*
X207226190Y-59035714D02*
X207226190Y-59273809D01*
X206726190Y-59273809D01*
X206726190Y-59035714D01*
X206726190Y-58869047D02*
X207226190Y-58535714D01*
X206726190Y-58535714D02*
X207226190Y-58869047D01*
X206726190Y-58416666D02*
X206726190Y-58130952D01*
X207226190Y-58273809D02*
X206726190Y-58273809D01*
X207226190Y-57702380D02*
X207226190Y-57988095D01*
X207226190Y-57845238D02*
X206726190Y-57845238D01*
X206797619Y-57892857D01*
X206845238Y-57940476D01*
X206869047Y-57988095D01*
X252170380Y-44380238D02*
X252194190Y-44308809D01*
X252194190Y-44189761D01*
X252170380Y-44142142D01*
X252146571Y-44118333D01*
X252098952Y-44094523D01*
X252051333Y-44094523D01*
X252003714Y-44118333D01*
X251979904Y-44142142D01*
X251956095Y-44189761D01*
X251932285Y-44285000D01*
X251908476Y-44332619D01*
X251884666Y-44356428D01*
X251837047Y-44380238D01*
X251789428Y-44380238D01*
X251741809Y-44356428D01*
X251718000Y-44332619D01*
X251694190Y-44285000D01*
X251694190Y-44165952D01*
X251718000Y-44094523D01*
X252146571Y-43594523D02*
X252170380Y-43618333D01*
X252194190Y-43689761D01*
X252194190Y-43737380D01*
X252170380Y-43808809D01*
X252122761Y-43856428D01*
X252075142Y-43880238D01*
X251979904Y-43904047D01*
X251908476Y-43904047D01*
X251813238Y-43880238D01*
X251765619Y-43856428D01*
X251718000Y-43808809D01*
X251694190Y-43737380D01*
X251694190Y-43689761D01*
X251718000Y-43618333D01*
X251741809Y-43594523D01*
X252194190Y-43142142D02*
X252194190Y-43380238D01*
X251694190Y-43380238D01*
D11*
X178242678Y-32323562D02*
X178076011Y-32323562D01*
X178004582Y-32061657D02*
X178242678Y-32061657D01*
X178242678Y-32561657D01*
X178004582Y-32561657D01*
X177814106Y-32514038D02*
X177790297Y-32537848D01*
X177742678Y-32561657D01*
X177623630Y-32561657D01*
X177576011Y-32537848D01*
X177552201Y-32514038D01*
X177528392Y-32466419D01*
X177528392Y-32418800D01*
X177552201Y-32347371D01*
X177837916Y-32061657D01*
X177528392Y-32061657D01*
D10*
X198516952Y-39858190D02*
X198826476Y-39858190D01*
X198659809Y-40048666D01*
X198731238Y-40048666D01*
X198778857Y-40072476D01*
X198802666Y-40096285D01*
X198826476Y-40143904D01*
X198826476Y-40262952D01*
X198802666Y-40310571D01*
X198778857Y-40334380D01*
X198731238Y-40358190D01*
X198588380Y-40358190D01*
X198540761Y-40334380D01*
X198516952Y-40310571D01*
X198969333Y-39858190D02*
X199136000Y-40358190D01*
X199302666Y-39858190D01*
X199421714Y-39858190D02*
X199731238Y-39858190D01*
X199564571Y-40048666D01*
X199636000Y-40048666D01*
X199683619Y-40072476D01*
X199707428Y-40096285D01*
X199731238Y-40143904D01*
X199731238Y-40262952D01*
X199707428Y-40310571D01*
X199683619Y-40334380D01*
X199636000Y-40358190D01*
X199493142Y-40358190D01*
X199445523Y-40334380D01*
X199421714Y-40310571D01*
D11*
X208883428Y-44977019D02*
X209016762Y-44977019D01*
X209073905Y-45186543D02*
X208883428Y-45186543D01*
X208883428Y-44786543D01*
X209073905Y-44786543D01*
X209454857Y-45186543D02*
X209226286Y-45186543D01*
X209340571Y-45186543D02*
X209340571Y-44786543D01*
X209302476Y-44843686D01*
X209264381Y-44881781D01*
X209226286Y-44900829D01*
X209683428Y-44957971D02*
X209645333Y-44938924D01*
X209626286Y-44919876D01*
X209607238Y-44881781D01*
X209607238Y-44862733D01*
X209626286Y-44824638D01*
X209645333Y-44805591D01*
X209683428Y-44786543D01*
X209759619Y-44786543D01*
X209797714Y-44805591D01*
X209816762Y-44824638D01*
X209835809Y-44862733D01*
X209835809Y-44881781D01*
X209816762Y-44919876D01*
X209797714Y-44938924D01*
X209759619Y-44957971D01*
X209683428Y-44957971D01*
X209645333Y-44977019D01*
X209626286Y-44996067D01*
X209607238Y-45034162D01*
X209607238Y-45110352D01*
X209626286Y-45148448D01*
X209645333Y-45167495D01*
X209683428Y-45186543D01*
X209759619Y-45186543D01*
X209797714Y-45167495D01*
X209816762Y-45148448D01*
X209835809Y-45110352D01*
X209835809Y-45034162D01*
X209816762Y-44996067D01*
X209797714Y-44977019D01*
X209759619Y-44957971D01*
X210007238Y-45186543D02*
X210007238Y-44786543D01*
X210159619Y-44786543D01*
X210197714Y-44805591D01*
X210216762Y-44824638D01*
X210235809Y-44862733D01*
X210235809Y-44919876D01*
X210216762Y-44957971D01*
X210197714Y-44977019D01*
X210159619Y-44996067D01*
X210007238Y-44996067D01*
X210616762Y-45186543D02*
X210388190Y-45186543D01*
X210502476Y-45186543D02*
X210502476Y-44786543D01*
X210464381Y-44843686D01*
X210426286Y-44881781D01*
X210388190Y-44900829D01*
X210864381Y-44786543D02*
X210902476Y-44786543D01*
X210940571Y-44805591D01*
X210959619Y-44824638D01*
X210978667Y-44862733D01*
X210997714Y-44938924D01*
X210997714Y-45034162D01*
X210978667Y-45110352D01*
X210959619Y-45148448D01*
X210940571Y-45167495D01*
X210902476Y-45186543D01*
X210864381Y-45186543D01*
X210826286Y-45167495D01*
X210807238Y-45148448D01*
X210788190Y-45110352D01*
X210769143Y-45034162D01*
X210769143Y-44938924D01*
X210788190Y-44862733D01*
X210807238Y-44824638D01*
X210826286Y-44805591D01*
X210864381Y-44786543D01*
X194823392Y-32350599D02*
X194656725Y-32350599D01*
X194585296Y-32088694D02*
X194823392Y-32088694D01*
X194823392Y-32588694D01*
X194585296Y-32588694D01*
X194394820Y-32541075D02*
X194371011Y-32564885D01*
X194323392Y-32588694D01*
X194204344Y-32588694D01*
X194156725Y-32564885D01*
X194132915Y-32541075D01*
X194109106Y-32493456D01*
X194109106Y-32445837D01*
X194132915Y-32374408D01*
X194418630Y-32088694D01*
X194109106Y-32088694D01*
D10*
X201781761Y-48010000D02*
X201734142Y-47986190D01*
X201662714Y-47986190D01*
X201591285Y-48010000D01*
X201543666Y-48057619D01*
X201519857Y-48105238D01*
X201496047Y-48200476D01*
X201496047Y-48271904D01*
X201519857Y-48367142D01*
X201543666Y-48414761D01*
X201591285Y-48462380D01*
X201662714Y-48486190D01*
X201710333Y-48486190D01*
X201781761Y-48462380D01*
X201805571Y-48438571D01*
X201805571Y-48271904D01*
X201710333Y-48271904D01*
X202281761Y-48486190D02*
X201996047Y-48486190D01*
X202138904Y-48486190D02*
X202138904Y-47986190D01*
X202091285Y-48057619D01*
X202043666Y-48105238D01*
X201996047Y-48129047D01*
X202710333Y-47986190D02*
X202615095Y-47986190D01*
X202567476Y-48010000D01*
X202543666Y-48033809D01*
X202496047Y-48105238D01*
X202472238Y-48200476D01*
X202472238Y-48390952D01*
X202496047Y-48438571D01*
X202519857Y-48462380D01*
X202567476Y-48486190D01*
X202662714Y-48486190D01*
X202710333Y-48462380D01*
X202734142Y-48438571D01*
X202757952Y-48390952D01*
X202757952Y-48271904D01*
X202734142Y-48224285D01*
X202710333Y-48200476D01*
X202662714Y-48176666D01*
X202567476Y-48176666D01*
X202519857Y-48200476D01*
X202496047Y-48224285D01*
X202472238Y-48271904D01*
D11*
X192823392Y-32350599D02*
X192656725Y-32350599D01*
X192585296Y-32088694D02*
X192823392Y-32088694D01*
X192823392Y-32588694D01*
X192585296Y-32588694D01*
X192109106Y-32088694D02*
X192394820Y-32088694D01*
X192251963Y-32088694D02*
X192251963Y-32588694D01*
X192299582Y-32517265D01*
X192347201Y-32469646D01*
X192394820Y-32445837D01*
X208891540Y-47471428D02*
X209024874Y-47471428D01*
X209082017Y-47680952D02*
X208891540Y-47680952D01*
X208891540Y-47280952D01*
X209082017Y-47280952D01*
X209462969Y-47680952D02*
X209234398Y-47680952D01*
X209348683Y-47680952D02*
X209348683Y-47280952D01*
X209310588Y-47338095D01*
X209272493Y-47376190D01*
X209234398Y-47395238D01*
X209691540Y-47452380D02*
X209653445Y-47433333D01*
X209634398Y-47414285D01*
X209615350Y-47376190D01*
X209615350Y-47357142D01*
X209634398Y-47319047D01*
X209653445Y-47300000D01*
X209691540Y-47280952D01*
X209767731Y-47280952D01*
X209805826Y-47300000D01*
X209824874Y-47319047D01*
X209843921Y-47357142D01*
X209843921Y-47376190D01*
X209824874Y-47414285D01*
X209805826Y-47433333D01*
X209767731Y-47452380D01*
X209691540Y-47452380D01*
X209653445Y-47471428D01*
X209634398Y-47490476D01*
X209615350Y-47528571D01*
X209615350Y-47604761D01*
X209634398Y-47642857D01*
X209653445Y-47661904D01*
X209691540Y-47680952D01*
X209767731Y-47680952D01*
X209805826Y-47661904D01*
X209824874Y-47642857D01*
X209843921Y-47604761D01*
X209843921Y-47528571D01*
X209824874Y-47490476D01*
X209805826Y-47471428D01*
X209767731Y-47452380D01*
X210015350Y-47680952D02*
X210015350Y-47280952D01*
X210167731Y-47280952D01*
X210205826Y-47300000D01*
X210224874Y-47319047D01*
X210243921Y-47357142D01*
X210243921Y-47414285D01*
X210224874Y-47452380D01*
X210205826Y-47471428D01*
X210167731Y-47490476D01*
X210015350Y-47490476D01*
X210624874Y-47680952D02*
X210396302Y-47680952D01*
X210510588Y-47680952D02*
X210510588Y-47280952D01*
X210472493Y-47338095D01*
X210434398Y-47376190D01*
X210396302Y-47395238D01*
X210777255Y-47319047D02*
X210796302Y-47300000D01*
X210834398Y-47280952D01*
X210929636Y-47280952D01*
X210967731Y-47300000D01*
X210986779Y-47319047D01*
X211005826Y-47357142D01*
X211005826Y-47395238D01*
X210986779Y-47452380D01*
X210758207Y-47680952D01*
X211005826Y-47680952D01*
D12*
X249116952Y-52139809D02*
X249231238Y-52177904D01*
X249421714Y-52177904D01*
X249497904Y-52139809D01*
X249536000Y-52101714D01*
X249574095Y-52025523D01*
X249574095Y-51949333D01*
X249536000Y-51873142D01*
X249497904Y-51835047D01*
X249421714Y-51796952D01*
X249269333Y-51758857D01*
X249193142Y-51720761D01*
X249155047Y-51682666D01*
X249116952Y-51606476D01*
X249116952Y-51530285D01*
X249155047Y-51454095D01*
X249193142Y-51416000D01*
X249269333Y-51377904D01*
X249459809Y-51377904D01*
X249574095Y-51416000D01*
X249916952Y-52177904D02*
X249916952Y-51377904D01*
X250221714Y-51377904D01*
X250297904Y-51416000D01*
X250336000Y-51454095D01*
X250374095Y-51530285D01*
X250374095Y-51644571D01*
X250336000Y-51720761D01*
X250297904Y-51758857D01*
X250221714Y-51796952D01*
X249916952Y-51796952D01*
X250716952Y-52177904D02*
X250716952Y-51377904D01*
D10*
X197964285Y-60218018D02*
X197964285Y-60051352D01*
X198226190Y-59979923D02*
X198226190Y-60218018D01*
X197726190Y-60218018D01*
X197726190Y-59979923D01*
X198226190Y-59503733D02*
X198226190Y-59789447D01*
X198226190Y-59646590D02*
X197726190Y-59646590D01*
X197797619Y-59694209D01*
X197845238Y-59741828D01*
X197869047Y-59789447D01*
X197940476Y-59218018D02*
X197916666Y-59265637D01*
X197892857Y-59289447D01*
X197845238Y-59313256D01*
X197821428Y-59313256D01*
X197773809Y-59289447D01*
X197750000Y-59265637D01*
X197726190Y-59218018D01*
X197726190Y-59122780D01*
X197750000Y-59075161D01*
X197773809Y-59051352D01*
X197821428Y-59027542D01*
X197845238Y-59027542D01*
X197892857Y-59051352D01*
X197916666Y-59075161D01*
X197940476Y-59122780D01*
X197940476Y-59218018D01*
X197964285Y-59265637D01*
X197988095Y-59289447D01*
X198035714Y-59313256D01*
X198130952Y-59313256D01*
X198178571Y-59289447D01*
X198202380Y-59265637D01*
X198226190Y-59218018D01*
X198226190Y-59122780D01*
X198202380Y-59075161D01*
X198178571Y-59051352D01*
X198130952Y-59027542D01*
X198035714Y-59027542D01*
X197988095Y-59051352D01*
X197964285Y-59075161D01*
X197940476Y-59122780D01*
X198226190Y-58813256D02*
X197726190Y-58813256D01*
X197726190Y-58622780D01*
X197750000Y-58575161D01*
X197773809Y-58551352D01*
X197821428Y-58527542D01*
X197892857Y-58527542D01*
X197940476Y-58551352D01*
X197964285Y-58575161D01*
X197988095Y-58622780D01*
X197988095Y-58813256D01*
X198226190Y-58051352D02*
X198226190Y-58337066D01*
X198226190Y-58194209D02*
X197726190Y-58194209D01*
X197797619Y-58241828D01*
X197845238Y-58289447D01*
X197869047Y-58337066D01*
X197726190Y-57884685D02*
X197726190Y-57551352D01*
X198226190Y-57765637D01*
D11*
X209142857Y-52471428D02*
X209276190Y-52471428D01*
X209333333Y-52680952D02*
X209142857Y-52680952D01*
X209142857Y-52280952D01*
X209333333Y-52280952D01*
X209714285Y-52680952D02*
X209485714Y-52680952D01*
X209600000Y-52680952D02*
X209600000Y-52280952D01*
X209561904Y-52338095D01*
X209523809Y-52376190D01*
X209485714Y-52395238D01*
X209942857Y-52452380D02*
X209904761Y-52433333D01*
X209885714Y-52414285D01*
X209866666Y-52376190D01*
X209866666Y-52357142D01*
X209885714Y-52319047D01*
X209904761Y-52300000D01*
X209942857Y-52280952D01*
X210019047Y-52280952D01*
X210057142Y-52300000D01*
X210076190Y-52319047D01*
X210095238Y-52357142D01*
X210095238Y-52376190D01*
X210076190Y-52414285D01*
X210057142Y-52433333D01*
X210019047Y-52452380D01*
X209942857Y-52452380D01*
X209904761Y-52471428D01*
X209885714Y-52490476D01*
X209866666Y-52528571D01*
X209866666Y-52604761D01*
X209885714Y-52642857D01*
X209904761Y-52661904D01*
X209942857Y-52680952D01*
X210019047Y-52680952D01*
X210057142Y-52661904D01*
X210076190Y-52642857D01*
X210095238Y-52604761D01*
X210095238Y-52528571D01*
X210076190Y-52490476D01*
X210057142Y-52471428D01*
X210019047Y-52452380D01*
X210495238Y-52680952D02*
X210361904Y-52490476D01*
X210266666Y-52680952D02*
X210266666Y-52280952D01*
X210419047Y-52280952D01*
X210457142Y-52300000D01*
X210476190Y-52319047D01*
X210495238Y-52357142D01*
X210495238Y-52414285D01*
X210476190Y-52452380D01*
X210457142Y-52471428D01*
X210419047Y-52490476D01*
X210266666Y-52490476D01*
X210628571Y-52280952D02*
X210895238Y-52680952D01*
X210895238Y-52280952D02*
X210628571Y-52680952D01*
D12*
X158047619Y-43738095D02*
X158047619Y-43166666D01*
X158047619Y-43452380D02*
X159047619Y-43452380D01*
X158904761Y-43357142D01*
X158809523Y-43261904D01*
X158761904Y-43166666D01*
X158952380Y-44119047D02*
X159000000Y-44166666D01*
X159047619Y-44261904D01*
X159047619Y-44500000D01*
X159000000Y-44595238D01*
X158952380Y-44642857D01*
X158857142Y-44690476D01*
X158761904Y-44690476D01*
X158619047Y-44642857D01*
X158047619Y-44071428D01*
X158047619Y-44690476D01*
X159047619Y-44976190D02*
X158047619Y-45309523D01*
X159047619Y-45642857D01*
X158047619Y-46738095D02*
X159047619Y-46738095D01*
X158047619Y-47214285D02*
X159047619Y-47214285D01*
X158047619Y-47785714D01*
X159047619Y-47785714D01*
D11*
X180278392Y-32537848D02*
X180326011Y-32561657D01*
X180397440Y-32561657D01*
X180468868Y-32537848D01*
X180516487Y-32490228D01*
X180540297Y-32442609D01*
X180564106Y-32347371D01*
X180564106Y-32275943D01*
X180540297Y-32180705D01*
X180516487Y-32133086D01*
X180468868Y-32085467D01*
X180397440Y-32061657D01*
X180349820Y-32061657D01*
X180278392Y-32085467D01*
X180254582Y-32109276D01*
X180254582Y-32275943D01*
X180349820Y-32275943D01*
X180040297Y-32061657D02*
X180040297Y-32561657D01*
X179754582Y-32061657D01*
X179754582Y-32561657D01*
X179516487Y-32061657D02*
X179516487Y-32561657D01*
X179397440Y-32561657D01*
X179326011Y-32537848D01*
X179278392Y-32490228D01*
X179254582Y-32442609D01*
X179230773Y-32347371D01*
X179230773Y-32275943D01*
X179254582Y-32180705D01*
X179278392Y-32133086D01*
X179326011Y-32085467D01*
X179397440Y-32061657D01*
X179516487Y-32061657D01*
X176242678Y-32323562D02*
X176076011Y-32323562D01*
X176004582Y-32061657D02*
X176242678Y-32061657D01*
X176242678Y-32561657D01*
X176004582Y-32561657D01*
X175528392Y-32061657D02*
X175814106Y-32061657D01*
X175671249Y-32061657D02*
X175671249Y-32561657D01*
X175718868Y-32490228D01*
X175766487Y-32442609D01*
X175814106Y-32418800D01*
D12*
X225500000Y-74928571D02*
X225833333Y-74928571D01*
X225976190Y-75452380D02*
X225500000Y-75452380D01*
X225500000Y-74452380D01*
X225976190Y-74452380D01*
X226357142Y-75404761D02*
X226500000Y-75452380D01*
X226738095Y-75452380D01*
X226833333Y-75404761D01*
X226880952Y-75357142D01*
X226928571Y-75261904D01*
X226928571Y-75166666D01*
X226880952Y-75071428D01*
X226833333Y-75023809D01*
X226738095Y-74976190D01*
X226547619Y-74928571D01*
X226452380Y-74880952D01*
X226404761Y-74833333D01*
X226357142Y-74738095D01*
X226357142Y-74642857D01*
X226404761Y-74547619D01*
X226452380Y-74500000D01*
X226547619Y-74452380D01*
X226785714Y-74452380D01*
X226928571Y-74500000D01*
X227357142Y-75452380D02*
X227357142Y-74452380D01*
X227738095Y-74452380D01*
X227833333Y-74500000D01*
X227880952Y-74547619D01*
X227928571Y-74642857D01*
X227928571Y-74785714D01*
X227880952Y-74880952D01*
X227833333Y-74928571D01*
X227738095Y-74976190D01*
X227357142Y-74976190D01*
X228261904Y-74452380D02*
X228880952Y-74452380D01*
X228547619Y-74833333D01*
X228690476Y-74833333D01*
X228785714Y-74880952D01*
X228833333Y-74928571D01*
X228880952Y-75023809D01*
X228880952Y-75261904D01*
X228833333Y-75357142D01*
X228785714Y-75404761D01*
X228690476Y-75452380D01*
X228404761Y-75452380D01*
X228309523Y-75404761D01*
X228261904Y-75357142D01*
X229261904Y-74547619D02*
X229309523Y-74500000D01*
X229404761Y-74452380D01*
X229642857Y-74452380D01*
X229738095Y-74500000D01*
X229785714Y-74547619D01*
X229833333Y-74642857D01*
X229833333Y-74738095D01*
X229785714Y-74880952D01*
X229214285Y-75452380D01*
X229833333Y-75452380D01*
X231452380Y-75452380D02*
X231452380Y-74452380D01*
X231452380Y-75404761D02*
X231357142Y-75452380D01*
X231166666Y-75452380D01*
X231071428Y-75404761D01*
X231023809Y-75357142D01*
X230976190Y-75261904D01*
X230976190Y-74976190D01*
X231023809Y-74880952D01*
X231071428Y-74833333D01*
X231166666Y-74785714D01*
X231357142Y-74785714D01*
X231452380Y-74833333D01*
X232309523Y-75404761D02*
X232214285Y-75452380D01*
X232023809Y-75452380D01*
X231928571Y-75404761D01*
X231880952Y-75309523D01*
X231880952Y-74928571D01*
X231928571Y-74833333D01*
X232023809Y-74785714D01*
X232214285Y-74785714D01*
X232309523Y-74833333D01*
X232357142Y-74928571D01*
X232357142Y-75023809D01*
X231880952Y-75119047D01*
X232690476Y-74785714D02*
X232928571Y-75452380D01*
X233166666Y-74785714D01*
X233547619Y-75452380D02*
X233547619Y-74452380D01*
X233642857Y-75071428D02*
X233928571Y-75452380D01*
X233928571Y-74785714D02*
X233547619Y-75166666D01*
X234357142Y-75452380D02*
X234357142Y-74785714D01*
X234357142Y-74452380D02*
X234309523Y-74500000D01*
X234357142Y-74547619D01*
X234404761Y-74500000D01*
X234357142Y-74452380D01*
X234357142Y-74547619D01*
X234690476Y-74785714D02*
X235071428Y-74785714D01*
X234833333Y-74452380D02*
X234833333Y-75309523D01*
X234880952Y-75404761D01*
X234976190Y-75452380D01*
X235071428Y-75452380D01*
X235976190Y-75357142D02*
X235928571Y-75404761D01*
X235785714Y-75452380D01*
X235690476Y-75452380D01*
X235547619Y-75404761D01*
X235452380Y-75309523D01*
X235404761Y-75214285D01*
X235357142Y-75023809D01*
X235357142Y-74880952D01*
X235404761Y-74690476D01*
X235452380Y-74595238D01*
X235547619Y-74500000D01*
X235690476Y-74452380D01*
X235785714Y-74452380D01*
X235928571Y-74500000D01*
X235976190Y-74547619D01*
X237023809Y-74452380D02*
X237357142Y-75452380D01*
X237690476Y-74452380D01*
X238452380Y-74785714D02*
X238452380Y-75452380D01*
X238214285Y-74404761D02*
X237976190Y-75119047D01*
X238595238Y-75119047D01*
X158071428Y-64880952D02*
X158023809Y-65023809D01*
X157976190Y-65071428D01*
X157880952Y-65119047D01*
X157738095Y-65119047D01*
X157642857Y-65071428D01*
X157595238Y-65023809D01*
X157547619Y-64928571D01*
X157547619Y-64547619D01*
X158547619Y-64547619D01*
X158547619Y-64880952D01*
X158500000Y-64976190D01*
X158452380Y-65023809D01*
X158357142Y-65071428D01*
X158261904Y-65071428D01*
X158166666Y-65023809D01*
X158119047Y-64976190D01*
X158071428Y-64880952D01*
X158071428Y-64547619D01*
X157547619Y-65690476D02*
X157595238Y-65595238D01*
X157642857Y-65547619D01*
X157738095Y-65500000D01*
X158023809Y-65500000D01*
X158119047Y-65547619D01*
X158166666Y-65595238D01*
X158214285Y-65690476D01*
X158214285Y-65833333D01*
X158166666Y-65928571D01*
X158119047Y-65976190D01*
X158023809Y-66023809D01*
X157738095Y-66023809D01*
X157642857Y-65976190D01*
X157595238Y-65928571D01*
X157547619Y-65833333D01*
X157547619Y-65690476D01*
X157547619Y-66595238D02*
X157595238Y-66500000D01*
X157642857Y-66452380D01*
X157738095Y-66404761D01*
X158023809Y-66404761D01*
X158119047Y-66452380D01*
X158166666Y-66500000D01*
X158214285Y-66595238D01*
X158214285Y-66738095D01*
X158166666Y-66833333D01*
X158119047Y-66880952D01*
X158023809Y-66928571D01*
X157738095Y-66928571D01*
X157642857Y-66880952D01*
X157595238Y-66833333D01*
X157547619Y-66738095D01*
X157547619Y-66595238D01*
X158214285Y-67214285D02*
X158214285Y-67595238D01*
X158547619Y-67357142D02*
X157690476Y-67357142D01*
X157595238Y-67404761D01*
X157547619Y-67500000D01*
X157547619Y-67595238D01*
D11*
X216666116Y-47565150D02*
X216856592Y-47565150D01*
X216628021Y-47679436D02*
X216761354Y-47279436D01*
X216894687Y-47679436D01*
X217028021Y-47679436D02*
X217028021Y-47279436D01*
X217123259Y-47279436D01*
X217180402Y-47298484D01*
X217218497Y-47336579D01*
X217237545Y-47374674D01*
X217256592Y-47450864D01*
X217256592Y-47508007D01*
X217237545Y-47584198D01*
X217218497Y-47622293D01*
X217180402Y-47660388D01*
X217123259Y-47679436D01*
X217028021Y-47679436D01*
X217408973Y-47660388D02*
X217466116Y-47679436D01*
X217561354Y-47679436D01*
X217599449Y-47660388D01*
X217618497Y-47641341D01*
X217637545Y-47603245D01*
X217637545Y-47565150D01*
X217618497Y-47527055D01*
X217599449Y-47508007D01*
X217561354Y-47488960D01*
X217485164Y-47469912D01*
X217447068Y-47450864D01*
X217428021Y-47431817D01*
X217408973Y-47393722D01*
X217408973Y-47355626D01*
X217428021Y-47317531D01*
X217447068Y-47298484D01*
X217485164Y-47279436D01*
X217580402Y-47279436D01*
X217637545Y-47298484D01*
X217789926Y-47317531D02*
X217808973Y-47298484D01*
X217847068Y-47279436D01*
X217942307Y-47279436D01*
X217980402Y-47298484D01*
X217999449Y-47317531D01*
X218018497Y-47355626D01*
X218018497Y-47393722D01*
X217999449Y-47450864D01*
X217770878Y-47679436D01*
X218018497Y-47679436D01*
D10*
X206883047Y-48010000D02*
X206835428Y-47986190D01*
X206764000Y-47986190D01*
X206692571Y-48010000D01*
X206644952Y-48057619D01*
X206621142Y-48105238D01*
X206597333Y-48200476D01*
X206597333Y-48271904D01*
X206621142Y-48367142D01*
X206644952Y-48414761D01*
X206692571Y-48462380D01*
X206764000Y-48486190D01*
X206811619Y-48486190D01*
X206883047Y-48462380D01*
X206906857Y-48438571D01*
X206906857Y-48271904D01*
X206811619Y-48271904D01*
X207121142Y-48486190D02*
X207121142Y-47986190D01*
X207406857Y-48486190D01*
X207406857Y-47986190D01*
X207644952Y-48486190D02*
X207644952Y-47986190D01*
X207764000Y-47986190D01*
X207835428Y-48010000D01*
X207883047Y-48057619D01*
X207906857Y-48105238D01*
X207930666Y-48200476D01*
X207930666Y-48271904D01*
X207906857Y-48367142D01*
X207883047Y-48414761D01*
X207835428Y-48462380D01*
X207764000Y-48486190D01*
X207644952Y-48486190D01*
X251718000Y-77110238D02*
X251694190Y-77157857D01*
X251694190Y-77229285D01*
X251718000Y-77300714D01*
X251765619Y-77348333D01*
X251813238Y-77372142D01*
X251908476Y-77395952D01*
X251979904Y-77395952D01*
X252075142Y-77372142D01*
X252122761Y-77348333D01*
X252170380Y-77300714D01*
X252194190Y-77229285D01*
X252194190Y-77181666D01*
X252170380Y-77110238D01*
X252146571Y-77086428D01*
X251979904Y-77086428D01*
X251979904Y-77181666D01*
X252194190Y-76610238D02*
X252194190Y-76895952D01*
X252194190Y-76753095D02*
X251694190Y-76753095D01*
X251765619Y-76800714D01*
X251813238Y-76848333D01*
X251837047Y-76895952D01*
X251694190Y-76157857D02*
X251694190Y-76395952D01*
X251932285Y-76419761D01*
X251908476Y-76395952D01*
X251884666Y-76348333D01*
X251884666Y-76229285D01*
X251908476Y-76181666D01*
X251932285Y-76157857D01*
X251979904Y-76134047D01*
X252098952Y-76134047D01*
X252146571Y-76157857D01*
X252170380Y-76181666D01*
X252194190Y-76229285D01*
X252194190Y-76348333D01*
X252170380Y-76395952D01*
X252146571Y-76419761D01*
D11*
X209380952Y-42471428D02*
X209514285Y-42471428D01*
X209571428Y-42680952D02*
X209380952Y-42680952D01*
X209380952Y-42280952D01*
X209571428Y-42280952D01*
X209704761Y-42280952D02*
X209971428Y-42680952D01*
X209971428Y-42280952D02*
X209704761Y-42680952D01*
X210066666Y-42280952D02*
X210295238Y-42280952D01*
X210180952Y-42680952D02*
X210180952Y-42280952D01*
X210638095Y-42680952D02*
X210409523Y-42680952D01*
X210523809Y-42680952D02*
X210523809Y-42280952D01*
X210485714Y-42338095D01*
X210447619Y-42376190D01*
X210409523Y-42395238D01*
X191097201Y-32588694D02*
X190787677Y-32588694D01*
X190954344Y-32398218D01*
X190882915Y-32398218D01*
X190835296Y-32374408D01*
X190811487Y-32350599D01*
X190787677Y-32302980D01*
X190787677Y-32183932D01*
X190811487Y-32136313D01*
X190835296Y-32112504D01*
X190882915Y-32088694D01*
X191025773Y-32088694D01*
X191073392Y-32112504D01*
X191097201Y-32136313D01*
X190644820Y-32588694D02*
X190478154Y-32088694D01*
X190311487Y-32588694D01*
X190192439Y-32588694D02*
X189882915Y-32588694D01*
X190049582Y-32398218D01*
X189978154Y-32398218D01*
X189930534Y-32374408D01*
X189906725Y-32350599D01*
X189882915Y-32302980D01*
X189882915Y-32183932D01*
X189906725Y-32136313D01*
X189930534Y-32112504D01*
X189978154Y-32088694D01*
X190121011Y-32088694D01*
X190168630Y-32112504D01*
X190192439Y-32136313D01*
X201704915Y-52498369D02*
X201838248Y-52898369D01*
X201971581Y-52498369D01*
X202238248Y-52688845D02*
X202295391Y-52707893D01*
X202314439Y-52726940D01*
X202333486Y-52765036D01*
X202333486Y-52822178D01*
X202314439Y-52860274D01*
X202295391Y-52879321D01*
X202257296Y-52898369D01*
X202104915Y-52898369D01*
X202104915Y-52498369D01*
X202238248Y-52498369D01*
X202276343Y-52517417D01*
X202295391Y-52536464D01*
X202314439Y-52574559D01*
X202314439Y-52612655D01*
X202295391Y-52650750D01*
X202276343Y-52669797D01*
X202238248Y-52688845D01*
X202104915Y-52688845D01*
X202485867Y-52784083D02*
X202676343Y-52784083D01*
X202447772Y-52898369D02*
X202581105Y-52498369D01*
X202714439Y-52898369D01*
X202790629Y-52498369D02*
X203019200Y-52498369D01*
X202904915Y-52898369D02*
X202904915Y-52498369D01*
X203095391Y-52498369D02*
X203323962Y-52498369D01*
X203209677Y-52898369D02*
X203209677Y-52498369D01*
X201314439Y-53542369D02*
X201314439Y-53275702D01*
X201314439Y-53313797D02*
X201333486Y-53294750D01*
X201371581Y-53275702D01*
X201428724Y-53275702D01*
X201466819Y-53294750D01*
X201485867Y-53332845D01*
X201485867Y-53542369D01*
X201485867Y-53332845D02*
X201504915Y-53294750D01*
X201543010Y-53275702D01*
X201600153Y-53275702D01*
X201638248Y-53294750D01*
X201657296Y-53332845D01*
X201657296Y-53542369D01*
X202019200Y-53542369D02*
X202019200Y-53332845D01*
X202000153Y-53294750D01*
X201962058Y-53275702D01*
X201885867Y-53275702D01*
X201847772Y-53294750D01*
X202019200Y-53523321D02*
X201981105Y-53542369D01*
X201885867Y-53542369D01*
X201847772Y-53523321D01*
X201828724Y-53485226D01*
X201828724Y-53447131D01*
X201847772Y-53409036D01*
X201885867Y-53389988D01*
X201981105Y-53389988D01*
X202019200Y-53370940D01*
X202209677Y-53542369D02*
X202209677Y-53275702D01*
X202209677Y-53142369D02*
X202190629Y-53161417D01*
X202209677Y-53180464D01*
X202228724Y-53161417D01*
X202209677Y-53142369D01*
X202209677Y-53180464D01*
X202400153Y-53275702D02*
X202400153Y-53542369D01*
X202400153Y-53313797D02*
X202419200Y-53294750D01*
X202457296Y-53275702D01*
X202514439Y-53275702D01*
X202552534Y-53294750D01*
X202571581Y-53332845D01*
X202571581Y-53542369D01*
X202704915Y-53275702D02*
X202857296Y-53275702D01*
X202762058Y-53142369D02*
X202762058Y-53485226D01*
X202781105Y-53523321D01*
X202819200Y-53542369D01*
X202857296Y-53542369D01*
X203162058Y-53542369D02*
X203162058Y-53332845D01*
X203143010Y-53294750D01*
X203104915Y-53275702D01*
X203028724Y-53275702D01*
X202990629Y-53294750D01*
X203162058Y-53523321D02*
X203123962Y-53542369D01*
X203028724Y-53542369D01*
X202990629Y-53523321D01*
X202971581Y-53485226D01*
X202971581Y-53447131D01*
X202990629Y-53409036D01*
X203028724Y-53389988D01*
X203123962Y-53389988D01*
X203162058Y-53370940D01*
X203352534Y-53542369D02*
X203352534Y-53275702D01*
X203352534Y-53142369D02*
X203333486Y-53161417D01*
X203352534Y-53180464D01*
X203371581Y-53161417D01*
X203352534Y-53142369D01*
X203352534Y-53180464D01*
X203543010Y-53275702D02*
X203543010Y-53542369D01*
X203543010Y-53313797D02*
X203562058Y-53294750D01*
X203600153Y-53275702D01*
X203657296Y-53275702D01*
X203695391Y-53294750D01*
X203714439Y-53332845D01*
X203714439Y-53542369D01*
D12*
X171841012Y-74888375D02*
X171269583Y-74888375D01*
X171555298Y-74888375D02*
X171555298Y-73888375D01*
X171460060Y-74031233D01*
X171364821Y-74126471D01*
X171269583Y-74174090D01*
X172221964Y-73983614D02*
X172269583Y-73935995D01*
X172364821Y-73888375D01*
X172602917Y-73888375D01*
X172698155Y-73935995D01*
X172745774Y-73983614D01*
X172793393Y-74078852D01*
X172793393Y-74174090D01*
X172745774Y-74316947D01*
X172174345Y-74888375D01*
X172793393Y-74888375D01*
X173079107Y-73888375D02*
X173412440Y-74888375D01*
X173745774Y-73888375D01*
X195309523Y-38547619D02*
X195309523Y-39547619D01*
X194976190Y-38833333D01*
X194642857Y-39547619D01*
X194642857Y-38547619D01*
X194023809Y-38547619D02*
X194119047Y-38595238D01*
X194166666Y-38642857D01*
X194214285Y-38738095D01*
X194214285Y-39023809D01*
X194166666Y-39119047D01*
X194119047Y-39166666D01*
X194023809Y-39214285D01*
X193880952Y-39214285D01*
X193785714Y-39166666D01*
X193738095Y-39119047D01*
X193690476Y-39023809D01*
X193690476Y-38738095D01*
X193738095Y-38642857D01*
X193785714Y-38595238D01*
X193880952Y-38547619D01*
X194023809Y-38547619D01*
X193404761Y-39214285D02*
X193023809Y-39214285D01*
X193261904Y-39547619D02*
X193261904Y-38690476D01*
X193214285Y-38595238D01*
X193119047Y-38547619D01*
X193023809Y-38547619D01*
X192547619Y-38547619D02*
X192642857Y-38595238D01*
X192690476Y-38642857D01*
X192738095Y-38738095D01*
X192738095Y-39023809D01*
X192690476Y-39119047D01*
X192642857Y-39166666D01*
X192547619Y-39214285D01*
X192404761Y-39214285D01*
X192309523Y-39166666D01*
X192261904Y-39119047D01*
X192214285Y-39023809D01*
X192214285Y-38738095D01*
X192261904Y-38642857D01*
X192309523Y-38595238D01*
X192404761Y-38547619D01*
X192547619Y-38547619D01*
X191785714Y-38547619D02*
X191785714Y-39214285D01*
X191785714Y-39023809D02*
X191738095Y-39119047D01*
X191690476Y-39166666D01*
X191595238Y-39214285D01*
X191500000Y-39214285D01*
X190642857Y-38547619D02*
X191214285Y-38547619D01*
X190928571Y-38547619D02*
X190928571Y-39547619D01*
X191023809Y-39404761D01*
X191119047Y-39309523D01*
X191214285Y-39261904D01*
D10*
X206964285Y-56427523D02*
X206964285Y-56260857D01*
X207226190Y-56189428D02*
X207226190Y-56427523D01*
X206726190Y-56427523D01*
X206726190Y-56189428D01*
X207226190Y-55713238D02*
X207226190Y-55998952D01*
X207226190Y-55856095D02*
X206726190Y-55856095D01*
X206797619Y-55903714D01*
X206845238Y-55951333D01*
X206869047Y-55998952D01*
X206940476Y-55427523D02*
X206916666Y-55475142D01*
X206892857Y-55498952D01*
X206845238Y-55522761D01*
X206821428Y-55522761D01*
X206773809Y-55498952D01*
X206750000Y-55475142D01*
X206726190Y-55427523D01*
X206726190Y-55332285D01*
X206750000Y-55284666D01*
X206773809Y-55260857D01*
X206821428Y-55237047D01*
X206845238Y-55237047D01*
X206892857Y-55260857D01*
X206916666Y-55284666D01*
X206940476Y-55332285D01*
X206940476Y-55427523D01*
X206964285Y-55475142D01*
X206988095Y-55498952D01*
X207035714Y-55522761D01*
X207130952Y-55522761D01*
X207178571Y-55498952D01*
X207202380Y-55475142D01*
X207226190Y-55427523D01*
X207226190Y-55332285D01*
X207202380Y-55284666D01*
X207178571Y-55260857D01*
X207130952Y-55237047D01*
X207035714Y-55237047D01*
X206988095Y-55260857D01*
X206964285Y-55284666D01*
X206940476Y-55332285D01*
X207226190Y-55022761D02*
X206726190Y-55022761D01*
X206726190Y-54832285D01*
X206750000Y-54784666D01*
X206773809Y-54760857D01*
X206821428Y-54737047D01*
X206892857Y-54737047D01*
X206940476Y-54760857D01*
X206964285Y-54784666D01*
X206988095Y-54832285D01*
X206988095Y-55022761D01*
X207226190Y-54260857D02*
X207226190Y-54546571D01*
X207226190Y-54403714D02*
X206726190Y-54403714D01*
X206797619Y-54451333D01*
X206845238Y-54498952D01*
X206869047Y-54546571D01*
X206726190Y-53832285D02*
X206726190Y-53927523D01*
X206750000Y-53975142D01*
X206773809Y-53998952D01*
X206845238Y-54046571D01*
X206940476Y-54070380D01*
X207130952Y-54070380D01*
X207178571Y-54046571D01*
X207202380Y-54022761D01*
X207226190Y-53975142D01*
X207226190Y-53879904D01*
X207202380Y-53832285D01*
X207178571Y-53808476D01*
X207130952Y-53784666D01*
X207011904Y-53784666D01*
X206964285Y-53808476D01*
X206940476Y-53832285D01*
X206916666Y-53879904D01*
X206916666Y-53975142D01*
X206940476Y-54022761D01*
X206964285Y-54046571D01*
X207011904Y-54070380D01*
D11*
X172373630Y-32061657D02*
X172373630Y-32561657D01*
X172206963Y-32204514D01*
X172040297Y-32561657D01*
X172040297Y-32061657D01*
X171802201Y-32252133D02*
X171421249Y-32252133D01*
D12*
X217857142Y-35352619D02*
X217857142Y-36352619D01*
X217476190Y-36352619D01*
X217380952Y-36305000D01*
X217333333Y-36257380D01*
X217285714Y-36162142D01*
X217285714Y-36019285D01*
X217333333Y-35924047D01*
X217380952Y-35876428D01*
X217476190Y-35828809D01*
X217857142Y-35828809D01*
X216857142Y-35352619D02*
X216857142Y-36019285D01*
X216857142Y-36352619D02*
X216904761Y-36305000D01*
X216857142Y-36257380D01*
X216809523Y-36305000D01*
X216857142Y-36352619D01*
X216857142Y-36257380D01*
X216380952Y-36019285D02*
X216380952Y-35019285D01*
X216380952Y-35971666D02*
X216285714Y-36019285D01*
X216095238Y-36019285D01*
X216000000Y-35971666D01*
X215952380Y-35924047D01*
X215904761Y-35828809D01*
X215904761Y-35543095D01*
X215952380Y-35447857D01*
X216000000Y-35400238D01*
X216095238Y-35352619D01*
X216285714Y-35352619D01*
X216380952Y-35400238D01*
X215476190Y-36019285D02*
X215476190Y-35019285D01*
X215476190Y-35971666D02*
X215380952Y-36019285D01*
X215190476Y-36019285D01*
X215095238Y-35971666D01*
X215047619Y-35924047D01*
X215000000Y-35828809D01*
X215000000Y-35543095D01*
X215047619Y-35447857D01*
X215095238Y-35400238D01*
X215190476Y-35352619D01*
X215380952Y-35352619D01*
X215476190Y-35400238D01*
X214571428Y-35352619D02*
X214571428Y-36019285D01*
X214571428Y-36352619D02*
X214619047Y-36305000D01*
X214571428Y-36257380D01*
X214523809Y-36305000D01*
X214571428Y-36352619D01*
X214571428Y-36257380D01*
X214095238Y-36019285D02*
X214095238Y-35352619D01*
X214095238Y-35924047D02*
X214047619Y-35971666D01*
X213952380Y-36019285D01*
X213809523Y-36019285D01*
X213714285Y-35971666D01*
X213666666Y-35876428D01*
X213666666Y-35352619D01*
X213047619Y-35352619D02*
X213142857Y-35400238D01*
X213190476Y-35447857D01*
X213238095Y-35543095D01*
X213238095Y-35828809D01*
X213190476Y-35924047D01*
X213142857Y-35971666D01*
X213047619Y-36019285D01*
X212904761Y-36019285D01*
X212809523Y-35971666D01*
X212761904Y-35924047D01*
X212714285Y-35828809D01*
X212714285Y-35543095D01*
X212761904Y-35447857D01*
X212809523Y-35400238D01*
X212904761Y-35352619D01*
X213047619Y-35352619D01*
X211523809Y-35352619D02*
X211523809Y-36352619D01*
X211047619Y-35352619D02*
X211047619Y-36352619D01*
X209809523Y-35352619D02*
X209809523Y-36352619D01*
X209809523Y-35971666D02*
X209714285Y-36019285D01*
X209523809Y-36019285D01*
X209428571Y-35971666D01*
X209380952Y-35924047D01*
X209333333Y-35828809D01*
X209333333Y-35543095D01*
X209380952Y-35447857D01*
X209428571Y-35400238D01*
X209523809Y-35352619D01*
X209714285Y-35352619D01*
X209809523Y-35400238D01*
X208761904Y-35352619D02*
X208857142Y-35400238D01*
X208904761Y-35447857D01*
X208952380Y-35543095D01*
X208952380Y-35828809D01*
X208904761Y-35924047D01*
X208857142Y-35971666D01*
X208761904Y-36019285D01*
X208619047Y-36019285D01*
X208523809Y-35971666D01*
X208476190Y-35924047D01*
X208428571Y-35828809D01*
X208428571Y-35543095D01*
X208476190Y-35447857D01*
X208523809Y-35400238D01*
X208619047Y-35352619D01*
X208761904Y-35352619D01*
X207571428Y-35352619D02*
X207571428Y-35876428D01*
X207619047Y-35971666D01*
X207714285Y-36019285D01*
X207904761Y-36019285D01*
X208000000Y-35971666D01*
X207571428Y-35400238D02*
X207666666Y-35352619D01*
X207904761Y-35352619D01*
X208000000Y-35400238D01*
X208047619Y-35495476D01*
X208047619Y-35590714D01*
X208000000Y-35685952D01*
X207904761Y-35733571D01*
X207666666Y-35733571D01*
X207571428Y-35781190D01*
X207095238Y-35352619D02*
X207095238Y-36019285D01*
X207095238Y-35828809D02*
X207047619Y-35924047D01*
X207000000Y-35971666D01*
X206904761Y-36019285D01*
X206809523Y-36019285D01*
X206047619Y-35352619D02*
X206047619Y-36352619D01*
X206047619Y-35400238D02*
X206142857Y-35352619D01*
X206333333Y-35352619D01*
X206428571Y-35400238D01*
X206476190Y-35447857D01*
X206523809Y-35543095D01*
X206523809Y-35828809D01*
X206476190Y-35924047D01*
X206428571Y-35971666D01*
X206333333Y-36019285D01*
X206142857Y-36019285D01*
X206047619Y-35971666D01*
X204904761Y-36019285D02*
X204666666Y-35352619D01*
X204428571Y-36019285D01*
X203523809Y-35352619D02*
X204095238Y-35352619D01*
X203809523Y-35352619D02*
X203809523Y-36352619D01*
X203904761Y-36209761D01*
X204000000Y-36114523D01*
X204095238Y-36066904D01*
X203095238Y-35447857D02*
X203047619Y-35400238D01*
X203095238Y-35352619D01*
X203142857Y-35400238D01*
X203095238Y-35447857D01*
X203095238Y-35352619D01*
X202428571Y-36352619D02*
X202333333Y-36352619D01*
X202238095Y-36305000D01*
X202190476Y-36257380D01*
X202142857Y-36162142D01*
X202095238Y-35971666D01*
X202095238Y-35733571D01*
X202142857Y-35543095D01*
X202190476Y-35447857D01*
X202238095Y-35400238D01*
X202333333Y-35352619D01*
X202428571Y-35352619D01*
X202523809Y-35400238D01*
X202571428Y-35447857D01*
X202619047Y-35543095D01*
X202666666Y-35733571D01*
X202666666Y-35971666D01*
X202619047Y-36162142D01*
X202571428Y-36257380D01*
X202523809Y-36305000D01*
X202428571Y-36352619D01*
X218571428Y-33742619D02*
X218571428Y-34742619D01*
X218190476Y-34742619D01*
X218095238Y-34695000D01*
X218047619Y-34647380D01*
X218000000Y-34552142D01*
X218000000Y-34409285D01*
X218047619Y-34314047D01*
X218095238Y-34266428D01*
X218190476Y-34218809D01*
X218571428Y-34218809D01*
X217142857Y-33742619D02*
X217142857Y-34266428D01*
X217190476Y-34361666D01*
X217285714Y-34409285D01*
X217476190Y-34409285D01*
X217571428Y-34361666D01*
X217142857Y-33790238D02*
X217238095Y-33742619D01*
X217476190Y-33742619D01*
X217571428Y-33790238D01*
X217619047Y-33885476D01*
X217619047Y-33980714D01*
X217571428Y-34075952D01*
X217476190Y-34123571D01*
X217238095Y-34123571D01*
X217142857Y-34171190D01*
X216666666Y-34409285D02*
X216666666Y-33552142D01*
X216714285Y-33456904D01*
X216809523Y-33409285D01*
X216857142Y-33409285D01*
X216666666Y-34742619D02*
X216714285Y-34695000D01*
X216666666Y-34647380D01*
X216619047Y-34695000D01*
X216666666Y-34742619D01*
X216666666Y-34647380D01*
X215761904Y-33742619D02*
X215761904Y-34266428D01*
X215809523Y-34361666D01*
X215904761Y-34409285D01*
X216095238Y-34409285D01*
X216190476Y-34361666D01*
X215761904Y-33790238D02*
X215857142Y-33742619D01*
X216095238Y-33742619D01*
X216190476Y-33790238D01*
X216238095Y-33885476D01*
X216238095Y-33980714D01*
X216190476Y-34075952D01*
X216095238Y-34123571D01*
X215857142Y-34123571D01*
X215761904Y-34171190D01*
X215380952Y-34409285D02*
X214857142Y-34409285D01*
X215380952Y-33742619D01*
X214857142Y-33742619D01*
X213285714Y-33742619D02*
X213285714Y-34742619D01*
X213285714Y-33790238D02*
X213380952Y-33742619D01*
X213571428Y-33742619D01*
X213666666Y-33790238D01*
X213714285Y-33837857D01*
X213761904Y-33933095D01*
X213761904Y-34218809D01*
X213714285Y-34314047D01*
X213666666Y-34361666D01*
X213571428Y-34409285D01*
X213380952Y-34409285D01*
X213285714Y-34361666D01*
X212428571Y-33790238D02*
X212523809Y-33742619D01*
X212714285Y-33742619D01*
X212809523Y-33790238D01*
X212857142Y-33885476D01*
X212857142Y-34266428D01*
X212809523Y-34361666D01*
X212714285Y-34409285D01*
X212523809Y-34409285D01*
X212428571Y-34361666D01*
X212380952Y-34266428D01*
X212380952Y-34171190D01*
X212857142Y-34075952D01*
X212000000Y-33790238D02*
X211904761Y-33742619D01*
X211714285Y-33742619D01*
X211619047Y-33790238D01*
X211571428Y-33885476D01*
X211571428Y-33933095D01*
X211619047Y-34028333D01*
X211714285Y-34075952D01*
X211857142Y-34075952D01*
X211952380Y-34123571D01*
X212000000Y-34218809D01*
X212000000Y-34266428D01*
X211952380Y-34361666D01*
X211857142Y-34409285D01*
X211714285Y-34409285D01*
X211619047Y-34361666D01*
X211142857Y-33742619D02*
X211142857Y-34409285D01*
X211142857Y-34742619D02*
X211190476Y-34695000D01*
X211142857Y-34647380D01*
X211095238Y-34695000D01*
X211142857Y-34742619D01*
X211142857Y-34647380D01*
X210238095Y-34409285D02*
X210238095Y-33599761D01*
X210285714Y-33504523D01*
X210333333Y-33456904D01*
X210428571Y-33409285D01*
X210571428Y-33409285D01*
X210666666Y-33456904D01*
X210238095Y-33790238D02*
X210333333Y-33742619D01*
X210523809Y-33742619D01*
X210619047Y-33790238D01*
X210666666Y-33837857D01*
X210714285Y-33933095D01*
X210714285Y-34218809D01*
X210666666Y-34314047D01*
X210619047Y-34361666D01*
X210523809Y-34409285D01*
X210333333Y-34409285D01*
X210238095Y-34361666D01*
X209761904Y-34409285D02*
X209761904Y-33742619D01*
X209761904Y-34314047D02*
X209714285Y-34361666D01*
X209619047Y-34409285D01*
X209476190Y-34409285D01*
X209380952Y-34361666D01*
X209333333Y-34266428D01*
X209333333Y-33742619D01*
X207809523Y-34742619D02*
X207809523Y-34028333D01*
X207857142Y-33885476D01*
X207952380Y-33790238D01*
X208095238Y-33742619D01*
X208190476Y-33742619D01*
X206904761Y-33742619D02*
X206904761Y-34266428D01*
X206952380Y-34361666D01*
X207047619Y-34409285D01*
X207238095Y-34409285D01*
X207333333Y-34361666D01*
X206904761Y-33790238D02*
X207000000Y-33742619D01*
X207238095Y-33742619D01*
X207333333Y-33790238D01*
X207380952Y-33885476D01*
X207380952Y-33980714D01*
X207333333Y-34075952D01*
X207238095Y-34123571D01*
X207000000Y-34123571D01*
X206904761Y-34171190D01*
X206428571Y-34409285D02*
X206428571Y-33742619D01*
X206428571Y-34314047D02*
X206380952Y-34361666D01*
X206285714Y-34409285D01*
X206142857Y-34409285D01*
X206047619Y-34361666D01*
X206000000Y-34266428D01*
X206000000Y-33742619D01*
X204809523Y-34647380D02*
X204761904Y-34695000D01*
X204666666Y-34742619D01*
X204428571Y-34742619D01*
X204333333Y-34695000D01*
X204285714Y-34647380D01*
X204238095Y-34552142D01*
X204238095Y-34456904D01*
X204285714Y-34314047D01*
X204857142Y-33742619D01*
X204238095Y-33742619D01*
X203619047Y-34742619D02*
X203523809Y-34742619D01*
X203428571Y-34695000D01*
X203380952Y-34647380D01*
X203333333Y-34552142D01*
X203285714Y-34361666D01*
X203285714Y-34123571D01*
X203333333Y-33933095D01*
X203380952Y-33837857D01*
X203428571Y-33790238D01*
X203523809Y-33742619D01*
X203619047Y-33742619D01*
X203714285Y-33790238D01*
X203761904Y-33837857D01*
X203809523Y-33933095D01*
X203857142Y-34123571D01*
X203857142Y-34361666D01*
X203809523Y-34552142D01*
X203761904Y-34647380D01*
X203714285Y-34695000D01*
X203619047Y-34742619D01*
X202904761Y-34647380D02*
X202857142Y-34695000D01*
X202761904Y-34742619D01*
X202523809Y-34742619D01*
X202428571Y-34695000D01*
X202380952Y-34647380D01*
X202333333Y-34552142D01*
X202333333Y-34456904D01*
X202380952Y-34314047D01*
X202952380Y-33742619D01*
X202333333Y-33742619D01*
X201952380Y-34647380D02*
X201904761Y-34695000D01*
X201809523Y-34742619D01*
X201571428Y-34742619D01*
X201476190Y-34695000D01*
X201428571Y-34647380D01*
X201380952Y-34552142D01*
X201380952Y-34456904D01*
X201428571Y-34314047D01*
X202000000Y-33742619D01*
X201380952Y-33742619D01*
D11*
X216526019Y-52474508D02*
X216659352Y-52474508D01*
X216716495Y-52684032D02*
X216526019Y-52684032D01*
X216526019Y-52284032D01*
X216716495Y-52284032D01*
X217097447Y-52684032D02*
X216868876Y-52684032D01*
X216983162Y-52684032D02*
X216983162Y-52284032D01*
X216945066Y-52341175D01*
X216906971Y-52379270D01*
X216868876Y-52398318D01*
X217326019Y-52455460D02*
X217287924Y-52436413D01*
X217268876Y-52417365D01*
X217249828Y-52379270D01*
X217249828Y-52360222D01*
X217268876Y-52322127D01*
X217287924Y-52303080D01*
X217326019Y-52284032D01*
X217402209Y-52284032D01*
X217440305Y-52303080D01*
X217459352Y-52322127D01*
X217478400Y-52360222D01*
X217478400Y-52379270D01*
X217459352Y-52417365D01*
X217440305Y-52436413D01*
X217402209Y-52455460D01*
X217326019Y-52455460D01*
X217287924Y-52474508D01*
X217268876Y-52493556D01*
X217249828Y-52531651D01*
X217249828Y-52607841D01*
X217268876Y-52645937D01*
X217287924Y-52664984D01*
X217326019Y-52684032D01*
X217402209Y-52684032D01*
X217440305Y-52664984D01*
X217459352Y-52645937D01*
X217478400Y-52607841D01*
X217478400Y-52531651D01*
X217459352Y-52493556D01*
X217440305Y-52474508D01*
X217402209Y-52455460D01*
X217649828Y-52684032D02*
X217649828Y-52284032D01*
X217745066Y-52284032D01*
X217802209Y-52303080D01*
X217840305Y-52341175D01*
X217859352Y-52379270D01*
X217878400Y-52455460D01*
X217878400Y-52512603D01*
X217859352Y-52588794D01*
X217840305Y-52626889D01*
X217802209Y-52664984D01*
X217745066Y-52684032D01*
X217649828Y-52684032D01*
X218049828Y-52684032D02*
X218049828Y-52284032D01*
X218145066Y-52284032D01*
X218202209Y-52303080D01*
X218240305Y-52341175D01*
X218259352Y-52379270D01*
X218278400Y-52455460D01*
X218278400Y-52512603D01*
X218259352Y-52588794D01*
X218240305Y-52626889D01*
X218202209Y-52664984D01*
X218145066Y-52684032D01*
X218049828Y-52684032D01*
D12*
X180364575Y-73961041D02*
X179888385Y-73961041D01*
X179840766Y-74437232D01*
X179888385Y-74389613D01*
X179983623Y-74341994D01*
X180221718Y-74341994D01*
X180316956Y-74389613D01*
X180364575Y-74437232D01*
X180412194Y-74532470D01*
X180412194Y-74770565D01*
X180364575Y-74865803D01*
X180316956Y-74913422D01*
X180221718Y-74961041D01*
X179983623Y-74961041D01*
X179888385Y-74913422D01*
X179840766Y-74865803D01*
X180697909Y-73961041D02*
X181031242Y-74961041D01*
X181364575Y-73961041D01*
D10*
X251694190Y-79867047D02*
X251694190Y-79557523D01*
X251884666Y-79724190D01*
X251884666Y-79652761D01*
X251908476Y-79605142D01*
X251932285Y-79581333D01*
X251979904Y-79557523D01*
X252098952Y-79557523D01*
X252146571Y-79581333D01*
X252170380Y-79605142D01*
X252194190Y-79652761D01*
X252194190Y-79795619D01*
X252170380Y-79843238D01*
X252146571Y-79867047D01*
X251694190Y-79414666D02*
X252194190Y-79248000D01*
X251694190Y-79081333D01*
X251694190Y-78962285D02*
X251694190Y-78652761D01*
X251884666Y-78819428D01*
X251884666Y-78748000D01*
X251908476Y-78700380D01*
X251932285Y-78676571D01*
X251979904Y-78652761D01*
X252098952Y-78652761D01*
X252146571Y-78676571D01*
X252170380Y-78700380D01*
X252194190Y-78748000D01*
X252194190Y-78890857D01*
X252170380Y-78938476D01*
X252146571Y-78962285D01*
D11*
X208833232Y-49978151D02*
X208966566Y-49978151D01*
X209023709Y-50187675D02*
X208833232Y-50187675D01*
X208833232Y-49787675D01*
X209023709Y-49787675D01*
X209404661Y-50187675D02*
X209176090Y-50187675D01*
X209290375Y-50187675D02*
X209290375Y-49787675D01*
X209252280Y-49844818D01*
X209214185Y-49882913D01*
X209176090Y-49901961D01*
X209633232Y-49959103D02*
X209595137Y-49940056D01*
X209576090Y-49921008D01*
X209557042Y-49882913D01*
X209557042Y-49863865D01*
X209576090Y-49825770D01*
X209595137Y-49806723D01*
X209633232Y-49787675D01*
X209709423Y-49787675D01*
X209747518Y-49806723D01*
X209766566Y-49825770D01*
X209785613Y-49863865D01*
X209785613Y-49882913D01*
X209766566Y-49921008D01*
X209747518Y-49940056D01*
X209709423Y-49959103D01*
X209633232Y-49959103D01*
X209595137Y-49978151D01*
X209576090Y-49997199D01*
X209557042Y-50035294D01*
X209557042Y-50111484D01*
X209576090Y-50149580D01*
X209595137Y-50168627D01*
X209633232Y-50187675D01*
X209709423Y-50187675D01*
X209747518Y-50168627D01*
X209766566Y-50149580D01*
X209785613Y-50111484D01*
X209785613Y-50035294D01*
X209766566Y-49997199D01*
X209747518Y-49978151D01*
X209709423Y-49959103D01*
X209957042Y-50187675D02*
X209957042Y-49787675D01*
X210109423Y-49787675D01*
X210147518Y-49806723D01*
X210166566Y-49825770D01*
X210185613Y-49863865D01*
X210185613Y-49921008D01*
X210166566Y-49959103D01*
X210147518Y-49978151D01*
X210109423Y-49997199D01*
X209957042Y-49997199D01*
X210566566Y-50187675D02*
X210337994Y-50187675D01*
X210452280Y-50187675D02*
X210452280Y-49787675D01*
X210414185Y-49844818D01*
X210376090Y-49882913D01*
X210337994Y-49901961D01*
X210909423Y-49921008D02*
X210909423Y-50187675D01*
X210814185Y-49768627D02*
X210718947Y-50054342D01*
X210966566Y-50054342D01*
D12*
X249155047Y-39361904D02*
X249155047Y-38561904D01*
X249497904Y-38638095D02*
X249536000Y-38600000D01*
X249612190Y-38561904D01*
X249802666Y-38561904D01*
X249878857Y-38600000D01*
X249916952Y-38638095D01*
X249955047Y-38714285D01*
X249955047Y-38790476D01*
X249916952Y-38904761D01*
X249459809Y-39361904D01*
X249955047Y-39361904D01*
X250755047Y-39285714D02*
X250716952Y-39323809D01*
X250602666Y-39361904D01*
X250526476Y-39361904D01*
X250412190Y-39323809D01*
X250336000Y-39247619D01*
X250297904Y-39171428D01*
X250259809Y-39019047D01*
X250259809Y-38904761D01*
X250297904Y-38752380D01*
X250336000Y-38676190D01*
X250412190Y-38600000D01*
X250526476Y-38561904D01*
X250602666Y-38561904D01*
X250716952Y-38600000D01*
X250755047Y-38638095D01*
D10*
X206883047Y-39882000D02*
X206835428Y-39858190D01*
X206764000Y-39858190D01*
X206692571Y-39882000D01*
X206644952Y-39929619D01*
X206621142Y-39977238D01*
X206597333Y-40072476D01*
X206597333Y-40143904D01*
X206621142Y-40239142D01*
X206644952Y-40286761D01*
X206692571Y-40334380D01*
X206764000Y-40358190D01*
X206811619Y-40358190D01*
X206883047Y-40334380D01*
X206906857Y-40310571D01*
X206906857Y-40143904D01*
X206811619Y-40143904D01*
X207121142Y-40358190D02*
X207121142Y-39858190D01*
X207406857Y-40358190D01*
X207406857Y-39858190D01*
X207644952Y-40358190D02*
X207644952Y-39858190D01*
X207764000Y-39858190D01*
X207835428Y-39882000D01*
X207883047Y-39929619D01*
X207906857Y-39977238D01*
X207930666Y-40072476D01*
X207930666Y-40143904D01*
X207906857Y-40239142D01*
X207883047Y-40286761D01*
X207835428Y-40334380D01*
X207764000Y-40358190D01*
X207644952Y-40358190D01*
X252170380Y-46892142D02*
X252194190Y-46820714D01*
X252194190Y-46701666D01*
X252170380Y-46654047D01*
X252146571Y-46630238D01*
X252098952Y-46606428D01*
X252051333Y-46606428D01*
X252003714Y-46630238D01*
X251979904Y-46654047D01*
X251956095Y-46701666D01*
X251932285Y-46796904D01*
X251908476Y-46844523D01*
X251884666Y-46868333D01*
X251837047Y-46892142D01*
X251789428Y-46892142D01*
X251741809Y-46868333D01*
X251718000Y-46844523D01*
X251694190Y-46796904D01*
X251694190Y-46677857D01*
X251718000Y-46606428D01*
X252194190Y-46392142D02*
X251694190Y-46392142D01*
X251694190Y-46273095D01*
X251718000Y-46201666D01*
X251765619Y-46154047D01*
X251813238Y-46130238D01*
X251908476Y-46106428D01*
X251979904Y-46106428D01*
X252075142Y-46130238D01*
X252122761Y-46154047D01*
X252170380Y-46201666D01*
X252194190Y-46273095D01*
X252194190Y-46392142D01*
X252051333Y-45915952D02*
X252051333Y-45677857D01*
X252194190Y-45963571D02*
X251694190Y-45796904D01*
X252194190Y-45630238D01*
D11*
X174516487Y-32561657D02*
X174206963Y-32561657D01*
X174373630Y-32371181D01*
X174302201Y-32371181D01*
X174254582Y-32347371D01*
X174230773Y-32323562D01*
X174206963Y-32275943D01*
X174206963Y-32156895D01*
X174230773Y-32109276D01*
X174254582Y-32085467D01*
X174302201Y-32061657D01*
X174445059Y-32061657D01*
X174492678Y-32085467D01*
X174516487Y-32109276D01*
X174064106Y-32561657D02*
X173897440Y-32061657D01*
X173730773Y-32561657D01*
X173611725Y-32561657D02*
X173302201Y-32561657D01*
X173468868Y-32371181D01*
X173397440Y-32371181D01*
X173349820Y-32347371D01*
X173326011Y-32323562D01*
X173302201Y-32275943D01*
X173302201Y-32156895D01*
X173326011Y-32109276D01*
X173349820Y-32085467D01*
X173397440Y-32061657D01*
X173540297Y-32061657D01*
X173587916Y-32085467D01*
X173611725Y-32109276D01*
D10*
X198516952Y-47986190D02*
X198826476Y-47986190D01*
X198659809Y-48176666D01*
X198731238Y-48176666D01*
X198778857Y-48200476D01*
X198802666Y-48224285D01*
X198826476Y-48271904D01*
X198826476Y-48390952D01*
X198802666Y-48438571D01*
X198778857Y-48462380D01*
X198731238Y-48486190D01*
X198588380Y-48486190D01*
X198540761Y-48462380D01*
X198516952Y-48438571D01*
X198969333Y-47986190D02*
X199136000Y-48486190D01*
X199302666Y-47986190D01*
X199421714Y-47986190D02*
X199731238Y-47986190D01*
X199564571Y-48176666D01*
X199636000Y-48176666D01*
X199683619Y-48200476D01*
X199707428Y-48224285D01*
X199731238Y-48271904D01*
X199731238Y-48390952D01*
X199707428Y-48438571D01*
X199683619Y-48462380D01*
X199636000Y-48486190D01*
X199493142Y-48486190D01*
X199445523Y-48462380D01*
X199421714Y-48438571D01*
D12*
X236926380Y-57030857D02*
X236450190Y-57364190D01*
X236926380Y-57602285D02*
X235926380Y-57602285D01*
X235926380Y-57221333D01*
X235974000Y-57126095D01*
X236021619Y-57078476D01*
X236116857Y-57030857D01*
X236259714Y-57030857D01*
X236354952Y-57078476D01*
X236402571Y-57126095D01*
X236450190Y-57221333D01*
X236450190Y-57602285D01*
X236926380Y-56078476D02*
X236926380Y-56649904D01*
X236926380Y-56364190D02*
X235926380Y-56364190D01*
X236069238Y-56459428D01*
X236164476Y-56554666D01*
X236212095Y-56649904D01*
X236259714Y-55221333D02*
X236926380Y-55221333D01*
X235878761Y-55459428D02*
X236593047Y-55697523D01*
X236593047Y-55078476D01*
X231857142Y-54452380D02*
X231523809Y-53976190D01*
X231285714Y-54452380D02*
X231285714Y-53452380D01*
X231666666Y-53452380D01*
X231761904Y-53500000D01*
X231809523Y-53547619D01*
X231857142Y-53642857D01*
X231857142Y-53785714D01*
X231809523Y-53880952D01*
X231761904Y-53928571D01*
X231666666Y-53976190D01*
X231285714Y-53976190D01*
X232809523Y-54452380D02*
X232238095Y-54452380D01*
X232523809Y-54452380D02*
X232523809Y-53452380D01*
X232428571Y-53595238D01*
X232333333Y-53690476D01*
X232238095Y-53738095D01*
X233142857Y-53452380D02*
X233761904Y-53452380D01*
X233428571Y-53833333D01*
X233571428Y-53833333D01*
X233666666Y-53880952D01*
X233714285Y-53928571D01*
X233761904Y-54023809D01*
X233761904Y-54261904D01*
X233714285Y-54357142D01*
X233666666Y-54404761D01*
X233571428Y-54452380D01*
X233285714Y-54452380D01*
X233190476Y-54404761D01*
X233142857Y-54357142D01*
D13*
X166503047Y-82229476D02*
X166382095Y-82169000D01*
X166261142Y-82048047D01*
X166079714Y-81866619D01*
X165958761Y-81806142D01*
X165837809Y-81806142D01*
X165898285Y-82108523D02*
X165777333Y-82048047D01*
X165656380Y-81927095D01*
X165595904Y-81685190D01*
X165595904Y-81261857D01*
X165656380Y-81019952D01*
X165777333Y-80899000D01*
X165898285Y-80838523D01*
X166140190Y-80838523D01*
X166261142Y-80899000D01*
X166382095Y-81019952D01*
X166442571Y-81261857D01*
X166442571Y-81685190D01*
X166382095Y-81927095D01*
X166261142Y-82048047D01*
X166140190Y-82108523D01*
X165898285Y-82108523D01*
X166865904Y-80838523D02*
X167652095Y-80838523D01*
X167228761Y-81322333D01*
X167410190Y-81322333D01*
X167531142Y-81382809D01*
X167591619Y-81443285D01*
X167652095Y-81564238D01*
X167652095Y-81866619D01*
X167591619Y-81987571D01*
X167531142Y-82048047D01*
X167410190Y-82108523D01*
X167047333Y-82108523D01*
X166926380Y-82048047D01*
X166865904Y-81987571D01*
D12*
X181702380Y-49442666D02*
X181226190Y-49776000D01*
X181702380Y-50014095D02*
X180702380Y-50014095D01*
X180702380Y-49633142D01*
X180750000Y-49537904D01*
X180797619Y-49490285D01*
X180892857Y-49442666D01*
X181035714Y-49442666D01*
X181130952Y-49490285D01*
X181178571Y-49537904D01*
X181226190Y-49633142D01*
X181226190Y-50014095D01*
X181702380Y-48490285D02*
X181702380Y-49061714D01*
X181702380Y-48776000D02*
X180702380Y-48776000D01*
X180845238Y-48871238D01*
X180940476Y-48966476D01*
X180988095Y-49061714D01*
X227004666Y-62666571D02*
X226671333Y-62666571D01*
X226671333Y-63190380D02*
X226671333Y-62190380D01*
X227147523Y-62190380D01*
X227861809Y-62666571D02*
X228004666Y-62714190D01*
X228052285Y-62761809D01*
X228099904Y-62857047D01*
X228099904Y-62999904D01*
X228052285Y-63095142D01*
X228004666Y-63142761D01*
X227909428Y-63190380D01*
X227528476Y-63190380D01*
X227528476Y-62190380D01*
X227861809Y-62190380D01*
X227957047Y-62238000D01*
X228004666Y-62285619D01*
X228052285Y-62380857D01*
X228052285Y-62476095D01*
X228004666Y-62571333D01*
X227957047Y-62618952D01*
X227861809Y-62666571D01*
X227528476Y-62666571D01*
X228480857Y-62285619D02*
X228528476Y-62238000D01*
X228623714Y-62190380D01*
X228861809Y-62190380D01*
X228957047Y-62238000D01*
X229004666Y-62285619D01*
X229052285Y-62380857D01*
X229052285Y-62476095D01*
X229004666Y-62618952D01*
X228433238Y-63190380D01*
X229052285Y-63190380D01*
X188809333Y-61708380D02*
X188476000Y-61232190D01*
X188237904Y-61708380D02*
X188237904Y-60708380D01*
X188618857Y-60708380D01*
X188714095Y-60756000D01*
X188761714Y-60803619D01*
X188809333Y-60898857D01*
X188809333Y-61041714D01*
X188761714Y-61136952D01*
X188714095Y-61184571D01*
X188618857Y-61232190D01*
X188237904Y-61232190D01*
X189142666Y-60708380D02*
X189809333Y-60708380D01*
X189380761Y-61708380D01*
X182917142Y-70466666D02*
X182964761Y-70514285D01*
X183012380Y-70657142D01*
X183012380Y-70752380D01*
X182964761Y-70895238D01*
X182869523Y-70990476D01*
X182774285Y-71038095D01*
X182583809Y-71085714D01*
X182440952Y-71085714D01*
X182250476Y-71038095D01*
X182155238Y-70990476D01*
X182060000Y-70895238D01*
X182012380Y-70752380D01*
X182012380Y-70657142D01*
X182060000Y-70514285D01*
X182107619Y-70466666D01*
X182345714Y-69609523D02*
X183012380Y-69609523D01*
X181964761Y-69847619D02*
X182679047Y-70085714D01*
X182679047Y-69466666D01*
X230582380Y-59181904D02*
X231391904Y-59181904D01*
X231487142Y-59134285D01*
X231534761Y-59086666D01*
X231582380Y-58991428D01*
X231582380Y-58800952D01*
X231534761Y-58705714D01*
X231487142Y-58658095D01*
X231391904Y-58610476D01*
X230582380Y-58610476D01*
X230582380Y-58229523D02*
X230582380Y-57562857D01*
X231582380Y-57991428D01*
X226750571Y-53919333D02*
X226750571Y-54252666D01*
X227274380Y-54252666D02*
X226274380Y-54252666D01*
X226274380Y-53776476D01*
X226750571Y-53062190D02*
X226798190Y-52919333D01*
X226845809Y-52871714D01*
X226941047Y-52824095D01*
X227083904Y-52824095D01*
X227179142Y-52871714D01*
X227226761Y-52919333D01*
X227274380Y-53014571D01*
X227274380Y-53395523D01*
X226274380Y-53395523D01*
X226274380Y-53062190D01*
X226322000Y-52966952D01*
X226369619Y-52919333D01*
X226464857Y-52871714D01*
X226560095Y-52871714D01*
X226655333Y-52919333D01*
X226702952Y-52966952D01*
X226750571Y-53062190D01*
X226750571Y-53395523D01*
X227274380Y-51871714D02*
X227274380Y-52443142D01*
X227274380Y-52157428D02*
X226274380Y-52157428D01*
X226417238Y-52252666D01*
X226512476Y-52347904D01*
X226560095Y-52443142D01*
X185107142Y-43346666D02*
X185154761Y-43394285D01*
X185202380Y-43537142D01*
X185202380Y-43632380D01*
X185154761Y-43775238D01*
X185059523Y-43870476D01*
X184964285Y-43918095D01*
X184773809Y-43965714D01*
X184630952Y-43965714D01*
X184440476Y-43918095D01*
X184345238Y-43870476D01*
X184250000Y-43775238D01*
X184202380Y-43632380D01*
X184202380Y-43537142D01*
X184250000Y-43394285D01*
X184297619Y-43346666D01*
X184297619Y-42965714D02*
X184250000Y-42918095D01*
X184202380Y-42822857D01*
X184202380Y-42584761D01*
X184250000Y-42489523D01*
X184297619Y-42441904D01*
X184392857Y-42394285D01*
X184488095Y-42394285D01*
X184630952Y-42441904D01*
X185202380Y-43013333D01*
X185202380Y-42394285D01*
X202734744Y-63080108D02*
X202401411Y-62603918D01*
X202163315Y-63080108D02*
X202163315Y-62080108D01*
X202544268Y-62080108D01*
X202639506Y-62127728D01*
X202687125Y-62175347D01*
X202734744Y-62270585D01*
X202734744Y-62413442D01*
X202687125Y-62508680D01*
X202639506Y-62556299D01*
X202544268Y-62603918D01*
X202163315Y-62603918D01*
X203591887Y-62413442D02*
X203591887Y-63080108D01*
X203353791Y-62032489D02*
X203115696Y-62746775D01*
X203734744Y-62746775D01*
X236357142Y-67042380D02*
X236023809Y-66566190D01*
X235785714Y-67042380D02*
X235785714Y-66042380D01*
X236166666Y-66042380D01*
X236261904Y-66090000D01*
X236309523Y-66137619D01*
X236357142Y-66232857D01*
X236357142Y-66375714D01*
X236309523Y-66470952D01*
X236261904Y-66518571D01*
X236166666Y-66566190D01*
X235785714Y-66566190D01*
X237309523Y-67042380D02*
X236738095Y-67042380D01*
X237023809Y-67042380D02*
X237023809Y-66042380D01*
X236928571Y-66185238D01*
X236833333Y-66280476D01*
X236738095Y-66328095D01*
X238261904Y-67042380D02*
X237690476Y-67042380D01*
X237976190Y-67042380D02*
X237976190Y-66042380D01*
X237880952Y-66185238D01*
X237785714Y-66280476D01*
X237690476Y-66328095D01*
X166624095Y-56348380D02*
X166624095Y-57157904D01*
X166671714Y-57253142D01*
X166719333Y-57300761D01*
X166814571Y-57348380D01*
X167005047Y-57348380D01*
X167100285Y-57300761D01*
X167147904Y-57253142D01*
X167195523Y-57157904D01*
X167195523Y-56348380D01*
X167624095Y-56443619D02*
X167671714Y-56396000D01*
X167766952Y-56348380D01*
X168005047Y-56348380D01*
X168100285Y-56396000D01*
X168147904Y-56443619D01*
X168195523Y-56538857D01*
X168195523Y-56634095D01*
X168147904Y-56776952D01*
X167576476Y-57348380D01*
X168195523Y-57348380D01*
X182141904Y-53832380D02*
X182141904Y-52832380D01*
X182380000Y-52832380D01*
X182522857Y-52880000D01*
X182618095Y-52975238D01*
X182665714Y-53070476D01*
X182713333Y-53260952D01*
X182713333Y-53403809D01*
X182665714Y-53594285D01*
X182618095Y-53689523D01*
X182522857Y-53784761D01*
X182380000Y-53832380D01*
X182141904Y-53832380D01*
X183046666Y-52832380D02*
X183665714Y-52832380D01*
X183332380Y-53213333D01*
X183475238Y-53213333D01*
X183570476Y-53260952D01*
X183618095Y-53308571D01*
X183665714Y-53403809D01*
X183665714Y-53641904D01*
X183618095Y-53737142D01*
X183570476Y-53784761D01*
X183475238Y-53832380D01*
X183189523Y-53832380D01*
X183094285Y-53784761D01*
X183046666Y-53737142D01*
X175033333Y-59309880D02*
X174700000Y-58833690D01*
X174461904Y-59309880D02*
X174461904Y-58309880D01*
X174842857Y-58309880D01*
X174938095Y-58357500D01*
X174985714Y-58405119D01*
X175033333Y-58500357D01*
X175033333Y-58643214D01*
X174985714Y-58738452D01*
X174938095Y-58786071D01*
X174842857Y-58833690D01*
X174461904Y-58833690D01*
X175509523Y-59309880D02*
X175700000Y-59309880D01*
X175795238Y-59262261D01*
X175842857Y-59214642D01*
X175938095Y-59071785D01*
X175985714Y-58881309D01*
X175985714Y-58500357D01*
X175938095Y-58405119D01*
X175890476Y-58357500D01*
X175795238Y-58309880D01*
X175604761Y-58309880D01*
X175509523Y-58357500D01*
X175461904Y-58405119D01*
X175414285Y-58500357D01*
X175414285Y-58738452D01*
X175461904Y-58833690D01*
X175509523Y-58881309D01*
X175604761Y-58928928D01*
X175795238Y-58928928D01*
X175890476Y-58881309D01*
X175938095Y-58833690D01*
X175985714Y-58738452D01*
X171352380Y-70666666D02*
X170876190Y-71000000D01*
X171352380Y-71238095D02*
X170352380Y-71238095D01*
X170352380Y-70857142D01*
X170400000Y-70761904D01*
X170447619Y-70714285D01*
X170542857Y-70666666D01*
X170685714Y-70666666D01*
X170780952Y-70714285D01*
X170828571Y-70761904D01*
X170876190Y-70857142D01*
X170876190Y-71238095D01*
X170780952Y-70095238D02*
X170733333Y-70190476D01*
X170685714Y-70238095D01*
X170590476Y-70285714D01*
X170542857Y-70285714D01*
X170447619Y-70238095D01*
X170400000Y-70190476D01*
X170352380Y-70095238D01*
X170352380Y-69904761D01*
X170400000Y-69809523D01*
X170447619Y-69761904D01*
X170542857Y-69714285D01*
X170590476Y-69714285D01*
X170685714Y-69761904D01*
X170733333Y-69809523D01*
X170780952Y-69904761D01*
X170780952Y-70095238D01*
X170828571Y-70190476D01*
X170876190Y-70238095D01*
X170971428Y-70285714D01*
X171161904Y-70285714D01*
X171257142Y-70238095D01*
X171304761Y-70190476D01*
X171352380Y-70095238D01*
X171352380Y-69904761D01*
X171304761Y-69809523D01*
X171257142Y-69761904D01*
X171161904Y-69714285D01*
X170971428Y-69714285D01*
X170876190Y-69761904D01*
X170828571Y-69809523D01*
X170780952Y-69904761D01*
X166838333Y-38637380D02*
X166505000Y-38161190D01*
X166266904Y-38637380D02*
X166266904Y-37637380D01*
X166647857Y-37637380D01*
X166743095Y-37685000D01*
X166790714Y-37732619D01*
X166838333Y-37827857D01*
X166838333Y-37970714D01*
X166790714Y-38065952D01*
X166743095Y-38113571D01*
X166647857Y-38161190D01*
X166266904Y-38161190D01*
X167695476Y-37637380D02*
X167505000Y-37637380D01*
X167409761Y-37685000D01*
X167362142Y-37732619D01*
X167266904Y-37875476D01*
X167219285Y-38065952D01*
X167219285Y-38446904D01*
X167266904Y-38542142D01*
X167314523Y-38589761D01*
X167409761Y-38637380D01*
X167600238Y-38637380D01*
X167695476Y-38589761D01*
X167743095Y-38542142D01*
X167790714Y-38446904D01*
X167790714Y-38208809D01*
X167743095Y-38113571D01*
X167695476Y-38065952D01*
X167600238Y-38018333D01*
X167409761Y-38018333D01*
X167314523Y-38065952D01*
X167266904Y-38113571D01*
X167219285Y-38208809D01*
X183919904Y-62428380D02*
X183919904Y-61428380D01*
X184158000Y-61428380D01*
X184300857Y-61476000D01*
X184396095Y-61571238D01*
X184443714Y-61666476D01*
X184491333Y-61856952D01*
X184491333Y-61999809D01*
X184443714Y-62190285D01*
X184396095Y-62285523D01*
X184300857Y-62380761D01*
X184158000Y-62428380D01*
X183919904Y-62428380D01*
X184872285Y-61523619D02*
X184919904Y-61476000D01*
X185015142Y-61428380D01*
X185253238Y-61428380D01*
X185348476Y-61476000D01*
X185396095Y-61523619D01*
X185443714Y-61618857D01*
X185443714Y-61714095D01*
X185396095Y-61856952D01*
X184824666Y-62428380D01*
X185443714Y-62428380D01*
X243435142Y-56554666D02*
X243482761Y-56602285D01*
X243530380Y-56745142D01*
X243530380Y-56840380D01*
X243482761Y-56983238D01*
X243387523Y-57078476D01*
X243292285Y-57126095D01*
X243101809Y-57173714D01*
X242958952Y-57173714D01*
X242768476Y-57126095D01*
X242673238Y-57078476D01*
X242578000Y-56983238D01*
X242530380Y-56840380D01*
X242530380Y-56745142D01*
X242578000Y-56602285D01*
X242625619Y-56554666D01*
X242530380Y-55697523D02*
X242530380Y-55888000D01*
X242578000Y-55983238D01*
X242625619Y-56030857D01*
X242768476Y-56126095D01*
X242958952Y-56173714D01*
X243339904Y-56173714D01*
X243435142Y-56126095D01*
X243482761Y-56078476D01*
X243530380Y-55983238D01*
X243530380Y-55792761D01*
X243482761Y-55697523D01*
X243435142Y-55649904D01*
X243339904Y-55602285D01*
X243101809Y-55602285D01*
X243006571Y-55649904D01*
X242958952Y-55697523D01*
X242911333Y-55792761D01*
X242911333Y-55983238D01*
X242958952Y-56078476D01*
X243006571Y-56126095D01*
X243101809Y-56173714D01*
X230497142Y-67042380D02*
X230163809Y-66566190D01*
X229925714Y-67042380D02*
X229925714Y-66042380D01*
X230306666Y-66042380D01*
X230401904Y-66090000D01*
X230449523Y-66137619D01*
X230497142Y-66232857D01*
X230497142Y-66375714D01*
X230449523Y-66470952D01*
X230401904Y-66518571D01*
X230306666Y-66566190D01*
X229925714Y-66566190D01*
X231449523Y-67042380D02*
X230878095Y-67042380D01*
X231163809Y-67042380D02*
X231163809Y-66042380D01*
X231068571Y-66185238D01*
X230973333Y-66280476D01*
X230878095Y-66328095D01*
X231830476Y-66137619D02*
X231878095Y-66090000D01*
X231973333Y-66042380D01*
X232211428Y-66042380D01*
X232306666Y-66090000D01*
X232354285Y-66137619D01*
X232401904Y-66232857D01*
X232401904Y-66328095D01*
X232354285Y-66470952D01*
X231782857Y-67042380D01*
X232401904Y-67042380D01*
X196540380Y-49188666D02*
X196064190Y-49522000D01*
X196540380Y-49760095D02*
X195540380Y-49760095D01*
X195540380Y-49379142D01*
X195588000Y-49283904D01*
X195635619Y-49236285D01*
X195730857Y-49188666D01*
X195873714Y-49188666D01*
X195968952Y-49236285D01*
X196016571Y-49283904D01*
X196064190Y-49379142D01*
X196064190Y-49760095D01*
X195540380Y-48283904D02*
X195540380Y-48760095D01*
X196016571Y-48807714D01*
X195968952Y-48760095D01*
X195921333Y-48664857D01*
X195921333Y-48426761D01*
X195968952Y-48331523D01*
X196016571Y-48283904D01*
X196111809Y-48236285D01*
X196349904Y-48236285D01*
X196445142Y-48283904D01*
X196492761Y-48331523D01*
X196540380Y-48426761D01*
X196540380Y-48664857D01*
X196492761Y-48760095D01*
X196445142Y-48807714D01*
X179477619Y-70330238D02*
X179430000Y-70425476D01*
X179334761Y-70520714D01*
X179191904Y-70663571D01*
X179144285Y-70758809D01*
X179144285Y-70854047D01*
X179382380Y-70806428D02*
X179334761Y-70901666D01*
X179239523Y-70996904D01*
X179049047Y-71044523D01*
X178715714Y-71044523D01*
X178525238Y-70996904D01*
X178430000Y-70901666D01*
X178382380Y-70806428D01*
X178382380Y-70615952D01*
X178430000Y-70520714D01*
X178525238Y-70425476D01*
X178715714Y-70377857D01*
X179049047Y-70377857D01*
X179239523Y-70425476D01*
X179334761Y-70520714D01*
X179382380Y-70615952D01*
X179382380Y-70806428D01*
X179382380Y-69425476D02*
X179382380Y-69996904D01*
X179382380Y-69711190D02*
X178382380Y-69711190D01*
X178525238Y-69806428D01*
X178620476Y-69901666D01*
X178668095Y-69996904D01*
X198445380Y-65444666D02*
X197969190Y-65778000D01*
X198445380Y-66016095D02*
X197445380Y-66016095D01*
X197445380Y-65635142D01*
X197493000Y-65539904D01*
X197540619Y-65492285D01*
X197635857Y-65444666D01*
X197778714Y-65444666D01*
X197873952Y-65492285D01*
X197921571Y-65539904D01*
X197969190Y-65635142D01*
X197969190Y-66016095D01*
X197445380Y-65111333D02*
X197445380Y-64492285D01*
X197826333Y-64825619D01*
X197826333Y-64682761D01*
X197873952Y-64587523D01*
X197921571Y-64539904D01*
X198016809Y-64492285D01*
X198254904Y-64492285D01*
X198350142Y-64539904D01*
X198397761Y-64587523D01*
X198445380Y-64682761D01*
X198445380Y-64968476D01*
X198397761Y-65063714D01*
X198350142Y-65111333D01*
X190052380Y-65838095D02*
X189052380Y-65838095D01*
X189052380Y-65600000D01*
X189100000Y-65457142D01*
X189195238Y-65361904D01*
X189290476Y-65314285D01*
X189480952Y-65266666D01*
X189623809Y-65266666D01*
X189814285Y-65314285D01*
X189909523Y-65361904D01*
X190004761Y-65457142D01*
X190052380Y-65600000D01*
X190052380Y-65838095D01*
X190052380Y-64314285D02*
X190052380Y-64885714D01*
X190052380Y-64600000D02*
X189052380Y-64600000D01*
X189195238Y-64695238D01*
X189290476Y-64790476D01*
X189338095Y-64885714D01*
X192825619Y-75946095D02*
X192016095Y-75946095D01*
X191920857Y-75993714D01*
X191873238Y-76041333D01*
X191825619Y-76136571D01*
X191825619Y-76327047D01*
X191873238Y-76422285D01*
X191920857Y-76469904D01*
X192016095Y-76517523D01*
X192825619Y-76517523D01*
X192825619Y-77422285D02*
X192825619Y-77231809D01*
X192778000Y-77136571D01*
X192730380Y-77088952D01*
X192587523Y-76993714D01*
X192397047Y-76946095D01*
X192016095Y-76946095D01*
X191920857Y-76993714D01*
X191873238Y-77041333D01*
X191825619Y-77136571D01*
X191825619Y-77327047D01*
X191873238Y-77422285D01*
X191920857Y-77469904D01*
X192016095Y-77517523D01*
X192254190Y-77517523D01*
X192349428Y-77469904D01*
X192397047Y-77422285D01*
X192444666Y-77327047D01*
X192444666Y-77136571D01*
X192397047Y-77041333D01*
X192349428Y-76993714D01*
X192254190Y-76946095D01*
D13*
X160661047Y-81975476D02*
X160540095Y-81915000D01*
X160419142Y-81794047D01*
X160237714Y-81612619D01*
X160116761Y-81552142D01*
X159995809Y-81552142D01*
X160056285Y-81854523D02*
X159935333Y-81794047D01*
X159814380Y-81673095D01*
X159753904Y-81431190D01*
X159753904Y-81007857D01*
X159814380Y-80765952D01*
X159935333Y-80645000D01*
X160056285Y-80584523D01*
X160298190Y-80584523D01*
X160419142Y-80645000D01*
X160540095Y-80765952D01*
X160600571Y-81007857D01*
X160600571Y-81431190D01*
X160540095Y-81673095D01*
X160419142Y-81794047D01*
X160298190Y-81854523D01*
X160056285Y-81854523D01*
X161084380Y-80705476D02*
X161144857Y-80645000D01*
X161265809Y-80584523D01*
X161568190Y-80584523D01*
X161689142Y-80645000D01*
X161749619Y-80705476D01*
X161810095Y-80826428D01*
X161810095Y-80947380D01*
X161749619Y-81128809D01*
X161023904Y-81854523D01*
X161810095Y-81854523D01*
D12*
X196347142Y-43346666D02*
X196394761Y-43394285D01*
X196442380Y-43537142D01*
X196442380Y-43632380D01*
X196394761Y-43775238D01*
X196299523Y-43870476D01*
X196204285Y-43918095D01*
X196013809Y-43965714D01*
X195870952Y-43965714D01*
X195680476Y-43918095D01*
X195585238Y-43870476D01*
X195490000Y-43775238D01*
X195442380Y-43632380D01*
X195442380Y-43537142D01*
X195490000Y-43394285D01*
X195537619Y-43346666D01*
X196442380Y-42394285D02*
X196442380Y-42965714D01*
X196442380Y-42680000D02*
X195442380Y-42680000D01*
X195585238Y-42775238D01*
X195680476Y-42870476D01*
X195728095Y-42965714D01*
X185182380Y-46481904D02*
X185991904Y-46481904D01*
X186087142Y-46434285D01*
X186134761Y-46386666D01*
X186182380Y-46291428D01*
X186182380Y-46100952D01*
X186134761Y-46005714D01*
X186087142Y-45958095D01*
X185991904Y-45910476D01*
X185182380Y-45910476D01*
X185182380Y-44958095D02*
X185182380Y-45434285D01*
X185658571Y-45481904D01*
X185610952Y-45434285D01*
X185563333Y-45339047D01*
X185563333Y-45100952D01*
X185610952Y-45005714D01*
X185658571Y-44958095D01*
X185753809Y-44910476D01*
X185991904Y-44910476D01*
X186087142Y-44958095D01*
X186134761Y-45005714D01*
X186182380Y-45100952D01*
X186182380Y-45339047D01*
X186134761Y-45434285D01*
X186087142Y-45481904D01*
X167576666Y-68730761D02*
X167719523Y-68778380D01*
X167957619Y-68778380D01*
X168052857Y-68730761D01*
X168100476Y-68683142D01*
X168148095Y-68587904D01*
X168148095Y-68492666D01*
X168100476Y-68397428D01*
X168052857Y-68349809D01*
X167957619Y-68302190D01*
X167767142Y-68254571D01*
X167671904Y-68206952D01*
X167624285Y-68159333D01*
X167576666Y-68064095D01*
X167576666Y-67968857D01*
X167624285Y-67873619D01*
X167671904Y-67826000D01*
X167767142Y-67778380D01*
X168005238Y-67778380D01*
X168148095Y-67826000D01*
X168481428Y-67778380D02*
X168719523Y-68778380D01*
X168910000Y-68064095D01*
X169100476Y-68778380D01*
X169338571Y-67778380D01*
X170243333Y-68778380D02*
X169671904Y-68778380D01*
X169957619Y-68778380D02*
X169957619Y-67778380D01*
X169862380Y-67921238D01*
X169767142Y-68016476D01*
X169671904Y-68064095D01*
X205994095Y-69302380D02*
X205994095Y-70111904D01*
X206041714Y-70207142D01*
X206089333Y-70254761D01*
X206184571Y-70302380D01*
X206375047Y-70302380D01*
X206470285Y-70254761D01*
X206517904Y-70207142D01*
X206565523Y-70111904D01*
X206565523Y-69302380D01*
X206946476Y-69302380D02*
X207565523Y-69302380D01*
X207232190Y-69683333D01*
X207375047Y-69683333D01*
X207470285Y-69730952D01*
X207517904Y-69778571D01*
X207565523Y-69873809D01*
X207565523Y-70111904D01*
X207517904Y-70207142D01*
X207470285Y-70254761D01*
X207375047Y-70302380D01*
X207089333Y-70302380D01*
X206994095Y-70254761D01*
X206946476Y-70207142D01*
D13*
X231442380Y-79314523D02*
X231442380Y-80342619D01*
X231502857Y-80463571D01*
X231563333Y-80524047D01*
X231684285Y-80584523D01*
X231926190Y-80584523D01*
X232047142Y-80524047D01*
X232107619Y-80463571D01*
X232168095Y-80342619D01*
X232168095Y-79314523D01*
X233438095Y-80584523D02*
X232712380Y-80584523D01*
X233075238Y-80584523D02*
X233075238Y-79314523D01*
X232954285Y-79495952D01*
X232833333Y-79616904D01*
X232712380Y-79677380D01*
D12*
X188333142Y-54512380D02*
X187999809Y-54036190D01*
X187761714Y-54512380D02*
X187761714Y-53512380D01*
X188142666Y-53512380D01*
X188237904Y-53560000D01*
X188285523Y-53607619D01*
X188333142Y-53702857D01*
X188333142Y-53845714D01*
X188285523Y-53940952D01*
X188237904Y-53988571D01*
X188142666Y-54036190D01*
X187761714Y-54036190D01*
X189285523Y-54512380D02*
X188714095Y-54512380D01*
X188999809Y-54512380D02*
X188999809Y-53512380D01*
X188904571Y-53655238D01*
X188809333Y-53750476D01*
X188714095Y-53798095D01*
X189904571Y-53512380D02*
X189999809Y-53512380D01*
X190095047Y-53560000D01*
X190142666Y-53607619D01*
X190190285Y-53702857D01*
X190237904Y-53893333D01*
X190237904Y-54131428D01*
X190190285Y-54321904D01*
X190142666Y-54417142D01*
X190095047Y-54464761D01*
X189999809Y-54512380D01*
X189904571Y-54512380D01*
X189809333Y-54464761D01*
X189761714Y-54417142D01*
X189714095Y-54321904D01*
X189666476Y-54131428D01*
X189666476Y-53893333D01*
X189714095Y-53702857D01*
X189761714Y-53607619D01*
X189809333Y-53560000D01*
X189904571Y-53512380D01*
X223369142Y-58586666D02*
X223416761Y-58634285D01*
X223464380Y-58777142D01*
X223464380Y-58872380D01*
X223416761Y-59015238D01*
X223321523Y-59110476D01*
X223226285Y-59158095D01*
X223035809Y-59205714D01*
X222892952Y-59205714D01*
X222702476Y-59158095D01*
X222607238Y-59110476D01*
X222512000Y-59015238D01*
X222464380Y-58872380D01*
X222464380Y-58777142D01*
X222512000Y-58634285D01*
X222559619Y-58586666D01*
X222464380Y-57681904D02*
X222464380Y-58158095D01*
X222940571Y-58205714D01*
X222892952Y-58158095D01*
X222845333Y-58062857D01*
X222845333Y-57824761D01*
X222892952Y-57729523D01*
X222940571Y-57681904D01*
X223035809Y-57634285D01*
X223273904Y-57634285D01*
X223369142Y-57681904D01*
X223416761Y-57729523D01*
X223464380Y-57824761D01*
X223464380Y-58062857D01*
X223416761Y-58158095D01*
X223369142Y-58205714D01*
X171299142Y-41060666D02*
X171346761Y-41108285D01*
X171394380Y-41251142D01*
X171394380Y-41346380D01*
X171346761Y-41489238D01*
X171251523Y-41584476D01*
X171156285Y-41632095D01*
X170965809Y-41679714D01*
X170822952Y-41679714D01*
X170632476Y-41632095D01*
X170537238Y-41584476D01*
X170442000Y-41489238D01*
X170394380Y-41346380D01*
X170394380Y-41251142D01*
X170442000Y-41108285D01*
X170489619Y-41060666D01*
X170394380Y-40727333D02*
X170394380Y-40108285D01*
X170775333Y-40441619D01*
X170775333Y-40298761D01*
X170822952Y-40203523D01*
X170870571Y-40155904D01*
X170965809Y-40108285D01*
X171203904Y-40108285D01*
X171299142Y-40155904D01*
X171346761Y-40203523D01*
X171394380Y-40298761D01*
X171394380Y-40584476D01*
X171346761Y-40679714D01*
X171299142Y-40727333D01*
X186233333Y-63162380D02*
X185900000Y-62686190D01*
X185661904Y-63162380D02*
X185661904Y-62162380D01*
X186042857Y-62162380D01*
X186138095Y-62210000D01*
X186185714Y-62257619D01*
X186233333Y-62352857D01*
X186233333Y-62495714D01*
X186185714Y-62590952D01*
X186138095Y-62638571D01*
X186042857Y-62686190D01*
X185661904Y-62686190D01*
X186614285Y-62257619D02*
X186661904Y-62210000D01*
X186757142Y-62162380D01*
X186995238Y-62162380D01*
X187090476Y-62210000D01*
X187138095Y-62257619D01*
X187185714Y-62352857D01*
X187185714Y-62448095D01*
X187138095Y-62590952D01*
X186566666Y-63162380D01*
X187185714Y-63162380D01*
X173942380Y-46481904D02*
X174751904Y-46481904D01*
X174847142Y-46434285D01*
X174894761Y-46386666D01*
X174942380Y-46291428D01*
X174942380Y-46100952D01*
X174894761Y-46005714D01*
X174847142Y-45958095D01*
X174751904Y-45910476D01*
X173942380Y-45910476D01*
X174275714Y-45005714D02*
X174942380Y-45005714D01*
X173894761Y-45243809D02*
X174609047Y-45481904D01*
X174609047Y-44862857D01*
D14*
X240560000Y-49830000D02*
X240560000Y-44630000D01*
X240560000Y-44630000D02*
X237900000Y-44630000D01*
X237900000Y-44630000D02*
X237900000Y-49830000D01*
X237900000Y-49830000D02*
X240560000Y-49830000D01*
X237900000Y-48880000D02*
X231900000Y-48880000D01*
X231900000Y-48880000D02*
X231900000Y-48120000D01*
X231900000Y-48120000D02*
X237900000Y-48120000D01*
X237900000Y-48820000D02*
X231900000Y-48820000D01*
X237900000Y-48700000D02*
X231900000Y-48700000D01*
X237900000Y-48580000D02*
X231900000Y-48580000D01*
X237900000Y-48460000D02*
X231900000Y-48460000D01*
X237900000Y-48340000D02*
X231900000Y-48340000D01*
X237900000Y-48220000D02*
X231900000Y-48220000D01*
X240890000Y-48880000D02*
X240560000Y-48880000D01*
X240890000Y-48120000D02*
X240560000Y-48120000D01*
X240560000Y-47230000D02*
X237900000Y-47230000D01*
X237900000Y-46340000D02*
X231900000Y-46340000D01*
X231900000Y-46340000D02*
X231900000Y-45580000D01*
X231900000Y-45580000D02*
X237900000Y-45580000D01*
X240957071Y-46340000D02*
X240560000Y-46340000D01*
X240957071Y-45580000D02*
X240560000Y-45580000D01*
X243270000Y-48500000D02*
X243270000Y-49770000D01*
X243270000Y-49770000D02*
X242000000Y-49770000D01*
X237190000Y-58127064D02*
X237190000Y-56672936D01*
X239010000Y-58127064D02*
X239010000Y-56672936D01*
X234027064Y-52810000D02*
X232572936Y-52810000D01*
X234027064Y-50990000D02*
X232572936Y-50990000D01*
D15*
X168720000Y-69595000D02*
X164020000Y-69595000D01*
X164020000Y-69595000D02*
X164020000Y-80265000D01*
X164020000Y-80265000D02*
X167170000Y-80265000D01*
D14*
X182160000Y-48987064D02*
X182160000Y-47532936D01*
X183980000Y-48987064D02*
X183980000Y-47532936D01*
X160925000Y-49405000D02*
X159925000Y-48405000D01*
X160925000Y-42035000D02*
X170055000Y-42035000D01*
X170055000Y-42035000D02*
X170055000Y-49405000D01*
X170055000Y-49405000D02*
X160925000Y-49405000D01*
X159925000Y-48405000D02*
X159925000Y-43035000D01*
X159925000Y-43035000D02*
X160925000Y-42035000D01*
X227872936Y-60050000D02*
X229327064Y-60050000D01*
X227872936Y-61870000D02*
X229327064Y-61870000D01*
X189703064Y-58526000D02*
X188248936Y-58526000D01*
X189703064Y-60346000D02*
X188248936Y-60346000D01*
X171345000Y-76325000D02*
X181715000Y-76325000D01*
X172345000Y-86455000D02*
X171345000Y-85455000D01*
X180715000Y-86455000D02*
X172345000Y-86455000D01*
X171345000Y-85455000D02*
X171345000Y-76325000D01*
X181715000Y-85455000D02*
X180715000Y-86455000D01*
X181715000Y-76325000D02*
X181715000Y-85455000D01*
X251520000Y-47625000D02*
X248860000Y-47625000D01*
X251520000Y-47625000D02*
X251520000Y-39945000D01*
X251520000Y-48895000D02*
X251520000Y-50225000D01*
X251520000Y-50225000D02*
X250190000Y-50225000D01*
X251520000Y-39945000D02*
X248860000Y-39945000D01*
X248860000Y-47625000D02*
X248860000Y-39945000D01*
X181535000Y-70561252D02*
X181535000Y-70038748D01*
X180065000Y-70561252D02*
X180065000Y-70038748D01*
D12*
X235305000Y-56795000D02*
X235030000Y-56795000D01*
X235305000Y-60045000D02*
X235030000Y-60045000D01*
X232055000Y-60045000D02*
X232230000Y-60045000D01*
X232055000Y-60045000D02*
X232055000Y-56795000D01*
X235305000Y-60045000D02*
X235305000Y-56795000D01*
X232230000Y-60045000D02*
X232230000Y-61120000D01*
X232055000Y-56795000D02*
X232330000Y-56795000D01*
D14*
X200660000Y-47685000D02*
X200660000Y-45025000D01*
X198060000Y-47685000D02*
X198060000Y-46355000D01*
X200660000Y-45025000D02*
X208340000Y-45025000D01*
X208340000Y-47685000D02*
X208340000Y-45025000D01*
X200660000Y-47685000D02*
X208340000Y-47685000D01*
X199390000Y-47685000D02*
X198060000Y-47685000D01*
X213770000Y-41070000D02*
X213770000Y-38470000D01*
X211170000Y-41070000D02*
X211170000Y-56370000D01*
X213770000Y-38470000D02*
X216370000Y-38470000D01*
X211170000Y-56370000D02*
X216370000Y-56370000D01*
X211170000Y-39800000D02*
X211170000Y-38470000D01*
X211170000Y-41070000D02*
X213770000Y-41070000D01*
X211170000Y-38470000D02*
X212500000Y-38470000D01*
X216370000Y-38470000D02*
X216370000Y-56370000D01*
X227590000Y-53672936D02*
X227590000Y-55127064D01*
X229410000Y-53672936D02*
X229410000Y-55127064D01*
X182335000Y-42918748D02*
X182335000Y-43441252D01*
X183805000Y-42918748D02*
X183805000Y-43441252D01*
X198916936Y-61066000D02*
X200371064Y-61066000D01*
X198916936Y-62886000D02*
X200371064Y-62886000D01*
X200660000Y-40580000D02*
X208340000Y-40580000D01*
X200660000Y-43240000D02*
X208340000Y-43240000D01*
X200660000Y-43240000D02*
X200660000Y-40580000D01*
X208340000Y-43240000D02*
X208340000Y-40580000D01*
X199390000Y-43240000D02*
X198060000Y-43240000D01*
X198060000Y-43240000D02*
X198060000Y-41910000D01*
X237727064Y-65680000D02*
X236272936Y-65680000D01*
X237727064Y-63860000D02*
X236272936Y-63860000D01*
D12*
X177517000Y-62865000D02*
X159483000Y-62865000D01*
X159483000Y-51435000D02*
X159483000Y-62865000D01*
X159483000Y-51435000D02*
X177517000Y-51435000D01*
X177517000Y-62865000D02*
X177517000Y-51435000D01*
D14*
X179480000Y-54230000D02*
X184880000Y-54230000D01*
X179480000Y-57530000D02*
X184880000Y-57530000D01*
X179480000Y-54230000D02*
X179480000Y-57530000D01*
X175927064Y-56127500D02*
X174472936Y-56127500D01*
X175927064Y-57947500D02*
X174472936Y-57947500D01*
X171810000Y-69315436D02*
X171810000Y-70769564D01*
X173630000Y-69315436D02*
X173630000Y-70769564D01*
X166277936Y-39095000D02*
X167732064Y-39095000D01*
X166277936Y-40915000D02*
X167732064Y-40915000D01*
X179480000Y-61086000D02*
X184880000Y-61086000D01*
X179480000Y-57786000D02*
X184880000Y-57786000D01*
X179480000Y-57786000D02*
X179480000Y-61086000D01*
X242035000Y-57411252D02*
X242035000Y-56888748D01*
X240565000Y-57411252D02*
X240565000Y-56888748D01*
X231867064Y-63860000D02*
X230412936Y-63860000D01*
X231867064Y-65680000D02*
X230412936Y-65680000D01*
X193400000Y-48987064D02*
X193400000Y-47532936D01*
X195220000Y-48987064D02*
X195220000Y-47532936D01*
X251520000Y-79365000D02*
X251520000Y-80695000D01*
X248860000Y-78095000D02*
X248860000Y-70415000D01*
X251520000Y-78095000D02*
X251520000Y-70415000D01*
X251520000Y-78095000D02*
X248860000Y-78095000D01*
X251520000Y-80695000D02*
X250190000Y-80695000D01*
X251520000Y-70415000D02*
X248860000Y-70415000D01*
X198340000Y-38020000D02*
X198640000Y-38020000D01*
X185980000Y-37920000D02*
X200100000Y-37920000D01*
X198640000Y-38120000D02*
X198640000Y-37920000D01*
X200100000Y-36610000D02*
X199490000Y-36610000D01*
X199490000Y-37310000D02*
X199490000Y-33810000D01*
X185980000Y-33200000D02*
X185980000Y-37920000D01*
X186590000Y-33810000D02*
X186590000Y-37310000D01*
X200400000Y-38220000D02*
X200400000Y-36970000D01*
X198340000Y-37920000D02*
X198340000Y-38120000D01*
X199150000Y-38220000D02*
X200400000Y-38220000D01*
X185980000Y-36610000D02*
X186590000Y-36610000D01*
X198340000Y-38120000D02*
X198640000Y-38120000D01*
X200100000Y-37920000D02*
X200100000Y-33200000D01*
X188540000Y-37310000D02*
X188540000Y-37920000D01*
X197540000Y-37920000D02*
X197540000Y-37310000D01*
X185980000Y-35310000D02*
X186590000Y-35310000D01*
X186590000Y-37310000D02*
X188540000Y-37310000D01*
X197540000Y-37310000D02*
X199490000Y-37310000D01*
X200100000Y-35310000D02*
X199490000Y-35310000D01*
X183590000Y-37920000D02*
X183590000Y-33200000D01*
X182130000Y-38120000D02*
X182130000Y-37920000D01*
X182640000Y-38220000D02*
X183890000Y-38220000D01*
X181030000Y-37920000D02*
X181030000Y-37310000D01*
X183890000Y-38220000D02*
X183890000Y-36970000D01*
X183590000Y-35310000D02*
X182980000Y-35310000D01*
X169470000Y-35310000D02*
X170080000Y-35310000D01*
X181830000Y-38020000D02*
X182130000Y-38020000D01*
X181030000Y-37310000D02*
X182980000Y-37310000D01*
X183590000Y-36610000D02*
X182980000Y-36610000D01*
X170080000Y-33810000D02*
X170080000Y-37310000D01*
X170080000Y-37310000D02*
X172030000Y-37310000D01*
X182980000Y-37310000D02*
X182980000Y-33810000D01*
X181830000Y-37920000D02*
X181830000Y-38120000D01*
X169470000Y-37920000D02*
X183590000Y-37920000D01*
X172030000Y-37310000D02*
X172030000Y-37920000D01*
X181830000Y-38120000D02*
X182130000Y-38120000D01*
X169470000Y-33200000D02*
X169470000Y-37920000D01*
X169470000Y-36610000D02*
X170080000Y-36610000D01*
X174970000Y-70235000D02*
X174970000Y-69585000D01*
X174970000Y-70235000D02*
X174970000Y-70885000D01*
X178090000Y-70235000D02*
X178090000Y-70885000D01*
X178090000Y-70235000D02*
X178090000Y-68560000D01*
X196998000Y-64227064D02*
X196998000Y-62772936D01*
X195178000Y-64227064D02*
X195178000Y-62772936D01*
X190265000Y-63015000D02*
X190265000Y-66900000D01*
X192535000Y-66900000D02*
X192535000Y-63015000D01*
X192535000Y-63015000D02*
X190265000Y-63015000D01*
X198680000Y-57598000D02*
X198680000Y-60258000D01*
X206420000Y-57598000D02*
X206420000Y-58928000D01*
X203820000Y-60258000D02*
X198680000Y-60258000D01*
X205090000Y-57598000D02*
X206420000Y-57598000D01*
X203820000Y-57598000D02*
X198680000Y-57598000D01*
X203820000Y-57598000D02*
X203820000Y-60258000D01*
X186690000Y-84201000D02*
X186690000Y-78359000D01*
X186690000Y-76581000D02*
X186690000Y-70739000D01*
X186690000Y-86614000D02*
X186690000Y-85979000D01*
X196850000Y-68961000D02*
X196850000Y-68326000D01*
X196850000Y-85979000D02*
X196850000Y-86614000D01*
X196850000Y-75819000D02*
X196850000Y-84201000D01*
X196850000Y-86614000D02*
X186690000Y-86614000D01*
X186690000Y-68326000D02*
X186690000Y-68961000D01*
X196850000Y-70739000D02*
X196850000Y-74041000D01*
X196850000Y-68326000D02*
X186690000Y-68326000D01*
D15*
X162370000Y-69595000D02*
X157670000Y-69595000D01*
X157670000Y-69595000D02*
X157670000Y-80265000D01*
X157670000Y-80265000D02*
X160820000Y-80265000D01*
D14*
X193575000Y-42918748D02*
X193575000Y-43441252D01*
X195045000Y-42918748D02*
X195045000Y-43441252D01*
D12*
X186655000Y-43645000D02*
X186800000Y-43645000D01*
X191805000Y-47795000D02*
X191660000Y-47795000D01*
X191805000Y-47795000D02*
X191805000Y-43645000D01*
X186705000Y-47795000D02*
X186705000Y-49195000D01*
X186655000Y-47795000D02*
X186655000Y-43645000D01*
X191805000Y-43645000D02*
X191660000Y-43645000D01*
X186655000Y-47795000D02*
X186705000Y-47795000D01*
D14*
X166890000Y-64190000D02*
X166890000Y-67890000D01*
X160770000Y-64190000D02*
X166890000Y-64190000D01*
X160770000Y-67890000D02*
X160770000Y-64190000D01*
X166890000Y-67890000D02*
X160770000Y-67890000D01*
X213970000Y-87720000D02*
X213970000Y-76560000D01*
X213970000Y-76560000D02*
X214570000Y-76560000D01*
X199630000Y-76560000D02*
X199630000Y-87720000D01*
X213970000Y-64480000D02*
X213970000Y-66050000D01*
X199630000Y-87720000D02*
X213970000Y-87720000D01*
X213970000Y-64480000D02*
X212080000Y-64480000D01*
X199630000Y-64480000D02*
X199630000Y-66050000D01*
X201520000Y-64480000D02*
X199630000Y-64480000D01*
X218410000Y-87600000D02*
X246410000Y-87600000D01*
X246410000Y-87600000D02*
X246410000Y-39400000D01*
X246410000Y-39400000D02*
X218410000Y-39400000D01*
X218410000Y-39400000D02*
X218410000Y-87600000D01*
X240665000Y-39370000D02*
X224155000Y-39370000D01*
X224155000Y-39370000D02*
X224155000Y-33020000D01*
X224155000Y-33020000D02*
X240665000Y-33020000D01*
X240665000Y-33020000D02*
X240665000Y-39370000D01*
X188248936Y-56790000D02*
X189703064Y-56790000D01*
X188248936Y-54970000D02*
X189703064Y-54970000D01*
X225525000Y-58158748D02*
X225525000Y-58681252D01*
X224055000Y-58158748D02*
X224055000Y-58681252D01*
X171985000Y-41328748D02*
X171985000Y-41851252D01*
X173455000Y-41328748D02*
X173455000Y-41851252D01*
X187127064Y-63590000D02*
X185672936Y-63590000D01*
X187127064Y-65410000D02*
X185672936Y-65410000D01*
D12*
X180565000Y-47795000D02*
X180565000Y-43645000D01*
X175465000Y-47795000D02*
X175465000Y-49195000D01*
X180565000Y-47795000D02*
X180420000Y-47795000D01*
X180565000Y-43645000D02*
X180420000Y-43645000D01*
X175415000Y-47795000D02*
X175415000Y-43645000D01*
X175415000Y-47795000D02*
X175465000Y-47795000D01*
X175415000Y-43645000D02*
X175560000Y-43645000D01*
D14*
X206435000Y-53788000D02*
X206435000Y-55118000D01*
X203835000Y-53788000D02*
X198695000Y-53788000D01*
X198695000Y-53788000D02*
X198695000Y-56448000D01*
X205105000Y-53788000D02*
X206435000Y-53788000D01*
X203835000Y-53788000D02*
X203835000Y-56448000D01*
X203835000Y-56448000D02*
X198695000Y-56448000D01*
X248860000Y-53975000D02*
X248860000Y-52645000D01*
X248860000Y-55245000D02*
X251520000Y-55245000D01*
X248860000Y-55245000D02*
X248860000Y-68005000D01*
X251520000Y-55245000D02*
X251520000Y-68005000D01*
X248860000Y-68005000D02*
X251520000Y-68005000D01*
X248860000Y-52645000D02*
X250190000Y-52645000D01*
M02*
